<?xml version="1.0" encoding="UTF-8"?>
<svg version="1.1" xmlns="http://www.w3.org/2000/svg" width="512" height="512">
<path d="M0 0 C1.01790619 0.00215515 2.03581238 0.0043103 3.08456421 0.00653076 C17.69363523 0.05620146 32.02575853 0.30709809 46.375 3.3125 C47.34985352 3.51117676 48.32470703 3.70985352 49.32910156 3.91455078 C97.7109774 14.03517194 141.69928269 35.9516877 177.375 70.3125 C178.3640332 71.26068604 178.3640332 71.26068604 179.37304688 72.22802734 C188.86130305 81.37247479 197.6012044 90.66984009 205.375 101.3125 C206.23306152 102.46355017 207.09113451 103.61459177 207.94921875 104.765625 C213.98736829 112.95680614 219.34595521 121.47054105 224.375 130.3125 C224.73948242 130.94430176 225.10396484 131.57610352 225.47949219 132.22705078 C247.08534998 169.97532572 256.85198095 212.74189997 256.6875 255.9375 C256.68534485 256.95540619 256.6831897 257.97331238 256.68096924 259.02206421 C256.63129854 273.63113523 256.38040191 287.96325853 253.375 302.3125 C253.07698486 303.77478027 253.07698486 303.77478027 252.77294922 305.26660156 C242.65232806 353.6484774 220.7358123 397.63678269 186.375 433.3125 C185.74287598 433.97185547 185.11075195 434.63121094 184.45947266 435.31054688 C175.31502521 444.79880305 166.01765991 453.5387044 155.375 461.3125 C154.22394983 462.17056152 153.07290823 463.02863451 151.921875 463.88671875 C143.73224019 469.92427396 135.22961724 475.30707302 126.375 480.3125 C125.66778809 480.7146875 124.96057617 481.116875 124.23193359 481.53125 C101.09654164 494.5566741 75.92537591 503.30551461 49.9375 508.625 C49.21860596 508.77235596 48.49971191 508.91971191 47.7590332 509.0715332 C33.08339502 511.86090125 18.55831162 512.66142619 3.64770508 512.62817383 C0.70811513 512.6250221 -2.2304558 512.64854926 -5.16992188 512.67382812 C-18.54306192 512.71848737 -31.43916711 511.51301542 -44.625 509.3125 C-46.33055054 509.03031616 -46.33055054 509.03031616 -48.07055664 508.74243164 C-91.33802759 500.97044532 -132.38793216 480.98345309 -165.625 452.3125 C-166.37007813 451.67828125 -167.11515625 451.0440625 -167.8828125 450.390625 C-181.38779833 438.57948485 -194.05918743 425.82889772 -204.625 411.3125 C-205.48149066 410.16255169 -206.33826433 409.01281411 -207.1953125 407.86328125 C-213.23534209 399.67315742 -218.61867614 391.16870382 -223.625 382.3125 C-224.0271875 381.60528809 -224.429375 380.89807617 -224.84375 380.16943359 C-237.8691741 357.03404164 -246.61801461 331.86287591 -251.9375 305.875 C-252.08485596 305.15610596 -252.23221191 304.43721191 -252.3840332 303.6965332 C-255.35789088 288.05024391 -255.99800362 272.57681954 -255.9375 256.6875 C-255.93534485 255.66959381 -255.9331897 254.65168762 -255.93096924 253.60293579 C-255.88129854 238.99386477 -255.63040191 224.66174147 -252.625 210.3125 C-252.42632324 209.33764648 -252.22764648 208.36279297 -252.02294922 207.35839844 C-241.90232806 158.9765226 -219.9858123 114.98821731 -185.625 79.3125 C-184.99287598 78.65314453 -184.36075195 77.99378906 -183.70947266 77.31445312 C-174.56502521 67.82619695 -165.26765991 59.0862956 -154.625 51.3125 C-153.47394983 50.45443848 -152.32290823 49.59636549 -151.171875 48.73828125 C-142.98224019 42.70072604 -134.47961724 37.31792698 -125.625 32.3125 C-124.91778809 31.9103125 -124.21057617 31.508125 -123.48193359 31.09375 C-100.34654164 18.0683259 -75.17537591 9.31948539 -49.1875 4 C-48.46860596 3.85264404 -47.74971191 3.70528809 -47.0090332 3.5534668 C-31.36274391 0.57960912 -15.88931954 -0.06050362 0 0 Z " fill="#D80027" transform="translate(255.625,-0.3125)"/>
<path d="M0 0 C1.01790619 0.00215515 2.03581238 0.0043103 3.08456421 0.00653076 C17.69363523 0.05620146 32.02575853 0.30709809 46.375 3.3125 C47.34985352 3.51117676 48.32470703 3.70985352 49.32910156 3.91455078 C97.7109774 14.03517194 141.69928269 35.9516877 177.375 70.3125 C178.3640332 71.26068604 178.3640332 71.26068604 179.37304688 72.22802734 C188.86130305 81.37247479 197.6012044 90.66984009 205.375 101.3125 C206.23306152 102.46355017 207.09113451 103.61459177 207.94921875 104.765625 C213.9859578 112.95489272 219.35937059 121.46475374 224.375 130.3125 C224.93767578 131.30008301 224.93767578 131.30008301 225.51171875 132.30761719 C231.93336169 143.68795199 236.47191365 155.05478412 241.375 167.3125 C82.315 167.3125 -76.745 167.3125 -240.625 167.3125 C-231.23672636 143.8418159 -231.23672636 143.8418159 -227.5 136.875 C-227.04753906 136.02284912 -226.59507812 135.17069824 -226.12890625 134.29272461 C-215.21194657 114.19676463 -201.4730238 95.76698926 -185.625 79.3125 C-184.99287598 78.65314453 -184.36075195 77.99378906 -183.70947266 77.31445312 C-174.56502521 67.82619695 -165.26765991 59.0862956 -154.625 51.3125 C-153.47394983 50.45443848 -152.32290823 49.59636549 -151.171875 48.73828125 C-142.98224019 42.70072604 -134.47961724 37.31792698 -125.625 32.3125 C-124.91778809 31.9103125 -124.21057617 31.508125 -123.48193359 31.09375 C-100.34654164 18.0683259 -75.17537591 9.31948539 -49.1875 4 C-48.46860596 3.85264404 -47.74971191 3.70528809 -47.0090332 3.5534668 C-31.36274391 0.57960912 -15.88931954 -0.06050362 0 0 Z " fill="#EFEFEF" transform="translate(255.625,-0.3125)"/>
<path d="M0 0 C159.06 0 318.12 0 482 0 C472.61172636 23.4706841 472.61172636 23.4706841 468.875 30.4375 C468.19630859 31.71572632 468.19630859 31.71572632 467.50390625 33.01977539 C456.58694657 53.11573537 442.8480238 71.54551074 427 88 C426.36787598 88.65935547 425.73575195 89.31871094 425.08447266 89.99804688 C415.94002521 99.48630305 406.64265991 108.2262044 396 116 C394.84894983 116.85806152 393.69790823 117.71613451 392.546875 118.57421875 C384.35724019 124.61177396 375.85461724 129.99457302 367 135 C365.93918213 135.60328125 365.93918213 135.60328125 364.85693359 136.21875 C341.72154164 149.2441741 316.55037591 157.99301461 290.5625 163.3125 C289.84360596 163.45985596 289.12471191 163.60721191 288.3840332 163.7590332 C273.70839502 166.54840125 259.18331162 167.34892619 244.27270508 167.31567383 C241.33311513 167.3125221 238.3945442 167.33604926 235.45507812 167.36132812 C222.08193808 167.40598737 209.18583289 166.20051542 196 164 C194.86296631 163.81187744 193.72593262 163.62375488 192.55444336 163.42993164 C149.28697241 155.65794532 108.23706784 135.67095309 75 107 C74.25492187 106.36578125 73.50984375 105.7315625 72.7421875 105.078125 C59.23720167 93.26698485 46.56581257 80.51639772 36 66 C35.14350934 64.85005169 34.28673567 63.70031411 33.4296875 62.55078125 C25.27390605 51.49175263 18.39276878 39.77149307 11.875 27.6875 C11.49150391 26.99052002 11.10800781 26.29354004 10.71289062 25.57543945 C6.31727534 17.26880138 3.475535 8.93708999 0 0 Z " fill="#EFEFEF" transform="translate(15,345)"/>
<path d="M0 0 C1.01790619 0.00215515 2.03581238 0.0043103 3.08456421 0.00653076 C17.69363523 0.05620146 32.02575853 0.30709809 46.375 3.3125 C47.34985352 3.51117676 48.32470703 3.70985352 49.32910156 3.91455078 C103.23672018 15.19105828 147.73920091 40.92023588 186.625 79.375 C187.38917236 80.12604004 188.15334473 80.87708008 188.94067383 81.65087891 C189.64603271 82.35519043 190.3513916 83.05950195 191.078125 83.78515625 C191.71395508 84.41687744 192.34978516 85.04859863 193.00488281 85.69946289 C194.375 87.3125 194.375 87.3125 194.375 89.3125 C66.335 89.3125 -61.705 89.3125 -193.625 89.3125 C-191.67601666 85.41453332 -189.9209538 83.33790802 -186.890625 80.27734375 C-186.42081711 79.80198181 -185.95100922 79.32661987 -185.46696472 78.83685303 C-183.94297977 77.30107487 -182.41019392 75.77456912 -180.875 74.25 C-180.35334259 73.72983307 -179.83168518 73.20966614 -179.29421997 72.67373657 C-171.49948722 64.9191759 -163.5825038 57.70600087 -154.625 51.3125 C-153.48054596 50.46388898 -152.33734599 49.61358447 -151.1953125 48.76171875 C-143.00271579 42.709355 -134.48914286 37.32331172 -125.625 32.3125 C-124.91778809 31.9103125 -124.21057617 31.508125 -123.48193359 31.09375 C-100.34654164 18.0683259 -75.17537591 9.31948539 -49.1875 4 C-48.46860596 3.85264404 -47.74971191 3.70528809 -47.0090332 3.5534668 C-31.36274391 0.57960912 -15.88931954 -0.06050362 0 0 Z " fill="#0152B4" transform="translate(255.625,-0.3125)"/>
<path d="M0 0 C128.04 0 256.08 0 388 0 C386.05101666 3.89796668 384.2959538 5.97459198 381.265625 9.03515625 C380.79581711 9.51051819 380.32600922 9.98588013 379.84196472 10.47564697 C378.31797977 12.01142513 376.78519392 13.53793088 375.25 15.0625 C374.72834259 15.58266693 374.20668518 16.10283386 373.66921997 16.63876343 C365.87448722 24.3933241 357.9575038 31.60649913 349 38 C347.85554596 38.84861102 346.71234599 39.69891553 345.5703125 40.55078125 C337.37771579 46.603145 328.86414286 51.98918828 320 57 C319.29278809 57.4021875 318.58557617 57.804375 317.85693359 58.21875 C294.72154164 71.2441741 269.55037591 79.99301461 243.5625 85.3125 C242.84360596 85.45985596 242.12471191 85.60721191 241.3840332 85.7590332 C226.70839502 88.54840125 212.18331162 89.34892619 197.27270508 89.31567383 C194.33311513 89.3125221 191.3945442 89.33604926 188.45507812 89.36132812 C175.08193808 89.40598737 162.18583289 88.20051542 149 86 C147.86296631 85.81187744 146.72593262 85.62375488 145.55444336 85.42993164 C102.28697241 77.65794532 61.23706784 57.67095309 28 29 C27.25492188 28.36578125 26.50984375 27.7315625 25.7421875 27.078125 C19.72276038 21.81367687 14.05485068 16.18816735 8.375 10.5625 C7.55572021 9.75627197 6.73644043 8.95004395 5.89233398 8.11938477 C5.13122314 7.35940186 4.3701123 6.59941895 3.5859375 5.81640625 C2.8954834 5.13006104 2.2050293 4.44371582 1.49365234 3.73657227 C0 2 0 2 0 0 Z " fill="#0152B4" transform="translate(62,423)"/>
</svg>
