<?xml version="1.0" encoding="UTF-8"?>
<svg version="1.1" xmlns="http://www.w3.org/2000/svg" width="48" height="48">
<path d="M0 0 C3.03852705 1.40976705 5.5939595 3.08870228 8.25 5.125 C8.95640625 5.66382813 9.6628125 6.20265625 10.390625 6.7578125 C10.92171875 7.16773438 11.4528125 7.57765625 12 8 C11.64037102 10.85179471 11.11014144 11.89395384 9.00390625 13.921875 C8.19824219 14.52515625 7.39257812 15.1284375 6.5625 15.75 C5.35787109 16.67039062 5.35787109 16.67039062 4.12890625 17.609375 C2 19 2 19 0 19 C0 17.02 0 15.04 0 13 C-9.24 13 -18.48 13 -28 13 C-28 10.69 -28 8.38 -28 6 C-18.76 6 -9.52 6 0 6 C0 4.02 0 2.04 0 0 Z " fill="#FDFC03" transform="translate(32,25)"/>
<path d="M0 0 C0 1.98 0 3.96 0 6 C9.24 6 18.48 6 28 6 C28 8.31 28 10.62 28 13 C18.76 13 9.52 13 0 13 C0 14.98 0 16.96 0 19 C-3.03852705 17.59023295 -5.5939595 15.91129772 -8.25 13.875 C-8.95640625 13.33617187 -9.6628125 12.79734375 -10.390625 12.2421875 C-10.92171875 11.83226562 -11.4528125 11.42234375 -12 11 C-11.64037102 8.14820529 -11.11014144 7.10604616 -9.00390625 5.078125 C-8.19824219 4.47484375 -7.39257812 3.8715625 -6.5625 3.25 C-5.75941406 2.63640625 -4.95632812 2.0228125 -4.12890625 1.390625 C-2 0 -2 0 0 0 Z " fill="#FEFC03" transform="translate(16,4)"/>
</svg>
