<?xml version="1.0" encoding="UTF-8"?>
<svg version="1.1" xmlns="http://www.w3.org/2000/svg" width="1080" height="366">
<path d="M0 0 C10.23 0 20.46 0 31 0 C32.03253906 2.81789062 33.06507813 5.63578125 34.12890625 8.5390625 C43.85748516 35.07286228 53.65302424 61.58116997 63.49121094 88.07446289 C64.45771367 90.67723444 65.42418089 93.28001918 66.390625 95.8828125 C66.62741722 96.52050253 66.86420944 97.15819256 67.10817719 97.81520653 C70.47069461 106.87126559 73.82530828 115.93021981 77.171875 124.9921875 C77.57160019 126.07456192 77.97132538 127.15693634 78.38316345 128.27210999 C80.23974558 133.30036828 82.09519576 138.32904187 83.94946289 143.3581543 C84.59781334 145.11507371 85.24616912 146.87199115 85.89453125 148.62890625 C86.18297913 149.41228363 86.471427 150.19566101 86.76861572 151.0027771 C87.03551208 151.72574982 87.30240845 152.44872253 87.57739258 153.19360352 C87.82220367 153.85731964 88.06701477 154.52103577 88.31924438 155.2048645 C88.90973762 156.76198037 89.54779939 158.30089754 90.1940918 159.83569336 C91 162 91 162 91 165 C81.43 165 71.86 165 62 165 C59.5936607 158.98415176 57.20958542 152.99038111 54.984375 146.91015625 C54.72368225 146.19895126 54.4629895 145.48774628 54.19439697 144.75498962 C53.65248779 143.27407209 53.11145438 141.7928338 52.57128906 140.3112793 C51.74218723 138.04110778 50.90626536 135.77351563 50.0703125 133.50585938 C49.54124629 132.05744515 49.01258536 130.60888281 48.484375 129.16015625 C48.23443787 128.48517593 47.98450073 127.81019562 47.72698975 127.11476135 C46.69380939 124.25987632 46 122.06313645 46 119 C25.87 119.33 5.74 119.66 -15 120 C-22.92 142.275 -22.92 142.275 -31 165 C-40.57 165 -50.14 165 -60 165 C-58.87507821 158.25046924 -58.87507821 158.25046924 -57.6875 155.1015625 C-57.28836395 154.03075188 -57.28836395 154.03075188 -56.88116455 152.93830872 C-56.59038025 152.17491684 -56.29959595 151.41152496 -56 150.625 C-55.53941193 149.39549873 -55.53941193 149.39549873 -55.06951904 148.14115906 C-54.4023703 146.36211996 -53.73273999 144.58400992 -53.06091309 142.80673218 C-51.97748028 139.94042224 -50.90046895 137.07177266 -49.82519531 134.20239258 C-48.69309033 131.18138596 -47.56065251 128.16051008 -46.42633057 125.14033508 C-42.844298 115.60126366 -39.30812308 106.0455606 -35.78213501 96.48565674 C-34.03207301 91.741173 -32.27961021 86.99757616 -30.52734375 82.25390625 C-29.98988777 80.79872589 -29.98988777 80.79872589 -29.4415741 79.31414795 C-25.17842123 67.77298026 -20.90755638 56.23466808 -16.63513184 44.69692993 C-15.76578009 42.34913861 -14.89655432 40.00130064 -14.02746582 37.65341187 C-9.37777585 25.09234122 -4.71464681 12.53684758 0 0 Z M15 26 C14.83097168 26.6084375 14.66194336 27.216875 14.48779297 27.84375 C9.53780198 45.47829551 3.72533207 62.72075679 -2.42626953 79.96679688 C-2.8792894 81.24066505 -2.8792894 81.24066505 -3.34146118 82.54026794 C-3.91450144 84.14950302 -4.49052424 85.75768 -5.06991577 87.36463928 C-6.49385213 91.08889655 -6.49385213 91.08889655 -7 95 C7.85 95 22.7 95 38 95 C37.3570743 91.14244579 36.86721037 88.22905725 35.60473633 84.68896484 C35.32386673 83.89307953 35.04299713 83.09719421 34.75361633 82.27719116 C34.44949326 81.43032745 34.14537018 80.58346375 33.83203125 79.7109375 C33.51473557 78.81243073 33.19743988 77.91392395 32.87052917 76.9881897 C31.85587349 74.11544026 30.83497132 71.24497623 29.8125 68.375 C24.81641047 54.35054873 20.13693703 40.3036228 16 26 C15.67 26 15.34 26 15 26 Z " fill="#125034" transform="translate(563,176)"/>
<path d="M0 0 C30.69 0 61.38 0 93 0 C93 7.59 93 15.18 93 23 C71.22 23 49.44 23 27 23 C27 37.52 27 52.04 27 67 C47.46 67 67.92 67 89 67 C89 74.59 89 82.18 89 90 C68.54 90 48.08 90 27 90 C27 106.83 27 123.66 27 141 C48.78 141 70.56 141 93 141 C93 148.92 93 156.84 93 165 C62.31 165 31.62 165 0 165 C0 110.55 0 56.1 0 0 Z " fill="#125034" transform="translate(963,176)"/>
<path d="M0 0 C4.29 0 8.58 0 13 0 C13 103.62 13 207.24 13 314 C87.91 314 162.82 314 240 314 C240 315.65 240 317.3 240 319 C243.3 319.33 246.6 319.66 250 320 C248.700625 319.38125 247.40125 318.7625 246.0625 318.125 C242.125 316.25 242.125 316.25 241 314 C269.38 314 297.76 314 327 314 C327 318.29 327 322.58 327 327 C219.09 327 111.18 327 0 327 C0 219.09 0 111.18 0 0 Z " fill="#125034" transform="translate(27,26)"/>
<path d="M0 0 C1 2 1 2 0.37915039 4.15478516 C0.03875732 5.02409668 -0.30163574 5.8934082 -0.65234375 6.7890625 C-1.01650391 7.73007813 -1.38066406 8.67109375 -1.75585938 9.640625 C-2.34077148 11.11789063 -2.34077148 11.11789063 -2.9375 12.625 C-3.32357422 13.61757812 -3.70964844 14.61015625 -4.10742188 15.6328125 C-5.06481137 18.09129417 -6.02925759 20.54676682 -7 23 C-10.62472677 22.31496632 -14.06050617 21.38315808 -17.5690918 20.23510742 C-31.95439431 15.52883638 -47.45819436 11.66683979 -62 18 C-66.27733987 20.63920971 -68.35680547 23.24338425 -70 28 C-70.74802851 33.95686122 -70.72690766 39.79089562 -67.53833008 45.03833008 C-61.93489361 52.18380096 -52.47250653 55.90775063 -44.375 59.4375 C-42.25195803 60.39309703 -40.12956281 61.35013222 -38.0078125 62.30859375 C-35.18348416 63.57523802 -32.3586364 64.84053514 -29.53027344 66.09814453 C-17.36171344 71.5630507 -6.20858598 78.37176587 0.1328125 90.63671875 C4.87870716 103.5703506 4.78520303 118.41675423 -1 131 C-7.98495691 142.95039048 -19.39787219 149.82633674 -32.375 153.7109375 C-48.07051706 157.57876135 -64.18229905 156.0711866 -80 154 C-81.0828125 153.86722656 -82.165625 153.73445312 -83.28125 153.59765625 C-90.24733246 152.57035476 -93.37625646 150.67985752 -100 147 C-100 138.75 -100 130.5 -100 122 C-95.77375846 122.84524831 -92.10827075 123.95012876 -88.0625 125.375 C-72.45724039 130.67554891 -51.49491246 136.10378442 -35.625 128.92578125 C-30.60535394 126.00073014 -26.87771355 122.63314064 -25 117 C-24.27212101 110.56347004 -24.34844295 105.20479308 -28.34594727 99.90209961 C-33.36640497 94.1287585 -40.06747863 90.7183718 -46.9375 87.625 C-47.75798828 87.2441626 -48.57847656 86.8633252 -49.42382812 86.47094727 C-53.4783352 84.59133575 -57.55038978 82.75257112 -61.62890625 80.92578125 C-77.15073068 73.90946472 -89.17814211 66.14077319 -96 50 C-100.24855554 38.26589422 -99.00194404 24.61144394 -93.81640625 13.453125 C-88.01154041 2.59983477 -78.51373081 -3.3190303 -67 -7 C-46.12493567 -13.04914377 -19.40337214 -9.80170345 0 0 Z " fill="#125034" transform="translate(933,185)"/>
<path d="M0 0 C30.69 0 61.38 0 93 0 C93 7.59 93 15.18 93 23 C71.55 23 50.1 23 28 23 C28 39.83 28 56.66 28 74 C48.13 74 68.26 74 89 74 C89 81.59 89 89.18 89 97 C68.87 97 48.74 97 28 97 C28 119.44 28 141.88 28 165 C18.76 165 9.52 165 0 165 C0 110.55 0 56.1 0 0 Z " fill="#125034" transform="translate(660,176)"/>
<path d="M0 0 C9.24 0 18.48 0 28 0 C28 46.53 28 93.06 28 141 C50.77 141 73.54 141 97 141 C97 148.92 97 156.84 97 165 C64.99 165 32.98 165 0 165 C0 110.55 0 56.1 0 0 Z " fill="#125034" transform="translate(400,176)"/>
<path d="M0 0 C1.32 0 2.64 0 4 0 C4 1.32 4 2.64 4 4 C5.65 4.33 7.3 4.66 9 5 C9.33 5.99 9.66 6.98 10 8 C10.99 7.67 11.98 7.34 13 7 C13 82.57 13 158.14 13 236 C74.38 236 135.76 236 199 236 C199 240.62 199 245.24 199 250 C133.33 250 67.66 250 0 250 C-0.29128197 187.55362786 -0.29128197 187.55362786 -0.40429688 161.53710938 C-0.43018036 155.58162401 -0.45612661 149.62613893 -0.48217773 143.6706543 C-0.48544042 142.92418323 -0.4887031 142.17771217 -0.49206465 141.40862077 C-0.5448989 129.34160215 -0.60127927 117.27460254 -0.6589582 105.2076062 C-0.71802969 92.83285076 -0.77331647 80.45808263 -0.82505554 68.08329433 C-0.8571274 60.44122786 -0.89218678 52.79918689 -0.93101191 45.15715169 C-0.96041728 39.30713895 -0.98456888 33.45711212 -1.00670624 27.60706711 C-1.01665109 25.19993116 -1.02833404 22.79280171 -1.04183006 20.38568306 C-1.05991606 17.11487368 -1.07191196 13.84409897 -1.08229065 10.57325745 C-1.08909444 9.60732416 -1.09589823 8.64139088 -1.10290819 7.64618689 C-1.10514671 6.34215207 -1.10514671 6.34215207 -1.10743046 5.01177311 C-1.11084794 4.25574993 -1.11426542 3.49972675 -1.11778647 2.72079378 C-1 1 -1 1 0 0 Z " fill="#125034" transform="translate(53,78)"/>
<path d="M0 0 C57.30930233 0 57.30930233 0 67 9 C72.41426936 15.96766698 72.61098886 23.50070859 72 32 C70.8731424 37.06257348 68.73091692 41.36991867 65 45 C62.40779016 46.51751248 59.75368902 47.80361569 57 49 C57.65226562 49.27972656 58.30453125 49.55945313 58.9765625 49.84765625 C66.02997491 53.08307109 71.15329322 56.4341767 74.1328125 63.80078125 C76.6461954 73.07312627 75.7541421 82.65782613 71 91 C66.83080819 98.04068815 60.58157968 100.5306295 53 103 C35.67332475 106.46533505 17.66981104 104 0 104 C0 69.68 0 35.36 0 0 Z M18 15 C18 24.24 18 33.48 18 43 C34.67204939 44.11736738 34.67204939 44.11736738 49.6875 38.5 C53.53798614 34.33731228 53.35216838 31.21635908 53.265625 25.69921875 C53.14103805 22.85588796 53.14103805 22.85588796 51.5625 20 C44.71682237 14.6570321 36.78830481 14.59866793 28.4375 14.8125 C24.993125 14.874375 21.54875 14.93625 18 15 Z M18 57 C18 67.56 18 78.12 18 89 C23.6925 89.0928125 23.6925 89.0928125 29.5 89.1875 C30.68013672 89.21481201 31.86027344 89.24212402 33.07617188 89.27026367 C39.67772539 89.32208208 46.42649235 89.34366575 51.55249023 84.54736328 C55.68614683 79.74261595 56.30947289 76.68951554 56.203125 70.5390625 C55.91543195 66.94289936 55.19527064 64.88129271 53 62 C45.30897932 56.71985114 37.12417032 56.85885296 28.125 56.9375 C23.113125 56.9684375 23.113125 56.9684375 18 57 Z " fill="#125034" transform="translate(400,39)"/>
<path d="M0 0 C4.33791038 1.34268655 7.86425357 2.93212679 12 5 C12 73.31 12 141.62 12 212 C63.81 212 115.62 212 169 212 C169 216.29 169 220.58 169 225 C112.9 225 56.8 225 -1 225 C-1.04030303 168.86682956 -1.04030303 168.86682956 -1.04882812 145.42382812 C-1.05079192 140.0664876 -1.05280665 134.7091471 -1.05493164 129.35180664 C-1.05519539 128.68030895 -1.05545914 128.00881127 -1.05573088 127.31696516 C-1.0600856 116.46222111 -1.06797238 105.60748233 -1.0771528 94.7527414 C-1.08648929 83.62098514 -1.0919807 72.48923068 -1.09408849 61.35747045 C-1.09539602 55.10151396 -1.09848451 48.84556944 -1.10573006 42.58961678 C-1.1124864 36.70875037 -1.11461775 30.82790094 -1.11310768 24.94703102 C-1.11338418 22.78178566 -1.11539158 20.61653978 -1.11920547 18.45129776 C-1.12413669 15.50889747 -1.12300041 12.56656238 -1.12025452 9.62416077 C-1.12316736 8.75550119 -1.1260802 7.88684161 -1.12908131 6.99185902 C-1.11412121 1.11412121 -1.11412121 1.11412121 0 0 Z " fill="#125034" transform="translate(79,77)"/>
<path d="M0 0 C8.91 0 17.82 0 27 0 C27 54.45 27 108.9 27 165 C18.09 165 9.18 165 0 165 C0 110.55 0 56.1 0 0 Z " fill="#125034" transform="translate(779,176)"/>
<path d="M0 0 C2.16866801 2.16866801 3.45460528 4.35995069 5 7 C5.99 8.485 5.99 8.485 7 10 C6.60013798 13.43543424 5.52031144 16.6004108 4.4375 19.875 C2.25983276 27.06276095 2.25983276 27.06276095 4.125 34.13671875 C5.01669939 35.5477317 5.9424142 36.93802452 6.90625 38.30078125 C8 40 8 40 8 42 C9.65 42.66 11.3 43.32 13 44 C13 82.94 13 121.88 13 162 C56.23 162 99.46 162 144 162 C143.67 166.29 143.34 170.58 143 175 C95.81 175 48.62 175 0 175 C0 117.25 0 59.5 0 0 Z " fill="#125034" transform="translate(103,102)"/>
<path d="M0 0 C0.7115625 0.4125 1.423125 0.825 2.15625 1.25 C10.37597709 6.64802973 14.75987949 15.63131824 17 25 C17.42457126 28.78126258 17.47713132 32.51009463 17.4375 36.3125 C17.42992676 37.32707275 17.42235352 38.34164551 17.41455078 39.38696289 C17.17136949 50.44816146 14.88634647 59.87742656 7 68 C-1.45175458 75.69775988 -10.90483405 78.38113032 -22.22265625 78.2109375 C-32.37474602 77.43989271 -40.79374354 74.29922533 -47.96875 66.99609375 C-56.62380683 56.74571924 -58.90916082 44.10844599 -58 31 C-56.28228761 18.86781093 -53.13701817 9.6226894 -43.48046875 1.73046875 C-31.90826241 -6.34273976 -12.2094271 -7.5134936 0 0 Z M-36 18 C-41.04973677 28.09947353 -41.07233976 40.26217253 -38 51 C-35.76634263 56.50308329 -32.75421613 60.03613208 -27.24609375 62.37890625 C-21.90931409 63.85464184 -16.98601518 63.64927419 -11.75 61.9375 C-5.64059928 57.6331495 -2.62810925 53.3563652 -1 46 C-0.04246129 36.44384916 0.56711338 25.25645738 -5 17 C-9.1470168 12.25081364 -13.66999498 10.18790363 -19.875 9.6875 C-26.68660472 9.89274609 -31.77034821 12.71293526 -36 18 Z " fill="#125034" transform="translate(789,67)"/>
<path d="M0 0 C5.01266132 4.22456466 7.85938009 8.50360599 9 15 C9.2719399 19.67706497 9.23255445 24.34377787 9.1953125 29.02734375 C9.19157681 30.38497203 9.18873247 31.74260303 9.18673706 33.10023499 C9.17914431 36.65287882 9.15953397 40.20535603 9.1373291 43.75793457 C9.11677613 47.3913345 9.10771524 51.02476167 9.09765625 54.65820312 C9.07628337 61.77220962 9.04113741 68.88607632 9 76 C4.71 76 0.42 76 -4 76 C-4.99 73.03 -5.98 70.06 -7 67 C-7.49628906 67.47050781 -7.99257813 67.94101563 -8.50390625 68.42578125 C-16.6730795 75.91289829 -24.24231603 78.36531499 -35.34375 78.21484375 C-42.67139886 77.62216627 -48.96122376 75.51865969 -54 70 C-58.80556415 62.95684505 -58.8156967 55.26638969 -58 47 C-56.83941861 41.79523883 -53.96769115 38.48382637 -50 35 C-49.4225 34.46375 -48.845 33.9275 -48.25 33.375 C-39.45368664 27.99947517 -29.12110417 27.81296943 -19.125 27.4375 C-17.52011719 27.37272461 -17.52011719 27.37272461 -15.8828125 27.30664062 C-13.25532246 27.20107183 -10.62774578 27.09896209 -8 27 C-8.39859561 25.07949388 -8.81965926 23.16364288 -9.25 21.25 C-9.59804688 19.64898437 -9.59804688 19.64898437 -9.953125 18.015625 C-11.10319489 14.70273711 -12.32150611 13.21380392 -15 11 C-22.11471643 8.05597941 -30.06127817 10.76896555 -37 13 C-37.85335938 13.38414063 -38.70671875 13.76828125 -39.5859375 14.1640625 C-42 15 -42 15 -44.16796875 14.89453125 C-46.71976917 13.6485562 -47.21617654 12.27380746 -48.3125 9.6875 C-48.65925781 8.90761719 -49.00601562 8.12773438 -49.36328125 7.32421875 C-50.09826552 4.64130069 -50.29669365 3.47789232 -49 1 C-46.453125 -0.23046875 -46.453125 -0.23046875 -43.25 -1.1875 C-41.67992187 -1.67283203 -41.67992187 -1.67283203 -40.078125 -2.16796875 C-28.16949403 -5.38692611 -10.78292741 -6.9360452 0 0 Z M-37 45 C-39.35898308 47.90941246 -39.95868197 49.71593853 -40.5 53.4375 C-39.83270551 58.19197325 -38.40702151 59.67221155 -35 63 C-29.47542882 64.84152373 -24.08994339 64.8169855 -18.75 62.375 C-13.6836284 59.49867349 -10.82759404 56.12809895 -8.6875 50.625 C-7.92350378 46.5966563 -7.85651799 43.08923735 -8 39 C-23.50355162 38.35506364 -23.50355162 38.35506364 -37 45 Z " fill="#125034" transform="translate(545,67)"/>
<path d="M0 0 C0.80308594 -0.01160156 1.60617187 -0.02320313 2.43359375 -0.03515625 C9.14878305 -0.00250541 14.33234666 1.53334108 20.1875 4.9375 C26.38660483 11.47169158 28.63273744 19.44851471 28.61352539 28.2668457 C28.61341209 30.00808464 28.61341209 30.00808464 28.61329651 31.78450012 C28.60813522 33.02737289 28.60297394 34.27024567 28.59765625 35.55078125 C28.5962413 36.83107712 28.59482635 38.11137299 28.59336853 39.4304657 C28.58956397 42.8219704 28.57975143 46.21343177 28.56866455 49.60491943 C28.55840597 53.07059137 28.55386141 56.53627036 28.54882812 60.00195312 C28.53780755 66.7929899 28.52054722 73.58398563 28.5 80.375 C22.56 80.375 16.62 80.375 10.5 80.375 C10.48541748 78.74030762 10.47083496 77.10561523 10.45581055 75.42138672 C10.39778522 69.34938822 10.32055153 63.2777589 10.23754883 57.20605469 C10.20431962 54.57948809 10.1762815 51.95285043 10.15356445 49.32617188 C10.11998272 45.54786939 10.06766247 41.77021695 10.01171875 37.9921875 C10.00532883 36.82009735 9.9989389 35.6480072 9.99235535 34.44039917 C9.88785997 28.62975456 9.67757669 24.43227738 6.5 19.375 C6.5 18.715 6.5 18.055 6.5 17.375 C-0.74428307 14.96023898 -7.47730312 14.23143475 -14.671875 17.19140625 C-18.51076177 19.67683935 -20.74874017 23.87294972 -22.04405212 28.18695068 C-22.5552172 30.63998195 -22.66103068 32.91330693 -22.70532227 35.41894531 C-22.72526749 36.41968079 -22.74521271 37.42041626 -22.76576233 38.45147705 C-22.79083107 40.06104279 -22.79083107 40.06104279 -22.81640625 41.703125 C-22.83718735 42.80726746 -22.85796844 43.91140991 -22.87937927 45.04901123 C-22.94473646 48.57427783 -23.00369564 52.09961859 -23.0625 55.625 C-23.10569836 58.01563265 -23.14931307 60.40625782 -23.19335938 62.796875 C-23.30040376 68.6561741 -23.40171038 74.51554776 -23.5 80.375 C-29.44 80.375 -35.38 80.375 -41.5 80.375 C-41.5 54.305 -41.5 28.235 -41.5 1.375 C-36.88 1.375 -32.26 1.375 -27.5 1.375 C-26.51 4.015 -25.52 6.655 -24.5 9.375 C-23.51 8.446875 -22.52 7.51875 -21.5 6.5625 C-15.34855667 0.79552188 -8.11331242 -0.11720676 0 0 Z " fill="#125034" transform="translate(616.5,62.625)"/>
<path d="M0 0 C4.29 0 8.58 0 13 0 C13 36.96 13 73.92 13 112 C49.96 112 86.92 112 125 112 C125 116.29 125 120.58 125 125 C83.75 125 42.5 125 0 125 C0 83.75 0 42.5 0 0 Z " fill="#125034" transform="translate(229,26)"/>
<path d="M0 0 C0.66 0 1.32 0 2 0 C2 21.45 2 42.9 2 65 C47.21 65 92.42 65 139 65 C139 69.29 139 73.58 139 78 C89.5 78 40 78 -11 78 C-11 57.87 -11 37.74 -11 17 C-10.01 17 -9.02 17 -8 17 C-8.495 16.525625 -8.99 16.05125 -9.5 15.5625 C-11.70453669 11.79641649 -11.24608113 8.26540621 -11 4 C-10.37351563 3.87882812 -9.74703125 3.75765625 -9.1015625 3.6328125 C-8.28429687 3.46523437 -7.46703125 3.29765625 -6.625 3.125 C-5.81289062 2.96257812 -5.00078125 2.80015625 -4.1640625 2.6328125 C-1.81326077 2.13341068 -1.81326077 2.13341068 0 0 Z " fill="#125034" transform="translate(215,98)"/>
<path d="M0 0 C4.29 0 8.58 0 13 0 C13 28.38 13 56.76 13 86 C41.38 86 69.76 86 99 86 C99 90.62 99 95.24 99 100 C66.33 99.67 33.66 99.34 0 99 C0 66.33 0 33.66 0 0 Z " fill="#125034" transform="translate(255,26)"/>
<path d="M0 0 C4.67350283 3.61076109 7.51524249 6.53353348 10 12 C10.99 12.66 11.98 13.32 13 14 C13.36076355 16.86001587 13.36076355 16.86001587 13.34057617 20.56103516 C13.34101425 21.23432358 13.34145233 21.907612 13.34190369 22.6013031 C13.33981056 24.83084938 13.3164562 27.05964731 13.29296875 29.2890625 C13.28737463 30.83319691 13.28310366 32.37733664 13.28010559 33.92147827 C13.26864226 37.98883727 13.23916262 42.05587571 13.20599365 46.12310791 C13.17532462 50.27213199 13.16160706 54.42120778 13.14648438 58.5703125 C13.11429405 66.7136889 13.06308008 74.85680459 13 83 C14.10389572 82.98889694 15.20779144 82.97779388 16.34513855 82.96635437 C26.74780393 82.86500035 37.15036916 82.79004507 47.55341625 82.74093914 C52.90178695 82.71484441 58.24975908 82.67944812 63.59790039 82.62280273 C68.75911183 82.56847928 73.91993991 82.53857854 79.08141518 82.52561378 C81.05064238 82.51637455 83.01984857 82.49833231 84.98891258 82.47134972 C87.7472201 82.43505487 90.50394331 82.43005481 93.26245117 82.43237305 C94.07669052 82.41439667 94.89092987 82.39642029 95.72984314 82.37789917 C100.00566976 82.41678741 101.49479049 82.57157277 104.88105774 85.44319153 C105.58030869 86.28693832 106.27955963 87.13068512 107 88 C109.59383127 89.5053409 109.59383127 89.5053409 112.25 90.625 C114.890625 91.7890625 114.890625 91.7890625 117 93 C117.33 93.99 117.66 94.98 118 96 C79.06 96 40.12 96 0 96 C0 68.61 0 41.22 0 13 C1.32 13.33 2.64 13.66 4 14 C3.34 12.989375 2.68 11.97875 2 10.9375 C-0.15499716 7.21937109 -0.35190572 4.31084509 0 0 Z " fill="#125034" transform="translate(128,156)"/>
<path d="M0 0 C0.9384375 -0.01611328 1.876875 -0.03222656 2.84375 -0.04882812 C10.06306733 -0.05381384 16.73950842 1.05725421 23.25 4.3125 C22.79464901 5.87587173 22.33557224 7.43815849 21.875 9 C21.49214844 10.30517578 21.49214844 10.30517578 21.1015625 11.63671875 C20.26843149 14.25458453 19.30140346 16.77541773 18.25 19.3125 C17.13882813 19.00054687 16.02765625 18.68859375 14.8828125 18.3671875 C1.97673853 14.78706246 1.97673853 14.78706246 -10.578125 18.328125 C-15.95342995 22.242182 -17.72110147 28.01968308 -18.75 34.3125 C-19.32395566 44.73713648 -18.77514246 53.5330067 -12.75 62.3125 C-7.41902973 66.3107277 -2.28837656 66.77539392 4.25 66.3125 C10.20857768 65.39739557 15.66753218 63.54548713 21.25 61.3125 C21.25 66.5925 21.25 71.8725 21.25 77.3125 C9.35471372 82.98563653 -2.9895331 84.07057428 -15.75 80.3125 C-25.2963732 76.61987436 -29.98486421 71.63563923 -34.453125 62.54296875 C-37.22506203 55.6381738 -38.11422986 49.43213038 -38.0625 42.0625 C-38.05512817 40.81460693 -38.05512817 40.81460693 -38.04760742 39.54150391 C-37.847219 28.94249786 -35.4759349 20.27483289 -29.75 11.3125 C-29.09 11.3125 -28.43 11.3125 -27.75 11.3125 C-27.50765625 10.70664063 -27.2653125 10.10078125 -27.015625 9.4765625 C-25.48812165 6.86472035 -24.15771263 6.08867503 -21.5 4.6875 C-20.75234375 4.28273438 -20.0046875 3.87796875 -19.234375 3.4609375 C-12.67423511 0.42842001 -7.1386214 -0.02411696 0 0 Z " fill="#125034" transform="translate(698.75,62.6875)"/>
<path d="M0 0 C4.29 0 8.58 0 13 0 C13 20.13 13 40.26 13 61 C33.13 61 53.26 61 74 61 C74 65.29 74 69.58 74 74 C49.58 74 25.16 74 0 74 C0 49.58 0 25.16 0 0 Z " fill="#125034" transform="translate(280,26)"/>
<path d="M0 0 C1.32 0.33 2.64 0.66 4 1 C5.25 3.5625 5.25 3.5625 6 6 C8.64 6.33 11.28 6.66 14 7 C14 17.23 14 27.46 14 38 C29.84 38 45.68 38 62 38 C62.66 40.97 63.32 43.94 64 47 C64.99 49.475 64.99 49.475 66 52 C44.22 52 22.44 52 0 52 C0 34.84 0 17.68 0 0 Z " fill="#125034" transform="translate(153,175)"/>
<path d="M0 0 C28.38 0 56.76 0 86 0 C86 4.62 86 9.24 86 14 C57.62 14 29.24 14 0 14 C-1 6 -1 6 0 0 Z " fill="#125034" transform="translate(268,314)"/>
<path d="M0 0 C4.29 0 8.58 0 13 0 C13 11.88 13 23.76 13 36 C24.88 36 36.76 36 49 36 C49 40.29 49 44.58 49 49 C32.83 49 16.66 49 0 49 C0 32.83 0 16.66 0 0 Z " fill="#125034" transform="translate(305,26)"/>
<path d="M0 0 C31.68 0 63.36 0 96 0 C96 4.29 96 8.58 96 13 C87.15896983 13.09064505 78.31825215 13.16391327 69.476861 13.20724869 C65.37070914 13.22805557 61.26489379 13.25624539 57.15893555 13.30175781 C53.19074163 13.34546408 49.22286984 13.3691889 45.25445366 13.37950897 C43.74628064 13.3868562 42.23812373 13.40120301 40.73008919 13.42292023 C26.43666485 13.62043024 26.43666485 13.62043024 19.68530273 9.92077637 C17.46841245 8.70956361 15.44071932 8.40893456 12.9375 8.25 C11.638125 8.1675 10.33875 8.085 9 8 C9 7.34 9 6.68 9 6 C6.34771188 4.92474806 3.71631546 3.90543849 1 3 C0.67 2.01 0.34 1.02 0 0 Z " fill="#125034" transform="translate(258,188)"/>
<path d="M0 0 C24.75 0 49.5 0 75 0 C75 4.29 75 8.58 75 13 C48.27 13 21.54 13 -6 13 C-5.67 11.68 -5.34 10.36 -5 9 C-1.4375 7.25 -1.4375 7.25 2 6 C1.49396008 3.83125748 1.00016187 2.00032373 0 0 Z " fill="#125034" transform="translate(279,289)"/>
<path d="M0 0 C4.29 0 8.58 0 13 0 C13 16.5 13 33 13 50 C12.01 50 11.02 50 10 50 C9.93941406 50.72445312 9.87882813 51.44890625 9.81640625 52.1953125 C8.57971014 66.46488294 8.57971014 66.46488294 6.375 68.5 C5.92125 68.995 5.4675 69.49 5 70 C5.23283149 73.14921909 5.23283149 73.14921909 6 76 C2.25 79 2.25 79 0 79 C0 64.81 0 50.62 0 36 C1.32 35.34 2.64 34.68 4 34 C4.81171228 31.44480079 4.81171228 31.44480079 5 29 C2.48916886 30.25541557 2.12874554 31.50063488 1 34 C0.67 34 0.34 34 0 34 C0 22.78 0 11.56 0 0 Z " fill="#125034" transform="translate(179,26)"/>
<path d="M0 0 C4.29 0 8.58 0 13 0 C13 23.43 13 46.86 13 71 C10.03 71.99 10.03 71.99 7 73 C7.66 71.35 8.32 69.7 9 68 C9.66 68 10.32 68 11 68 C11 67.01 11 66.02 11 65 C9.68 64.67 8.36 64.34 7 64 C6.87625 63.360625 6.7525 62.72125 6.625 62.0625 C6.41875 61.381875 6.2125 60.70125 6 60 C5.34 59.67 4.68 59.34 4 59 C3.505 57.515 3.505 57.515 3 56 C2.01 56.99 1.02 57.98 0 59 C0 39.53 0 20.06 0 0 Z " fill="#125034" transform="translate(204,26)"/>
<path d="M0 0 C0 21.45 0 42.9 0 65 C3.3 65 6.6 65 10 65 C5.59898416 67.93401056 3.34331637 68.36225874 -2 68 C-4.9375 67.1875 -4.9375 67.1875 -7 65 C-7.4257414 61.29932473 -7.28330598 57.70816052 -7 54 C-8.98 53.67 -10.96 53.34 -13 53 C-13.12385084 47.82227254 -13.21445571 42.64541212 -13.2746582 37.46655273 C-13.29976061 35.70598324 -13.33385028 33.94551753 -13.37719727 32.18530273 C-13.43804115 29.65061821 -13.46625113 27.11731425 -13.48828125 24.58203125 C-13.51408768 23.79850784 -13.5398941 23.01498444 -13.56648254 22.2077179 C-13.56866584 17.92737887 -13.46123286 16.5192643 -10.50073242 13.1862793 C-9.67549072 12.46480713 -8.85024902 11.74333496 -8 11 C-7.835 9.824375 -7.67 8.64875 -7.5 7.4375 C-7 4 -7 4 -4.5625 1.5625 C-2 0 -2 0 0 0 Z " fill="#125034" transform="translate(192,123)"/>
<path d="M0 0 C1.40564713 0.00666183 1.40564713 0.00666183 2.83969116 0.01345825 C3.90063995 0.01360931 4.96158875 0.01376038 6.0546875 0.01391602 C7.20367523 0.02423859 8.35266296 0.03456116 9.53646851 0.04519653 C10.71002899 0.04802643 11.88358948 0.05085632 13.0927124 0.05377197 C16.85271262 0.06499548 20.61247739 0.09010411 24.37240601 0.11550903 C26.91667341 0.12553602 29.46094453 0.13466236 32.00521851 0.14285278 C38.2527055 0.16494193 44.50001579 0.19948667 50.74740601 0.24050903 C50.74740601 4.53050903 50.74740601 8.82050903 50.74740601 13.24050903 C32.59740601 13.24050903 14.44740601 13.24050903 -4.25259399 13.24050903 C-4.25259399 0.45404865 -4.25259399 0.45404865 0 0 Z " fill="#125034" transform="translate(303.2525939941406,263.7594909667969)"/>
<path d="M0 0 C4.62 0 9.24 0 14 0 C14 10.23 14 20.46 14 31 C11.36 31 8.72 31 6 31 C5.505 33.475 5.505 33.475 5 36 C8.465 35.505 8.465 35.505 12 35 C12 39 12 39 11 42 C8.36 42.33 5.72 42.66 3 43 C2.67 43.99 2.34 44.98 2 46 C1.34 46 0.68 46 0 46 C0 30.82 0 15.64 0 0 Z " fill="#125034" transform="translate(52,26)"/>
<path d="M0 0 C16.83 0 33.66 0 51 0 C51 4.62 51 9.24 51 14 C42.75 14 34.5 14 26 14 C25.34 12.68 24.68 11.36 24 10 C21.60931266 8.89363605 21.60931266 8.89363605 19 8 C18.43410156 7.51789063 17.86820312 7.03578125 17.28515625 6.5390625 C14.23333845 4.48365017 11.41865583 4.09146608 7.8125 3.4375 C5.52928658 3.02130147 3.25307731 2.55671121 1 2 C0.67 1.34 0.34 0.68 0 0 Z " fill="#125034" transform="translate(303,213)"/>
<path d="M0 0 C4.29 0 8.58 0 13 0 C13 3.63 13 7.26 13 11 C16.63 11 20.26 11 24 11 C24 15.29 24 19.58 24 24 C16.08 24 8.16 24 0 24 C0 16.08 0 8.16 0 0 Z " fill="#125034" transform="translate(330,26)"/>
<path d="M0 0 C4.29 0 8.58 0 13 0 C13.04943465 4.78717542 13.08573582 9.57420227 13.10986328 14.36157227 C13.11992142 15.99017932 13.13356958 17.61876832 13.15087891 19.24731445 C13.17513574 21.58809872 13.18648483 23.92864424 13.1953125 26.26953125 C13.20563507 26.99775589 13.21595764 27.72598053 13.22659302 28.47627258 C13.22742249 32.21275069 13.12883296 33.80675056 11 37 C10.01 37 9.02 37 8 37 C8 36.34 8 35.68 8 35 C5.36 34.34 2.72 33.68 0 33 C0 22.11 0 11.22 0 0 Z " fill="#125034" transform="translate(154,26)"/>
<path d="M0 0 C10.89 0 21.78 0 33 0 C33 4.29 33 8.58 33 13 C21.45 13 9.9 13 -2 13 C-1.37996416 8.65974911 -0.72077702 4.32466215 0 0 Z " fill="#125034" transform="translate(321,239)"/>
<path d="M0 0 C4.29 0 8.58 0 13 0 C13 10.89 13 21.78 13 33 C12.01 33.495 12.01 33.495 11 34 C10.01 33.34 9.02 32.68 8 32 C7.9175 31.360625 7.835 30.72125 7.75 30.0625 C7.37875 29.0415625 7.37875 29.0415625 7 28 C4.69 27.01 2.38 26.02 0 25 C0 16.75 0 8.5 0 0 Z " fill="#125034" transform="translate(128,26)"/>
<path d="M0 0 C4.29 0 8.58 0 13 0 C13 7.26 13 14.52 13 22 C11.35 22.33 9.7 22.66 8 23 C7.67 23.99 7.34 24.98 7 26 C4.50638429 24.79618552 2.31856917 23.54571278 0 22 C-0.34057617 19.75341797 -0.34057617 19.75341797 -0.29296875 16.9921875 C-0.28330078 16.00605469 -0.27363281 15.01992188 -0.26367188 14.00390625 C-0.23853516 12.97136719 -0.21339844 11.93882813 -0.1875 10.875 C-0.17396484 9.83472656 -0.16042969 8.79445313 -0.14648438 7.72265625 C-0.11105633 5.14821821 -0.05724812 2.57404526 0 0 Z " fill="#125034" transform="translate(103,26)"/>
<path d="M0 0 C0.99 0 1.98 0 3 0 C4.20532045 16.6640335 4.20532045 16.6640335 -0.375 22.5625 C-2.2734375 24.62890625 -2.2734375 24.62890625 -4 26 C-4.66 26 -5.32 26 -6 26 C-6 25.34 -6 24.68 -6 24 C-7.65 23.67 -9.3 23.34 -11 23 C-11.08687496 19.87517438 -11.14034568 16.75065754 -11.1875 13.625 C-11.21263672 12.73554688 -11.23777344 11.84609375 -11.26367188 10.9296875 C-11.27333984 10.07890625 -11.28300781 9.228125 -11.29296875 8.3515625 C-11.3086792 7.56604004 -11.32438965 6.78051758 -11.34057617 5.97119141 C-11.22818604 5.32069824 -11.1157959 4.67020508 -11 4 C-7.54941314 1.69960876 -5.05904498 1.5261725 -1 1 C-0.67 0.67 -0.34 0.34 0 0 Z " fill="#125034" transform="translate(164,146)"/>
<path d="M0 0 C1.65 0.99 3.3 1.98 5 3 C9.20560128 4.48948379 13.5279102 5.40655362 18 5 C18.33 4.67 18.66 4.34 19 4 C24.73568282 3.62995595 24.73568282 3.62995595 27 4 C28.02974969 4.9693377 29.0275881 5.97315283 30 7 C32.26027345 8.2048149 32.26027345 8.2048149 34.6875 9.1875 C35.49574219 9.53167969 36.30398437 9.87585938 37.13671875 10.23046875 C37.75160156 10.48441406 38.36648437 10.73835937 39 11 C39 11.66 39 12.32 39 13 C26.13 13 13.26 13 0 13 C0 8.71 0 4.42 0 0 Z " fill="#125034" transform="translate(179,188)"/>
<path d="M0 0 C4.29 0 8.58 0 13 0 C13 5.28 13 10.56 13 16 C11.68 15.34 10.36 14.68 9 14 C9 13.34 9 12.68 9 12 C4.2102679 11.76571687 4.2102679 11.76571687 0 14 C0 9.38 0 4.76 0 0 Z " fill="#125034" transform="translate(78,26)"/>
<path d="M0 0 C0 5.94 0 11.88 0 18 C-1.65 17.67 -3.3 17.34 -5 17 C-5 16.01 -5 15.02 -5 14 C-5.99 13.67 -6.98 13.34 -8 13 C-7.81997029 9.30939097 -4.97765262 0 0 0 Z " fill="#125034" transform="translate(167,73)"/>
<path d="M0 0 C4.62 0 9.24 0 14 0 C10.66830249 3.33169751 9.58562559 3.81657498 5 4 C2.125 2.625 2.125 2.625 0 1 C0 0.67 0 0.34 0 0 Z " fill="#125034" transform="translate(205,188)"/>
<path d="M0 0 C1.65 0 3.3 0 5 0 C4.67 0.66 4.34 1.32 4 2 C2.68 1.67 1.36 1.34 0 1 C0 0.67 0 0.34 0 0 Z " fill="#125034" transform="translate(235,188)"/>
<path d="M0 0 C0.33 0.99 0.66 1.98 1 3 C-0.32 2.67 -1.64 2.34 -3 2 C-2.01 1.34 -1.02 0.68 0 0 Z " fill="#125034" transform="translate(115,49)"/>
</svg>
