<?xml version="1.0" encoding="UTF-8"?>
<svg version="1.1" xmlns="http://www.w3.org/2000/svg" width="447" height="174">
<path d="M0 0 C147.51 0 295.02 0 447 0 C447 57.42 447 114.84 447 174 C299.49 174 151.98 174 0 174 C0 116.58 0 59.16 0 0 Z " fill="#FDFDFE" transform="translate(0,0)"/>
<path d="M0 0 C-0.65834622 15.78630194 -2.02835961 31.48705267 -3.46875 47.21875 C-3.71175807 49.89723868 -3.95455299 52.57574601 -4.19714355 55.25427246 C-4.70224953 60.8248633 -5.21034529 66.39517532 -5.72021484 71.96533203 C-6.30911978 78.39943274 -6.892744 84.83399698 -7.47374868 91.26881552 C-7.97558457 96.82528086 -8.48022304 102.38148644 -8.98721933 107.93748331 C-9.28886488 111.24313752 -9.58926011 114.54889591 -9.88768005 117.85484314 C-10.21916396 121.52139545 -10.5552415 125.1874978 -10.89257812 128.85351562 C-11.03911583 130.48972115 -11.03911583 130.48972115 -11.18861389 132.15898132 C-11.28109909 133.15375992 -11.37358429 134.14853851 -11.46887207 135.17346191 C-11.54776924 136.03831459 -11.62666641 136.90316727 -11.70795441 137.7942276 C-12 140 -12 140 -13 143 C-19.09838406 142.6969747 -22.30194398 139.79264502 -26.75 136 C-28.07705391 134.89454626 -29.40513118 133.79031952 -30.734375 132.6875 C-31.31413086 132.19636719 -31.89388672 131.70523438 -32.49121094 131.19921875 C-34.00443988 129.91176631 -34.00443988 129.91176631 -36 129 C-36.54010874 123.86896694 -35.07122753 120.39294037 -33.1328125 115.77734375 C-24.41071486 94.39316643 -21.36179024 70.99461709 -18.46496582 48.24986267 C-18.36695679 47.48033768 -18.26894775 46.71081268 -18.16796875 45.91796875 C-18.07124878 45.15710464 -17.97452881 44.39624054 -17.87487793 43.61231995 C-16.55486598 33.35962346 -14.81259498 23.17605273 -13 13 C-15.00720923 13.28674418 -17.00630969 13.63079809 -19 14 C-20.56234375 14.21849609 -20.56234375 14.21849609 -22.15625 14.44140625 C-26.07624888 16.58986718 -26.46539204 18.86532366 -27.7109375 23.03125 C-27.97132812 23.9903125 -28.23171875 24.949375 -28.5 25.9375 C-29.09353492 27.95709447 -29.68728851 29.97662469 -30.28125 31.99609375 C-30.57 33.0104248 -30.85875 34.02475586 -31.15625 35.06982422 C-32.35693982 39.23958093 -33.67570553 43.36821896 -35 47.5 C-35.49025441 49.05187149 -35.97982892 50.60395792 -36.46875 52.15625 C-38.13736514 57.44019793 -39.81844301 62.7201591 -41.5 68 C-43.47839048 74.21368009 -45.45620098 80.42753435 -47.42260742 86.64501953 C-47.92526198 88.2336839 -48.42928988 89.82191453 -48.93481445 91.40966797 C-50.05478029 94.93973964 -51.14694838 98.4717216 -52.15625 102.03515625 C-52.4965625 103.21980469 -52.836875 104.40445313 -53.1875 105.625 C-53.46980469 106.64851563 -53.75210938 107.67203125 -54.04296875 108.7265625 C-54.35878906 109.47679688 -54.67460938 110.22703125 -55 111 C-56.485 111.495 -56.485 111.495 -58 112 C-60.69921875 110.34765625 -60.69921875 110.34765625 -63.6875 108.0625 C-64.68136719 107.31097656 -65.67523438 106.55945313 -66.69921875 105.78515625 C-67.45847656 105.19605469 -68.21773438 104.60695313 -69 104 C-67.47889401 99.92143009 -65.58967478 96.06549104 -63.67529297 92.16259766 C-58.06495331 80.67435801 -53.3183504 69.02660585 -49 57 C-48.66226563 56.06897461 -48.32453125 55.13794922 -47.9765625 54.17871094 C-43.84570065 42.75284022 -40.0575283 31.2968372 -36.90185547 19.56054688 C-36.67900879 18.74134766 -36.45616211 17.92214844 -36.2265625 17.078125 C-36.03658691 16.36043945 -35.84661133 15.64275391 -35.65087891 14.90332031 C-35 13 -35 13 -33 10 C-30.38964844 8.74145508 -30.38964844 8.74145508 -27.109375 7.51953125 C-25.92472656 7.07802734 -24.74007812 6.63652344 -23.51953125 6.18164062 C-22.59068115 5.84483276 -22.59068115 5.84483276 -21.64306641 5.5012207 C-19.76575195 4.81823075 -17.89646996 4.11329323 -16.02734375 3.40820312 C-14.83753906 2.97056641 -13.64773437 2.53292969 -12.421875 2.08203125 C-11.33487305 1.68218018 -10.24787109 1.2823291 -9.12792969 0.87036133 C-5.91932134 -0.02244922 -3.30934466 -0.06418972 0 0 Z " fill="#B7EE06" transform="translate(69,1)"/>
<path d="M0 0 C23.1 0 46.2 0 70 0 C70 0.33 70 0.66 70 1 C69.42024414 1.10376953 68.84048828 1.20753906 68.24316406 1.31445312 C49.63162034 4.29244514 49.63162034 4.29244514 34.3828125 13.97460938 C32.09359161 18.35175759 31.14610516 22.95787532 30.37841797 27.80664062 C29.83171656 30.97539252 28.82681277 33.95345203 27.8125 37 C26.93306198 39.88441195 26.06616987 42.77058872 25.23046875 45.66796875 C24.0587444 49.70947786 22.79327621 53.64113226 21.203125 57.5390625 C19.67241797 61.32078874 18.17489698 65.11290726 16.703125 68.91796875 C12.11385889 80.68853483 7.36168605 92.07140526 1 103 C0.67 103 0.34 103 0 103 C0 69.01 0 35.02 0 0 Z " fill="#FEFEFD" transform="translate(0,0)"/>
<path d="M0 0 C1.4540625 0.0309375 1.4540625 0.0309375 2.9375 0.0625 C8.03244992 11.76303892 8.62856136 22.38820166 8.52908516 35.02062988 C8.50328079 38.33021981 8.5085903 41.63858707 8.52098083 44.94824219 C8.54157739 51.98646691 8.52217932 59.02430135 8.5 66.0625 C8.4787098 74.2050221 8.47469641 82.34713958 8.50050163 90.48965454 C8.50379702 93.7058931 8.48286641 96.92130846 8.46009827 100.13745117 C8.44257089 113.3109738 9.92007952 125.64372229 12.48696709 138.55432129 C13.17328296 142.37513617 13.56257134 146.19961912 13.9375 150.0625 C9.11112163 149.57420072 6.39000587 148.32139381 2.5625 145.375 C1.68851563 144.71113281 0.81453125 144.04726562 -0.0859375 143.36328125 C-1.06820312 142.60402344 -2.05046875 141.84476563 -3.0625 141.0625 C-3.73411163 140.6871965 -4.40572327 140.31189301 -5.09768677 139.92521667 C-8.32144224 137.97450895 -10.69748953 136.49643761 -11.65756226 132.72480774 C-11.72048484 129.67042477 -11.50931857 126.72917755 -11.21875 123.6875 C-11.05299278 121.15627568 -10.88766136 118.62502346 -10.72265625 116.09375 C-10.61488856 114.65749232 -10.5062931 113.22129657 -10.39697266 111.78515625 C-10.01328566 106.5794943 -9.75062775 101.36960293 -9.49609375 96.15625 C-9.3997516 94.1928705 -9.30339721 92.22949161 -9.20703125 90.26611328 C-9.15812744 89.26872131 -9.10922363 88.27132935 -9.05883789 87.24371338 C-8.80134005 82.08623764 -8.523847 76.92985603 -8.24609375 71.7734375 C-8.19009003 70.73250946 -8.1340863 69.69158142 -8.0763855 68.61911011 C-7.96240574 66.50091315 -7.84838171 64.38271858 -7.73431396 62.26452637 C-7.50360973 57.96498628 -7.27609258 53.66527985 -7.04857635 49.36557007 C-6.82687365 45.1822586 -6.6033871 40.99904391 -6.37934875 36.81585693 C-6.27361594 34.83854789 -6.16836844 32.86121283 -6.06364441 30.8838501 C-4.42927831 0.09039343 -4.42927831 0.09039343 0 0 Z " fill="#B8EE08" transform="translate(81.0625,22.9375)"/>
<path d="M0 0 C2.24330485 -0.00965174 4.48567232 -0.04063456 6.72875977 -0.07226562 C8.16299912 -0.07880107 9.59724504 -0.08404941 11.03149414 -0.08789062 C12.3343335 -0.09723633 13.63717285 -0.10658203 14.97949219 -0.11621094 C19.82390768 0.36307663 23.04026126 2.14459276 26.95727539 4.92773438 C29.01831532 7.86075273 29.0862221 9.81561684 28.92211914 13.33398438 C28.46502403 15.89792015 27.40737223 17.41513754 25.58227539 19.24023438 C26.40727539 20.06523438 27.23227539 20.89023438 28.08227539 21.74023438 C30.19201244 24.27551497 30.98186856 25.99558423 31.08227539 29.30273438 C30.39937123 34.68060468 29.16644971 36.95427156 24.97802734 40.35424805 C20.97586052 42.57703464 17.82562534 42.77253655 13.37524414 42.66601562 C12.60924393 42.66272751 11.84324371 42.65943939 11.05403137 42.65605164 C9.44625256 42.64568125 7.83850964 42.62581748 6.23095703 42.59692383 C3.75996524 42.55255824 1.28994568 42.53544025 -1.18139648 42.5234375 C-2.74586377 42.51002444 -4.31031903 42.49510451 -5.87475586 42.47851562 C-6.98715385 42.46743523 -6.98715385 42.46743523 -8.12202454 42.45613098 C-13.29936788 42.3585911 -13.29936788 42.3585911 -14.41772461 41.24023438 C-14.51882814 38.29487867 -14.5574174 35.37345878 -14.55053711 32.42773438 C-14.55149384 31.5436792 -14.55245056 30.65962402 -14.55343628 29.7487793 C-14.55411812 27.87581308 -14.55226354 26.00284452 -14.5480957 24.12988281 C-14.5427475 21.2525505 -14.54804054 18.3753743 -14.55444336 15.49804688 C-14.55378258 13.68294236 -14.55250142 11.86783795 -14.55053711 10.05273438 C-14.55256134 9.18608154 -14.55458557 8.31942871 -14.55667114 7.42651367 C-14.51673186 -2.67850648 -8.45319001 0.02203503 0 0 Z " fill="#0721E0" transform="translate(119.417724609375,43.759765625)"/>
<path d="M0 0 C0.91201172 -0.02835938 1.82402344 -0.05671875 2.76367188 -0.0859375 C9.27535453 -0.10460899 13.69250509 1.23942969 18.6875 5.5 C24.17939964 12.40007903 24.30691056 18.91834825 23.6875 27.5 C22.51403785 32.61888213 19.79991636 36.2815872 15.6875 39.5 C10.26902353 42.4915757 4.58614165 42.79361029 -1.5 42.875 C-2.17716064 42.88893799 -2.85432129 42.90287598 -3.55200195 42.91723633 C-9.04496164 42.86537147 -12.97858742 41.51474505 -17.140625 37.921875 C-21.88382011 32.34471152 -23.79452319 27.08152776 -23.5625 19.61328125 C-22.61077164 11.5682025 -19.61147734 6.90924702 -13.29296875 1.8984375 C-8.89349491 -0.16579793 -4.80199119 -0.01340402 0 0 Z " fill="#0822E1" transform="translate(315.3125,43.5)"/>
<path d="M0 0 C0.77794922 -0.02900391 1.55589844 -0.05800781 2.35742188 -0.08789062 C8.16136702 -0.15081914 12.45979394 1.08022685 17.3125 4.3125 C22.95525795 10.10375158 23.73503628 15.75637237 23.75512695 23.63574219 C23.60534192 29.37679848 22.15165962 33.11646076 18.3125 37.3125 C17.84585938 37.83972656 17.37921875 38.36695313 16.8984375 38.91015625 C12.03391183 43.21154717 4.95178981 43.75700181 -1.26953125 43.53515625 C-7.58825166 42.95330316 -12.6849003 41.40553612 -17.6875 37.3125 C-23.26991821 29.91956778 -23.38924591 23.35499729 -22.6875 14.3125 C-21.22500396 8.62109977 -18.20826024 5.40075005 -13.37109375 2.22265625 C-9.07466527 -0.10000694 -4.74951259 0.05759312 0 0 Z " fill="#0721E0" transform="translate(283.6875,93.6875)"/>
<path d="M0 0 C3.75612788 0.08932528 5.67079304 0.21285329 8.55859375 2.671875 C10.27143255 5.02213199 11.80910028 7.40930648 13.26220703 9.92773438 C15.02116993 12.90693436 16.94549569 15.7757199 18.84545898 18.66625977 C21.05033338 22.0304089 23.21219247 25.42118599 25.375 28.8125 C25.41258423 27.59348999 25.41258423 27.59348999 25.45092773 26.34985352 C25.56649118 22.69139248 25.68939584 19.03321472 25.8125 15.375 C25.85181641 14.09560547 25.89113281 12.81621094 25.93164062 11.49804688 C25.99448242 9.67563477 25.99448242 9.67563477 26.05859375 7.81640625 C26.09525146 6.69049072 26.13190918 5.5645752 26.16967773 4.40454102 C26.375 1.8125 26.375 1.8125 27.375 0.8125 C33.11111111 0.53935185 33.11111111 0.53935185 35.375 0.8125 C38.00685269 3.44435269 37.62371862 5.35118869 37.65289307 8.93395996 C37.6488446 9.77044067 37.64479614 10.60692139 37.640625 11.46875 C37.64349518 12.75585876 37.64349518 12.75585876 37.64642334 14.06896973 C37.64778544 15.88468722 37.64408728 17.70041445 37.63574219 19.51611328 C37.62504291 22.3013285 37.63563653 25.08589868 37.6484375 27.87109375 C37.64711591 29.63281393 37.64455353 31.39453371 37.640625 33.15625 C37.64467346 33.99273071 37.64872192 34.82921143 37.65289307 35.69104004 C37.60491834 41.58258166 37.60491834 41.58258166 35.375 43.8125 C32.73046875 44.18359375 32.73046875 44.18359375 29.5625 44.25 C28.52480469 44.28996094 27.48710937 44.32992187 26.41796875 44.37109375 C21.64618607 43.49514391 19.71690612 40.70458055 16.98754883 36.85620117 C15.51429731 34.65646267 14.09409264 32.43039329 12.6875 30.1875 C12.20216797 29.424375 11.71683594 28.66125 11.21679688 27.875 C10.31902312 26.46332817 9.42391743 25.04995309 8.5324707 23.63427734 C7.50219174 22.01269083 6.44069119 20.41103678 5.375 18.8125 C5.35518066 19.49876465 5.33536133 20.1850293 5.31494141 20.89208984 C5.21989055 23.99095779 5.11013153 27.08913294 5 30.1875 C4.9690625 31.26773438 4.938125 32.34796875 4.90625 33.4609375 C4.84824219 35.0078125 4.84824219 35.0078125 4.7890625 36.5859375 C4.7576416 37.53903809 4.7262207 38.49213867 4.69384766 39.47412109 C4.375 41.8125 4.375 41.8125 2.375 43.8125 C0.5 44.078125 0.5 44.078125 -1.625 44.0625 C-2.32625 44.06765625 -3.0275 44.0728125 -3.75 44.078125 C-5.625 43.8125 -5.625 43.8125 -7.625 41.8125 C-7.82498324 38.89500865 -7.90474887 36.07448071 -7.890625 33.15625 C-7.89253845 32.29817749 -7.8944519 31.44010498 -7.89642334 30.55603027 C-7.89778544 28.74031278 -7.89408728 26.92458555 -7.88574219 25.10888672 C-7.87504291 22.3236715 -7.88563653 19.53910132 -7.8984375 16.75390625 C-7.89711591 14.99218607 -7.89455353 13.23046629 -7.890625 11.46875 C-7.89467346 10.63226929 -7.89872192 9.79578857 -7.90289307 8.93395996 C-7.84764999 2.14982784 -6.79774137 0.50767942 0 0 Z " fill="#0822E0" transform="translate(112.625,93.1875)"/>
<path d="M0 0 C0.73798828 -0.01998047 1.47597656 -0.03996094 2.23632812 -0.06054688 C7.46031576 -0.05590333 10.44141975 0.98404689 14.5625 4.4375 C18.72272517 9.07949064 19.44124062 14.93747051 20.83447266 20.85473633 C21.31100108 22.86866518 21.80868515 24.87652908 22.30859375 26.88476562 C22.61410156 28.15900391 22.91960937 29.43324219 23.234375 30.74609375 C23.5137793 31.90939209 23.79318359 33.07269043 24.08105469 34.27124023 C24.55355131 37.37864831 24.40300729 39.43624134 23.5625 42.4375 C20.5925 42.4375 17.6225 42.4375 14.5625 42.4375 C13.5725 39.4675 12.5825 36.4975 11.5625 33.4375 C3.6425 33.1075 -4.2775 32.7775 -12.4375 32.4375 C-12.7675 35.4075 -13.0975 38.3775 -13.4375 41.4375 C-14.4375 42.4375 -14.4375 42.4375 -16.72265625 42.53515625 C-18.09744141 42.51775391 -18.09744141 42.51775391 -19.5 42.5 C-20.41910156 42.49097656 -21.33820313 42.48195312 -22.28515625 42.47265625 C-22.99542969 42.46105469 -23.70570313 42.44945312 -24.4375 42.4375 C-23.61794084 35.65391994 -22.12398236 29.03673054 -20.625 22.375 C-20.37685547 21.21677734 -20.12871094 20.05855469 -19.87304688 18.86523438 C-18.25360797 11.6910788 -17.01912194 6.41484126 -11.21484375 1.58984375 C-7.41298988 0.01242196 -4.07740476 -0.03896738 0 0 Z " fill="#0621E0" transform="translate(173.4375,43.5625)"/>
<path d="M0 0 C0.94488281 -0.03996094 1.88976562 -0.07992187 2.86328125 -0.12109375 C7.74732721 0.84490704 9.70435634 4.00951026 12.39038086 7.91088867 C14.30059104 10.83361877 16.157496 13.78415679 18 16.75 C18.96776367 18.29010742 18.96776367 18.29010742 19.95507812 19.86132812 C21.53850134 22.38307621 23.11573169 24.90847737 24.6875 27.4375 C24.70731934 26.69064941 24.72713867 25.94379883 24.74755859 25.17431641 C24.84258211 21.80334395 24.95235259 18.43301071 25.0625 15.0625 C25.0934375 13.886875 25.124375 12.71125 25.15625 11.5 C25.19492187 10.37851563 25.23359375 9.25703125 25.2734375 8.1015625 C25.3048584 7.06467285 25.3362793 6.0277832 25.36865234 4.95947266 C25.6875 2.4375 25.6875 2.4375 27.6875 0.4375 C30.40204956 0.10997766 32.93980759 0.3066575 35.6875 0.4375 C37.61007175 2.36007175 36.81658424 5.21835108 36.82644653 7.77624512 C36.8244223 8.66477173 36.82239807 9.55329834 36.8203125 10.46875 C36.82126923 11.37500122 36.82222595 12.28125244 36.82321167 13.21496582 C36.82389353 15.13501047 36.82203882 17.05505741 36.81787109 18.97509766 C36.81252292 21.92485704 36.81781588 24.87446414 36.82421875 27.82421875 C36.82355797 29.68489617 36.82227681 31.5455735 36.8203125 33.40625 C36.82233673 34.29477661 36.82436096 35.18330322 36.82644653 36.09875488 C36.80244988 42.32255012 36.80244988 42.32255012 35.6875 43.4375 C30.65704987 44.21029379 25.01913877 45.05619538 20.65625 42.02734375 C18.75231141 39.60542186 17.24408033 37.09928555 15.6875 34.4375 C14.74018265 32.97194233 13.78509584 31.51139085 12.82421875 30.0546875 C10.07122107 25.87438797 7.36728894 21.66502903 4.6875 17.4375 C4.66244385 18.1895874 4.6373877 18.9416748 4.61157227 19.71655273 C4.49599486 23.10289196 4.37309655 26.48892613 4.25 29.875 C4.21068359 31.05900391 4.17136719 32.24300781 4.13085938 33.46289062 C4.08896484 34.58759766 4.04707031 35.71230469 4.00390625 36.87109375 C3.96724854 37.91322021 3.93059082 38.95534668 3.89282227 40.02905273 C3.6875 42.4375 3.6875 42.4375 2.6875 43.4375 C-3.04861111 43.71064815 -3.04861111 43.71064815 -5.3125 43.4375 C-7.94435269 40.80564731 -7.56121862 38.89881131 -7.59039307 35.31604004 C-7.5863446 34.47955933 -7.58229614 33.64307861 -7.578125 32.78125 C-7.58003845 31.92317749 -7.5819519 31.06510498 -7.58392334 30.18103027 C-7.58528544 28.36531278 -7.58158728 26.54958555 -7.57324219 24.73388672 C-7.56254291 21.9486715 -7.57313653 19.16410132 -7.5859375 16.37890625 C-7.58461591 14.61718607 -7.58205353 12.85546629 -7.578125 11.09375 C-7.58217346 10.25726929 -7.58622192 9.42078857 -7.59039307 8.55895996 C-7.53647511 1.93755877 -6.70217273 0.15417718 0 0 Z " fill="#0923E1" transform="translate(318.3125,93.5625)"/>
<path d="M0 0 C4.12898759 2.23764489 6.02932331 5.05635558 7.54418945 9.48632812 C9.44981196 16.67065901 9.44981196 16.67065901 10.19165039 19.57666016 C10.74933351 21.74740571 11.33173805 23.91050062 11.91601562 26.07421875 C12.27495807 27.45533487 12.63243065 28.83683402 12.98828125 30.21875 C13.31481689 31.47107422 13.64135254 32.72339844 13.9777832 34.01367188 C14.4521387 37.35305395 14.33486689 38.53498564 12.4375 41.25 C9.125 41.5625 9.125 41.5625 5.4375 41.25 C1.9922359 37.47132325 2.4375 35.62417489 2.4375 30.25 C-5.8125 30.25 -14.0625 30.25 -22.5625 30.25 C-22.8925 32.89 -23.2225 35.53 -23.5625 38.25 C-24.6875 40.25 -24.6875 40.25 -26.5625 41.25 C-30.25 41.4375 -30.25 41.4375 -33.5625 41.25 C-34.9295965 37.48418729 -34.19377802 34.77019892 -33.234375 30.9453125 C-32.92886719 29.72199219 -32.62335938 28.49867187 -32.30859375 27.23828125 C-31.97988281 25.96339844 -31.65117187 24.68851563 -31.3125 23.375 C-30.99925781 22.10785156 -30.68601562 20.84070313 -30.36328125 19.53515625 C-26.39067406 3.85901749 -26.39067406 3.85901749 -19.5625 -0.75 C-13.32967258 -2.82760914 -5.98827932 -2.83831083 0 0 Z " fill="#0721E0" transform="translate(391.5625,95.75)"/>
<path d="M0 0 C4.07673219 4.08445327 5.25376262 8.31917829 6.625 13.75 C6.82867187 14.51054688 7.03234375 15.27109375 7.2421875 16.0546875 C11.32010324 31.47757394 11.32010324 31.47757394 11 39 C8.03 39 5.06 39 2 39 C0 35 0 35 0 29 C-8.25 29 -16.5 29 -25 29 C-25.33 31.64 -25.66 34.28 -26 37 C-26.66 37.99 -27.32 38.98 -28 40 C-29.9453125 40.29296875 -29.9453125 40.29296875 -32.125 40.1875 C-33.40375 40.125625 -34.6825 40.06375 -36 40 C-35.83780445 31.91971252 -34.59632852 24.39307595 -32.6875 16.5625 C-32.38646362 15.28487793 -32.38646362 15.28487793 -32.0793457 13.98144531 C-30.55675351 7.99490304 -28.67524602 3.42444171 -24 -0.8125 C-17.21230811 -4.84269206 -6.58569724 -4.21312072 0 0 Z " fill="#0621E0" transform="translate(188,97)"/>
<path d="M0 0 C1.04671875 -0.04898438 2.0934375 -0.09796875 3.171875 -0.1484375 C8.23895411 0.71322316 10.11758368 3.79033244 12.95068359 7.75488281 C14.85946251 10.54273779 16.71668954 13.35748874 18.5625 16.1875 C21.8728125 21.2303125 21.8728125 21.2303125 25.25 26.375 C25.58 18.125 25.91 9.875 26.25 1.375 C29.50303044 -0.25151522 32.64225602 0.26046844 36.25 0.375 C38.14623202 2.27123202 37.37897626 5.03870359 37.38894653 7.5612793 C37.3869223 8.42793213 37.38489807 9.29458496 37.3828125 10.1875 C37.38376923 11.07155518 37.38472595 11.95561035 37.38571167 12.86645508 C37.38639351 14.73942129 37.38453893 16.61238986 37.38037109 18.48535156 C37.37502289 21.36268388 37.38031593 24.23986008 37.38671875 27.1171875 C37.38605797 28.93229201 37.38477681 30.74739643 37.3828125 32.5625 C37.38483673 33.42915283 37.38686096 34.29580566 37.38894653 35.1887207 C37.36495009 41.26004991 37.36495009 41.26004991 36.25 42.375 C31.42909523 43.18611559 27.05540458 43.32978563 22.25 42.375 C18.54119837 39.33281304 16.56810885 35.52647858 14.25 31.375 C13.02024014 29.43408987 11.76105492 27.51444435 10.49926758 25.59423828 C8.71734924 22.87452316 6.9844265 20.12519016 5.25 17.375 C5.22494385 18.09679443 5.1998877 18.81858887 5.17407227 19.56225586 C5.05848698 22.812535 4.93559226 26.06249688 4.8125 29.3125 C4.77318359 30.44880859 4.73386719 31.58511719 4.69335938 32.75585938 C4.65146484 33.83544922 4.60957031 34.91503906 4.56640625 36.02734375 C4.51141968 37.52769165 4.51141968 37.52769165 4.45532227 39.05834961 C4.25 41.375 4.25 41.375 3.25 42.375 C1.75261876 42.4729057 0.25057108 42.50474864 -1.25 42.5 C-2.0646875 42.50257812 -2.879375 42.50515625 -3.71875 42.5078125 C-5.75 42.375 -5.75 42.375 -6.75 41.375 C-6.85110353 38.4296443 -6.88969279 35.5082244 -6.8828125 32.5625 C-6.88376923 31.67844482 -6.88472595 30.79438965 -6.88571167 29.88354492 C-6.88639351 28.01057871 -6.88453893 26.13761014 -6.88037109 24.26464844 C-6.87502289 21.38731612 -6.88031593 18.51013992 -6.88671875 15.6328125 C-6.88605797 13.81770799 -6.88477681 12.00260357 -6.8828125 10.1875 C-6.88483673 9.32084717 -6.88686096 8.45419434 -6.88894653 7.5612793 C-6.86186071 0.70830597 -6.82642328 0.21644757 0 0 Z " fill="#0721E0" transform="translate(205.75,43.625)"/>
<path d="M0 0 C3.41425601 2.84521334 4.88728812 5.46245104 5.8125 9.875 C5.874375 10.90625 5.93625 11.9375 6 13 C3 15 3 15 -0.4375 15 C-4.96322867 13.72962002 -5.75120486 11.99785803 -8 8 C-10.67655801 6.66172099 -12.82434052 6.79421444 -15.8125 6.75 C-16.85019531 6.72421875 -17.88789063 6.6984375 -18.95703125 6.671875 C-22.41882505 7.04516214 -24.25195819 7.88839875 -27 10 C-28.05336511 13.16009533 -28.20032888 15.5553136 -28.25 18.875 C-28.27578125 19.90367188 -28.3015625 20.93234375 -28.328125 21.9921875 C-27.95503198 25.41220687 -27.03027507 27.25025853 -25 30 C-20.57418882 32.21290559 -14.80470159 31.54842748 -10 31 C-6.76260052 28.85251596 -6.76260052 28.85251596 -5 26 C-3 24 -3 24 -1.08984375 23.76953125 C4.88888889 23.88888889 4.88888889 23.88888889 6 25 C5.83909218 29.82723472 5.7488919 32.0689452 2.6875 35.875 C-3.24229932 40.56367853 -8.01212934 40.3353945 -15.375 40.3125 C-16.91800781 40.33666992 -16.91800781 40.33666992 -18.4921875 40.36132812 C-25.08277778 40.36557464 -29.78343811 39.90636934 -34.86328125 35.31640625 C-35.34152344 34.73761719 -35.81976563 34.15882812 -36.3125 33.5625 C-36.80363281 32.98628906 -37.29476562 32.41007812 -37.80078125 31.81640625 C-41.61566503 26.03816208 -40.53191804 17.33893145 -39.7265625 10.76953125 C-38.43733423 5.25990479 -34.94679699 2.3295199 -30.4375 -0.75 C-22.01273584 -5.07039188 -8.12402031 -4.59850206 0 0 Z " fill="#0822E1" transform="translate(286,46)"/>
<path d="M0 0 C1.28970703 -0.04930664 1.28970703 -0.04930664 2.60546875 -0.09960938 C8.9322284 -0.15241238 13.29165506 1.26716228 18.125 5.4375 C20.56269218 9.09403827 20.36444439 11.12750101 20.125 15.4375 C19.125 16.4375 19.125 16.4375 15.25 16.8125 C13.0625 16.80078125 13.0625 16.80078125 11.125 16.4375 C9.25 14 9.25 14 8.125 11.4375 C5.10641234 9.92820617 1.99599046 10.21239927 -1.3125 10.1875 C-1.99376953 10.166875 -2.67503906 10.14625 -3.37695312 10.125 C-6.15255738 10.10325188 -8.35551787 10.15801862 -10.828125 11.48828125 C-12.45324771 14.51416272 -12.26763561 17.53174245 -12.1875 20.875 C-12.18363281 22.19371094 -12.17976562 23.51242188 -12.17578125 24.87109375 C-11.90653737 28.06355689 -11.67810908 29.84433605 -9.875 32.4375 C-5.16443703 34.79278148 1.0443384 34.18157859 6.125 33.4375 C8.20528164 31.79300858 9.32210289 30.21238151 10.75390625 28 C12.125 26.4375 12.125 26.4375 14.21484375 25.9375 C16.4375 25.9375 16.4375 25.9375 20.125 26.4375 C20.455 26.7675 20.785 27.0975 21.125 27.4375 C20.96908989 32.1148034 20.84397169 34.48591982 18 38.25 C12.11880858 42.72481956 6.97390971 43.97736309 -0.25 43.875 C-1.37100098 43.86364014 -1.37100098 43.86364014 -2.51464844 43.85205078 C-9.11712889 43.65515487 -14.38984646 42.51619643 -19.44921875 38.046875 C-24.82545211 32.19309656 -25.28124703 26.01272642 -25.12109375 18.41015625 C-24.65350164 12.76194039 -23.3325196 8.42905318 -19.0625 4.5625 C-12.89006908 0.44754605 -7.21121279 0.04821762 0 0 Z " fill="#0A24E1" transform="translate(223.875,93.5625)"/>
<path d="M0 0 C0.70125 0.00515625 1.4025 0.0103125 2.125 0.015625 C2.82625 0.01046875 3.5275 0.0053125 4.25 0 C6.125 0.265625 6.125 0.265625 8.125 2.265625 C8.29988254 4.70307397 8.35677405 7.0249858 8.3203125 9.4609375 C8.3174826 10.16838104 8.31465271 10.87582458 8.31173706 11.60470581 C8.30053137 13.8668501 8.27542679 16.12860015 8.25 18.390625 C8.23997067 19.92317137 8.23084474 21.45572394 8.22265625 22.98828125 C8.20059086 26.74754801 8.16605896 30.50651964 8.125 34.265625 C8.93767334 34.26038818 9.75034668 34.25515137 10.58764648 34.24975586 C14.24592322 34.22905506 17.90418767 34.21598697 21.5625 34.203125 C22.84189453 34.19474609 24.12128906 34.18636719 25.43945312 34.17773438 C26.65439453 34.17451172 27.86933594 34.17128906 29.12109375 34.16796875 C30.24700928 34.16273193 31.3729248 34.15749512 32.53295898 34.15209961 C35.125 34.265625 35.125 34.265625 36.125 35.265625 C36.16592937 37.59859933 36.16741723 39.93267725 36.125 42.265625 C32.97165706 43.84229647 29.58737759 43.42859541 26.125 43.43359375 C24.93777344 43.43858635 24.93777344 43.43858635 23.7265625 43.44367981 C22.05208925 43.4487454 20.3776059 43.45108825 18.703125 43.45092773 C16.13524865 43.45311627 13.56780041 43.47128109 11 43.49023438 C9.37500147 43.49316791 7.7500009 43.49515297 6.125 43.49609375 C5.35414063 43.50327927 4.58328125 43.51046478 3.7890625 43.51786804 C-1.6461728 43.4944522 -1.6461728 43.4944522 -3.875 41.265625 C-4.07498324 38.34813365 -4.15474887 35.52760571 -4.140625 32.609375 C-4.14253845 31.75130249 -4.1444519 30.89322998 -4.14642334 30.00915527 C-4.14778544 28.19343778 -4.14408728 26.37771055 -4.13574219 24.56201172 C-4.12504291 21.7767965 -4.13563653 18.99222632 -4.1484375 16.20703125 C-4.14711591 14.44531107 -4.14455353 12.68359129 -4.140625 10.921875 C-4.14467346 10.08539429 -4.14872192 9.24891357 -4.15289307 8.38708496 C-4.08931456 0.57931956 -4.08931456 0.57931956 0 0 Z " fill="#122BE2" transform="translate(410.875,93.734375)"/>
<path d="M0 0 C2.94783607 1.6507882 4.52613784 2.5691221 5.59765625 5.8046875 C6.67269989 11.67045962 6.90201353 17.16375818 4.25 22.5625 C0.75987987 26.34346348 -0.75209461 26.90095989 -5.9375 27.3125 C-9.71781322 27.20007433 -12.0259734 26.46419347 -15 24 C-18.86554601 18.6014029 -18.95739303 13.44064405 -18 7 C-14.10453708 -0.67550472 -7.77488885 -0.81899984 0 0 Z " fill="#F8F8FE" transform="translate(290,102)"/>
<path d="M0 0 C3.48242391 2.52646441 4.65226822 3.95680465 6 8 C6.53029448 13.05083759 6.54762715 16.90474571 4.25 21.5 C0.80536223 25.3273753 -0.6991866 25.89509569 -5.875 26.3125 C-9.87210197 26.19318352 -12.66056068 25.30580334 -16 23 C-18.91472377 18.62791434 -18.40053398 13.06508599 -18 8 C-15.6872231 -1.05837619 -8.09669244 -1.20565502 0 0 Z " fill="#FAFAFE" transform="translate(322,52)"/>
<path d="M0 0 C0.70125 0.00515625 1.4025 0.0103125 2.125 0.015625 C2.82625 0.01046875 3.5275 0.0053125 4.25 0 C6.125 0.265625 6.125 0.265625 8.125 2.265625 C8.32498324 5.18311635 8.40474887 8.00364429 8.390625 10.921875 C8.39253845 11.77994751 8.3944519 12.63802002 8.39642334 13.52209473 C8.39778544 15.33781222 8.39408728 17.15353945 8.38574219 18.96923828 C8.37504291 21.7544535 8.38563653 24.53902368 8.3984375 27.32421875 C8.39711591 29.08593893 8.39455353 30.84765871 8.390625 32.609375 C8.39467346 33.44585571 8.39872192 34.28233643 8.40289307 35.14416504 C8.35491834 41.03570666 8.35491834 41.03570666 6.125 43.265625 C4.25 43.53125 4.25 43.53125 2.125 43.515625 C1.42375 43.52078125 0.7225 43.5259375 0 43.53125 C-1.875 43.265625 -1.875 43.265625 -3.875 41.265625 C-4.07498324 38.34813365 -4.15474887 35.52760571 -4.140625 32.609375 C-4.14253845 31.75130249 -4.1444519 30.89322998 -4.14642334 30.00915527 C-4.14778544 28.19343778 -4.14408728 26.37771055 -4.13574219 24.56201172 C-4.12504291 21.7767965 -4.13563653 18.99222632 -4.1484375 16.20703125 C-4.14711591 14.44531107 -4.14455353 12.68359129 -4.140625 10.921875 C-4.14467346 10.08539429 -4.14872192 9.24891357 -4.15289307 8.38708496 C-4.08931456 0.57931956 -4.08931456 0.57931956 0 0 Z " fill="#112AE2" transform="translate(250.875,93.734375)"/>
<path d="M0 0 C4.17254343 0.95620787 5.49327642 2.20593947 8 5.6875 C8.98555108 9.0322459 9.49137271 12.21958665 10 15.6875 C3.4 15.6875 -3.2 15.6875 -10 15.6875 C-6.86341463 1.57286585 -6.86341463 1.57286585 0 0 Z " fill="#F9F9FE" transform="translate(173,51.3125)"/>
<path d="M0 0 C1.8984375 0.47265625 1.8984375 0.47265625 4.2734375 2.41015625 C5.8984375 5.47265625 5.8984375 5.47265625 7.8984375 14.47265625 C1.2984375 14.47265625 -5.3015625 14.47265625 -12.1015625 14.47265625 C-8.7445503 -0.63389863 -8.7445503 -0.63389863 0 0 Z " fill="#F9FAFE" transform="translate(383.1015625,102.52734375)"/>
<path d="M0 0 C4.82971855 4.04652095 4.52444902 7.3600206 6 14 C-0.6 14 -7.2 14 -14 14 C-9.89720469 -1.59062218 -9.89720469 -1.59062218 0 0 Z " fill="#F9FAFE" transform="translate(179,103)"/>
<path d="M0 0 C3.12522772 -0.05378021 6.2495371 -0.09356575 9.375 -0.125 C10.26445313 -0.14175781 11.15390625 -0.15851563 12.0703125 -0.17578125 C12.92109375 -0.18222656 13.771875 -0.18867187 14.6484375 -0.1953125 C15.82672119 -0.21102295 15.82672119 -0.21102295 17.02880859 -0.22705078 C19 0 19 0 21 2 C21.25 5 21.25 5 21 8 C19 10 19 10 17.02880859 10.22705078 C16.24328613 10.21657715 15.45776367 10.20610352 14.6484375 10.1953125 C13.79765625 10.18886719 12.946875 10.18242188 12.0703125 10.17578125 C10.73613281 10.15064453 10.73613281 10.15064453 9.375 10.125 C8.02921875 10.11146484 8.02921875 10.11146484 6.65625 10.09765625 C4.43738678 10.07405132 2.2186603 10.03817962 0 10 C0 6.7 0 3.4 0 0 Z " fill="#FDFDFE" transform="translate(117,68)"/>
<path d="M0 0 C2.79173055 -0.02690104 5.58320348 -0.04679053 8.375 -0.0625 C9.56609375 -0.07506836 9.56609375 -0.07506836 10.78125 -0.08789062 C16.7734375 -0.11328125 16.7734375 -0.11328125 19 1 C19.04254356 2.99954746 19.04080783 5.00041636 19 7 C18 8 18 8 16.23413086 8.11352539 C15.48526611 8.10828857 14.73640137 8.10305176 13.96484375 8.09765625 C13.15595703 8.09443359 12.34707031 8.09121094 11.51367188 8.08789062 C10.66353516 8.07951172 9.81339844 8.07113281 8.9375 8.0625 C8.08349609 8.05798828 7.22949219 8.05347656 6.34960938 8.04882812 C4.23304337 8.03700373 2.11651315 8.01906769 0 8 C0 5.36 0 2.72 0 0 Z " fill="#FDFDFE" transform="translate(117,52)"/>
</svg>
