<?xml version="1.0" encoding="UTF-8"?>
<svg version="1.1" xmlns="http://www.w3.org/2000/svg" width="231" height="96">
<path d="M0 0 C76.23 0 152.46 0 231 0 C231 31.68 231 63.36 231 96 C154.77 96 78.54 96 0 96 C0 64.32 0 32.64 0 0 Z " fill="#FEFDFC" transform="translate(0,0)"/>
<path d="M0 0 C7.58224442 2.37135966 13.97464442 5.84300448 20 11 C19.34 11.33 18.68 11.66 18 12 C15.78598001 10.90786917 13.6526267 9.76461253 11.5 8.5625 C5.84500903 5.5662369 0.50313249 3.23687174 -6 5 C-7.84522522 6.07384443 -7.84522522 6.07384443 -9 8 C-11.51920556 21.05240563 -5.67646893 32.79742806 1.4375 43.375 C2.17806641 44.37660156 2.17806641 44.37660156 2.93359375 45.3984375 C4 47 4 47 4 49 C4.66 49 5.32 49 6 49 C6.433125 47.63875 6.433125 47.63875 6.875 46.25 C9.21749292 39.48279822 9.21749292 39.48279822 11.76757812 37.90942383 C15.84830298 36.24705505 20.15012556 36.67274466 24.5 36.6875 C25.45003906 36.67138672 26.40007813 36.65527344 27.37890625 36.63867188 C28.29542969 36.63802734 29.21195313 36.63738281 30.15625 36.63671875 C30.98962891 36.63373779 31.82300781 36.63075684 32.68164062 36.62768555 C35.48546326 37.07796245 36.88210058 38.15658668 39 40 C38.58596686 45.27892255 37.93836608 48.35701137 34 52 C27.40723359 56.14841446 20.64755849 56.74119937 13 57 C20.77842842 66.52857481 30.52762457 76.38049178 43.17578125 78.54296875 C48.32606372 78.81523299 48.32606372 78.81523299 52.76171875 76.59765625 C54.1862123 74.75974501 54.60789693 73.27419782 55 71 C56.32 71 57.64 71 59 71 C59.50432107 76.2953712 58.28757779 78.86704506 55 83 C50.611327 85.925782 47.14957522 85.86160208 42 85 C29.69440226 80.37309525 19.94486906 72.47800695 11 63 C10.62230469 63.65484375 10.24460937 64.3096875 9.85546875 64.984375 C8 67 8 67 5.30078125 67.390625 C4.31464844 67.34421875 3.32851563 67.2978125 2.3125 67.25 C1.31863281 67.21390625 0.32476562 67.1778125 -0.69921875 67.140625 C-1.45847656 67.09421875 -2.21773437 67.0478125 -3 67 C-1.98974748 63.73610726 -0.95115966 60.91452941 0.75 57.9375 C2.30817963 55.14143587 2.30817963 55.14143587 1.31640625 52.6953125 C-0.18858068 49.61388525 -1.94738742 46.81540794 -3.8125 43.9375 C-10.36034727 33.56339368 -16.94038202 20.64755025 -15 8 C-11.44083184 1.24985349 -7.57511336 -1.17565759 0 0 Z " fill="#DC6327" transform="translate(15,5)"/>
<path d="M0 0 C0.91201172 -0.00386719 1.82402344 -0.00773438 2.76367188 -0.01171875 C3.70919922 -0.00011719 4.65472656 0.01148438 5.62890625 0.0234375 C6.57056641 0.01183594 7.51222656 0.00023437 8.48242188 -0.01171875 C17.26576268 0.02547253 17.26576268 0.02547253 21.19140625 3.3984375 C21.94140625 5.7109375 21.94140625 5.7109375 21.19140625 8.3984375 C19.0428779 10.65332864 16.6891793 12.54422332 14.19140625 14.3984375 C14.85140625 15.3884375 15.51140625 16.3784375 16.19140625 17.3984375 C16.09867252 20.92231911 15.27744409 22.2951921 13.00390625 25.0234375 C8.09816536 29.16606314 4.12098213 30.78314573 -2.30078125 30.69140625 C-3.49960937 30.68173828 -4.6984375 30.67207031 -5.93359375 30.66210938 C-7.17109375 30.63697266 -8.40859375 30.61183594 -9.68359375 30.5859375 C-10.94429687 30.57240234 -12.205 30.55886719 -13.50390625 30.54492188 C-16.60590829 30.50967185 -19.70702909 30.46039254 -22.80859375 30.3984375 C-15.41858866 15.4496201 -15.41858866 15.4496201 -11.55859375 8.0859375 C-11.1203125 7.24417969 -10.68203125 6.40242187 -10.23046875 5.53515625 C-7.51488438 1.4543193 -4.86664838 0.01991225 0 0 Z " fill="#DC6225" transform="translate(50.80859375,5.6015625)"/>
<path d="M0 0 C1.44922852 -0.00386719 1.44922852 -0.00386719 2.92773438 -0.0078125 C3.92998047 -0.00007813 4.93222656 0.00765625 5.96484375 0.015625 C6.97095703 0.00789063 7.97707031 0.00015625 9.01367188 -0.0078125 C10.4609668 -0.00394531 10.4609668 -0.00394531 11.9375 0 C13.25826538 0.00338379 13.25826538 0.00338379 14.60571289 0.00683594 C16.90234375 0.265625 16.90234375 0.265625 19.90234375 2.265625 C19.4347228 7.87707645 18.05503508 12.536588 14.90234375 17.265625 C11.66609699 19.42312284 10.55840309 19.54922988 6.796875 19.6796875 C5.81396484 19.71835938 4.83105469 19.75703125 3.81835938 19.796875 C2.79419922 19.8278125 1.77003906 19.85875 0.71484375 19.890625 C-0.32091797 19.92929688 -1.35667969 19.96796875 -2.42382812 20.0078125 C-4.98159247 20.10210796 -7.53934912 20.18770702 -10.09765625 20.265625 C-11.41765625 22.905625 -12.73765625 25.545625 -14.09765625 28.265625 C-16.40765625 28.265625 -18.71765625 28.265625 -21.09765625 28.265625 C-19.66620211 24.86721191 -18.22643121 21.47238339 -16.78515625 18.078125 C-16.38103516 17.11841797 -15.97691406 16.15871094 -15.56054688 15.16992188 C-15.16416016 14.23857422 -14.76777344 13.30722656 -14.359375 12.34765625 C-13.99803467 11.49405518 -13.63669434 10.6404541 -13.2644043 9.76098633 C-10.07749953 2.94505127 -10.07749953 2.94505127 -7.22875977 0.96972656 C-4.71841403 0.14032605 -2.6438844 0.00676494 0 0 Z " fill="#DB5F1F" transform="translate(97.09765625,52.734375)"/>
<path d="M0 0 C1.44922852 -0.00386719 1.44922852 -0.00386719 2.92773438 -0.0078125 C3.92998047 -0.00007813 4.93222656 0.00765625 5.96484375 0.015625 C6.97095703 0.00789063 7.97707031 0.00015625 9.01367188 -0.0078125 C10.4609668 -0.00394531 10.4609668 -0.00394531 11.9375 0 C13.25826538 0.00338379 13.25826538 0.00338379 14.60571289 0.00683594 C16.90234375 0.265625 16.90234375 0.265625 19.90234375 2.265625 C19.50677371 8.46288903 17.42745357 13.14817586 13.90234375 18.265625 C9.66855189 20.38252093 4.05394593 19.45055505 -0.59765625 19.453125 C-1.76425781 19.46537109 -2.93085937 19.47761719 -4.1328125 19.49023438 C-5.80150391 19.49313477 -5.80150391 19.49313477 -7.50390625 19.49609375 C-8.52806641 19.50020264 -9.55222656 19.50431152 -10.60742188 19.50854492 C-13.09765625 19.265625 -13.09765625 19.265625 -15.09765625 17.265625 C-14.72283648 13.52378023 -13.42583733 10.43567979 -11.78515625 7.078125 C-11.37652344 6.21832031 -10.96789063 5.35851563 -10.546875 4.47265625 C-7.88459294 0.41823748 -4.63976151 0.01187182 0 0 Z " fill="#DC6327" transform="translate(62.09765625,52.734375)"/>
<path d="M0 0 C1.06412109 0.00193359 2.12824219 0.00386719 3.22460938 0.00585938 C4.33513672 0.01810547 5.44566406 0.03035156 6.58984375 0.04296875 C7.70423828 0.04361328 8.81863281 0.04425781 9.96679688 0.04492188 C18.24663023 0.09011199 18.24663023 0.09011199 20.52734375 1.23046875 C21.3115366 7.19033439 18.99826324 12.46545336 15.52734375 17.23046875 C12.02746944 18.95445584 9.17641408 19.48617981 5.296875 19.49609375 C3.84571289 19.49996094 3.84571289 19.49996094 2.36523438 19.50390625 C1.36685547 19.49617188 0.36847656 19.4884375 -0.66015625 19.48046875 C-2.17512695 19.49207031 -2.17512695 19.49207031 -3.72070312 19.50390625 C-4.68427734 19.50132813 -5.64785156 19.49875 -6.640625 19.49609375 C-7.52000732 19.49383789 -8.39938965 19.49158203 -9.30541992 19.48925781 C-11.47265625 19.23046875 -11.47265625 19.23046875 -13.47265625 17.23046875 C-13.24978849 11.65877468 -11.55161469 6.84890641 -8.47265625 2.23046875 C-5.09814688 -0.01920416 -3.94756882 -0.01660147 0 0 Z " fill="#DB5E1C" transform="translate(181.47265625,16.76953125)"/>
<path d="M0 0 C4.29165262 -0.02891949 8.58328036 -0.04677118 12.875 -0.0625 C14.70998047 -0.07506836 14.70998047 -0.07506836 16.58203125 -0.08789062 C18.33193359 -0.09272461 18.33193359 -0.09272461 20.1171875 -0.09765625 C21.73536377 -0.10551147 21.73536377 -0.10551147 23.38623047 -0.11352539 C26 0 26 0 28 1 C28.792745 7.02486203 26.34490909 12.10586986 23 17 C19.79268373 19.05742203 17.19715251 19.25687943 13.4296875 19.265625 C11.83833984 19.26949219 11.83833984 19.26949219 10.21484375 19.2734375 C9.11269531 19.26570313 8.01054688 19.25796875 6.875 19.25 C5.76511719 19.25773437 4.65523437 19.26546875 3.51171875 19.2734375 C2.45339844 19.27085938 1.39507812 19.26828125 0.3046875 19.265625 C-0.66484863 19.26336914 -1.63438477 19.26111328 -2.63330078 19.25878906 C-5 19 -5 19 -7 17 C-6.67911223 13.04238415 -5.24652558 10.23499683 -3 7 C-0.49502996 5.74751498 1.20853274 5.88625594 4.0078125 5.90234375 C4.99394531 5.90556641 5.98007813 5.90878906 6.99609375 5.91210938 C8.02863281 5.92048828 9.06117187 5.92886719 10.125 5.9375 C11.68541016 5.94426758 11.68541016 5.94426758 13.27734375 5.95117188 C15.85161962 5.96298048 18.42578146 5.97944925 21 6 C21 5.01 21 4.02 21 3 C13.74 3 6.48 3 -1 3 C-0.67 2.01 -0.34 1.02 0 0 Z " fill="#DC6122" transform="translate(74,17)"/>
<path d="M0 0 C4.08319884 -0.0871142 8.16615864 -0.14043048 12.25 -0.1875 C13.40886719 -0.21263672 14.56773437 -0.23777344 15.76171875 -0.26367188 C16.87675781 -0.27333984 17.99179688 -0.28300781 19.140625 -0.29296875 C20.16704102 -0.3086792 21.19345703 -0.32438965 22.25097656 -0.34057617 C25.36219561 0.04487237 26.7062117 0.91975476 29 3 C28.39363716 6.78806451 27.28838544 9.82895704 25.5625 13.25 C24.91474609 14.55710937 24.91474609 14.55710937 24.25390625 15.890625 C23 18 23 18 21 19 C19.0406396 19.08510205 17.07837206 19.10717656 15.1171875 19.09765625 C13.95058594 19.09443359 12.78398437 19.09121094 11.58203125 19.08789062 C10.35871094 19.07951172 9.13539063 19.07113281 7.875 19.0625 C6.64394531 19.05798828 5.41289062 19.05347656 4.14453125 19.04882812 C1.09630608 19.0370133 -1.95182314 19.02054028 -5 19 C-5.90439428 15.43098097 -6.11755935 14.29109934 -4.6875 10.75 C-3 8 -3 8 -1 7 C0.7404417 6.91550372 2.48409722 6.89276976 4.2265625 6.90234375 C5.2578125 6.90556641 6.2890625 6.90878906 7.3515625 6.91210938 C8.97191406 6.92467773 8.97191406 6.92467773 10.625 6.9375 C12.25695312 6.94426758 12.25695312 6.94426758 13.921875 6.95117188 C16.61463789 6.96298224 19.30729188 6.97945222 22 7 C22 6.01 22 5.02 22 4 C14.41 4 6.82 4 -1 4 C-0.67 2.68 -0.34 1.36 0 0 Z " fill="#DD682F" transform="translate(168,53)"/>
<path d="M0 0 C1.16660156 -0.01224609 2.33320312 -0.02449219 3.53515625 -0.03710938 C5.20384766 -0.04000977 5.20384766 -0.04000977 6.90625 -0.04296875 C7.93041016 -0.04707764 8.95457031 -0.05118652 10.00976562 -0.05541992 C12.5 0.1875 12.5 0.1875 14.5 2.1875 C14.10871856 6.24971278 12.5341364 9.77451507 10.9375 13.5 C10.48246094 14.56863281 10.02742188 15.63726562 9.55859375 16.73828125 C9.20925781 17.54652344 8.85992187 18.35476562 8.5 19.1875 C5.86 19.1875 3.22 19.1875 0.5 19.1875 C0.933125 18.18847656 1.36625 17.18945312 1.8125 16.16015625 C2.37509476 14.85681173 2.93758961 13.55342408 3.5 12.25 C3.92925781 11.2609668 3.92925781 11.2609668 4.3671875 10.25195312 C5.85501998 7.32171503 5.85501998 7.32171503 6.5 4.1875 C1.78635374 3.84721003 -2.79448785 3.67982874 -7.5 4.1875 C-10.37640333 6.50108311 -10.37640333 6.50108311 -11.5 10.1875 C-12.2459717 11.81435317 -12.99609944 13.43930594 -13.75 15.0625 C-14.33891271 16.43511961 -14.92422597 17.80931748 -15.5 19.1875 C-17.81 19.1875 -20.12 19.1875 -22.5 19.1875 C-20.63257759 12.76538879 -18.26642406 6.75633822 -14.5 1.1875 C-10.26620814 -0.92939593 -4.65160218 0.00256995 0 0 Z " fill="#DC6327" transform="translate(121.5,16.8125)"/>
<path d="M0 0 C2.31 0 4.62 0 7 0 C5.27933894 5.44876003 3.15294651 10.71169451 1 16 C3.27155498 15.91297874 5.54230743 15.80480478 7.8125 15.6875 C9.70935547 15.60048828 9.70935547 15.60048828 11.64453125 15.51171875 C14.87359176 15.25914951 14.87359176 15.25914951 16.75 13.84375 C18.49109283 11.27563808 19.83638122 8.60481214 21.1875 5.8125 C21.71730469 4.72582031 22.24710938 3.63914063 22.79296875 2.51953125 C23.19128906 1.68808594 23.58960938 0.85664062 24 0 C26.31 0 28.62 0 31 0 C29.93050549 2.61064811 28.84534981 5.21272075 27.75 7.8125 C27.44964844 8.55048828 27.14929688 9.28847656 26.83984375 10.04882812 C26.53691406 10.76103516 26.23398438 11.47324219 25.921875 12.20703125 C25.64956055 12.8616333 25.37724609 13.51623535 25.09667969 14.19067383 C23.67773294 16.53168326 22.37489397 17.63195073 20 19 C17.37451172 19.35644531 17.37451172 19.35644531 14.4296875 19.328125 C13.36878906 19.32296875 12.30789062 19.3178125 11.21484375 19.3125 C10.11269531 19.291875 9.01054687 19.27125 7.875 19.25 C6.76511719 19.24484375 5.65523437 19.2396875 4.51171875 19.234375 C-3.69111025 19.15444488 -3.69111025 19.15444488 -6 18 C-5.61330541 11.03949747 -3.36561591 6.0605925 0 0 Z " fill="#DC6224" transform="translate(122,53)"/>
<path d="M0 0 C1.66385742 -0.00386719 1.66385742 -0.00386719 3.36132812 -0.0078125 C4.51955078 -0.00007813 5.67777344 0.00765625 6.87109375 0.015625 C8.03318359 0.00789063 9.19527344 0.00015625 10.39257812 -0.0078125 C11.50052734 -0.00523438 12.60847656 -0.00265625 13.75 0 C14.76779541 0.00225586 15.78559082 0.00451172 16.83422852 0.00683594 C19.30859375 0.265625 19.30859375 0.265625 21.30859375 2.265625 C21.30859375 3.255625 21.30859375 4.245625 21.30859375 5.265625 C18.99859375 5.265625 16.68859375 5.265625 14.30859375 5.265625 C14.30859375 4.605625 14.30859375 3.945625 14.30859375 3.265625 C12.03718266 3.37964564 9.76644823 3.50721005 7.49609375 3.640625 C5.59923828 3.74503906 5.59923828 3.74503906 3.6640625 3.8515625 C0.18104141 4.02665439 0.18104141 4.02665439 -2.69140625 6.265625 C-4.01140625 9.235625 -5.33140625 12.205625 -6.69140625 15.265625 C0.89859375 15.265625 8.48859375 15.265625 16.30859375 15.265625 C15.97859375 16.585625 15.64859375 17.905625 15.30859375 19.265625 C11.03788817 19.35254574 6.76740917 19.40599015 2.49609375 19.453125 C0.67368164 19.49083008 0.67368164 19.49083008 -1.18554688 19.52929688 C-2.93061523 19.54379883 -2.93061523 19.54379883 -4.7109375 19.55859375 C-5.78448486 19.5743042 -6.85803223 19.59001465 -7.96411133 19.60620117 C-10.69140625 19.265625 -10.69140625 19.265625 -12.5690918 17.88012695 C-13.69140625 16.265625 -13.69140625 16.265625 -13.62890625 14.140625 C-9.02434796 0.01997958 -9.02434796 0.01997958 0 0 Z " fill="#DD6931" transform="translate(147.69140625,16.734375)"/>
<path d="M0 0 C0.7115625 -0.01611328 1.423125 -0.03222656 2.15625 -0.04882812 C6.39327301 -0.05278057 8.93627443 0.28866669 12 3.3125 C11.67 4.9625 11.34 6.6125 11 8.3125 C8.69 8.3125 6.38 8.3125 4 8.3125 C4.33 6.9925 4.66 5.6725 5 4.3125 C1.60010358 4.38266672 -1.67070819 4.59367563 -5 5.3125 C-7.00804027 7.29268899 -7.00804027 7.29268899 -8 10.3125 C-8.88057758 11.92509145 -9.77754207 13.52880308 -10.6875 15.125 C-11.45916631 16.52037301 -12.2302804 17.9160522 -13 19.3125 C-14.98 19.3125 -16.96 19.3125 -19 19.3125 C-18.36803534 15.19330868 -17.02010292 11.85979835 -15.1875 8.125 C-14.68605469 7.07957031 -14.18460938 6.03414062 -13.66796875 4.95703125 C-10.27282837 -0.42589623 -5.94487954 -0.02692427 0 0 Z " fill="#DD672C" transform="translate(213,52.6875)"/>
<path d="M0 0 C1.39456452 0.00667256 2.78911118 0.01863093 4.18359375 0.03515625 C4.89451172 0.03966797 5.60542969 0.04417969 6.33789062 0.04882812 C8.09899388 0.06064761 9.86005411 0.07858362 11.62109375 0.09765625 C10.84044729 4.87911582 9.11345158 8.60529842 5.62109375 12.09765625 C3.09059973 12.17079192 0.58804538 12.19013152 -1.94140625 12.16015625 C-3.0077832 12.15338867 -3.0077832 12.15338867 -4.09570312 12.14648438 C-5.85680638 12.13466489 -7.61786661 12.11672888 -9.37890625 12.09765625 C-8.44378761 6.37005459 -6.3505979 0.18354329 0 0 Z " fill="#FDFAF8" transform="translate(63.37890625,56.90234375)"/>
<path d="M0 0 C0.70189453 0.01353516 1.40378906 0.02707031 2.12695312 0.04101562 C3.85579829 0.07629818 5.58424765 0.13010417 7.3125 0.1875 C6.52508341 4.9865969 4.81733074 8.06664943 2.3125 12.1875 C-2.9675 12.1875 -8.2475 12.1875 -13.6875 12.1875 C-9.86888702 -0.35937124 -9.86888702 -0.35937124 0 0 Z " fill="#FDF7F5" transform="translate(102.6875,56.8125)"/>
<path d="M0 0 C1.28132812 0.00902344 2.56265625 0.01804687 3.8828125 0.02734375 C4.87023437 0.03894531 5.85765625 0.05054687 6.875 0.0625 C6.40129426 5.03641027 5.27796728 8.34119062 1.875 12.0625 C-1.02094351 12.52461865 -3.02997024 12.647247 -5.875 12.4375 C-6.57238281 12.41042969 -7.26976562 12.38335937 -7.98828125 12.35546875 C-9.70185705 12.28504783 -11.41383302 12.17742913 -13.125 12.0625 C-12.48988519 7.68928085 -11.71994345 4.69542083 -9.125 1.0625 C-6.12186252 -0.43906874 -3.33432478 -0.03031204 0 0 Z " fill="#FDF9F8" transform="translate(188.125,19.9375)"/>
<path d="M0 0 C-2.27435204 7.18216433 -5.03584181 14.0758202 -8 21 C-7.01 21.33 -6.02 21.66 -5 22 C-5.33 22.99 -5.66 23.98 -6 25 C-12.0546875 25.1953125 -12.0546875 25.1953125 -14 25 C-14.66 24.34 -15.32 23.68 -16 23 C-15.6861103 18.08854944 -13.18931116 13.63758609 -11.125 9.25 C-10.77308594 8.47011719 -10.42117187 7.69023438 -10.05859375 6.88671875 C-9.71183594 6.14550781 -9.36507812 5.40429688 -9.0078125 4.640625 C-8.69473145 3.96547852 -8.38165039 3.29033203 -8.05908203 2.59472656 C-6.0348734 -0.45325195 -3.43424157 0 0 0 Z " fill="#DC6123" transform="translate(165,47)"/>
<path d="M0 0 C3.60409919 -0.05800828 7.20807851 -0.09359869 10.8125 -0.125 C12.34874023 -0.15013672 12.34874023 -0.15013672 13.91601562 -0.17578125 C14.89892578 -0.18222656 15.88183594 -0.18867187 16.89453125 -0.1953125 C17.80050049 -0.20578613 18.70646973 -0.21625977 19.63989258 -0.22705078 C22 0 22 0 25 2 C24.53965428 7.52414861 23.30172855 12.44047009 20 17 C18.11328125 18.35546875 18.11328125 18.35546875 16 19 C14.68 18.34 13.36 17.68 12 17 C13.98 12.71 15.96 8.42 18 4 C14.04 4 10.08 4 6 4 C6 3.67 6 3.34 6 3 C3.69 2.67 1.38 2.34 -1 2 C-0.67 1.34 -0.34 0.68 0 0 Z " fill="#DD682F" transform="translate(92,53)"/>
<path d="M0 0 C0.78419285 5.95986564 -1.52908051 11.23498461 -5 16 C-8.54024685 17.75411456 -11.37407261 18.24123892 -15.30078125 18.1953125 C-16.27724609 18.18886719 -17.25371094 18.18242188 -18.25976562 18.17578125 C-19.26716797 18.15902344 -20.27457031 18.14226563 -21.3125 18.125 C-22.33923828 18.11597656 -23.36597656 18.10695313 -24.42382812 18.09765625 C-26.94945899 18.07416201 -29.4746081 18.04131131 -32 18 C-32 17.67 -32 17.34 -32 17 C-23.585 16.505 -23.585 16.505 -15 16 C-18.96 15.67 -22.92 15.34 -27 15 C-27 14.67 -27 14.34 -27 14 C-25.44539062 14.01353516 -25.44539062 14.01353516 -23.859375 14.02734375 C-16.59410728 14.21081031 -16.59410728 14.21081031 -10.1484375 11.5859375 C-8.11329195 8.05938757 -7.39179673 4.01591652 -7 0 C-3.98968256 -0.93423645 -3.13349732 -1.04449911 0 0 Z " fill="#DD6830" transform="translate(202,18)"/>
<path d="M0 0 C0.98613281 0.00322266 1.97226563 0.00644531 2.98828125 0.00976562 C4.02082031 0.01814453 5.05335938 0.02652344 6.1171875 0.03515625 C7.67759766 0.04192383 7.67759766 0.04192383 9.26953125 0.04882812 C11.84380712 0.06063673 14.41796896 0.0771055 16.9921875 0.09765625 C16.0021875 1.58265625 16.0021875 1.58265625 14.9921875 3.09765625 C12.2036586 3.31873412 9.64565569 3.3787316 6.8671875 3.28515625 C6.11308594 3.27162109 5.35898438 3.25808594 4.58203125 3.24414062 C2.71844623 3.2087561 0.85522772 3.15494792 -1.0078125 3.09765625 C-1.6678125 5.07765625 -2.3278125 7.05765625 -3.0078125 9.09765625 C1.6121875 9.09765625 6.2321875 9.09765625 10.9921875 9.09765625 C10.9921875 9.42765625 10.9921875 9.75765625 10.9921875 10.09765625 C13.4671875 10.59265625 13.4671875 10.59265625 15.9921875 11.09765625 C15.9921875 11.42765625 15.9921875 11.75765625 15.9921875 12.09765625 C7.7421875 12.09765625 -0.5078125 12.09765625 -9.0078125 12.09765625 C-10.09722655 6.65058601 -9.78176418 5.61817009 -7.0078125 1.09765625 C-4.50284246 -0.15482877 -2.79927976 -0.01608781 0 0 Z " fill="#DB5C16" transform="translate(172.0078125,59.90234375)"/>
<path d="M0 0 C1.98 0 3.96 0 6 0 C7.171875 1.61328125 7.171875 1.61328125 8 4 C6.953125 6.98046875 6.953125 6.98046875 5.25 10.1875 C4.69828125 11.25355469 4.1465625 12.31960937 3.578125 13.41796875 C2 16 2 16 0 17 C-1.81341842 17.08471364 -3.62994161 17.10721083 -5.4453125 17.09765625 C-7.05986328 17.09282227 -7.05986328 17.09282227 -8.70703125 17.08789062 C-9.83496094 17.07951172 -10.96289062 17.07113281 -12.125 17.0625 C-13.26066406 17.05798828 -14.39632812 17.05347656 -15.56640625 17.04882812 C-18.37765638 17.03701615 -21.1888023 17.02054507 -24 17 C-24 16.67 -24 16.34 -24 16 C-22.35 15.67 -20.7 15.34 -19 15 C-19 14.67 -19 14.34 -19 14 C-18.04738281 14.020625 -17.09476563 14.04125 -16.11328125 14.0625 C-9.07145275 14.20837704 -9.07145275 14.20837704 -2.95703125 11.328125 C-0.63247768 7.70154875 0.68297776 4.37105768 0 0 Z " fill="#DB5F1D" transform="translate(74,55)"/>
<path d="M0 0 C0.99773438 0.02320312 1.99546875 0.04640625 3.0234375 0.0703125 C4.52777344 0.09738281 4.52777344 0.09738281 6.0625 0.125 C6.83335938 0.14820312 7.60421875 0.17140625 8.3984375 0.1953125 C8.7284375 1.5153125 9.0584375 2.8353125 9.3984375 4.1953125 C6.99228098 6.85038177 5.21883983 8.11695947 1.6171875 8.4609375 C-1.13190105 8.44676694 -3.85811571 8.36827937 -6.6015625 8.1953125 C-4.20337971 0.31556905 -4.20337971 0.31556905 0 0 Z " fill="#FCF6F3" transform="translate(47.6015625,22.8046875)"/>
<path d="M0 0 C5.61 0 11.22 0 17 0 C14 5 14 5 12 6 C9.62597499 6.07116382 7.24999323 6.08409085 4.875 6.0625 C3.59367188 6.05347656 2.31234375 6.04445313 0.9921875 6.03515625 C-0.48894531 6.01775391 -0.48894531 6.01775391 -2 6 C-1.34 4.02 -0.68 2.04 0 0 Z " fill="#FBEEEA" transform="translate(171,63)"/>
<path d="M0 0 C1.48831242 0.00667405 2.97660807 0.01863442 4.46484375 0.03515625 C5.22345703 0.03966797 5.98207031 0.04417969 6.76367188 0.04882812 C8.64326246 0.06064945 10.52281274 0.07858547 12.40234375 0.09765625 C10.65234375 4.97265625 10.65234375 4.97265625 8.40234375 6.09765625 C6.02831874 6.16882007 3.65233698 6.1817471 1.27734375 6.16015625 C-0.00398438 6.15113281 -1.2853125 6.14210938 -2.60546875 6.1328125 C-4.08660156 6.11541016 -4.08660156 6.11541016 -5.59765625 6.09765625 C-4.52525249 0.1228353 -4.52525249 0.1228353 0 0 Z " fill="#FAEDE8" transform="translate(80.59765625,25.90234375)"/>
<path d="M0 0 C2.09375 -0.328125 2.09375 -0.328125 4.5 -0.25 C5.69109375 -0.22679687 5.69109375 -0.22679687 6.90625 -0.203125 C9 0 9 0 11 1 C10.6875 3.375 10.6875 3.375 10 6 C6.57905758 8.28062828 5.31812778 8.21925007 1.3125 8.125 C-0.17830078 8.09792969 -0.17830078 8.09792969 -1.69921875 8.0703125 C-2.45847656 8.04710937 -3.21773437 8.02390625 -4 8 C-2.87548273 5.0280615 -1.77706209 2.66559313 0 0 Z " fill="#FBF1ED" transform="translate(51,11)"/>
<path d="M0 0 C2.9375 0.3125 2.9375 0.3125 4.9375 1.3125 C4.62512196 4.20199684 4.29411121 5.89883099 2.375 8.125 C-1.2044213 9.86882063 -4.10429842 9.51041008 -8.0625 9.3125 C-4.87945115 0.49790318 -4.87945115 0.49790318 0 0 Z " fill="#FBF2EE" transform="translate(38.0625,46.6875)"/>
<path d="M0 0 C3.79160297 -0.05786668 7.58309311 -0.09355054 11.375 -0.125 C12.45523438 -0.14175781 13.53546875 -0.15851562 14.6484375 -0.17578125 C15.6796875 -0.18222656 16.7109375 -0.18867188 17.7734375 -0.1953125 C19.20308838 -0.21102295 19.20308838 -0.21102295 20.66162109 -0.22705078 C23 0 23 0 25 2 C25 2.99 25 3.98 25 5 C22.69 5 20.38 5 18 5 C18 4.34 18 3.68 18 3 C17.03578125 3.03480469 16.0715625 3.06960937 15.078125 3.10546875 C13.81484375 3.13253906 12.5515625 3.15960937 11.25 3.1875 C9.99703125 3.22230469 8.7440625 3.25710937 7.453125 3.29296875 C3.74033117 2.97796927 2.76553543 2.29666592 0 0 Z " fill="#DA580C" transform="translate(144,17)"/>
<path d="M0 0 C3.60409919 -0.05800828 7.20807851 -0.09359869 10.8125 -0.125 C12.34874023 -0.15013672 12.34874023 -0.15013672 13.91601562 -0.17578125 C14.89892578 -0.18222656 15.88183594 -0.18867187 16.89453125 -0.1953125 C17.80050049 -0.20578613 18.70646973 -0.21625977 19.63989258 -0.22705078 C22 0 22 0 25 2 C24.67 2.99 24.34 3.98 24 5 C23.67 4.34 23.34 3.68 23 3 C21.77023438 3.01160156 20.54046875 3.02320313 19.2734375 3.03515625 C17.64062653 3.04454022 16.0078139 3.05363977 14.375 3.0625 C13.16263672 3.07506836 13.16263672 3.07506836 11.92578125 3.08789062 C7.49658082 3.1058955 3.36116576 2.89622662 -1 2 C-0.67 1.34 -0.34 0.68 0 0 Z " fill="#DF703B" transform="translate(57,53)"/>
<path d="M0 0 C4.62 0 9.24 0 14 0 C15 4 15 4 14 6 C11.69 6 9.38 6 7 6 C7.33 4.68 7.66 3.36 8 2 C5.36 1.67 2.72 1.34 0 1 C0 0.67 0 0.34 0 0 Z " fill="#DC6022" transform="translate(210,55)"/>
<path d="M0 0 C7.59 0 15.18 0 23 0 C21.02 0.99 21.02 0.99 19 2 C18.67 2.33 18.34 2.66 18 3 C15.91956287 3.12635423 13.83423788 3.17581705 11.75 3.1875 C10.61046875 3.20167969 9.4709375 3.21585938 8.296875 3.23046875 C5.08472955 3.00592304 2.88703374 2.37296905 0 1 C0 0.67 0 0.34 0 0 Z " fill="#DA570B" transform="translate(110,17)"/>
<path d="M0 0 C6.31244041 2.0289987 10.88672332 4.7978657 16 9 C15.01 9.495 15.01 9.495 14 10 C11.55667274 8.92481882 9.23245477 7.80191434 6.875 6.5625 C6.21628906 6.22412109 5.55757812 5.88574219 4.87890625 5.53710938 C3.24893453 4.69850074 1.62398091 3.85015189 0 3 C0 2.01 0 1.02 0 0 Z " fill="#DD6624" transform="translate(19,7)"/>
<path d="M0 0 C0.33 0.66 0.66 1.32 1 2 C1.66 2.33 2.32 2.66 3 3 C1.68 6.63 0.36 10.26 -1 14 C-1.99 13.67 -2.98 13.34 -4 13 C-3.27991594 8.39146203 -1.68704061 4.32762591 0 0 Z " fill="#F8E6DF" transform="translate(117,56)"/>
<path d="M0 0 C0.6875 1.625 0.6875 1.625 1 4 C-0.4375 7.25 -0.4375 7.25 -2 10 C-2.99 10 -3.98 10 -5 10 C-4.55090939 8.51800098 -4.09043436 7.03944764 -3.625 5.5625 C-3.36976563 4.73878906 -3.11453125 3.91507813 -2.8515625 3.06640625 C-2 1 -2 1 0 0 Z " fill="#FBEEEA" transform="translate(152,57)"/>
<path d="M0 0 C0.33 0.99 0.66 1.98 1 3 C1.66 3.33 2.32 3.66 3 4 C1.68 6.97 0.36 9.94 -1 13 C-1.99 13 -2.98 13 -4 13 C-3.71125 12.154375 -3.4225 11.30875 -3.125 10.4375 C-1.99227296 6.97638959 -0.98175684 3.50627443 0 0 Z " fill="#F9E7E1" transform="translate(102,19)"/>
<path d="M0 0 C0.99 0.33 1.98 0.66 3 1 C1.02 5.455 1.02 5.455 -1 10 C-1.66 9.67 -2.32 9.34 -3 9 C-2.01 6.03 -1.02 3.06 0 0 Z " fill="#FAEDE8" transform="translate(196,59)"/>
<path d="M0 0 C0.66 0 1.32 0 2 0 C1.38461538 5.53846154 1.38461538 5.53846154 -0.5625 7.875 C-1.036875 8.24625 -1.51125 8.6175 -2 9 C-2.33 8.34 -2.66 7.68 -3 7 C-2.06421005 4.64018187 -1.06652192 2.30368736 0 0 Z " fill="#FAEBE6" transform="translate(135,22)"/>
<path d="M0 0 C1.32 0 2.64 0 4 0 C4 1.98 4 3.96 4 6 C3.01 6.495 3.01 6.495 2 7 C0 4 0 4 0 0 Z " fill="#DE6C32" transform="translate(70,76)"/>
<path d="M0 0 C0 3.99904969 -1.72586967 5.80200422 -4 9 C-4.66 8.67 -5.32 8.34 -6 8 C-2.25 1.125 -2.25 1.125 0 0 Z " fill="#DD672B" transform="translate(90,54)"/>
</svg>
