<?xml version="1.0" encoding="UTF-8"?>
<svg version="1.1" xmlns="http://www.w3.org/2000/svg" width="3840" height="2160">
<path d="M0 0 C2.02070293 0.29386682 4.04153831 0.58682424 6.0625 0.87890625 C37.56185581 5.61582262 67.70213916 14.61959039 97 27 C97.88284668 27.36851074 98.76569336 27.73702148 99.67529297 28.11669922 C138.30868459 44.34703198 177.28981521 69.12939741 206.4453125 99.4453125 C208.13544042 101.13544042 209.91944649 102.65101131 211.75 104.1875 C216.81927344 108.56060629 221.2160479 113.5432693 225.67138672 118.52294922 C226.87462363 119.86061612 228.09458854 121.18318929 229.31640625 122.50390625 C261.94530644 157.93457247 285.69479864 200.91742977 302 246 C302.30147949 246.81984375 302.60295898 247.6396875 302.91357422 248.484375 C311.56219859 272.18906069 316.64154151 297.03309552 320 322 C320.11182617 322.81903809 320.22365234 323.63807617 320.33886719 324.48193359 C332.25634797 414.65252559 306.84436918 510.86472655 249.48046875 588.640625 C246.53815393 592.45598605 243.56094764 596.24273142 240.56689453 600.01757812 C239.16659551 601.78922475 237.78095842 603.57084275 236.40234375 605.359375 C235.69207031 606.27203125 234.98179687 607.1846875 234.25 608.125 C233.65703125 608.89070312 233.0640625 609.65640625 232.453125 610.4453125 C231.97359375 610.95835937 231.4940625 611.47140625 231 612 C230.34 612 229.68 612 229 612 C228.773125 612.53625 228.54625 613.0725 228.3125 613.625 C226.54429911 616.82460161 224.46329797 619.29037223 222 622 C221.34 622 220.68 622 220 622 C220 622.66 220 623.32 220 624 C219.34 624 218.68 624 218 624 C218 624.66 218 625.32 218 626 C217.34 626 216.68 626 216 626 C216 626.66 216 627.32 216 628 C214.625 629.625 214.625 629.625 213 631 C212.34 631 211.68 631 211 631 C211 631.66 211 632.32 211 633 C209.42578125 634.55078125 209.42578125 634.55078125 207.3125 636.3125 C204.80197706 638.43644684 202.39176579 640.55501344 200.125 642.9375 C198 645 198 645 196 645 C196 645.66 196 646.32 196 647 C194.33984375 648.5234375 194.33984375 648.5234375 191.9375 650.375 C188.83767975 652.78212299 185.75017497 655.19173445 182.734375 657.703125 C168.44411284 669.52961816 152.85436027 679.6813693 136.80371094 688.95556641 C134.93787637 690.03597251 133.08257982 691.13329927 131.2265625 692.23046875 C121.50372933 697.90660012 111.44410763 702.56529727 101.12939453 707.06005859 C98.60227821 708.17555938 96.11526196 709.36733415 93.625 710.5625 C52.75047412 728.95917601 5.09437875 739.00512575 -39.6328125 739.203125 C-40.70007065 739.21013931 -41.7673288 739.21715363 -42.8669281 739.22438049 C-46.28632893 739.24176767 -49.70555661 739.24823151 -53.125 739.25 C-54.87742508 739.25101212 -54.87742508 739.25101212 -56.66525269 739.25204468 C-73.32243045 739.23673701 -89.55689365 738.88723231 -106 736 C-107.09376953 735.81775879 -108.18753906 735.63551758 -109.31445312 735.44775391 C-117.24226968 734.11718795 -125.12510539 732.61267456 -133 731 C-134.33345459 730.73413086 -134.33345459 730.73413086 -135.69384766 730.46289062 C-159.68079248 725.5974602 -183.80748185 717.28585813 -206 707 C-206.95777344 706.56075195 -207.91554688 706.12150391 -208.90234375 705.66894531 C-235.26615308 693.51559126 -259.26911655 678.9027358 -282.29492188 661.25390625 C-283.97373092 660.01931816 -285.69356542 658.89666672 -287.453125 657.78125 C-288.29359375 657.1934375 -289.1340625 656.605625 -290 656 C-290 655.34 -290 654.68 -290 654 C-290.81210938 653.64421875 -290.81210938 653.64421875 -291.640625 653.28125 C-294.63250137 651.65652243 -297.11159399 649.6498123 -299.75 647.5 C-301.22726562 646.30890625 -301.22726562 646.30890625 -302.734375 645.09375 C-303.85585937 644.05734375 -303.85585937 644.05734375 -305 643 C-305 642.34 -305 641.68 -305 641 C-305.84256348 640.64421875 -305.84256348 640.64421875 -306.70214844 640.28125 C-309.52582658 638.70680643 -311.47614842 636.78315455 -313.765625 634.5 C-314.65507813 633.613125 -315.54453125 632.72625 -316.4609375 631.8125 C-317.38132812 630.884375 -318.30171875 629.95625 -319.25 629 C-320.65378906 627.6078125 -320.65378906 627.6078125 -322.0859375 626.1875 C-322.97023438 625.300625 -323.85453125 624.41375 -324.765625 623.5 C-325.98427246 622.27796875 -325.98427246 622.27796875 -327.22753906 621.03125 C-329 619 -329 619 -329 617 C-329.66 617 -330.32 617 -331 617 C-332.5078125 615.5390625 -332.5078125 615.5390625 -334.125 613.625 C-334.66382813 612.99851562 -335.20265625 612.37203125 -335.7578125 611.7265625 C-337 610 -337 610 -337 608 C-337.66 608 -338.32 608 -339 608 C-340.67283196 606.10102594 -342.21709453 604.19608784 -343.75 602.1875 C-344.23025635 601.56512451 -344.7105127 600.94274902 -345.20532227 600.30151367 C-346.81265914 598.20780317 -348.40713614 596.10473852 -350 594 C-350.55864746 593.2668457 -351.11729492 592.53369141 -351.69287109 591.77832031 C-360.45581197 580.24487139 -368.54358041 568.41915406 -376 556 C-376.40025391 555.33468262 -376.80050781 554.66936523 -377.21289062 553.98388672 C-403.54656097 509.76171373 -418.91020124 459.9097649 -425 409 C-425.11714355 408.10603516 -425.23428711 407.21207031 -425.35498047 406.29101562 C-432.15902092 354.00201528 -424.41911056 299.76164837 -408 250 C-407.67273926 249.00178223 -407.34547852 248.00356445 -407.00830078 246.97509766 C-397.11950078 217.25743379 -382.66054109 188.84080561 -365 163 C-364.5153125 162.29004883 -364.030625 161.58009766 -363.53125 160.84863281 C-354.59852215 147.83918477 -345.25646726 135.24745282 -334.484375 123.6953125 C-332.53767428 121.58332587 -330.65437069 119.44537032 -328.78125 117.26953125 C-324.62858763 112.50861677 -320.21793206 108.02640367 -315.75 103.5625 C-314.91098145 102.72356201 -314.07196289 101.88462402 -313.20751953 101.02026367 C-308.11108656 95.97059148 -302.97369208 91.22259384 -297.30859375 86.81640625 C-295.07157851 85.05631812 -293.01603317 83.19288993 -290.9375 81.25 C-240.69036777 36.12645728 -171.05706533 9.45781127 -105 0 C-104.02015137 -0.15098145 -103.04030273 -0.30196289 -102.03076172 -0.45751953 C-68.86100669 -5.4564405 -33.1001736 -5.27463651 0 0 Z " fill="#FF0A19" transform="translate(1972,414)"/>
<path d="M0 0 C3.4306872 3.08359009 5.33657491 6.17021717 7.390625 10.28515625 C7.69643997 10.89410736 8.00225494 11.50305847 8.31733704 12.13046265 C9.30403107 14.10341259 10.27777513 16.08238461 11.25 18.0625 C11.58425995 18.73717316 11.9185199 19.41184631 12.26290894 20.10696411 C17.21082348 30.09608293 21.92014774 40.14840749 26.01586914 50.52172852 C26.7894408 52.46976273 27.57828847 54.41173142 28.37280273 56.35131836 C31.91532552 65.02311145 35.07486274 73.76341895 37.9375 82.6875 C38.25624084 83.68103485 38.25624084 83.68103485 38.5814209 84.69464111 C54.43881357 134.35192017 60.72064066 184.96821102 60 237 C59.98743164 237.93505371 59.97486328 238.87010742 59.96191406 239.83349609 C58.44006173 323.0229137 30.34556749 405.61990136 -14.72314453 475.02978516 C-15.81494309 476.7144533 -16.89147837 478.40899664 -17.96484375 480.10546875 C-28.97009974 497.17926853 -41.96665217 513.43478619 -55.6640625 528.41796875 C-56.92369223 529.81030194 -58.17743051 531.20863392 -59.39379883 532.63891602 C-64.55632859 538.68559685 -70.14112247 544.29303706 -75.76977539 549.90014648 C-77.43426277 551.5592732 -79.09333447 553.22368051 -80.75195312 554.88867188 C-86.32749871 560.46801981 -91.95727708 565.92256265 -98 571 C-98.92683594 571.79664063 -99.85367188 572.59328125 -100.80859375 573.4140625 C-118.86150111 588.59674536 -137.96093433 602.55305457 -158 615 C-159.10859375 615.69222656 -160.2171875 616.38445313 -161.359375 617.09765625 C-198.8037126 640.17363359 -238.88384456 656.65526779 -281 669 C-281.8245166 669.24943359 -282.6490332 669.49886719 -283.49853516 669.75585938 C-309.38032145 677.56102332 -337.13250063 681.60363175 -364 684 C-364.96490575 684.086879 -365.92981149 684.17375801 -366.92395681 684.26326971 C-374.74165307 684.91882221 -382.48985671 685.1472718 -390.33271122 685.14425182 C-391.61616982 685.14769323 -392.89962842 685.15113465 -394.22197971 685.15468034 C-397.7609682 685.16402842 -401.29993968 685.16734422 -404.83893883 685.16960812 C-408.69792519 685.17316171 -412.55689876 685.18241479 -416.41587681 685.19091636 C-423.17129794 685.2050119 -429.92671703 685.21546527 -436.68214798 685.22349739 C-446.72736044 685.23544444 -456.77255778 685.25298916 -466.81775986 685.27157578 C-485.7996992 685.30647523 -504.78164492 685.33464757 -523.76359833 685.36059722 C-538.41524094 685.38064229 -553.06688047 685.40224325 -567.71851921 685.42493629 C-571.93676326 685.43145114 -576.15500732 685.43795795 -580.37325138 685.44446212 C-581.42190161 685.44607938 -582.47055183 685.44769664 -583.55097934 685.44936291 C-613.03609339 685.49477201 -642.52120997 685.53800353 -672.00633335 685.57690716 C-673.6730611 685.57910808 -673.6730611 685.57910808 -675.37346012 685.58135347 C-681.00523257 685.58878637 -686.63700503 685.59620394 -692.2687775 685.60361841 C-693.94652063 685.6058279 -693.94652063 685.6058279 -695.65815756 685.60808203 C-697.92002146 685.61106069 -700.18188537 685.61403798 -702.44374927 685.6170139 C-737.67027721 685.66341989 -772.89678479 685.717936 -808.12329102 685.77856445 C-847.69537752 685.84666633 -887.26746668 685.90801999 -926.83957809 685.95981437 C-931.05499299 685.96535645 -935.27040784 685.97092473 -939.48582268 685.976511 C-941.04275512 685.97856825 -941.04275512 685.97856825 -942.63114075 685.98066705 C-959.36013418 686.00292997 -976.08911062 686.03164572 -992.81808999 686.06258262 C-1009.61183677 686.09346125 -1026.4055812 686.11688827 -1043.19934905 686.13268574 C-1053.18552021 686.1422919 -1063.17164663 686.1574985 -1073.15779584 686.18062021 C-1079.81892723 686.19549338 -1086.48004107 686.20314732 -1093.14118882 686.20480734 C-1096.94224614 686.20596179 -1100.74322666 686.21035515 -1104.54426307 686.22349032 C-1108.62950514 686.23753233 -1112.71459402 686.23622662 -1116.79985905 686.2332716 C-1117.99210275 686.23984412 -1119.18434645 686.24641665 -1120.41271874 686.25318834 C-1122.03810071 686.24821225 -1122.03810071 686.24821225 -1123.69631869 686.24313563 C-1124.63116558 686.2444717 -1125.56601248 686.24580776 -1126.52918807 686.24718432 C-1129.12852035 685.9871426 -1130.7659219 685.31861123 -1133 684 C-1132.58226318 683.55720703 -1132.16452637 683.11441406 -1131.73413086 682.65820312 C-1129.80044849 680.60685083 -1127.86896851 678.55343683 -1125.9375 676.5 C-1125.28072266 675.80390625 -1124.62394531 675.1078125 -1123.94726562 674.390625 C-1120.09248284 670.2889842 -1116.33041776 666.12569471 -1112.64086914 661.875 C-1109.77209022 658.59688333 -1106.79969278 655.41495919 -1103.83203125 652.2265625 C-1101.86436067 650.09724193 -1099.99523015 647.99339223 -1098.296875 645.640625 C-1097.86890625 645.09921875 -1097.4409375 644.5578125 -1097 644 C-1096.34 644 -1095.68 644 -1095 644 C-1094.60276733 643.11948975 -1094.60276733 643.11948975 -1094.19750977 642.22119141 C-1092.95987425 639.92557308 -1091.63894023 638.34043619 -1089.83984375 636.4609375 C-1088.90362183 635.47444214 -1088.90362183 635.47444214 -1087.94848633 634.46801758 C-1087.28486084 633.77732178 -1086.62123535 633.08662598 -1085.9375 632.375 C-1084.56436336 630.92908858 -1083.19196427 629.48247636 -1081.8203125 628.03515625 C-1081.15805664 627.33793457 -1080.49580078 626.64071289 -1079.81347656 625.92236328 C-1076.89614147 622.8298624 -1074.06878505 619.65993805 -1071.23828125 616.48828125 C-1068.51985065 613.46622141 -1065.7617932 610.48239197 -1063 607.5 C-1058.73013163 602.8873639 -1054.50032755 598.24256785 -1050.30859375 593.55859375 C-1048.56191426 591.62276454 -1046.8049101 589.69970301 -1045.03515625 587.78515625 C-1044.53121338 587.23931885 -1044.02727051 586.69348145 -1043.50805664 586.13110352 C-1042.52089418 585.0633955 -1041.53186832 583.99740656 -1040.54077148 582.93334961 C-1037.97279468 580.18149142 -1037.97279468 580.18149142 -1036 577 C-1035.34 577 -1034.68 577 -1034 577 C-1033.74114014 576.41895508 -1033.48228027 575.83791016 -1033.21557617 575.23925781 C-1031.90515824 572.82528848 -1030.45153118 571.15002879 -1028.55078125 569.171875 C-1027.52500977 568.09486328 -1027.52500977 568.09486328 -1026.47851562 566.99609375 C-1025.40633789 565.88427734 -1025.40633789 565.88427734 -1024.3125 564.75 C-1019.66591125 559.90101119 -1015.100485 555.01970177 -1010.70385742 549.94238281 C-1007.87966518 546.72282794 -1004.93721445 543.61613932 -1002 540.5 C-997.89374756 536.12367693 -993.83425371 531.73061607 -989.92578125 527.17578125 C-986.48583272 523.28926739 -982.91359822 519.52204292 -979.35327148 515.74584961 C-978.80614502 515.16198486 -978.25901855 514.57812012 -977.6953125 513.9765625 C-976.9530542 513.18886475 -976.9530542 513.18886475 -976.19580078 512.38525391 C-974.89287448 510.99069181 -974.89287448 510.99069181 -974 509 C-973.34 509 -972.68 509 -972 509 C-971.6596875 508.195625 -971.6596875 508.195625 -971.3125 507.375 C-969.54429911 504.17539839 -967.46329797 501.70962777 -965 499 C-964.34 499 -963.68 499 -963 499 C-962.72800781 498.41089844 -962.45601562 497.82179688 -962.17578125 497.21484375 C-961.0244625 495.04608053 -959.80016325 493.40493585 -958.1875 491.5625 C-957.70667969 491.00691406 -957.22585938 490.45132812 -956.73046875 489.87890625 C-955.44972262 488.48829928 -954.13095788 487.13249601 -952.79296875 485.796875 C-949.16317997 482.16200959 -945.64522643 478.42815182 -942.125 474.6875 C-941.44308594 473.96626953 -940.76117187 473.24503906 -940.05859375 472.50195312 C-936.18285194 468.38628444 -932.40686524 464.20524319 -928.70166016 459.93579102 C-925.91441122 456.76504542 -923.01915228 453.69790397 -920.125 450.625 C-915.41854937 445.60528324 -910.75430765 440.55557775 -906.171875 435.421875 C-904.54659307 433.60951025 -902.91204938 431.80860175 -901.265625 430.015625 C-900.80510742 429.51321289 -900.34458984 429.01080078 -899.87011719 428.49316406 C-898.57108476 427.07746871 -897.26997689 425.66367859 -895.96875 424.25 C-893.97743103 422.16521364 -893.97743103 422.16521364 -893 420 C-892.34 420 -891.68 420 -891 420 C-890.79375 419.46375 -890.5875 418.9275 -890.375 418.375 C-888.41795665 414.9946524 -886.14529862 412.33803738 -883 410 C-880.18737388 409.40584932 -878.23374838 409.19157648 -875.43704796 409.25168228 C-874.69225243 409.24367004 -873.94745689 409.23565779 -873.1800918 409.22740275 C-870.68158137 409.20783336 -868.18531421 409.2310252 -865.68685913 409.25396729 C-863.87846509 409.24865217 -862.07007719 409.24069916 -860.26170504 409.23033404 C-855.28957417 409.20944693 -850.3181564 409.22592252 -845.34605813 409.24838138 C-839.98358148 409.26605934 -834.62120283 409.24913432 -829.25872803 409.23631287 C-819.96069576 409.21874594 -810.66287639 409.22291922 -801.36484909 409.24155426 C-787.89098122 409.26834774 -774.41730977 409.26013728 -760.94343431 409.24306569 C-739.04315884 409.21608411 -717.14295973 409.21441248 -695.24267578 409.22998047 C-674.03694017 409.24497386 -652.83122949 409.25318045 -631.62548828 409.24853516 C-629.67122166 409.24811538 -629.67122166 409.24811538 -627.6774749 409.24768713 C-613.42504489 409.24435402 -599.17261811 409.23821524 -584.92019081 409.22881699 C-583.66365576 409.22799395 -582.40712071 409.22717091 -581.11250884 409.22632293 C-576.08571414 409.22299371 -571.0589195 409.21963561 -566.03212507 409.21592352 C-551.3671814 409.20516565 -536.70229755 409.20294746 -522.03735526 409.21661654 C-512.81620369 409.22500074 -503.59506649 409.22684053 -494.37391166 409.22375378 C-489.0682314 409.22230558 -483.76260629 409.22413026 -478.45693588 409.23503685 C-405.37384962 409.37847562 -336.21939692 397.38844857 -269 368 C-268.15663086 367.63165039 -267.31326172 367.26330078 -266.44433594 366.88378906 C-253.90833273 361.34286483 -241.94499604 354.7014027 -230 348 C-229.26313965 347.59056152 -228.5262793 347.18112305 -227.76708984 346.75927734 C-209.25741236 336.43144549 -191.50678704 324.28894612 -175 311 C-174.175 310.35417969 -173.35 309.70835937 -172.5 309.04296875 C-167.56908903 305.1630372 -162.76824576 301.13925668 -158 297.0625 C-157.45480713 296.59666504 -156.90961426 296.13083008 -156.34790039 295.65087891 C-147.41509685 287.96717052 -138.81516547 280.00178588 -130.48608398 271.67138672 C-128.94076934 270.1282647 -127.38759554 268.59335694 -125.83398438 267.05859375 C-120.17927892 261.43487391 -114.92078547 255.70042201 -109.97021484 249.43774414 C-107.96953488 246.96230555 -105.86289276 244.6348928 -103.6875 242.3125 C-98.14277065 236.21716164 -93.30286937 229.62048033 -88.44482422 222.97558594 C-87.13837 221.18920075 -85.82207243 219.41055698 -84.50390625 217.6328125 C-37.39332279 153.49802393 -10.62642659 78.39319969 0 0 Z " fill="#FF0A19" transform="translate(2382,833)"/>
<path d="M0 0 C1.93698854 -0.00173077 1.93698854 -0.00173077 3.91310817 -0.0034965 C7.48812763 -0.00655099 11.06311842 -0.00340254 14.63813573 0.00078164 C18.53089089 0.00422749 22.42364325 0.00184282 26.31639898 0.00020415 C33.13565985 -0.00186662 39.95491198 -0.00023089 46.77417183 0.00384235 C56.9141311 0.00988225 67.05408487 0.0101777 77.19404561 0.00930037 C94.25182037 0.00798697 111.30959125 0.01132595 128.36736488 0.01731777 C145.25633959 0.02323509 162.14531267 0.02708378 179.03428841 0.02817059 C180.08445187 0.02823933 181.13461533 0.02830806 182.21660193 0.02837889 C187.54986639 0.02871722 192.88313084 0.0290186 198.2163953 0.02930576 C235.99042743 0.03140609 273.76445745 0.03814322 311.53848839 0.04760838 C348.23510286 0.05679295 384.93171675 0.06387649 421.62833214 0.06811619 C423.32510082 0.06831348 423.32510082 0.06831348 425.05614765 0.06851475 C436.41592859 0.06983327 447.77570954 0.07110909 459.13549049 0.07235361 C482.27660823 0.07488981 505.41772593 0.07771107 528.55884361 0.08070469 C529.62283132 0.08084198 530.68681902 0.08097927 531.78304878 0.08112072 C602.83255166 0.09032115 673.88205337 0.10616633 744.93155479 0.12304783 C743.97447146 1.40907617 743.01602303 2.69408867 742.0569973 3.97866917 C741.52340756 4.69436888 740.98981783 5.41006859 740.44005871 6.14745617 C738.78965763 8.30888153 737.04378934 10.30865164 735.16202354 12.27148533 C734.50556847 12.96145603 733.84911339 13.65142673 733.17276573 14.36230564 C732.15617882 15.41949802 732.15617882 15.41949802 731.11905479 16.49804783 C729.68987017 17.99989186 728.26147867 19.50249106 726.83389854 21.00586033 C726.15569054 21.71903416 725.47748253 22.43220798 724.77872276 23.16699314 C721.83489649 26.28435187 718.97988519 29.47758217 716.12686729 32.67773533 C713.46421827 35.64360417 710.76306604 38.57224021 708.05655479 41.49804783 C707.55067833 42.04517429 707.04480186 42.59230076 706.52359581 43.15600681 C705.50059497 44.26239826 704.47756433 45.36876216 703.45450401 46.47509861 C695.37946064 55.18251279 695.37946064 55.18251279 687.49405479 64.06054783 C683.8694339 68.2441464 680.09770412 72.28739393 676.33414268 76.34545994 C673.65754442 79.23668911 671.008443 82.14194186 668.43155479 85.12304783 C663.41151805 90.92100794 658.14555188 96.5001098 652.93155479 102.12304783 C645.87557676 109.74069576 638.86050322 117.38928507 631.93155479 125.12304783 C630.39002838 126.83150772 628.84836126 128.53984067 627.30655479 130.24804783 C624.60745756 133.24235882 621.94064846 136.25899735 619.30655479 139.31054783 C616.55815113 142.47057877 613.6569406 145.41672358 610.67374229 148.35351658 C608.26667386 150.79836411 606.03720908 153.37922513 603.79483604 155.97461033 C597.35293368 163.40238035 590.65752213 170.6049334 583.98233604 177.82226658 C577.77838718 184.53089002 571.59468686 191.25768473 565.49405479 198.06054783 C561.49707101 202.51514693 557.4408107 206.91223262 553.37540245 211.30420017 C549.61926951 215.36646811 545.90864896 219.46712603 542.21671104 223.58789158 C539.59882351 226.49218049 536.95402276 229.37075558 534.30655479 232.24804783 C531.3293066 235.48515812 528.37202458 238.73442702 525.49405479 242.06054783 C520.44911178 247.8760788 515.16294352 253.47587658 509.93155479 259.12304783 C507.90788901 261.30795184 505.88727934 263.49561748 503.86905479 265.68554783 C502.99120323 266.63558689 502.11335167 267.58562595 501.20889854 268.56445408 C498.93984633 270.92830246 498.93984633 270.92830246 497.74186528 273.25174564 C495.93155479 275.12304783 495.93155479 275.12304783 492.73716629 275.62280184 C491.38801327 275.6432297 490.03841914 275.64133821 488.68924332 275.62247658 C487.9426538 275.62788154 487.19606429 275.6332865 486.42685086 275.63885525 C483.90455942 275.65219669 481.38323847 275.63684924 478.86096764 275.62184238 C477.04223205 275.62556659 475.22349935 275.63105355 473.40477383 275.63815922 C468.39005369 275.65266638 463.3756424 275.64220519 458.36093307 275.62787616 C452.95742421 275.6167946 447.55396265 275.62874472 442.15045738 275.63806248 C432.77548811 275.65118075 423.40060793 275.64996821 414.02563667 275.63946819 C400.43497287 275.62453195 386.84441355 275.63444341 373.2537557 275.65098738 C351.15790877 275.67748459 329.0620847 275.68835218 306.96622276 275.68725681 C306.30468663 275.68722783 305.6431505 275.68719885 304.96156781 275.687169 C298.93314513 275.68690176 292.90472246 275.68654703 286.87629979 275.68611682 C272.18687273 275.68511855 257.4974465 275.68647327 242.80801964 275.68920994 C241.49526609 275.68944983 240.18251253 275.68968972 238.82997857 275.68993688 C216.85436166 275.69436066 194.8787663 275.71066859 172.90316212 275.73443073 C159.37013849 275.74842983 145.83719746 275.75144582 132.3041711 275.73980784 C122.99837695 275.73242241 113.69262402 275.73563205 104.38683377 275.74676628 C99.03597937 275.75277424 93.68524085 275.75410807 88.33439445 275.741889 C-10.89713836 275.52988537 -107.87339649 299.81936089 -190.06844521 357.12304783 C-190.65529091 357.53119724 -191.24213661 357.93934666 -191.84676552 358.35986423 C-207.35334481 369.18911839 -222.36736844 380.72734083 -236.26766396 393.56836033 C-238.36994052 395.48591803 -240.49395033 397.34402799 -242.65438271 399.19336033 C-247.79268148 403.67780378 -252.61183524 408.48038476 -257.43148232 413.3007822 C-258.99453254 414.8616511 -260.56541886 416.41432671 -262.13680458 417.96679783 C-267.81806455 423.61713093 -273.11101264 429.37274123 -278.08431435 435.66528416 C-280.15246175 438.22712001 -282.33114535 440.64584656 -284.56844521 443.06054783 C-288.96769167 447.90730385 -292.89923002 453.00894898 -296.74520302 458.30224705 C-298.25038495 460.37339961 -299.76528283 462.43731288 -301.27938271 464.50195408 C-307.15752862 472.54697911 -312.8727614 480.61582929 -318.06844521 489.12304783 C-318.85784812 490.37495682 -319.6482995 491.62620502 -320.43953896 492.87695408 C-357.08330424 551.24863659 -379.32337207 616.78259257 -387.06844521 685.12304783 C-387.72844521 685.12304783 -388.38844521 685.12304783 -389.06844521 685.12304783 C-406.42761233 652.28198192 -420.94795074 618.98144954 -431.06844521 583.12304783 C-431.33995399 582.16753025 -431.61146278 581.21201267 -431.89119911 580.22754002 C-441.56472666 545.58448089 -446.35706998 509.02971212 -447.06844521 473.12304783 C-447.1013163 471.56432957 -447.1013163 471.56432957 -447.13485146 469.97412205 C-448.39913284 399.60632707 -433.26269775 329.94939277 -403.38094521 266.24804783 C-402.92204903 265.26921131 -402.92204903 265.26921131 -402.45388222 264.27060032 C-396.04620228 250.66931157 -389.07798192 237.43118039 -381.19344521 224.62304783 C-380.58903603 223.63747898 -379.98462685 222.65191013 -379.36190224 221.63647556 C-370.91627841 207.93278426 -361.88151595 194.88195891 -352.06844521 182.12304783 C-351.58698036 181.49446873 -351.10551552 180.86588963 -350.60946083 180.21826267 C-345.34178659 173.35699121 -339.95403273 166.70310702 -334.09578896 160.33007908 C-332.31803106 158.39475497 -330.59268269 156.42901766 -328.88094521 154.43554783 C-325.32479678 150.3522527 -321.63588646 146.39517698 -317.94344521 142.43554783 C-317.04589516 141.47225559 -317.04589516 141.47225559 -316.13021278 140.48950291 C-314.4501821 138.69368853 -312.76165554 136.90643217 -311.06844521 135.12304783 C-310.58279091 134.6053281 -310.09713661 134.08760838 -309.59676552 133.55420017 C-308.46049497 132.37089718 -307.26939155 131.24065448 -306.06844521 130.12304783 C-305.40844521 130.12304783 -304.74844521 130.12304783 -304.06844521 130.12304783 C-304.06844521 129.46304783 -304.06844521 128.80304783 -304.06844521 128.12304783 C-302.70516396 126.74804783 -302.70516396 126.74804783 -300.75594521 125.12304783 C-297.35197073 122.23446385 -294.03762122 119.27511105 -290.75594521 116.24804783 C-221.4822935 53.16805136 -130.28358649 14.16314502 -23.06844521 1.12304783 C-22.38278737 1.0398646 -21.69712954 0.95668137 -20.9906942 0.87097744 C-13.98178674 0.07558562 -7.04857657 -0.01556256 0 0 Z " fill="#FF0A19" transform="translate(1845.0684452056885,45.876952171325684)"/>
<path d="M0 0 C13.67302562 -0.0231205 27.34604664 -0.04091359 41.01908779 -0.05181217 C47.36730576 -0.05704164 53.7155104 -0.06414044 60.0637207 -0.07543945 C66.18448582 -0.08626606 72.30523809 -0.09227635 78.42601204 -0.09487724 C80.76690943 -0.0967319 83.10780609 -0.10035329 85.44869804 -0.10573006 C88.71508202 -0.11293748 91.98141215 -0.11399107 95.24780273 -0.11352539 C96.226035 -0.11712067 97.20426727 -0.12071594 98.21214294 -0.12442017 C99.09700378 -0.1230455 99.98186462 -0.12167084 100.89353943 -0.12025452 C101.66692374 -0.12117631 102.44030806 -0.1220981 103.23712826 -0.12304783 C105 0 105 0 106 1 C106.09650437 2.86028034 106.12187292 4.72427029 106.12025452 6.58705139 C106.12231651 8.40657066 106.12231651 8.40657066 106.12442017 10.2628479 C106.12088056 11.61932397 106.11724575 12.9757998 106.11352539 14.33227539 C106.11324352 15.75112404 106.11340124 17.16997284 106.1139679 18.58882141 C106.11425589 22.45228801 106.1083589 26.31572383 106.10139394 30.17918324 C106.09516067 34.21242573 106.09455662 38.24566885 106.09336853 42.27891541 C106.09025514 49.92165468 106.08204164 57.56437973 106.07201904 65.20711273 C106.06085816 73.90588019 106.05534752 82.60464831 106.05032361 91.30342114 C106.03985903 109.20228884 106.02225943 127.10114328 106 145 C106.74711243 144.52047379 107.49422485 144.04094757 108.26397705 143.54689026 C109.24839783 142.91725876 110.2328186 142.28762726 111.24707031 141.63891602 C112.22105774 141.0150148 113.19504517 140.39111359 114.19854736 139.74830627 C117.62869543 137.60764921 121.11896615 135.70987546 124.75 133.9375 C125.77202515 133.43790771 125.77202515 133.43790771 126.81469727 132.92822266 C128.8697696 131.93716776 130.93242572 130.96466544 133 130 C134.14855469 129.46246094 135.29710938 128.92492188 136.48046875 128.37109375 C165.20107903 115.9417223 199.53762346 112.91280637 230 120 C230.7204248 120.16628906 231.44084961 120.33257813 232.18310547 120.50390625 C243.24299455 123.1695345 253.06178759 127.52574121 263 133 C264.65902344 133.90298828 264.65902344 133.90298828 266.3515625 134.82421875 C284.3310224 144.9518892 300.4828971 159.91710051 312 177 C312.59554687 177.86238281 313.19109375 178.72476562 313.8046875 179.61328125 C336.86209949 214.19939923 344.08859613 260.48970728 337 301 C336.86045898 301.85287598 336.72091797 302.70575195 336.57714844 303.58447266 C334.76864852 314.63321682 332.78674416 325.43142136 329 336 C328.78617676 336.61504395 328.57235352 337.23008789 328.35205078 337.86376953 C321.84708047 356.51563572 312.9215997 372.96474908 300 388 C299.26652344 388.86882813 298.53304687 389.73765625 297.77734375 390.6328125 C292.68406615 396.5075983 287.24717216 401.38210576 281 406 C280.1853125 406.60714844 279.370625 407.21429687 278.53125 407.83984375 C272.62621453 412.10978237 266.49406564 415.70230425 260 419 C259.18402344 419.42023437 258.36804687 419.84046875 257.52734375 420.2734375 C228.85235828 434.18989104 191.8016832 438.85934701 161 430 C160.2457373 429.79213867 159.49147461 429.58427734 158.71435547 429.37011719 C139.79574498 424.14430839 120.47756844 416.8416029 106 403 C106 402.34 106 401.68 106 401 C105.01 400.67 104.02 400.34 103 400 C102.01 412.87 102.01 412.87 101 426 C67.67 426 34.34 426 0 426 C-0.86248189 421.68759055 -1.12528394 418.20477963 -1.12584114 413.8466692 C-1.12729458 413.13407059 -1.12874802 412.42147199 -1.13024551 411.68727949 C-1.13390244 409.29327336 -1.1304205 406.89933101 -1.12698364 404.50532532 C-1.12813557 402.77414374 -1.12972358 401.04296241 -1.13171089 399.31178159 C-1.13589417 394.54967352 -1.13381802 389.78758544 -1.13072467 385.02547729 C-1.12846679 379.89187157 -1.13195209 374.75826934 -1.13470459 369.62466431 C-1.13915681 359.56681495 -1.13818832 349.50897305 -1.13529195 339.45112339 C-1.13303615 331.28049163 -1.13272616 323.10986195 -1.13381577 314.93922997 C-1.133969 313.7776085 -1.13412223 312.61598704 -1.13428011 311.41916492 C-1.13459982 309.05960105 -1.13492404 306.70003718 -1.1352527 304.34047332 C-1.13810579 282.20349267 -1.13482294 260.06651616 -1.12945233 237.92953619 C-1.12498268 218.91713338 -1.12576189 199.90473668 -1.13037109 180.89233398 C-1.13571682 158.83143281 -1.13783298 136.77053526 -1.13475883 114.70963353 C-1.13444027 112.35952993 -1.1341259 110.00942634 -1.13381577 107.65932274 C-1.13366149 106.5029169 -1.13350721 105.34651106 -1.13334826 104.15506262 C-1.13248324 95.98861602 -1.13394564 87.82217172 -1.13629532 79.65572548 C-1.13909342 69.71191213 -1.13835477 59.76810668 -1.13301457 49.82429425 C-1.13037797 44.74666418 -1.12937184 39.6690473 -1.13266373 34.59141731 C-1.13562741 29.95002546 -1.13403265 25.30865912 -1.12868617 20.66726961 C-1.12756232 18.98166137 -1.12815247 17.296051 -1.13056196 15.61044411 C-1.13357065 13.33220053 -1.13051652 11.05404617 -1.12584114 8.77580738 C-1.12567879 7.50645464 -1.12551644 6.23710189 -1.12534916 4.92928392 C-1 2 -1 2 0 0 Z M121.8125 220.25 C104.88507488 241.30138705 103.02861963 266.69107688 105.22705078 292.68457031 C107.32201884 310.26456679 115.69683374 327.94405347 129.6875 339.125 C137.31917779 344.53816681 145.67701374 348.76007422 155 350 C155.88945312 350.13277344 156.77890625 350.26554687 157.6953125 350.40234375 C174.61864432 352.41057913 190.14447024 348.22863538 203.66015625 337.96484375 C205.91572701 336.0707668 208.02882247 334.18969144 210 332 C210 331.34 210 330.68 210 330 C210.66 330 211.32 330 212 330 C224.09994445 315.89554668 228.42750489 296.09582378 229 278 C229.05994141 276.85724609 229.05994141 276.85724609 229.12109375 275.69140625 C229.43688032 265.56766027 227.37952632 255.66797553 224.5625 246 C224.35729736 245.29423828 224.15209473 244.58847656 223.94067383 243.86132812 C221.72661116 236.59483853 218.19616796 230.29425194 214 224 C213.53078125 223.27554687 213.0615625 222.55109375 212.578125 221.8046875 C204.95521739 210.97412075 192.0787988 203.21001594 179.203125 200.38671875 C156.86364183 197.68963481 137.42801082 203.3639358 121.8125 220.25 Z " fill="#FF1129" transform="translate(2084,1700)"/>
<path d="M0 0 C3.54979678 0.01825151 7.09933104 0.02050905 10.64916992 0.02026367 C25.36913259 0.04251047 39.9953703 0.15458667 54.5612793 2.51831055 C55.78258545 2.70961548 55.78258545 2.70961548 57.02856445 2.90478516 C59.72820377 3.33105734 62.4259086 3.76849403 65.1237793 4.20581055 C66.16002441 4.37016602 67.19626953 4.53452148 68.26391602 4.70385742 C71.50994798 5.21886923 74.75454239 5.74211806 77.9987793 6.26831055 C79.01512451 6.43049072 80.03146973 6.5926709 81.07861328 6.75976562 C85.94515338 7.56385235 90.47709489 8.50596413 95.1237793 10.20581055 C97.5786707 10.92598211 100.03712244 11.63411521 102.4987793 12.33081055 C104.36663086 12.86061523 104.36663086 12.86061523 106.2722168 13.40112305 C107.21323242 13.66666992 108.15424805 13.9322168 109.1237793 14.20581055 C109.32939154 23.63358249 108.68473545 32.92309852 107.84643555 42.3034668 C107.71386636 43.82934285 107.58174951 45.35525827 107.45005798 46.88121033 C107.10483141 50.86719969 106.75343763 54.85262129 106.4006958 58.83795166 C106.04476463 62.87234483 105.69493804 66.90726686 105.34448242 70.94213867 C104.71641652 78.16045824 104.08660948 85.37861107 103.44216919 92.5954895 C103.23717771 94.91995098 103.03894615 97.24502361 102.84909058 99.57077026 C102.76627838 100.56335846 102.68346619 101.55594666 102.59814453 102.57861328 C102.52965805 103.43228989 102.46117157 104.28596649 102.39060974 105.16551208 C102.1237793 107.20581055 102.1237793 107.20581055 101.1237793 109.20581055 C99.9687793 108.81393555 98.8137793 108.42206055 97.6237793 108.01831055 C94.50789661 106.97639098 91.3832942 105.97024979 88.24487305 104.9987793 C87.55651367 104.78568115 86.8681543 104.57258301 86.15893555 104.35302734 C84.79370379 103.93179487 83.4278474 103.5125798 82.0612793 103.09570312 C78.79359791 102.087494 75.62573494 101.01113007 72.4362793 99.7644043 C40.37905008 87.57697232 -2.55224251 80.0636799 -35.3762207 92.51831055 C-42.25446635 95.64310494 -47.05279347 98.79511667 -50.3137207 105.76831055 C-52.81928042 112.95959232 -53.48011985 121.38433743 -50.4387207 128.51831055 C-40.34424386 145.12198453 -16.53087098 151.57119865 0.73925781 157.61132812 C98.93619107 191.96887809 98.93619107 191.96887809 121.44628906 238.34936523 C133.50292887 264.0038807 134.25878006 290.75042326 129.1237793 318.20581055 C128.93041992 319.29249023 128.73706055 320.37916992 128.5378418 321.4987793 C122.69183288 349.02057451 103.58107896 372.88954253 80.39331055 387.9831543 C77.9963764 389.44361184 75.5730485 390.83538611 73.1237793 392.20581055 C72.46893555 392.59897461 71.8140918 392.99213867 71.1394043 393.3972168 C33.9552232 415.23211384 -11.19709001 419.4862038 -53.4387207 419.45581055 C-54.3649826 419.45521637 -55.29124451 419.45462219 -56.24557495 419.45401001 C-58.8947297 419.44749799 -61.54356002 419.43106273 -64.19262695 419.40893555 C-64.98194611 419.40453964 -65.77126526 419.40014374 -66.58450317 419.39561462 C-70.79062408 419.34194632 -74.72838914 418.98108177 -78.8762207 418.20581055 C-80.25188746 418.07537299 -81.62976457 417.96580013 -83.0090332 417.8815918 C-151.08552838 413.06627209 -151.08552838 413.06627209 -168.8762207 401.20581055 C-168.99050366 398.32093803 -168.91867003 395.69369385 -168.6887207 392.83081055 C-168.63047119 391.97285889 -168.57222168 391.11490723 -168.51220703 390.23095703 C-168.32155278 387.55374165 -168.10434768 384.8800764 -167.8762207 382.20581055 C-167.81273437 381.45541504 -167.74924805 380.70501953 -167.68383789 379.93188477 C-166.91455911 371.17591424 -165.90522096 362.44421879 -164.92700195 353.7097168 C-164.84204468 352.95088196 -164.7570874 352.19204712 -164.66955566 351.41021729 C-163.95210318 345.00420022 -163.95210318 345.00420022 -163.60955811 341.9644165 C-162.42820925 331.4742672 -161.32283105 320.98542741 -160.47192383 310.4621582 C-160.20073695 307.20462451 -159.91434984 304.32019795 -158.8762207 301.20581055 C-155.42581375 301.79188627 -152.54080821 302.67256306 -149.3840332 304.17456055 C-148.09698486 304.7773584 -148.09698486 304.7773584 -146.78393555 305.39233398 C-145.86563965 305.82578125 -144.94734375 306.25922852 -144.0012207 306.70581055 C-114.30916048 320.42507774 -83.86617405 331.28052599 -50.8762207 332.20581055 C-49.81532227 332.28057617 -48.75442383 332.3553418 -47.66137695 332.43237305 C-36.35913883 332.95296098 -25.4962659 330.18418504 -14.51660156 327.77832031 C-11.97463792 327.2271502 -9.42808649 326.70890998 -6.8762207 326.20581055 C-6.8762207 325.54581055 -6.8762207 324.88581055 -6.8762207 324.20581055 C-0.1262207 320.20581055 -0.1262207 320.20581055 2.1237793 320.20581055 C2.4950293 319.40143555 2.4950293 319.40143555 2.8737793 318.58081055 C4.1237793 316.20581055 4.1237793 316.20581055 6.1237793 313.45581055 C10.85970319 305.75993422 11.22384438 296.91285962 9.54174805 288.1862793 C5.90091251 275.23554468 -3.53067296 267.65429072 -14.8762207 261.20581055 C-19.79613383 258.67180847 -24.79274261 256.38983237 -29.8762207 254.20581055 C-30.59068359 253.89724121 -31.30514648 253.58867188 -32.04125977 253.27075195 C-40.18077248 249.77803723 -48.27990793 246.42353251 -56.8762207 244.20581055 C-56.8762207 243.54581055 -56.8762207 242.88581055 -56.8762207 242.20581055 C-57.6805957 242.09366211 -57.6805957 242.09366211 -58.5012207 241.97924805 C-76.16690565 239.01559695 -92.7019448 229.91699447 -108.51098633 221.87036133 C-111.91297816 220.14581316 -115.30681759 218.55288414 -118.8762207 217.20581055 C-118.8762207 216.54581055 -118.8762207 215.88581055 -118.8762207 215.20581055 C-119.6187207 214.91706055 -120.3612207 214.62831055 -121.1262207 214.33081055 C-123.44361867 213.3827841 -125.65539185 212.35735143 -127.8762207 211.20581055 C-127.8762207 210.54581055 -127.8762207 209.88581055 -127.8762207 209.20581055 C-128.9590332 208.84422852 -128.9590332 208.84422852 -130.0637207 208.4753418 C-133.26494037 207.03034681 -135.30827714 205.28069558 -137.8762207 202.89331055 C-138.75020508 202.08249023 -139.62418945 201.27166992 -140.5246582 200.4362793 C-143.02564935 198.06407673 -145.50154925 195.70546471 -147.8762207 193.20581055 C-148.45629883 192.63217773 -149.03637695 192.05854492 -149.6340332 191.4675293 C-167.35126346 173.02076603 -173.52305203 147.94182168 -173.3762207 123.08081055 C-173.37412598 122.2666568 -173.37203125 121.45250305 -173.36987305 120.61367798 C-173.22355829 93.01539533 -164.63186806 70.48436519 -146.3215332 49.53393555 C-144.8762207 48.20581055 -144.8762207 48.20581055 -142.8762207 48.20581055 C-142.8762207 47.54581055 -142.8762207 46.88581055 -142.8762207 46.20581055 C-142.2162207 46.20581055 -141.5562207 46.20581055 -140.8762207 46.20581055 C-140.66352539 45.63733398 -140.45083008 45.06885742 -140.23168945 44.4831543 C-138.3975109 41.40152289 -136.08650568 39.86620507 -133.1887207 37.76831055 C-132.64417236 37.37216553 -132.09962402 36.97602051 -131.53857422 36.56787109 C-129.98821241 35.44199387 -128.43237488 34.32366807 -126.8762207 33.20581055 C-125.90555664 32.47104492 -125.90555664 32.47104492 -124.9152832 31.72143555 C-109.82387066 20.38447198 -90.953019 13.95925976 -72.8762207 9.20581055 C-72.18898926 9.02034668 -71.50175781 8.83488281 -70.79370117 8.64379883 C-61.89371686 6.24885593 -53.02085591 4.42268559 -43.8762207 3.20581055 C-40.59026044 2.75204198 -37.32010867 2.28910928 -34.05957031 1.67724609 C-22.76294161 -0.31004635 -11.43407433 -0.0607482 0 0 Z " fill="#FF1129" transform="translate(452.876220703125,1713.794189453125)"/>
<path d="M0 0 C0.71053528 -0.00067474 1.42107056 -0.00134949 2.15313721 -0.00204468 C13.55768736 0.01511974 24.48666643 0.6875157 35.625 3.25 C36.72376465 3.48348145 36.72376465 3.48348145 37.84472656 3.72167969 C56.80822045 7.83276166 72.55484674 17.17179027 87.23974609 29.61865234 C90.25153081 32.19816979 90.25153081 32.19816979 93.625 34.25 C93.61339844 32.97125 93.60179688 31.6925 93.58984375 30.375 C93.58045731 28.66666814 93.57135803 26.95833468 93.5625 25.25 C93.55412109 24.41082031 93.54574219 23.57164063 93.53710938 22.70703125 C93.51675967 17.45680661 93.86131793 12.44544338 94.625 7.25 C99.42834677 6.01355185 104.12669818 6.10933762 109.04931641 6.12060547 C109.99132401 6.11885315 110.9333316 6.11710083 111.90388489 6.11529541 C115.01146294 6.11090111 118.11898389 6.11380591 121.2265625 6.1171875 C123.38699352 6.11651388 125.54742446 6.11554337 127.70785522 6.11428833 C132.23200198 6.11281474 136.75612898 6.1149555 141.28027344 6.11962891 C147.0855243 6.12533281 152.89072899 6.12204086 158.69597816 6.11605644 C163.15512441 6.11244754 167.61425965 6.11359082 172.07340622 6.11618423 C174.21448141 6.11685224 176.35555759 6.11602949 178.49663162 6.11370468 C181.48427233 6.11117206 184.47183759 6.11502713 187.45947266 6.12060547 C188.79204353 6.11756912 188.79204353 6.11756912 190.15153503 6.11447144 C190.96460617 6.11729126 191.77767731 6.12011108 192.61538696 6.12301636 C193.32143885 6.12339338 194.02749073 6.12377041 194.75493813 6.12415886 C196.625 6.25 196.625 6.25 199.625 7.25 C199.625 106.91 199.625 206.57 199.625 309.25 C165.305 309.25 130.985 309.25 95.625 309.25 C94.965 299.68 94.305 290.11 93.625 280.25 C88.41769025 284.80382444 88.41769025 284.80382444 83.21875 289.3671875 C55.66688486 312.49841756 16.50189702 319.5783757 -18.5390625 316.67578125 C-48.41235734 313.35990636 -77.29176806 300.02260192 -98.375 278.25 C-98.375 277.59 -98.375 276.93 -98.375 276.25 C-99.365 275.92 -100.355 275.59 -101.375 275.25 C-101.375 274.59 -101.375 273.93 -101.375 273.25 C-102.035 273.25 -102.695 273.25 -103.375 273.25 C-104.98572331 271.38959936 -106.46907424 269.53134211 -107.9375 267.5625 C-108.38150146 266.97162598 -108.82550293 266.38075195 -109.28295898 265.77197266 C-110.20555848 264.53691946 -111.12420923 263.29890752 -112.0390625 262.05810547 C-113.25255665 260.41571919 -114.48464781 258.78711431 -115.71875 257.16015625 C-141.29223962 222.17670302 -149.12549875 172.93972516 -143.19921875 130.69921875 C-140.70761579 116.49807985 -137.58545555 102.30992902 -131.375 89.25 C-130.53478705 87.19029301 -129.70159838 85.12770842 -128.875 83.0625 C-126.71205049 77.89022944 -124.26871591 73.04854291 -121.375 68.25 C-120.78074219 67.26 -120.18648437 66.27 -119.57421875 65.25 C-115.96912671 59.39825639 -115.96912671 59.39825639 -114.375 57.25 C-113.715 57.25 -113.055 57.25 -112.375 57.25 C-112.08625 56.486875 -111.7975 55.72375 -111.5 54.9375 C-110.375 52.25 -110.375 52.25 -108.375 49.25 C-107.715 49.25 -107.055 49.25 -106.375 49.25 C-106.16875 48.71890625 -105.9625 48.1878125 -105.75 47.640625 C-103.79538808 44.24226564 -101.15376283 41.73944072 -98.375 39 C-97.55515625 38.16855469 -97.55515625 38.16855469 -96.71875 37.3203125 C-92.6283867 33.25 -92.6283867 33.25 -90.375 33.25 C-90.375 32.59 -90.375 31.93 -90.375 31.25 C-88.36823568 29.60921094 -86.37045435 28.10700806 -84.25 26.625 C-83.61618408 26.17987061 -82.98236816 25.73474121 -82.3293457 25.27612305 C-57.27472402 7.93776704 -30.40868018 0.02600087 0 0 Z M-11.375 99.25 C-28.37873783 118.24264292 -32.94772385 141.12951073 -31.64990234 165.99169922 C-29.8813055 186.95412685 -22.54588591 207.06452693 -6.9375 221.625 C5.18892693 231.68513388 18.91318178 236.35562316 34.64453125 235.625 C46.64730104 234.49421894 57.1502976 230.71631079 66.625 223.25 C66.955 222.26 67.285 221.27 67.625 220.25 C68.94899568 219.56497615 70.2841458 218.90140789 71.625 218.25 C85.32330595 206.25110794 93.10106858 186.04189939 94.625 168.25 C95.34532969 154.36435894 94.82321897 140.30180521 89.625 127.25 C89.27566406 126.31671875 88.92632813 125.3834375 88.56640625 124.421875 C85.71165766 117.12120646 82.09112667 110.68460904 77.625 104.25 C76.83996094 103.1053125 76.83996094 103.1053125 76.0390625 101.9375 C75.57242188 101.380625 75.10578125 100.82375 74.625 100.25 C73.965 100.25 73.305 100.25 72.625 100.25 C72.625 99.59 72.625 98.93 72.625 98.25 C47.40224288 76.20491307 12.89717132 75.6666883 -11.375 99.25 Z " fill="#FF1129" transform="translate(2602.375,1816.75)"/>
<path d="M0 0 C1.15483887 0.24943359 1.15483887 0.24943359 2.33300781 0.50390625 C21.46410095 4.83184521 36.75282887 13.84884348 51.7734375 26.30078125 C53.79235845 27.84153671 55.6913932 28.96165402 58 30 C57.98839844 28.96101563 57.97679687 27.92203125 57.96484375 26.8515625 C57.9554514 25.44271016 57.94635277 24.03385584 57.9375 22.625 C57.92912109 21.94566406 57.92074219 21.26632812 57.91210938 20.56640625 C57.8934882 16.5814747 58.09123479 12.68515399 58.50610352 8.72021484 C58.59803482 7.83248383 58.68996613 6.94475281 58.78468323 6.03012085 C58.85573776 5.36018097 58.9267923 4.69024109 59 4 C72.54264178 3.9768794 86.0852789 3.95908636 99.62793636 3.94818783 C105.91562024 3.94295838 112.20329066 3.93585961 118.4909668 3.92456055 C124.55337723 3.91373386 130.61577469 3.90772363 136.67819405 3.90512276 C138.99676277 3.90326811 141.31533074 3.89964675 143.63389397 3.89426994 C146.86914508 3.88706242 150.10434183 3.88600894 153.33959961 3.88647461 C154.30848114 3.88287933 155.27736267 3.87928406 156.27560425 3.87557983 C157.59027428 3.87764183 157.59027428 3.87764183 158.9315033 3.87974548 C159.69751327 3.87882369 160.46352324 3.8779019 161.25274563 3.87695217 C163 4 163 4 164 5 C164.097084 6.61076286 164.12371602 8.22580796 164.12304783 9.83949375 C164.12503888 10.89347026 164.12702993 11.94744678 164.12908131 13.03336197 C164.12616847 14.20551552 164.12325563 15.37766906 164.12025452 16.58534241 C164.12153615 18.43647326 164.12153615 18.43647326 164.12284368 20.3250007 C164.12421193 23.76603762 164.12106423 27.20701836 164.11606562 30.64804852 C164.11176461 34.35290538 164.1132073 38.05776037 164.1139679 41.76261902 C164.11449335 48.18671649 164.11134428 54.61080383 164.10573006 61.03489876 C164.097618 70.32316848 164.09500014 79.61143329 164.09374207 88.89970618 C164.09155108 103.96772682 164.08488974 119.03574206 164.07543945 134.10375977 C164.06626653 148.74471001 164.05918511 163.38565879 164.05493164 178.02661133 C164.05453756 179.37932624 164.05453756 179.37932624 164.05413551 180.75936873 C164.05283051 185.2832876 164.05156679 189.80720649 164.05032361 194.33112538 C164.03994955 231.88742073 164.02232998 269.44370995 164 307 C150.71812591 307.02312079 137.43625657 307.04091374 124.15436649 307.05181217 C117.9877508 307.05704158 111.82114882 307.06414027 105.65454102 307.07543945 C99.70883994 307.08626629 93.76315211 307.0922764 87.81744194 307.09487724 C85.54353057 307.09673186 83.26961996 307.10035317 80.99571419 307.10573006 C77.8227288 307.11293778 74.64979883 307.11399106 71.47680664 307.11352539 C70.52662659 307.11712067 69.57644653 307.12071594 68.59747314 307.12442017 C62.11405216 307.11405216 62.11405216 307.11405216 61 306 C59.79648601 299.86460349 59.88477912 293.79572977 59.9375 287.5625 C59.94201172 286.54478516 59.94652344 285.52707031 59.95117188 284.47851562 C59.96287563 281.98561491 59.97927152 279.49283926 60 277 C56.87428661 278.78993844 54.1841968 280.5982261 51.5625 283.0625 C27.65267067 304.24105669 -2.45868161 312.80360516 -34 314 C-35.71316406 314.07927734 -35.71316406 314.07927734 -37.4609375 314.16015625 C-61.68435924 314.76442816 -86.30296833 308.72972281 -107 296 C-108.41345703 295.19369141 -108.41345703 295.19369141 -109.85546875 294.37109375 C-114.15026771 291.89833071 -117.5201719 289.53994029 -121 286 C-122.65575542 284.6737617 -124.32343724 283.36233512 -126 282.0625 C-136.71968322 273.32953141 -145.88459788 262.87697172 -153 251 C-153 250.34 -153 249.68 -153 249 C-153.66 249 -154.32 249 -155 249 C-159.70217147 239.8056796 -164.25407061 230.63617171 -168 221 C-168.47695312 219.79472656 -168.95390625 218.58945313 -169.4453125 217.34765625 C-171.32457141 212.30261002 -172.69958528 207.14167309 -174.0625 201.9375 C-174.31837891 201.00228516 -174.57425781 200.06707031 -174.83789062 199.10351562 C-178.4251254 185.46464612 -179.33151998 172.10552488 -179.26074219 158.0847168 C-179.25002599 155.56860183 -179.26070399 153.05320284 -179.2734375 150.53710938 C-179.28802621 134.7359916 -177.39594198 120.21408044 -173 105 C-172.51985182 103.10441501 -172.04060035 101.20860252 -171.5625 99.3125 C-166.09945163 79.55253781 -155.10285583 59.03548104 -141.01171875 44.1328125 C-139.25805641 42.2735899 -137.64917601 40.37579379 -136.0625 38.375 C-135.381875 37.59125 -134.70125 36.8075 -134 36 C-133.34 36 -132.68 36 -132 36 C-132 35.34 -132 34.68 -132 34 C-131.34 34 -130.68 34 -130 34 C-129.773125 33.38125 -129.54625 32.7625 -129.3125 32.125 C-127.62070165 29.38589791 -126.00755839 28.94975528 -123 28 C-123 27.34 -123 26.68 -123 26 C-121.1015625 24.4921875 -121.1015625 24.4921875 -118.625 22.875 C-117.81289062 22.33617187 -117.00078125 21.79734375 -116.1640625 21.2421875 C-114 20 -114 20 -112 20 C-112 19.34 -112 18.68 -112 18 C-98.45253341 9.61451023 -84.56059801 3.87854311 -69.0625 0.125 C-68.22323975 -0.07826904 -67.38397949 -0.28153809 -66.51928711 -0.4909668 C-45.21545787 -5.32541807 -21.27696402 -4.60140388 0 0 Z M-50 100 C-52.65310357 103.51991177 -54.88613561 107.13652468 -57 111 C-57.37382813 111.61746094 -57.74765625 112.23492188 -58.1328125 112.87109375 C-63.32731111 122.05349483 -66.76065536 134.46883601 -67 145 C-67.03867188 146.1653125 -67.07734375 147.330625 -67.1171875 148.53125 C-67.64529943 171.61116866 -63.04765189 196.90372933 -46.6796875 214.421875 C-33.77136246 226.54969667 -19.97430925 232.59532755 -2.09008789 232.41723633 C14.80518962 231.77605316 27.82074287 224.83844974 39.17578125 212.66796875 C55.33149046 193.91316921 60.70848784 171.60884873 59.28222656 147.23339844 C57.72698698 129.41541143 51.90969431 109.97275613 38.97265625 96.9609375 C38.34230469 96.43757813 37.71195313 95.91421875 37.0625 95.375 C36.36640625 94.79621094 35.6703125 94.21742187 34.953125 93.62109375 C34.30859375 93.08613281 33.6640625 92.55117187 33 92 C32.113125 91.154375 31.22625 90.30875 30.3125 89.4375 C5.78251375 69.19691025 -30.23117951 78.46300055 -50 100 Z " fill="#FF1129" transform="translate(1854,1820)"/>
<path d="M0 0 C34.65 0 69.3 0 105 0 C105.33 80.85 105.66 161.7 106 245 C113.64563659 235.12116591 113.64563659 235.12116591 121 225.0625 C121.40750488 224.48806152 121.81500977 223.91362305 122.23486328 223.32177734 C123.4921485 221.54942477 124.74635492 219.77492866 126 218 C131.21225665 210.62885758 136.48731447 203.32259993 141.9375 196.125 C146.41981651 190.20147934 150.67899167 184.16169062 154.84643555 178.01367188 C158.66864671 172.40656995 162.70756587 166.98320336 166.80297852 161.57373047 C169.96856692 157.38906512 173.03254279 153.15438264 176.01953125 148.83984375 C178.85906086 144.76817111 181.7362834 140.72438393 184.625 136.6875 C185.17599365 135.90971191 185.7269873 135.13192383 186.29467773 134.33056641 C187.09627319 133.21367432 187.09627319 133.21367432 187.9140625 132.07421875 C188.3879541 131.40994873 188.8618457 130.74567871 189.35009766 130.0612793 C189.89456543 129.38105713 190.4390332 128.70083496 191 128 C191.62959122 127.14419342 192.25918243 126.28838684 192.90785217 125.40664673 C197.48747603 121.8422839 201.473791 122.33630808 207.12426758 122.43237305 C208.8078537 122.43127785 208.8078537 122.43127785 210.52545166 122.43016052 C214.23230449 122.43364166 217.93789814 122.47253083 221.64453125 122.51171875 C224.21570652 122.52104492 226.78689067 122.52816196 229.358078 122.53315735 C235.43198803 122.55029199 241.50537904 122.58969051 247.57909364 122.6399048 C254.49557999 122.69584222 261.41208819 122.72329569 268.32874453 122.74838197 C282.55273849 122.80060837 296.7763532 122.88852303 311 123 C311 127.49621473 311 127.49621473 308.578125 130.328125 C308.05355713 130.95444824 307.52898926 131.58077148 306.98852539 132.22607422 C306.41481201 132.89396973 305.84109863 133.56186523 305.25 134.25 C304.04304508 135.69320221 302.83867808 137.13857211 301.63671875 138.5859375 C301.02489746 139.32166992 300.41307617 140.05740234 299.78271484 140.81542969 C297.10722985 144.09401634 294.57857189 147.47340704 292.0625 150.875 C286.09238925 158.91754402 279.95372231 166.82130865 273.78662109 174.71337891 C270.83310788 178.49345608 267.88433798 182.27721742 264.9375 186.0625 C264.35758301 186.80741699 263.77766602 187.55233398 263.18017578 188.31982422 C258.72172365 194.05461266 254.30569868 199.82089375 249.90087891 205.59692383 C245.31312867 211.60641688 240.67523864 217.57599539 236.02832031 223.53979492 C230.99120202 230.00550768 225.98976723 236.49768389 221 243 C219.27145075 245.25047491 217.54219982 247.5004093 215.8125 249.75 C215.1925415 250.55630859 215.1925415 250.55630859 214.56005859 251.37890625 C211.05669744 255.93229442 207.53298075 260.46957969 204 265 C208.13054845 271.25900237 212.37048015 277.4309402 216.6875 283.5625 C221.01660767 289.72510539 225.31710926 295.90445991 229.5625 302.125 C233.98225184 308.59191499 238.55154917 314.94191246 243.15551758 321.27856445 C248.14658345 328.16420121 252.96919614 335.15778458 257.76074219 342.18310547 C263.20671081 350.16752204 268.7537597 358.05903383 274.4375 365.875 C279.39731997 372.69979293 284.15353534 379.62911079 288.796875 386.671875 C293.00682313 393.03158388 297.42669733 399.22629422 301.9375 405.375 C304.8509096 409.37737483 307.70748552 413.41219221 310.5 417.5 C311.1703125 418.4796875 311.840625 419.459375 312.53125 420.46875 C314 423 314 423 314 426 C298.96198637 426.14020271 283.92402341 426.24598673 268.88549519 426.31087303 C261.90268917 426.34180277 254.92028939 426.38396518 247.93774414 426.45263672 C241.20093886 426.51885985 234.46464305 426.55369213 227.72749901 426.56926346 C225.15539081 426.58036207 222.58330609 426.6020349 220.01137733 426.63438034 C216.41242909 426.67784768 212.81523235 426.68393772 209.21606445 426.68115234 C208.14935516 426.702724 207.08264587 426.72429565 205.98361206 426.746521 C198.92608528 426.68729882 198.92608528 426.68729882 196.26022911 424.70882034 C194.90763855 423.11807251 194.90763855 423.11807251 193 420 C192.13955078 418.72769531 192.13955078 418.72769531 191.26171875 417.4296875 C190.74222656 416.58664062 190.22273438 415.74359375 189.6875 414.875 C187.18677366 410.87166803 184.63125781 406.91889461 182 403 C179.42349397 399.15758061 176.90227984 395.28997469 174.4375 391.375 C171.11947382 386.13086338 167.59425123 381.05739775 164 376 C162.74796959 374.23060165 161.49794053 372.45978529 160.25 370.6875 C159.69828125 369.90761719 159.1465625 369.12773437 158.578125 368.32421875 C157.54053837 366.79608992 156.54506858 365.23834832 155.59790039 363.65258789 C154.07911007 361.13132634 152.49169801 358.68067511 150.85546875 356.234375 C149.96311523 354.89826172 149.96311523 354.89826172 149.05273438 353.53515625 C148.43720703 352.61605469 147.82167969 351.69695313 147.1875 350.75 C146.58357422 349.84636719 145.97964844 348.94273437 145.35742188 348.01171875 C144.15335466 346.21015424 142.94885022 344.40888185 141.74389648 342.60791016 C139.60210186 339.40496319 137.46541788 336.19862714 135.32885742 332.9921875 C134.19172823 331.28743384 133.05127768 329.58489643 131.91015625 327.8828125 C128.69377305 323.08203757 125.51761016 318.26450223 122.4375 313.375 C119.70384187 309.05084987 116.84226708 304.84377581 113.87109375 300.6796875 C111.18333119 296.8304075 108.60419922 292.90629883 106 289 C105.67 333.88 105.34 378.76 105 425 C101.5312583 425.69374834 99.01729401 426.12522706 95.60906982 426.12698364 C94.76222626 426.12980347 93.91538269 426.13262329 93.0428772 426.13552856 C91.66958755 426.13249222 91.66958755 426.13249222 90.26855469 426.12939453 C89.29407379 426.13114685 88.3195929 426.13289917 87.31558228 426.13470459 C84.10099497 426.13909908 80.88646284 426.13619447 77.671875 426.1328125 C75.43939198 426.13348601 73.20690904 426.13445643 70.97442627 426.13571167 C66.30065206 426.1371852 61.62689698 426.13504431 56.953125 426.13037109 C50.94813906 426.1246608 44.94319768 426.1279632 38.93821335 426.13394356 C34.33160055 426.1375472 29.72499842 426.13641173 25.11838531 426.13381577 C22.90308883 426.13314663 20.6877914 426.13397444 18.47249603 426.13629532 C15.38626005 426.13882004 12.30009765 426.13498442 9.21386719 426.12939453 C7.82843216 426.13243088 7.82843216 426.13243088 6.41500854 426.13552856 C0.1142651 426.1142651 0.1142651 426.1142651 -1 425 C-1.09905084 422.75445217 -1.12555761 420.50571165 -1.12584114 418.25798035 C-1.12729458 417.54125566 -1.12874802 416.82453097 -1.13024551 416.08608735 C-1.13393166 413.65396921 -1.13040708 411.22191273 -1.12698364 408.78979492 C-1.12813443 407.04072887 -1.12972167 405.29166307 -1.13171089 403.54259777 C-1.13591003 398.71251394 -1.1338109 393.88244971 -1.13072467 389.05236578 C-1.12847315 383.85258694 -1.13194893 378.6528116 -1.13470459 373.45303345 C-1.13916396 363.2572749 -1.13818508 353.0615237 -1.13529195 342.86576486 C-1.13303857 334.58347275 -1.13272511 326.30118271 -1.13381577 318.01889038 C-1.133969 316.84256143 -1.13412223 315.66623248 -1.13428011 314.45425719 C-1.13459982 312.06497645 -1.13492403 309.67569572 -1.1352527 307.28641498 C-1.13810798 284.85333177 -1.13481972 262.42025264 -1.12945233 239.9871701 C-1.12498425 220.71572854 -1.12576017 201.44429301 -1.13037109 182.17285156 C-1.13571601 159.82303042 -1.13783328 137.47321285 -1.13475883 115.12339115 C-1.13444026 112.74263064 -1.13412589 110.36187013 -1.13381577 107.98110962 C-1.13366149 106.80956257 -1.13350721 105.63801551 -1.13334826 104.43096703 C-1.13248286 96.15338918 -1.13394649 87.87581359 -1.13629532 79.59823608 C-1.1390926 69.51815339 -1.13835658 59.43807849 -1.13301457 49.3579967 C-1.13037659 44.20963407 -1.12937413 39.06128446 -1.13266373 33.91292191 C-1.1356247 29.20789171 -1.13403723 24.50288671 -1.12868617 19.79785883 C-1.12756113 18.08792287 -1.12815507 16.37798481 -1.13056196 14.66805017 C-1.13356455 12.35934226 -1.13052294 10.05072279 -1.12584114 7.74201965 C-1.12567879 6.45493009 -1.12551644 5.16784052 -1.12534916 3.84174824 C-1 1 -1 1 0 0 Z " fill="#FF1129" transform="translate(3246,1701)"/>
<path d="M0 0 C0.91267136 -0.00570007 1.82534271 -0.01140015 2.76567078 -0.01727295 C4.68922798 -0.0266565 6.61280077 -0.03323022 8.53637695 -0.03710938 C11.40411422 -0.04672378 14.27110481 -0.07777374 17.13867188 -0.109375 C53.78454683 -0.31977968 92.30370927 9.09756171 122.13671875 31.203125 C122.81605469 31.70457031 123.49539063 32.20601562 124.1953125 32.72265625 C125.54433303 33.72995891 126.88834999 34.7440075 128.2265625 35.765625 C130.06273339 37.14744686 131.93398826 38.4592022 133.82421875 39.765625 C136.92794831 41.97458568 139.50161718 44.43948189 142.13671875 47.203125 C142.73226563 47.77804687 143.3278125 48.35296875 143.94140625 48.9453125 C158.09342607 62.65680252 168.57414573 79.09461683 176.13671875 97.203125 C176.41499512 97.86473633 176.69327148 98.52634766 176.97998047 99.20800781 C187.65990792 125.23428847 190.70885897 154.52905421 186.13671875 182.203125 C185.98605957 183.13334473 185.83540039 184.06356445 185.68017578 185.02197266 C180.91493386 213.563071 170.23210453 239.65357072 150.1796875 260.984375 C148.07755507 263.21246148 148.07755507 263.21246148 146.09375 265.78125 C140.18614126 273.09206321 131.87842206 278.95067706 124.13671875 284.203125 C123.47671875 284.203125 122.81671875 284.203125 122.13671875 284.203125 C122.13671875 284.863125 122.13671875 285.523125 122.13671875 286.203125 C102.2726904 297.51174137 83.30392408 305.62107991 61.13671875 311.203125 C59.36941406 311.65751953 59.36941406 311.65751953 57.56640625 312.12109375 C24.23232582 320.03291766 -9.9277613 317.80339494 -42.83862305 309.68041992 C-44.22808879 309.3528659 -45.62342478 309.04954936 -47.02270508 308.7668457 C-52.80477675 307.59148411 -58.09673589 305.75155419 -63.55078125 303.515625 C-64.85680298 302.98497437 -64.85680298 302.98497437 -66.18920898 302.44360352 C-81.59281627 296.09743649 -95.3577431 287.92903839 -108.86328125 278.203125 C-109.61738281 277.68234375 -110.37148438 277.1615625 -111.1484375 276.625 C-111.71433594 276.15578125 -112.28023437 275.6865625 -112.86328125 275.203125 C-112.86328125 274.543125 -112.86328125 273.883125 -112.86328125 273.203125 C-113.75660156 273.06003906 -113.75660156 273.06003906 -114.66796875 272.9140625 C-117.36055935 272.04208476 -118.21428636 271.01218906 -119.98828125 268.828125 C-122.8199546 265.42041532 -125.76004568 262.17602445 -128.80078125 258.953125 C-136.66103683 250.31757865 -142.54878241 240.55888367 -147.86328125 230.203125 C-148.24613281 229.48471436 -148.62898437 228.76630371 -149.0234375 228.02612305 C-152.19702882 221.93198622 -154.52787967 215.84487717 -156.48828125 209.265625 C-156.78750488 208.26635986 -157.08672852 207.26709473 -157.39501953 206.23754883 C-161.7809456 191.09371359 -163.4157518 175.91886754 -163.86328125 160.203125 C-163.92515625 158.36621094 -163.92515625 158.36621094 -163.98828125 156.4921875 C-164.14261819 147.90719537 -163.16904646 139.67709097 -161.86328125 131.203125 C-161.70730469 130.04167969 -161.55132813 128.88023437 -161.390625 127.68359375 C-160.49069996 121.18749619 -159.14222516 115.33645666 -156.86328125 109.203125 C-156.52554688 108.16800781 -156.1878125 107.13289063 -155.83984375 106.06640625 C-148.728458 84.75611271 -136.06034051 66.56918882 -120.86328125 50.203125 C-120.33089844 49.62820313 -119.79851563 49.05328125 -119.25 48.4609375 C-118.16659818 47.32959755 -117.02234242 46.25681697 -115.86328125 45.203125 C-115.20328125 45.203125 -114.54328125 45.203125 -113.86328125 45.203125 C-113.63640625 44.584375 -113.40953125 43.965625 -113.17578125 43.328125 C-111.4839829 40.58902291 -109.87083964 40.15288028 -106.86328125 39.203125 C-106.86328125 38.543125 -106.86328125 37.883125 -106.86328125 37.203125 C-77.82145854 13.39498765 -37.24693778 0.1873412 0 0 Z M-30.86328125 92.203125 C-31.69601562 92.95980469 -32.52875 93.71648437 -33.38671875 94.49609375 C-49.76495226 110.74834085 -55.1954916 135.37200079 -55.48828125 157.765625 C-55.21647313 179.94744837 -49.25968464 202.68972764 -33.86328125 219.203125 C-32.90808594 220.27626953 -32.90808594 220.27626953 -31.93359375 221.37109375 C-22.02645402 231.9745184 -7.61864631 238.35939214 6.89453125 239.14453125 C7.63445312 239.16386719 8.374375 239.18320313 9.13671875 239.203125 C9.83539062 239.25339844 10.5340625 239.30367187 11.25390625 239.35546875 C25.88472882 240.02537821 40.87750557 234.6595837 51.9453125 225.26171875 C54.46108071 222.89842134 56.73444999 220.44597618 58.8828125 217.74609375 C60.13671875 216.203125 60.13671875 216.203125 61.65234375 214.70703125 C76.34567546 199.82036623 78.38249693 174.02018149 78.38769531 154.54443359 C78.30915361 145.69659189 77.5469732 137.74857261 75.13671875 129.203125 C74.86988281 128.11644531 74.60304688 127.02976562 74.328125 125.91015625 C71.27453975 114.55081913 65.49815846 103.56456471 57.13671875 95.203125 C56.47671875 95.203125 55.81671875 95.203125 55.13671875 95.203125 C54.88921875 94.605 54.64171875 94.006875 54.38671875 93.390625 C52.9559935 90.88685581 51.56756055 89.72240112 49.13671875 88.203125 C48.47671875 88.203125 47.81671875 88.203125 47.13671875 88.203125 C47.13671875 87.543125 47.13671875 86.883125 47.13671875 86.203125 C22.2303274 73.04797466 -9.12462249 71.7036406 -30.86328125 92.203125 Z " fill="#FF1129" transform="translate(1048.86328125,1816.796875)"/>
<path d="M0 0 C0.93585937 0.5053125 1.87171875 1.010625 2.8359375 1.53125 C28.86259838 16.30979561 46.81175851 42.62986041 55 71 C57.99076948 82.91720053 60.16925688 95.0204012 60.12025452 107.32702637 C60.12153615 108.5255932 60.12153615 108.5255932 60.12284368 109.74837351 C60.12448036 112.40453802 60.11900702 115.06063826 60.11352539 117.71679688 C60.1132431 119.62928262 60.11340207 121.54176847 60.1139679 123.45425415 C60.11425424 128.6313108 60.10838381 133.80834418 60.10139394 138.98539543 C60.0951333 144.40127316 60.09455446 149.81715144 60.09336853 155.23303223 C60.09026321 165.48215187 60.08206058 175.73126082 60.07201904 185.98037577 C60.0608331 197.65143815 60.0553412 209.32250105 60.05032361 220.99356747 C60.0398773 244.99571757 60.02229333 268.99785818 60 293 C56.87872284 293.68573814 53.96892553 294.1268556 50.77438354 294.14044189 C49.96408691 294.14615204 49.15379028 294.15186218 48.31893921 294.15774536 C47.44395782 294.15886322 46.56897644 294.15998108 45.66748047 294.16113281 C44.73522644 294.16609772 43.80297241 294.17106262 42.84246826 294.17617798 C39.76736712 294.19075072 36.69231746 294.19759125 33.6171875 294.203125 C31.47917683 294.20887775 29.34116617 294.21463546 27.20315552 294.22039795 C22.72609212 294.2308921 18.24904661 294.23674605 13.77197266 294.24023438 C8.02716886 294.24573472 2.28260021 294.2698022 -3.46212959 294.29820633 C-7.87495628 294.31679436 -12.28772568 294.32203612 -16.70058823 294.32357025 C-18.81934783 294.32660285 -20.93810629 294.33465171 -23.05682755 294.34775543 C-26.01349324 294.36474569 -28.9695753 294.36295362 -31.92626953 294.35644531 C-32.80529938 294.3656601 -33.68432922 294.37487488 -34.58999634 294.3843689 C-40.4760821 294.34363041 -40.4760821 294.34363041 -42.72694206 292.86732292 C-44.58645736 290.13978364 -44.35975736 288.03856983 -44.34057617 284.75534058 C-44.34036469 283.44634796 -44.3401532 282.13735535 -44.3399353 280.78869629 C-44.32453179 279.33422582 -44.30886745 277.8797581 -44.29296875 276.42529297 C-44.28721165 274.89580725 -44.28282005 273.36631587 -44.2796936 271.83682251 C-44.27019836 268.5382636 -44.25137253 265.23993413 -44.22549438 261.94146347 C-44.18489759 256.71100342 -44.16723465 251.48061975 -44.15307617 246.25003052 C-44.11692021 234.18381355 -44.05110268 222.11779224 -43.98439026 210.05171204 C-43.92365976 199.02939542 -43.86943243 188.00715001 -43.83974552 176.98470032 C-43.82492174 171.80175677 -43.79552405 166.61917535 -43.75445557 161.43637633 C-43.7318049 158.18405088 -43.72207557 154.93177243 -43.7155571 151.67937851 C-43.71001976 150.19003364 -43.69938 148.70069582 -43.68275833 147.21143341 C-43.47398347 127.86692865 -45.86876813 107.032472 -59 92 C-61.96345809 89.01624425 -65.10127915 86.64945882 -69 85 C-69 84.34 -69 83.68 -69 83 C-72.31755379 81.94120624 -75.65000572 80.95117566 -79 80 C-79.74507812 79.78730469 -80.49015625 79.57460937 -81.2578125 79.35546875 C-96.22186763 75.73176899 -111.23735613 77.22089555 -124.80078125 84.50390625 C-137.46395905 92.67687481 -145.32207953 104.10123397 -148.89129353 118.62744141 C-150.80672653 128.40451572 -151.44397384 137.74077584 -151.43237305 147.6875 C-151.4414187 149.2859064 -151.45175263 150.88430594 -151.46325684 152.48269653 C-151.49052438 156.76675542 -151.50006955 161.05068167 -151.50611091 165.33481598 C-151.51557448 169.83247502 -151.54178343 174.33003798 -151.56611633 178.82763672 C-151.60956754 187.3198335 -151.63824515 195.81201141 -151.66143972 204.30428505 C-151.68860689 213.98288344 -151.73251066 223.66138415 -151.77772844 233.33991241 C-151.87026802 253.22655551 -151.94208828 273.11322786 -152 293 C-185.86778745 298.64463124 -220.66504858 294 -255 294 C-255 194.01 -255 94.02 -255 -9 C-164 -9 -164 -9 -162 -8 C-161.67 2.56 -161.34 13.12 -161 24 C-159.68 23.67 -158.36 23.34 -157 23 C-157 22.34 -157 21.68 -157 21 C-155.5390625 19.4921875 -155.5390625 19.4921875 -153.625 17.875 C-152.99851562 17.33617187 -152.37203125 16.79734375 -151.7265625 16.2421875 C-150 15 -150 15 -148 15 C-148 14.34 -148 13.68 -148 13 C-144.85525043 10.4146202 -141.38883532 8.25161161 -138 6 C-137.14664063 5.41605469 -136.29328125 4.83210938 -135.4140625 4.23046875 C-95.43267028 -22.36376061 -41.66342087 -22.97041695 0 0 Z " fill="#FF1129" transform="translate(3123,1833)"/>
<path d="M0 0 C1.17113799 0.00138269 1.17113799 0.00138269 2.36593533 0.00279331 C3.70584782 0.00073132 3.70584782 0.00073132 5.07282925 -0.00137234 C6.06041225 0.00222294 7.04799526 0.00581821 8.06550503 0.00952244 C9.09952953 0.00937641 10.13355404 0.00923038 11.19891262 0.00907993 C14.63485175 0.00977956 18.07073742 0.01757425 21.50666714 0.02539158 C23.88178382 0.02725558 26.25690089 0.02867957 28.63201809 0.0296793 C34.89727233 0.03350586 41.16250356 0.04333732 47.42774868 0.05438328 C54.93754253 0.0663883 62.44734405 0.07099898 69.95714474 0.07683659 C81.37861615 0.08654901 92.80003702 0.10570461 104.22151089 0.12304783 C104.22151089 32.13304783 104.22151089 64.14304783 104.22151089 97.12304783 C125.56808104 97.08343474 125.56808104 97.08343474 146.91462612 97.03295994 C149.57811856 97.03004109 152.24161143 97.02749246 154.90510464 97.02539158 C155.60160625 97.02277821 156.29810787 97.02016483 157.0157156 97.01747227 C159.05752868 97.01019174 161.09936257 97.00970944 163.14118862 97.00952244 C164.86993473 97.00619152 164.86993473 97.00619152 166.633605 97.00279331 C169.22151089 97.12304783 169.22151089 97.12304783 170.22151089 98.12304783 C170.31645822 100.49605652 170.34710408 102.83983486 170.33503628 105.21313572 C170.3351823 105.95455311 170.33532833 106.6959705 170.33547878 107.45985508 C170.33477954 109.92183404 170.32698663 112.38373826 170.31916714 114.84570408 C170.317303 116.54821322 170.31587908 118.2507229 170.31487942 119.95323277 C170.31105391 124.44297856 170.30122335 128.93269221 170.29017544 133.42242527 C170.27816757 138.80468424 170.27355923 144.18695393 170.26772213 149.56922245 C170.25801161 157.75385329 170.2388553 165.93841355 170.22151089 174.12304783 C148.44151089 174.12304783 126.66151089 174.12304783 104.22151089 174.12304783 C104.31248529 193.15440973 104.31248529 193.15440973 104.43049526 212.18554783 C104.48466838 219.95603679 104.53578421 227.72645595 104.56794643 235.49707127 C104.59409827 241.76715138 104.63458401 248.03699493 104.68469715 254.30692768 C104.70128581 256.69007883 104.71284959 259.07327082 104.71912479 261.45647144 C104.40169052 287.59332821 104.40169052 287.59332821 116.53401089 309.93554783 C120.08958118 313.25356925 123.71825402 315.3382708 128.22151089 317.12304783 C128.91373745 317.42211033 129.60596401 317.72117283 130.31916714 318.02929783 C143.31075478 322.84264762 157.60920866 320.3151882 170.62385464 316.99804783 C174.22151089 316.12304783 174.22151089 316.12304783 177.22151089 316.12304783 C176.63576533 324.2898325 175.70804637 332.34302849 174.47151089 340.43554783 C174.29958218 341.5783823 174.12765347 342.72121677 173.95051479 343.89868259 C171.98875707 356.83669272 169.90741329 369.75657267 167.78694057 382.66943455 C167.40735549 384.98791929 167.0330768 387.30727854 166.6638937 389.62744236 C166.489548 390.71009373 166.31520229 391.79274509 166.13557339 392.90820408 C165.98298061 393.86734715 165.83038784 394.82649021 165.67317104 395.81469822 C165.22151089 398.12304783 165.22151089 398.12304783 164.22151089 400.12304783 C151.06643027 404.63403598 135.95431604 404.87134948 122.22151089 406.12304783 C120.81530483 406.25936619 120.81530483 406.25936619 119.38069057 406.39843845 C88.32723796 409.29754636 57.47479838 402.19569167 32.17072964 383.82226658 C31.52748745 383.26152439 30.88424526 382.7007822 30.22151089 382.12304783 C30.22151089 381.46304783 30.22151089 380.80304783 30.22151089 380.12304783 C29.56151089 380.12304783 28.90151089 380.12304783 28.22151089 380.12304783 C28.22151089 379.46304783 28.22151089 378.80304783 28.22151089 378.12304783 C27.23151089 377.79304783 26.24151089 377.46304783 25.22151089 377.12304783 C25.22151089 376.46304783 25.22151089 375.80304783 25.22151089 375.12304783 C24.56151089 375.12304783 23.90151089 375.12304783 23.22151089 375.12304783 C15.6297532 366.92018891 9.95275457 356.57369222 6.22151089 346.12304783 C5.9895602 345.53797459 5.75760952 344.95290134 5.51863003 344.35009861 C3.5858828 339.4262961 2.24094046 334.5467193 1.15901089 329.37304783 C0.99852261 328.67050877 0.83803432 327.9679697 0.67268276 327.24414158 C-3.32095543 308.41469885 -3.05108364 289.18512244 -2.97380161 270.04492283 C-2.96893372 267.29339805 -2.9671211 264.54187341 -2.96522617 261.79034519 C-2.95907251 255.34527175 -2.94274689 248.90026823 -2.92252719 242.45522523 C-2.89997478 235.103037 -2.88912674 227.75084497 -2.87913632 220.39863062 C-2.85837327 205.30672464 -2.82177616 190.21490918 -2.77848911 175.12304783 C-25.05348911 174.62804783 -25.05348911 174.62804783 -47.77848911 174.12304783 C-47.77848911 148.71304783 -47.77848911 123.30304783 -47.77848911 97.12304783 C-32.92848911 97.12304783 -18.07848911 97.12304783 -2.77848911 97.12304783 C-2.79589146 86.74545017 -2.79589146 86.74545017 -2.81364536 76.15820408 C-2.818752 71.78776044 -2.82356576 67.41732045 -2.82731724 63.04687595 C-2.83330614 56.10261367 -2.84040768 49.15836451 -2.85392857 42.21411228 C-2.8647559 36.6185393 -2.87076562 31.02298038 -2.87336636 25.42739773 C-2.87522088 23.28745839 -2.87884202 21.14751986 -2.88421917 19.00758648 C-2.89142755 16.02139817 -2.89248014 13.03526876 -2.8920145 10.04907322 C-2.89560978 9.1549976 -2.89920506 8.26092197 -2.90290928 7.33975315 C-2.89077932 0.20000354 -2.89077932 0.20000354 0 0 Z " fill="#FF1129" transform="translate(1296.778489112854,1726.8769521713257)"/>
<path d="M0 0 C0.86011688 -0.00705963 1.72023376 -0.01411926 2.60641479 -0.02139282 C38.61123432 -0.2498081 38.61123432 -0.2498081 54.70703125 3.203125 C56.29016113 3.54102051 56.29016113 3.54102051 57.90527344 3.88574219 C80.60526495 8.84589458 80.60526495 8.84589458 86.70703125 12.203125 C88.1758904 15.73117593 87.66950465 19.33688333 87.4375 23.08203125 C87.39711609 23.75789276 87.35673218 24.43375427 87.31512451 25.13009644 C87.18111229 27.34236926 87.03800092 29.55394701 86.89453125 31.765625 C86.79919594 33.30409529 86.70422878 34.84258843 86.60961914 36.38110352 C85.9541729 46.90769825 85.20624036 57.4269571 84.38745117 67.94213867 C83.81129818 75.41731062 83.36574343 82.89004885 83.13647461 90.38452148 C82.9747952 94.39057785 82.46702013 97.58379303 80.70703125 101.203125 C79.73121094 100.78160156 78.75539063 100.36007812 77.75 99.92578125 C76.46487137 99.37233169 75.17971359 98.81894981 73.89453125 98.265625 C73.25193359 97.98783203 72.60933594 97.71003906 71.94726562 97.42382812 C69.2206541 96.2512439 66.52434479 95.14222951 63.70703125 94.203125 C63.70703125 93.543125 63.70703125 92.883125 63.70703125 92.203125 C61.47015773 91.73596468 59.23112057 91.28551393 56.98828125 90.84765625 C54.63038222 90.38449751 52.27660028 89.90019282 49.92578125 89.40234375 C39.10070811 87.20728466 25.40173962 84.63822221 14.70703125 88.203125 C13.83433594 88.37070313 12.96164062 88.53828125 12.0625 88.7109375 C-5.47871157 92.12833754 -20.69301768 101.77117722 -31.29296875 116.203125 C-42.5163963 134.24777182 -45.22025904 154.83365081 -41.63671875 175.76171875 C-36.95257765 195.16456184 -25.29357382 209.58275245 -8.55859375 219.88671875 C11.54258698 231.02010752 34.51757789 230.14539083 56.00732422 224.06396484 C62.57486046 221.96981285 68.78219469 219.0678736 74.96142578 216.03759766 C77.1687339 214.98241176 79.42073557 214.07218476 81.70703125 213.203125 C82.69139369 217.42225857 82.97443906 221.59352995 83.171875 225.90625 C83.24939422 227.44718606 83.32695106 228.98812023 83.40454102 230.52905273 C83.44362579 231.33269257 83.48271057 232.1363324 83.52297974 232.96432495 C84.15278084 245.85967262 84.91790113 258.72410265 86.02270508 271.58862305 C86.88000237 281.78055236 87.32140007 291.98389872 87.70703125 302.203125 C80.29204843 305.9794786 72.66678028 307.92656953 64.58203125 309.765625 C63.91964447 309.91653595 63.25725769 310.0674469 62.57479858 310.22293091 C32.93867594 316.92876578 0.66236343 320.00261573 -29.29296875 313.203125 C-30.20933105 312.99913086 -31.12569336 312.79513672 -32.06982422 312.58496094 C-50.55708517 308.36333944 -67.16764085 302.19736875 -83.29296875 292.203125 C-84.34355469 291.5534375 -85.39414062 290.90375 -86.4765625 290.234375 C-92.51181119 286.35951469 -97.87466661 282.12597924 -103.11328125 277.23046875 C-104.87654001 275.5904485 -106.65596697 274.06914972 -108.54296875 272.578125 C-111.80882845 269.7576098 -114.78796673 266.72967039 -117.29296875 263.203125 C-117.29296875 262.543125 -117.29296875 261.883125 -117.29296875 261.203125 C-117.95296875 261.203125 -118.61296875 261.203125 -119.29296875 261.203125 C-121.89473959 258.0752343 -124.0388407 254.58646387 -126.29296875 251.203125 C-127.35451172 249.67945312 -127.35451172 249.67945312 -128.4375 248.125 C-137.59877301 234.58364375 -143.76127536 220.09695298 -148.23046875 204.390625 C-148.65416748 202.90792114 -148.65416748 202.90792114 -149.08642578 201.39526367 C-152.95093227 187.02361185 -153.67385739 172.85864173 -153.60546875 158.078125 C-153.60298126 157.21840088 -153.60049377 156.35867676 -153.59793091 155.47290039 C-153.47483217 127.94738297 -148.96433608 102.45787115 -135.29296875 78.203125 C-134.77863281 77.275 -134.26429688 76.346875 -133.734375 75.390625 C-114.3967456 41.85110517 -81.88982237 17.50287181 -44.85058594 6.87939453 C-30.10965314 2.98168702 -15.26999884 0.08374841 0 0 Z " fill="#FF1129" transform="translate(773.29296875,1816.796875)"/>
<path d="M0 0 C1.32512352 -0.00422974 1.32512352 -0.00422974 2.67701721 -0.00854492 C4.14200905 -0.00550858 4.14200905 -0.00550858 5.63659668 -0.00241089 C7.17059364 -0.00503937 7.17059364 -0.00503937 8.73558044 -0.00772095 C12.13424347 -0.01214163 15.53285495 -0.00920071 18.93151855 -0.00582886 C21.28181976 -0.00650183 23.63212091 -0.00747181 25.98242188 -0.00872803 C30.91549337 -0.01020529 35.84854681 -0.00804952 40.78161621 -0.00338745 C47.12077523 0.00230985 53.45989191 -0.000969 59.79904938 -0.00695992 C64.65444256 -0.01056475 69.50982563 -0.0094273 74.36521912 -0.00683212 C76.70332341 -0.00616264 79.04142862 -0.00699202 81.37953186 -0.00931168 C84.64102632 -0.01183693 87.90245118 -0.0079994 91.16394043 -0.00241089 C92.14060165 -0.00443512 93.11726288 -0.00645935 94.1235199 -0.00854492 C95.00693558 -0.0057251 95.89035126 -0.00290527 96.80053711 0 C97.95866535 0.00056554 97.95866535 0.00056554 99.14019012 0.0011425 C100.90026855 0.12698364 100.90026855 0.12698364 101.90026855 1.12698364 C101.99823589 2.7315708 102.02582397 4.34049168 102.0261097 5.94806671 C102.02871744 6.99794313 102.03132519 8.04781955 102.03401196 9.1295104 C102.03178124 10.29709088 102.02955052 11.46467135 102.0272522 12.66763306 C102.02959218 14.51158024 102.02959218 14.51158024 102.03197944 16.39277887 C102.03529285 19.8204818 102.03408017 23.24813043 102.03099322 26.67583013 C102.02874107 30.36639299 102.03221781 34.05695092 102.03497314 37.74751282 C102.03943182 44.98346576 102.03845394 52.21940837 102.0355605 59.45536172 C102.03330685 65.33347749 102.03299378 71.21159035 102.03408432 77.08970642 C102.03423755 77.92466594 102.03439079 78.75962546 102.03454866 79.61988679 C102.03486837 81.31581652 102.03519258 83.01174626 102.03552125 84.70767599 C102.03837633 100.62973967 102.03508859 116.55179759 102.02972089 132.47386032 C102.02525282 146.15104363 102.02602875 159.82821846 102.03063965 173.50540161 C102.03598492 189.36848449 102.03810164 205.23156232 102.03502738 221.09464598 C102.03470882 222.78451761 102.03439445 224.47438923 102.03408432 226.16426086 C102.03385291 227.4116031 102.03385291 227.4116031 102.03361682 228.68414417 C102.03275152 234.5587127 102.03421481 240.43327804 102.03656387 246.30784607 C102.03936155 253.46193567 102.03862429 260.61601429 102.03328313 267.77010262 C102.03064568 271.42382037 102.02964178 275.07751978 102.03293228 278.73123741 C102.03643746 282.68294684 102.03226695 286.6346259 102.0272522 290.58633423 C102.03059828 292.33770494 102.03059828 292.33770494 102.03401196 294.12445688 C102.03010034 295.69927151 102.03010034 295.69927151 102.0261097 297.30590057 C102.02594734 298.21934534 102.02578499 299.1327901 102.02561772 300.073915 C101.90026855 302.12698364 101.90026855 302.12698364 100.90026855 303.12698364 C94.82702755 304.21775576 88.66336856 304.27156085 82.51257324 304.25637817 C81.17665634 304.25900665 81.17665634 304.25900665 79.81375122 304.26168823 C76.89986158 304.26605321 73.9860337 304.26318877 71.07214355 304.25979614 C69.03432199 304.26047048 66.99650049 304.26144159 64.9586792 304.26269531 C60.70222197 304.26416482 56.44578582 304.26204089 52.18933105 304.25735474 C46.7363862 304.25164335 41.28349041 304.25495009 35.83054733 304.2609272 C31.62867869 304.2645406 27.42682169 304.26339088 23.2249527 304.26079941 C21.21392053 304.26013305 19.20288731 304.26094838 17.19185638 304.26327896 C14.38467097 304.26581983 11.57756523 304.26194524 8.77038574 304.25637817 C7.5281575 304.25941452 7.5281575 304.25941452 6.26083374 304.26251221 C5.10888016 304.25828247 5.10888016 304.25828247 3.93365479 304.25396729 C3.27151348 304.25359026 2.60937218 304.25321323 1.92716599 304.25282478 C-0.47579765 304.10363535 -2.7445923 303.61534879 -5.09973145 303.12698364 C-5.12259636 264.67099168 -5.14022893 226.21500073 -5.15079677 187.75900334 C-5.15204755 183.22386721 -5.15334187 178.68873109 -5.15466309 174.15359497 C-5.1549254 173.25069162 -5.15518771 172.34778827 -5.15545797 171.41752421 C-5.15981497 156.7779818 -5.16770268 142.13844331 -5.17688424 127.49890322 C-5.18621994 112.48894392 -5.19178688 97.47898668 -5.19381994 82.4690246 C-5.19519534 73.19937058 -5.19954686 63.92972759 -5.20764791 54.66007697 C-5.21291434 48.31245276 -5.21453598 41.96483431 -5.21323282 35.61720807 C-5.21258928 31.94931897 -5.21360877 28.28144924 -5.21893692 24.61356354 C-5.22465796 20.64647706 -5.22273259 16.67941623 -5.21998596 12.71232605 C-5.2228988 11.54017251 -5.22581164 10.36801896 -5.22881275 9.16034561 C-5.22682171 8.1063691 -5.22483066 7.05239259 -5.22277927 5.96647739 C-5.22315899 5.0494528 -5.22353871 4.1324282 -5.22392994 3.18761498 C-5.00006631 -0.52660394 -3.27307339 0.00159831 0 0 Z " fill="#FF1129" transform="translate(1528.0997314453125,1823.8730163574219)"/>
<path d="M0 0 C12.01569323 11.67781785 19.98823427 26.40147851 20.50415039 43.28686523 C20.7294353 59.62268225 15.10272048 74.4308584 4.4375 86.91796875 C-6.97398907 98.4703404 -22.54531495 105.51600064 -38.77734375 106.16015625 C-53.27167618 105.8536205 -66.99435392 100.96950997 -78.27734375 91.78515625 C-80.77734375 89.16015625 -80.77734375 89.16015625 -80.77734375 87.16015625 C-82.26234375 86.66515625 -82.26234375 86.66515625 -83.77734375 86.16015625 C-94.42552495 75.0049188 -98.7758123 60.78416966 -99.15234375 45.66015625 C-98.76967399 30.8737969 -94.80327782 17.38014407 -84.77734375 6.16015625 C-84.11734375 6.16015625 -83.45734375 6.16015625 -82.77734375 6.16015625 C-82.11734375 4.84015625 -81.45734375 3.52015625 -80.77734375 2.16015625 C-80.11734375 2.16015625 -79.45734375 2.16015625 -78.77734375 2.16015625 C-78.77734375 1.50015625 -78.77734375 0.84015625 -78.77734375 0.16015625 C-77.12734375 -0.49984375 -75.47734375 -1.15984375 -73.77734375 -1.83984375 C-73.77734375 -2.49984375 -73.77734375 -3.15984375 -73.77734375 -3.83984375 C-49.20521929 -16.80427751 -22.956774 -18.95704568 0 0 Z " fill="#FF1129" transform="translate(1615.77734375,1685.83984375)"/>
</svg>
