<?xml version="1.0" encoding="UTF-8"?>
<svg version="1.1" xmlns="http://www.w3.org/2000/svg" width="1854" height="562">
<path d="M0 0 C1.32417385 0.30878635 2.64839408 0.61737388 3.97265625 0.92578125 C22.0749742 5.43742268 39.56189694 14.2166309 54 26 C54.58571777 26.47050781 55.17143555 26.94101562 55.77490234 27.42578125 C68.21597411 37.4874856 78.24133542 48.62062261 87 62 C87.55171875 62.8353125 88.1034375 63.670625 88.671875 64.53125 C92 69.69171348 92 69.69171348 92 72 C86.64770599 72.29928951 81.30038499 72.51552672 75.94165039 72.65917969 C74.12438055 72.71910561 72.30767903 72.80068993 70.49243164 72.90527344 C54.58736924 73.79788217 54.58736924 73.79788217 49.42651367 69.41821289 C46.58105612 66.52537943 44.32037322 63.32034745 42 60 C23.5478664 40.47316577 -4.05898791 31.42354729 -30.2734375 29.796875 C-57.72643256 29.38196827 -83.9703646 38.30588079 -105 56 C-105.89460938 56.91394531 -106.78921875 57.82789063 -107.7109375 58.76953125 C-110 61 -110 61 -112 61 C-112.38285156 61.86818359 -112.38285156 61.86818359 -112.7734375 62.75390625 C-114.1239206 65.22692466 -115.67184081 66.91041646 -117.625 68.9375 C-137.1988182 90.63505978 -144.07592188 119.47968809 -143.17919922 147.97851562 C-141.58357698 174.88235874 -128.73829617 201.76739244 -109.10546875 220.234375 C-84.176833 241.13927919 -55.56994135 251.0428412 -23 249 C5.53428761 246.45155835 31.9526524 231.75295412 50.3125 209.9375 C53.47893157 206.16966677 53.47893157 206.16966677 56.01132202 201.97572327 C58.85054037 196.42243217 58.85054037 196.42243217 61.91294861 195.29698181 C64.24737761 195.07346399 66.45874255 195.09868074 68.80078125 195.21875 C70.0553437 195.23572937 70.0553437 195.23572937 71.33525085 195.25305176 C73.99670308 195.29770444 76.65268843 195.39802332 79.3125 195.5 C81.12036466 195.5401424 82.92831413 195.57664188 84.73632812 195.609375 C89.15964618 195.69740071 93.57889774 195.83535249 98 196 C96.74242939 198.54571241 95.48154744 201.08969422 94.21875 203.6328125 C93.69039551 204.70366089 93.69039551 204.70366089 93.15136719 205.79614258 C88.20902671 215.73206901 82.19498441 224.55703599 75 233 C74.19949219 233.94746094 73.39898437 234.89492187 72.57421875 235.87109375 C49.3357339 262.34575279 14.13480043 280.46125949 -21.1953125 282.90625 C-22.58363281 282.95265625 -22.58363281 282.95265625 -24 283 C-24.66483398 283.02578125 -25.32966797 283.0515625 -26.01464844 283.078125 C-51.15405653 283.93575939 -75.51908109 279.59264095 -98 268 C-99.02867187 267.50113281 -100.05734375 267.00226563 -101.1171875 266.48828125 C-128.4808117 252.6726617 -148.66396167 229.65928045 -163 203 C-163.20753906 203.99257812 -163.41507813 204.98515625 -163.62890625 206.0078125 C-166.63663533 219.57705869 -171.6153531 231.48919547 -181 242 C-181.64324219 242.74765625 -182.28648437 243.4953125 -182.94921875 244.265625 C-201.03561742 263.92330044 -228.89198599 267.06861431 -254 269 C-293.27 269 -332.54 269 -373 269 C-373 180.89 -373 92.78 -373 2 C-218.73751726 2 -218.73751726 2 -195.95898438 23.78930664 C-191.65787596 28.13154179 -188.12053614 32.75716375 -185 38 C-184.54109375 38.75410156 -184.0821875 39.50820313 -183.609375 40.28515625 C-175.54959485 54.82674755 -173.7875157 71.84942055 -177.96484375 87.83984375 C-183.89227772 105.93529312 -196.12987155 117.40207305 -212 127 C-211.06800781 127.32871094 -210.13601562 127.65742188 -209.17578125 127.99609375 C-196.92383511 132.49779865 -187.13619368 138.55157385 -178 148 C-177.95512451 147.23558594 -177.91024902 146.47117188 -177.86401367 145.68359375 C-175.31974363 103.55580492 -164.70962808 68.83841334 -135 38 C-134.35804688 37.29488281 -133.71609375 36.58976562 -133.0546875 35.86328125 C-116.10145321 17.77249228 -91.65603679 6.18189115 -68 0 C-66.87980469 -0.30035156 -65.75960938 -0.60070312 -64.60546875 -0.91015625 C-44.54937326 -5.35100129 -19.85787478 -5.2370068 0 0 Z M-336 35 C-336 61.07 -336 87.14 -336 114 C-317.9634375 114.061875 -317.9634375 114.061875 -299.5625 114.125 C-293.92136108 114.15231201 -293.92136108 114.15231201 -288.16625977 114.18017578 C-284.71904935 114.18687512 -284.71904935 114.18687512 -281.27183533 114.19088745 C-279.76673694 114.19390733 -278.26164257 114.20083081 -276.75657654 114.21115112 C-268.35879869 114.26572671 -260.0950109 114.06210759 -251.74584961 113.09716797 C-251.05488725 113.01736254 -250.36392488 112.93755711 -249.65202427 112.85533333 C-237.89286657 111.34990365 -226.80038534 106.40808691 -219.28125 96.98828125 C-213.71338162 88.34790014 -211.74853391 78.22302868 -213.49609375 68.13671875 C-215.74554207 58.13493441 -219.62839201 49.3101782 -228 43 C-242.96208982 34.45347293 -259.31816041 34.84858179 -276.0390625 34.90234375 C-277.57771773 34.90381707 -279.11637346 34.90483537 -280.6550293 34.90539551 C-286.31169392 34.91060319 -291.96834777 34.92456436 -297.625 34.9375 C-310.28875 34.958125 -322.9525 34.97875 -336 35 Z M-336 146 C-336 176.03 -336 206.06 -336 237 C-324.90375 237.020625 -313.8075 237.04125 -302.375 237.0625 C-298.9207959 237.071604 -295.4665918 237.08070801 -291.90771484 237.09008789 C-272.57057901 237.12825082 -272.57057901 237.12825082 -253.2421875 236.60546875 C-252.40174896 236.57276382 -251.56131042 236.5400589 -250.69540405 236.50636292 C-236.1035845 235.76990157 -221.0263516 231.08289188 -211 220 C-202.6167351 208.70825544 -200.57510601 196.75203692 -202 183 C-204.38821421 170.97797252 -211.13435679 162.09473725 -221 155 C-238.17488625 145.47484757 -258.72565954 145.83893918 -277.796875 145.90234375 C-279.29378217 145.90381808 -280.79068986 145.90483576 -282.28759766 145.90539551 C-287.77507308 145.91059145 -293.26253739 145.92455247 -298.75 145.9375 C-317.18875 145.9684375 -317.18875 145.9684375 -336 146 Z " fill="#0B3D64" transform="translate(403,3)"/>
<path d="M0 0 C33.37093778 0 33.37093778 0 43.97192383 0.15185547 C45.21842209 0.16815002 46.46492035 0.18444458 47.74919128 0.20123291 C51.73517379 0.25415496 55.72110512 0.31022504 59.70703125 0.3671875 C61.10871538 0.3869764 62.51039983 0.40674256 63.91208458 0.42648697 C70.48266768 0.51932777 77.05321788 0.61417519 83.6237343 0.71162117 C91.11401984 0.82263453 98.60436232 0.92629482 106.0948332 1.02398384 C111.96323177 1.10100377 117.83150868 1.18488795 123.69973963 1.2737571 C127.17286663 1.32619301 130.64597486 1.37587834 134.11924171 1.41814804 C180.10287815 1.99796603 180.10287815 1.99796603 197.921875 19.69140625 C201.78810651 23.72085292 204.66475957 27.92375041 207 33 C207.38414062 33.82113281 207.76828125 34.64226562 208.1640625 35.48828125 C216.70577922 55.24484187 216.99204601 83.44222476 210.375 103.9375 C205.50111268 115.55712992 196.33352758 124.01515688 187.38525391 132.54882812 C185.77054178 134.15646641 185.77054178 134.15646641 184 137 C184.71285156 137.35191406 185.42570313 137.70382812 186.16015625 138.06640625 C196.91388374 143.60971396 203.86647597 150.08251285 207.9375 161.66796875 C211.12815652 172.54381237 211.14232662 183.51739052 211.16866493 194.76360321 C211.17592138 197.21929572 211.1916491 199.67479871 211.21000671 202.13043213 C211.26208574 209.10467127 211.31050362 216.07879264 211.32592773 223.05322266 C211.33601852 227.33787155 211.36535009 231.62202023 211.40724754 235.90647125 C211.41952573 237.53146837 211.42468462 239.1565361 211.42244911 240.78157806 C211.42009086 243.05252062 211.44229248 245.32202564 211.4699707 247.59277344 C211.47583694 248.88165466 211.48170319 250.17053589 211.48774719 251.49847412 C212.35831581 257.44928299 215.72325412 261.09889181 220.25 264.8125 C221.51445688 265.85775359 222.76906868 266.91546585 224 268 C224 268.33 224 268.66 224 269 C208.82 269 193.64 269 178 269 C177.96132813 260.63720703 177.96132813 260.63720703 177.921875 252.10546875 C177.89668292 248.55529376 177.8703319 245.00520197 177.83984375 241.45507812 C177.79165221 235.8308083 177.7475539 230.20673129 177.72900391 224.58227539 C177.71376383 220.04328152 177.67918945 215.50479505 177.63169098 210.96602821 C177.61695253 209.24190007 177.60896335 207.51769946 177.60811615 205.79350853 C177.59597227 193.46161234 176.80418351 183.0758186 168.8125 173 C165.07750269 168.23250807 165.07750269 168.23250807 164 165 C162.16190682 163.87226403 162.16190682 163.87226403 160 163 C159.38382813 162.68160156 158.76765625 162.36320313 158.1328125 162.03515625 C143.85276141 155.11738831 128.80676947 155.53085676 113.3203125 155.48828125 C111.30915292 155.47278265 109.29800296 155.45598007 107.28686523 155.43786621 C99.89968261 155.38034065 92.51232187 155.34788275 85.125 155.3125 C60.313125 155.1578125 60.313125 155.1578125 35 155 C35 192.62 35 230.24 35 269 C23.45 269 11.9 269 0 269 C0 180.23 0 91.46 0 0 Z M35 32 C35 62.03 35 92.06 35 123 C49.870625 123.020625 64.74125 123.04125 80.0625 123.0625 C84.72898682 123.071604 89.39547363 123.08070801 94.20336914 123.09008789 C98.44762384 123.09343575 98.44762384 123.09343575 102.69187927 123.09544373 C104.5578892 123.09696255 106.42389825 123.10044404 108.28990173 123.10557556 C137.91500979 124.42926311 137.91500979 124.42926311 164 113 C171.87054294 103.61879622 175.30138312 94.18254981 175.3359375 81.96875 C175.3425943 81.13339722 175.3492511 80.29804443 175.35610962 79.43737793 C175.36617101 77.68272076 175.37092867 75.92802583 175.37060547 74.17333984 C175.37498875 71.50684188 175.41140369 68.84198843 175.44921875 66.17578125 C175.45508655 64.46094309 175.45905619 62.74609717 175.4609375 61.03125 C175.48249405 59.85121399 175.48249405 59.85121399 175.50448608 58.64733887 C175.45041087 52.01777044 173.44785584 46.9143637 169.17578125 41.828125 C161.70086236 35.49716644 153.97900792 31.86882138 144.07084656 31.87974548 C143.10475967 31.87837082 142.13867279 31.87699615 141.14331055 31.87557983 C140.09530273 31.87917511 139.04729492 31.88277039 137.9675293 31.88647461 C136.85489212 31.88632858 135.74225494 31.88618256 134.59590149 31.8860321 C130.92198734 31.8867282 127.24812403 31.8945065 123.57421875 31.90234375 C121.02545703 31.904209 118.47669495 31.9056324 115.92793274 31.90663147 C109.90737464 31.91005818 103.88683833 31.91793796 97.86628896 31.92798096 C90.3372951 31.94026688 82.80829826 31.94573143 75.27929688 31.95117188 C61.8528504 31.96090388 48.42644367 31.98093737 35 32 Z " fill="#0C3D64" transform="translate(276,289)"/>
<path d="M0 0 C4.14161519 3.52543303 8.08727989 7.22351666 12 11 C13.29550781 12.20076172 13.29550781 12.20076172 14.6171875 13.42578125 C23.61082375 21.98514535 30.80545463 32.26278802 37 43 C37 43.66 37 44.32 37 45 C31.66610331 45.32462854 26.33809134 45.55864021 20.99658203 45.71411133 C19.18599225 45.77897068 17.37606958 45.86730958 15.56787109 45.98071289 C-0.28159682 46.94885341 -0.28159682 46.94885341 -5.72363281 42.23291016 C-8.33245258 39.56176026 -10.52161258 36.65533185 -12.69836426 33.62948608 C-26.35802849 16.52928512 -53.5721766 6.6306236 -74.60400391 4.21533203 C-103.5817149 1.61105843 -133.21719198 8.1724202 -156.1875 26.75 C-158.63635139 28.84149212 -160.94503745 30.9427679 -163.17578125 33.265625 C-165 35 -165 35 -167 35 C-167.25652344 35.58136719 -167.51304687 36.16273438 -167.77734375 36.76171875 C-169.11146811 39.20406142 -170.62072773 40.82365447 -172.5625 42.8125 C-190.31836633 62.46962969 -198.65730386 90.36917903 -198.1875 116.47265625 C-196.59082072 146.51018517 -185.08440053 171.85284828 -164 193 C-163.319375 193.70382812 -162.63875 194.40765625 -161.9375 195.1328125 C-144.68501149 211.77876821 -118.84904755 222.10003594 -95 223 C-93.99453125 223.0515625 -92.9890625 223.103125 -91.953125 223.15625 C-65.30428824 223.8930842 -39.47616872 215.02447171 -19 198 C-18.13890625 197.29101562 -17.2778125 196.58203125 -16.390625 195.8515625 C-5.59955532 186.66250092 -5.59955532 186.66250092 1.74243164 174.86572266 C2.83934728 172.10001351 3.60403828 170.81120513 6 169 C12.28575152 167.96356407 18.46721315 168.24998591 24.8125 168.5 C26.57218541 168.54014368 28.331958 168.57664295 30.09179688 168.609375 C34.39668427 168.69738886 38.69739049 168.83533106 43 169 C32.44416624 201.78060963 3.89461788 227.09221505 -25.7800293 242.56665039 C-45.30289506 252.33697796 -66.16536065 256.2323494 -87.875 256.25 C-88.61709717 256.25067474 -89.35919434 256.25134949 -90.1237793 256.25204468 C-101.0577029 256.23622626 -111.37013529 255.7764572 -122 253 C-122.64614258 252.84966309 -123.29228516 252.69932617 -123.95800781 252.54443359 C-142.84642201 248.14444741 -160.95007714 239.19151351 -176 227 C-176.82201904 226.3507959 -176.82201904 226.3507959 -177.66064453 225.68847656 C-207.66479923 201.91094384 -226.15565019 167.94084936 -231 130 C-233.08875459 87.72360715 -223.8767198 49.18079589 -195 17 C-145.89289029 -36.84906773 -57.54994691 -47.50619821 0 0 Z " fill="#0B3D64" transform="translate(231,306)"/>
<path d="M0 0 C13.90125 -0.061875 27.8025 -0.12375 42.125 -0.1875 C46.48734863 -0.21481201 50.84969727 -0.24212402 55.34423828 -0.27026367 C60.73999023 -0.28381348 60.73999023 -0.28381348 63.27926636 -0.28633118 C65.0236746 -0.29088782 66.76807439 -0.30133278 68.51242065 -0.31672668 C84.40380522 -0.44975415 101.21686212 -0.15998294 113.75 11.0625 C122.96778265 21.02119189 125.62076766 33.68828887 125.3125 46.765625 C124.78171881 56.7177724 120.09901929 65.97194122 113.03515625 72.9375 C104.92735077 79.74043263 94.95078219 82.84891897 85 86 C85.54527344 86.32871094 86.09054687 86.65742188 86.65234375 86.99609375 C104.19347785 98.06050141 113.82389118 116.52729475 124.60571289 133.65820312 C125.58979126 135.2137793 125.58979126 135.2137793 126.59375 136.80078125 C127.17833984 137.73059814 127.76292969 138.66041504 128.36523438 139.6184082 C129.78683444 141.68945191 131.20651753 143.266406 133 145 C136.2506344 136.58357826 139.5005038 128.16686124 142.75 119.75 C142.99624115 119.11220737 143.2424823 118.47441475 143.4961853 117.81729507 C150.84610775 98.77990093 158.18047628 79.73660707 165.5 60.6875 C173.28103784 40.43784958 181.11472636 20.20927748 189 0 C196.92 0 204.84 0 213 0 C220.89360245 18.18347706 228.39907772 36.51796754 235.90039062 54.86572266 C238.87545867 62.14209183 241.85642233 69.41604147 244.8392334 76.6892395 C245.48722298 78.26932874 246.13509115 79.84946778 246.78283691 81.42965698 C250.88082974 91.42591472 254.9951264 101.41530672 259.125 111.3984375 C259.55729416 112.44368088 259.98958832 113.48892426 260.4349823 114.56584167 C262.55283871 119.68603295 264.67225927 124.80556792 266.79418945 129.92407227 C267.56726139 131.79181232 268.34029393 133.65956868 269.11328125 135.52734375 C269.4625769 136.36836639 269.81187256 137.20938904 270.17175293 138.07589722 C276 152.17057586 276 152.17057586 276 156 C268.08 156 260.16 156 252 156 C250.30823577 151.89754823 248.62157053 147.79310986 246.9375 143.6875 C246.23850586 141.99463867 246.23850586 141.99463867 245.52539062 140.26757812 C241.42376534 130.25068372 237.74998512 120.17853104 234 110 C201.825 109.505 201.825 109.505 169 109 C168.34 111.97 167.68 114.94 167 118 C166.53638528 119.51630071 166.04177148 121.02434013 165.48779297 122.51000977 C165.2076535 123.27011856 164.92751404 124.03022736 164.6388855 124.81336975 C164.34297516 125.5981218 164.04706482 126.38287384 163.7421875 127.19140625 C163.43427277 128.02212143 163.12635803 128.85283661 162.80911255 129.70872498 C161.83655711 132.32872852 160.85593634 134.94562434 159.875 137.5625 C159.20909692 139.35201325 158.54372734 141.14172512 157.87890625 142.93164062 C156.25875697 147.29007874 154.63137359 151.6457514 153 156 C147.14704142 156.24805523 141.29716596 156.42903011 135.44018555 156.54931641 C133.45038549 156.59946992 131.46095155 156.66761595 129.47241211 156.75439453 C113.06400012 157.45227545 113.06400012 157.45227545 108.35083008 154.13598633 C106.48803885 151.51272292 105.26498949 148.95484965 104 146 C102.84570391 144.10715916 101.66373278 142.23096399 100.45703125 140.37109375 C99.24119846 138.393837 98.02638366 136.41595397 96.8125 134.4375 C80.39331387 105.5812033 80.39331387 105.5812033 54 88 C43.11 87.67 32.22 87.34 21 87 C21 109.77 21 132.54 21 156 C14.07 156 7.14 156 0 156 C0 104.52 0 53.04 0 0 Z M21 18 C21 34.5 21 51 21 68 C28.75587451 68.0691574 36.51066353 68.12880783 44.26660156 68.16479492 C46.90075319 68.17980939 49.53488012 68.20022713 52.16894531 68.22631836 C55.97206751 68.26302525 59.77485694 68.27980049 63.578125 68.29296875 C65.32261932 68.31619453 65.32261932 68.31619453 67.10235596 68.33988953 C78.19722746 68.34213368 88.82362457 67.11712634 97 59 C101.54593826 53.25776219 103.50056523 47.6515119 103.31640625 40.37109375 C102.27040313 32.53252718 98.10001551 27.38631674 92.14936829 22.47151184 C84.37620945 17.14981088 74.25762998 17.5917959 65.23828125 17.70703125 C63.33057198 17.71339851 63.33057198 17.71339851 61.38432312 17.71989441 C58.04197301 17.73373588 54.70026659 17.76057357 51.35809326 17.79400635 C47.93214505 17.82497941 44.50612774 17.83862297 41.08007812 17.85351562 C34.38636294 17.88385885 27.69375527 17.94260673 21 18 Z M200 20 C199.74089844 21.04027344 199.48179687 22.08054688 199.21484375 23.15234375 C195.2226781 38.35015122 189.75699304 52.97438031 184.29467773 67.69116211 C183.80809189 69.00228218 183.80809189 69.00228218 183.31167603 70.33988953 C182.70088458 71.98263097 182.0882931 73.62470482 181.47348022 75.26594543 C179.52780092 80.48215322 177.76306234 85.71081299 176 91 C192.83 91 209.66 91 227 91 C221.433234 75.04212011 221.433234 75.04212011 215.66796875 59.16015625 C215.30528397 58.1792955 214.94259918 57.19843475 214.56892395 56.18785095 C213.81963759 54.16244653 213.06953878 52.13734248 212.31860352 50.11254883 C211.16947267 47.01388886 210.02302009 43.91424746 208.87695312 40.81445312 C208.14077657 38.82546473 207.40445408 36.83653034 206.66796875 34.84765625 C206.32839645 33.93000992 205.98882416 33.01236359 205.63896179 32.06690979 C204.13920772 28.02474267 202.63232242 23.99109812 201 20 C200.67 20 200.34 20 200 20 Z " fill="#0B3D64" transform="translate(1153,204)"/>
<path d="M0 0 C87.18313319 0 87.18313319 0 101.1796875 12.9765625 C108.93817966 21.60080915 112.09718929 31.53166333 112 43 C110.46762671 54.18218347 105.72057204 62.828869 97 70 C94.0625 71.4375 94.0625 71.4375 92 72 C92 72.66 92 73.32 92 74 C93.918125 74.4640625 93.918125 74.4640625 95.875 74.9375 C104.12176089 77.69509197 110.88047607 84.44965868 115.0390625 92 C115.35617187 92.66 115.67328125 93.32 116 94 C116.31710937 94.639375 116.63421875 95.27875 116.9609375 95.9375 C121.19402418 106.19011361 119.92892556 118.81158999 116.32421875 129.03125 C111.60363699 139.61426515 104.38781973 147.46694837 93.625 151.8125 C64.66269523 162.55421557 26.58363846 156 0 156 C0 104.52 0 53.04 0 0 Z M22 19 C22 34.18 22 49.36 22 65 C28.81394349 65.06908617 35.62665843 65.12875718 42.44067383 65.16479492 C44.75582002 65.17982729 47.070938 65.2002587 49.38598633 65.22631836 C52.72484324 65.26294596 56.0633217 65.27978241 59.40234375 65.29296875 C60.42770737 65.30845261 61.45307098 65.32393646 62.50950623 65.33988953 C71.35325085 65.34193365 79.0027689 63.88483701 85.55859375 57.6484375 C90.21632625 52.32170819 90.54462908 46.8465711 90.34765625 40.00390625 C89.63972814 33.88708919 87.50057012 29.64348157 83.375 25.125 C66.93619701 14.77464256 40.24569842 18.92397626 22 19 Z M22 85 C22 102.16 22 119.32 22 137 C34.5296875 137.12375 34.5296875 137.12375 47.3125 137.25 C49.92712158 137.28641602 52.54174316 137.32283203 55.2355957 137.36035156 C57.34064924 137.37204938 59.44571192 137.3822386 61.55078125 137.390625 C63.15052795 137.4213208 63.15052795 137.4213208 64.78259277 137.45263672 C74.7766992 137.45721854 83.94363247 135.1831846 91.33984375 128.12109375 C95.17408845 123.22228229 96.68959212 117.52760703 97.4375 111.4375 C96.40205242 103.30184041 94.42141769 96.44803537 88 91 C79.33841556 85.17079022 69.5324269 84.7022616 59.40234375 84.8046875 C57.9710614 84.80770874 57.9710614 84.80770874 56.51086426 84.81079102 C52.98635978 84.82116256 49.46192446 84.84908427 45.9375 84.875 C34.0884375 84.936875 34.0884375 84.936875 22 85 Z " fill="#0B3D64" transform="translate(597,6)"/>
<path d="M0 0 C23 0 23 0 28.08276367 3.66162109 C29.7195282 6.09432983 29.7195282 6.09432983 31.16796875 8.7734375 C31.75065018 9.68517731 32.3333316 10.59691711 32.93367004 11.5362854 C34.76597343 14.44085944 36.47509454 17.39850854 38.1875 20.375 C39.3706098 22.29899317 40.56133357 24.21832586 41.75976562 26.1328125 C44.11842605 29.9225591 46.43458235 33.73342447 48.71899414 37.56835938 C53.03172273 44.77001029 57.69731081 51.71877255 62.41207886 58.66119385 C64.11649809 61.17158689 65.813817 63.6866786 67.51000977 66.20263672 C71.86435171 72.65927871 76.22497547 79.11166978 80.59008789 85.56103516 C82.46122623 88.3261859 84.33034934 91.09269043 86.19921875 93.859375 C87.02458382 95.0771463 87.02458382 95.0771463 87.86662292 96.31951904 C92.6979547 103.47681451 97.32606485 110.72943421 102 118 C102.33 79.06 102.66 40.12 103 0 C109.93 0 116.86 0 124 0 C124 51.48 124 102.96 124 156 C102 156 102 156 97.125 151.25 C96.02679012 149.19591084 94.98365647 147.1113425 94 145 C92.91687594 143.26472618 91.797474 141.55172487 90.6484375 139.859375 C89.94187012 138.81362305 89.23530273 137.76787109 88.50732422 136.69042969 C88.11091736 136.10724976 87.7145105 135.52406982 87.30609131 134.92321777 C85.87289207 132.81283374 84.44600557 130.69827225 83.02001953 128.58300781 C80.74909124 125.21486417 78.47660147 121.84778386 76.20263672 118.48168945 C64.01006876 100.4319314 51.85962871 82.35566272 39.82067871 64.20300293 C33.96291432 55.40385689 27.99163787 46.71510962 22 38 C21.67 76.94 21.34 115.88 21 156 C14.07 156 7.14 156 0 156 C0 104.52 0 53.04 0 0 Z " fill="#0B3D64" transform="translate(881,204)"/>
<path d="M0 0 C23 0 23 0 28.11450195 3.81689453 C29.77082825 6.34939575 29.77082825 6.34939575 31.23828125 9.1328125 C32.11941841 10.54794632 32.11941841 10.54794632 33.01835632 11.9916687 C34.86511308 14.99494913 36.58753894 18.05048062 38.3125 21.125 C39.51236821 23.13099672 40.72001172 25.13236403 41.93554688 27.12890625 C44.28481136 31.00232692 46.5961716 34.89464519 48.88305664 38.80517578 C51.73164611 43.62295848 54.81654489 48.16652735 58.13656616 52.66656494 C61.91445884 57.80506017 65.43202088 63.09982113 68.93359375 68.4296875 C69.54342606 69.35766144 70.15325836 70.28563538 70.78157043 71.24172974 C72.66895345 74.11813381 74.55355033 76.99634624 76.4375 79.875 C78.3244126 82.75565248 80.21222396 85.63570325 82.10206604 88.51443481 C83.26606857 90.28774197 84.42847469 92.06209883 85.58872986 93.83786011 C90.93409041 101.98551717 96.47425249 109.96254908 102 118 C102.33 79.06 102.66 40.12 103 0 C109.93 0 116.86 0 124 0 C124 51.48 124 102.96 124 156 C116.41 156 108.82 156 101 156 C93.24565479 148.12736817 93.24565479 148.12736817 91.20800781 144.31884766 C90.74736938 143.48508606 90.28673096 142.65132446 89.81213379 141.79229736 C89.33787964 140.93271423 88.86362549 140.0731311 88.375 139.1875 C87.31480597 137.41945335 86.24523306 135.65700136 85.16699219 133.89990234 C82.8983146 130.19126618 80.66797966 126.4631182 78.45800781 122.71923828 C73.36414517 114.18572048 67.71795379 106.02576041 62.10128784 97.83145142 C59.04477574 93.36304768 56.02128367 88.87245444 52.99609375 84.3828125 C52.40983719 83.51390884 51.82358063 82.64500519 51.21955872 81.74977112 C42.08559993 68.20717285 33.0424275 54.6038051 24 41 C23.34 40.01 22.68 39.02 22 38 C21.67 76.94 21.34 115.88 21 156 C14.07 156 7.14 156 0 156 C0 104.52 0 53.04 0 0 Z " fill="#0B3D64" transform="translate(869,6)"/>
<path d="M0 0 C19.614375 -0.061875 19.614375 -0.061875 39.625 -0.125 C43.72631348 -0.14320801 47.82762695 -0.16141602 52.05322266 -0.18017578 C57.1315918 -0.18920898 57.1315918 -0.18920898 59.52255249 -0.19088745 C61.16278169 -0.19392239 62.80300694 -0.20087946 64.44320679 -0.21115112 C101.32814625 -0.43022942 101.32814625 -0.43022942 114 12 C122.9957149 22.15704695 125.8847555 33.99072538 125.31640625 47.265625 C124.37683804 58.35484978 119.82579516 66.59508119 111.8125 74.25 C104.00075995 80.83175083 94.79742441 83.66908472 85 86 C85.68964844 86.46148437 86.37929687 86.92296875 87.08984375 87.3984375 C99.35608206 95.91245202 107.07845855 106.60310924 115 119 C116.31491827 121.04569242 117.63003708 123.09125595 118.9453125 125.13671875 C122.3346646 130.41620384 125.71496385 135.70134614 129.08349609 140.99414062 C130.39955854 143.05826302 131.72046193 145.11930443 133.04541016 147.17773438 C133.68655762 148.17611328 134.32770508 149.17449219 134.98828125 150.203125 C135.56747314 151.10192383 136.14666504 152.00072266 136.7434082 152.92675781 C138 155 138 155 138 156 C114.45964787 158.80670661 114.45964787 158.80670661 107.88427734 154.66845703 C104.33421186 150.73838454 102.50225927 145.80520501 100.43701172 140.98828125 C97.8725668 135.6554906 94.47479541 130.83890629 91.146698 125.96118164 C89.94380226 124.19674431 88.75282929 122.42479567 87.56469727 120.65039062 C75.53300962 101.15215591 75.53300962 101.15215591 57 89 C45.03085326 87.91189575 33.00890097 87.48035604 21 87 C21 109.77 21 132.54 21 156 C14.07 156 7.14 156 0 156 C0 104.52 0 53.04 0 0 Z M21 18 C21 34.83 21 51.66 21 69 C28.981875 69.04125 36.96375 69.0825 45.1875 69.125 C47.67949951 69.14320801 50.17149902 69.16141602 52.73901367 69.18017578 C75.18885487 70.09884111 75.18885487 70.09884111 95 61.2421875 C100.1662017 55.75309819 102.59642503 50.57452115 103.4375 43.125 C103.09131624 36.07669874 100.43777602 29.91156354 95.3125 25.0625 C85.80659478 17.55318825 74.04729651 17.85031243 62.50390625 17.90234375 C61.31522446 17.9037587 60.12654266 17.90517365 58.90184021 17.90663147 C55.12203406 17.91220886 51.34228811 17.92475725 47.5625 17.9375 C44.9928394 17.94251792 42.42317787 17.94708032 39.85351562 17.95117188 C33.56896881 17.96131806 27.28455145 17.98089802 21 18 Z " fill="#0B3D64" transform="translate(1323,401)"/>
<path d="M0 0 C91.09484536 0 91.09484536 0 107 14 C107.67933594 14.57363281 108.35867188 15.14726562 109.05859375 15.73828125 C122.41075991 27.89317715 128.71742271 47.41800299 130 65 C131.18073301 90.45717493 129.05341658 116.56037573 111.68359375 136.68359375 C99.05375962 149.98543783 86.1345821 153.40934541 68 156 C45.56 156 23.12 156 0 156 C0 104.52 0 53.04 0 0 Z M22 19 C22 57.94 22 96.88 22 137 C57.97822398 139.01171035 57.97822398 139.01171035 91.3125 127.875 C105.5837867 112.60804214 108.64374099 92.28886731 108.18359375 72.13671875 C107.55909323 55.42260232 103.30706401 40.13809575 91.09375 28.125 C72.7392471 13.08032549 41.71642677 19 22 19 Z " fill="#0B3D64" transform="translate(1589,204)"/>
<path d="M0 0 C19.91443576 -0.59446077 38.69885335 5.8820585 53.71875 18.9375 C69.58169452 34.09491901 77.08987973 55.47344064 77.90625 77.125 C77.94621094 77.80820312 77.98617187 78.49140625 78.02734375 79.1953125 C78.74711361 101.46583876 72.04379868 123.59952274 57.3984375 140.5625 C43.56824877 154.78288215 24.93199522 161.87533762 5.30761719 162.52539062 C-15.22751501 162.80618768 -33.81354473 157.42272168 -49.09375 143.125 C-65.63316474 126.7469454 -72.47372475 106.06593418 -73.09375 83.125 C-72.94404612 58.723268 -66.2560658 37.53515143 -49.46484375 19.44140625 C-36.0613881 6.34709126 -18.27391901 1.09098024 0 0 Z M-38.09375 37.125 C-50.83494187 54.09494952 -52.25401641 77.22663886 -49.7890625 97.64941406 C-47.31110545 112.30855286 -40.24487297 124.95249821 -28.4921875 134.1640625 C-15.52761858 142.94410197 -1.89931557 145.44004694 13.4140625 142.91015625 C26.32321611 140.00776265 37.26535966 132.98774041 44.90625 122.125 C55.85322931 103.93302815 58.46195128 81.10725869 53.34375 60.4375 C48.65904144 44.8163638 40.96469878 32.43406583 26.359375 24.3046875 C4.36678335 13.72863228 -21.73689888 19.07404644 -38.09375 37.125 Z " fill="#0B3D64" transform="translate(812.09375,397.875)"/>
<path d="M0 0 C15.4390987 15.28580269 22.76155426 35.97947251 22.99560547 57.44848633 C23.05081787 82.16253296 18.95758663 104.48431903 1.19140625 122.9140625 C-13.79868689 137.69169763 -33.48486546 142.98424004 -54.07006836 142.9753418 C-73.39250507 142.74350591 -90.97170514 135.90783236 -104.99609375 122.4765625 C-121.46487135 105.25813927 -127.60801178 83.00072292 -127.3984375 59.69140625 C-126.48336528 35.87606517 -118.92085629 14.48267719 -101.37109375 -2.0234375 C-72.98296802 -26.49150338 -27.74021804 -24.45276211 0 0 Z M-92.24609375 17.7265625 C-103.0090643 30.7395506 -104.60102452 46.87913126 -104.55859375 63.1640625 C-104.57470703 64.39705078 -104.59082031 65.63003906 -104.60742188 66.90039062 C-104.61609638 83.32122022 -100.13044119 97.50611765 -88.58203125 109.4765625 C-78.57250361 119.11784665 -67.55317713 124.22875152 -53.46484375 124.79296875 C-38.65424672 124.48741032 -26.00693233 120.05188654 -15.24609375 109.7265625 C-1.95737359 95.87733394 1.25429499 78.08966236 1.10742188 59.50854492 C0.6467501 41.44527566 -4.83741188 24.09648371 -18.19921875 11.35546875 C-40.97323962 -6.76813183 -72.71434602 -3.23518819 -92.24609375 17.7265625 Z " fill="#0B3D64" transform="translate(1285.24609375,22.2734375)"/>
<path d="M0 0 C37.62 0 75.24 0 114 0 C114 6.27 114 12.54 114 19 C83.64 19 53.28 19 22 19 C22 34.51 22 50.02 22 66 C50.38 66 78.76 66 108 66 C108 72.27 108 78.54 108 85 C79.62 85 51.24 85 22 85 C22 102.16 22 119.32 22 137 C53.68 137 85.36 137 118 137 C118 143.27 118 149.54 118 156 C79.06 156 40.12 156 0 156 C0 104.52 0 53.04 0 0 Z " fill="#0C3D64" transform="translate(746,204)"/>
<path d="M0 0 C37.62 0 75.24 0 114 0 C114 6.27 114 12.54 114 19 C83.64 19 53.28 19 22 19 C22 34.51 22 50.02 22 66 C50.38 66 78.76 66 108 66 C108 72.27 108 78.54 108 85 C79.62 85 51.24 85 22 85 C22 102.16 22 119.32 22 137 C53.35 137 84.7 137 117 137 C117 143.27 117 149.54 117 156 C78.39 156 39.78 156 0 156 C0 104.52 0 53.04 0 0 Z " fill="#0B3D64" transform="translate(1737,204)"/>
<path d="M0 0 C1.22960449 0.00684814 2.45920898 0.01369629 3.72607422 0.02075195 C12.78752358 0.18074448 20.701985 1.0566395 29.1875 4.4375 C30.09886719 4.788125 31.01023437 5.13875 31.94921875 5.5 C43.35902932 10.53219823 51.26636235 19.42197091 56.1796875 30.71875 C58.20203691 36.18872364 58.83647692 41.63956712 59.1875 47.4375 C52.14844956 48.37604006 45.28477428 48.54558032 38.1875 48.4375 C37.84138672 47.27734375 37.84138672 47.27734375 37.48828125 46.09375 C34.24566798 35.73789418 31.54415736 29.24938146 21.98046875 23.6640625 C10.08503048 18.44005185 -6.52714975 18.28862388 -18.875 22.125 C-25.64770049 24.94613939 -30.076632 28.52271997 -33.1171875 35.33203125 C-35.1114983 41.37098361 -33.96924918 46.01418064 -31.17578125 51.578125 C-27.6449963 56.39375147 -23.02899536 58.41783552 -17.5 60.1875 C-16.75016846 60.4342749 -16.00033691 60.6810498 -15.2277832 60.93530273 C-5.76680376 63.93368845 3.91864151 66.1933199 13.57739258 68.45800781 C30.7255481 72.53316172 49.07977978 78.34112207 58.86328125 94.08203125 C64.41608035 103.95913408 64.74857575 115.68787395 62.53125 126.6953125 C58.40325177 139.18606577 49.84554224 148.66255604 38.3125 154.6875 C18.17281776 164.21130938 -6.54721202 164.01386631 -27.5859375 157.21875 C-41.01332418 151.9759526 -51.39176454 143.33810545 -57.3125 130.078125 C-60.07783299 122.88197438 -61.63940999 116.14787311 -61.8125 108.4375 C-59.51941037 107.29095518 -58.01340344 107.24020883 -55.4609375 107.12109375 C-54.61015625 107.07919922 -53.759375 107.03730469 -52.8828125 106.99414062 C-51.99335937 106.95482422 -51.10390625 106.91550781 -50.1875 106.875 C-49.2903125 106.83181641 -48.393125 106.78863281 -47.46875 106.74414062 C-45.25015717 106.63793139 -43.0314512 106.53588806 -40.8125 106.4375 C-40.59335937 107.4275 -40.37421875 108.4175 -40.1484375 109.4375 C-37.50578075 120.69051654 -33.96921561 128.30119195 -23.83984375 134.6796875 C-9.07451203 143.01137719 8.24792904 142.83640757 24.1875 138.4375 C26.76263147 137.28713389 29.08060573 136.04074634 31.453125 134.5234375 C33.1875 133.4375 33.1875 133.4375 36.1875 132.4375 C37.27181094 130.68882517 37.27181094 130.68882517 38.1875 128.4375 C38.72375 127.6125 39.26 126.7875 39.8125 125.9375 C42.21825607 119.81375728 42.09415627 113.31746696 40.125 107.0625 C31.16330056 94.9208427 15.88429599 92.34259894 2 89 C-7.15982274 86.79031905 -16.19615417 84.45964803 -25.09765625 81.34765625 C-26.14459908 80.98432945 -26.14459908 80.98432945 -27.21269226 80.61366272 C-32.70511193 78.63408571 -37.25262084 76.04177806 -41.8125 72.4375 C-42.699375 71.839375 -43.58625 71.24125 -44.5 70.625 C-52.38323921 63.16788183 -55.76727978 53.77577447 -56.25 43.0625 C-55.88058691 32.2879514 -52.2381747 23.19793872 -44.8125 15.4375 C-43.89984375 14.48230469 -43.89984375 14.48230469 -42.96875 13.5078125 C-31.38628557 2.44750835 -15.42971817 -0.1321943 0 0 Z " fill="#0B3D64" transform="translate(959.8125,398.5625)"/>
<path d="M0 0 C7.92 0 15.84 0 24 0 C31.89298683 18.61749192 39.749341 37.24567441 47.3125 56 C52.99550056 70.09053891 58.75494319 84.14782324 64.5625 98.1875 C64.96293518 99.15585785 65.36337036 100.1242157 65.77593994 101.12191772 C68.13828214 106.83453093 70.5017804 112.54666524 72.86560059 118.25866699 C75.66658097 125.02737639 78.46640176 131.79655738 81.26071167 138.56802368 C81.87455344 140.05461265 82.4890669 141.54092445 83.10427856 143.02694702 C83.93959747 145.0446566 84.77280403 147.06322522 85.60546875 149.08203125 C86.07106201 150.20843018 86.53665527 151.3348291 87.01635742 152.49536133 C88 155 88 155 88 156 C79.75 156 71.5 156 63 156 C59.24563529 147.07719724 55.62161392 138.11001432 52.06860352 129.10546875 C51.17464064 126.84244718 50.275796 124.58139952 49.37695312 122.3203125 C48.80699228 120.87772242 48.23731967 119.43501841 47.66796875 117.9921875 C47.39929489 117.31832001 47.13062103 116.64445251 46.85380554 115.95016479 C45 111.22852976 45 111.22852976 45 109 C23.88 109.33 2.76 109.66 -19 110 C-24.61 125.18 -30.22 140.36 -36 156 C-43.59 156 -51.18 156 -59 156 C-58.3333274 152.66663699 -57.76723283 150.09528114 -56.58325195 147.02246094 C-56.29307693 146.26354553 -56.00290192 145.50463013 -55.70393372 144.72271729 C-55.3852684 143.90156433 -55.06660309 143.08041138 -54.73828125 142.234375 C-54.2313398 140.91394196 -54.2313398 140.91394196 -53.7141571 139.5668335 C-52.5841077 136.62639702 -51.44830355 133.68821812 -50.3125 130.75 C-49.50682742 128.6570296 -48.70149647 126.56392766 -47.89648438 124.47070312 C-45.72202228 118.82012287 -43.5423107 113.17158291 -41.36090088 107.52368164 C-40.00090639 104.00234684 -38.64168683 100.4807139 -37.28271484 96.95898438 C-33.59832476 87.41132398 -29.91339644 77.8638725 -26.2253418 68.31762695 C-17.43601446 45.56325788 -8.70968074 22.78495492 0 0 Z M11 20 C10.72679932 21.12720459 10.45359863 22.25440918 10.17211914 23.41577148 C7.04923616 35.9569935 2.96561399 47.96718742 -1.5625 60.0625 C-2.22929679 61.86624788 -2.89531491 63.6702838 -3.56054688 65.47460938 C-6.3926893 73.13432935 -9.22674388 80.78581938 -12.38647461 88.31811523 C-13.11423183 90.01476665 -13.11423183 90.01476665 -13 92 C3.83 92 20.66 92 38 92 C36.06655141 85.55517135 34.09446292 79.30997048 31.70703125 73.046875 C31.39952942 72.23152283 31.09202759 71.41617065 30.77520752 70.57611084 C30.12419745 68.85073923 29.47173799 67.12591388 28.81790161 65.40161133 C27.12703248 60.94217174 25.44678127 56.47873328 23.765625 52.015625 C23.43736221 51.14494385 23.10909943 50.2742627 22.77088928 49.37719727 C19.09447896 39.61592776 15.52388074 29.8173291 12 20 C11.67 20 11.34 20 11 20 Z " fill="#0B3D64" transform="translate(1710,401)"/>
<path d="M0 0 C0.9583374 0.00523682 1.9166748 0.01047363 2.90405273 0.01586914 C4.45576172 0.02070312 4.45576172 0.02070312 6.03881836 0.02563477 C7.12743164 0.03401367 8.21604492 0.04239258 9.33764648 0.05102539 C10.97636719 0.05779297 10.97636719 0.05779297 12.64819336 0.06469727 C15.35723144 0.07652713 18.06616248 0.09300996 20.77514648 0.11352539 C28.67223057 18.72908781 36.52455569 37.35936894 44.08764648 56.11352539 C49.77064704 70.2040643 55.53008968 84.26134863 61.33764648 98.30102539 C61.73808167 99.26938324 62.13851685 100.23774109 62.55108643 101.23544312 C64.91342863 106.94805632 67.27692688 112.66019063 69.64074707 118.37219238 C72.44172745 125.14090178 75.24154824 131.91008278 78.03585815 138.68154907 C78.64969992 140.16813804 79.26421338 141.65444984 79.87942505 143.14047241 C80.71474395 145.15818199 81.54795052 147.17675061 82.38061523 149.19555664 C82.8462085 150.32195557 83.31180176 151.44835449 83.79150391 152.60888672 C84.77514648 155.11352539 84.77514648 155.11352539 84.77514648 156.11352539 C76.52514648 156.11352539 68.27514648 156.11352539 59.77514648 156.11352539 C56.02078177 147.19072263 52.3967604 138.22353971 48.84375 129.21899414 C47.94978712 126.95597257 47.05094248 124.69492491 46.15209961 122.43383789 C45.58213876 120.99124781 45.01246616 119.5485438 44.44311523 118.10571289 C44.17444138 117.4318454 43.90576752 116.75797791 43.62895203 116.06369019 C41.77514648 111.34205516 41.77514648 111.34205516 41.77514648 109.11352539 C20.65514648 109.44352539 -0.46485352 109.77352539 -22.22485352 110.11352539 C-27.44675 124.50342914 -27.44675 124.50342914 -32.66601562 138.89428711 C-33.3196472 140.69396377 -33.97336825 142.49360795 -34.62719727 144.29321289 C-34.96755005 145.23302002 -35.30790283 146.17282715 -35.65856934 147.14111328 C-35.98329224 148.03419189 -36.30801514 148.92727051 -36.64257812 149.84741211 C-37.06560463 151.01323318 -37.06560463 151.01323318 -37.49717712 152.2026062 C-38.22485352 154.11352539 -38.22485352 154.11352539 -39.22485352 156.11352539 C-46.81485352 156.11352539 -54.40485352 156.11352539 -62.22485352 156.11352539 C-58.84998155 144.86395216 -58.84998155 144.86395216 -57.36572266 141.0300293 C-57.02930252 140.15550613 -56.69288239 139.28098297 -56.3462677 138.37995911 C-55.98780258 137.45930161 -55.62933746 136.5386441 -55.26000977 135.59008789 C-54.68225044 134.09254219 -54.68225044 134.09254219 -54.09281921 132.56474304 C-52.82777528 129.28799419 -51.55756798 126.01327297 -50.28735352 122.73852539 C-49.39211408 120.42251116 -48.49726416 118.10634633 -47.6027832 115.79003906 C-45.74207363 110.97234515 -43.87968366 106.15530546 -42.01635742 101.33862305 C-39.34030827 94.41710984 -36.6767926 87.49083376 -34.01782227 80.56274414 C-26.41254811 60.74824549 -18.7963117 40.93797852 -11.10021973 21.15853882 C-10.39680521 19.35013661 -9.69423701 17.54140497 -8.99255371 15.73233032 C-8.03749636 13.27110766 -7.0790099 10.81125126 -6.11938477 8.35180664 C-5.83813248 7.62541992 -5.55688019 6.8990332 -5.2671051 6.15063477 C-2.91682733 0.14883405 -2.91682733 0.14883405 0 0 Z M7.77514648 21.11352539 C7.51604492 22.15379883 7.25694336 23.19407227 6.98999023 24.26586914 C2.99782459 39.46367661 -2.46786048 54.0879057 -7.93017578 68.8046875 C-8.41676163 70.11580757 -8.41676163 70.11580757 -8.91317749 71.45341492 C-9.52396893 73.09615636 -10.13656042 74.73823021 -10.75137329 76.37947083 C-12.69705259 81.59567861 -14.46179118 86.82433838 -16.22485352 92.11352539 C0.60514648 92.11352539 17.43514648 92.11352539 34.77514648 92.11352539 C32.76173051 85.40213882 30.66943184 78.89403968 28.19311523 72.36352539 C27.8564534 71.46593506 27.51979156 70.56834473 27.17292786 69.64355469 C25.75311836 65.85843552 24.32578355 62.07616782 22.89892578 58.29370117 C18.25949198 45.97983037 13.82951162 33.63308035 9.77514648 21.11352539 C9.11514648 21.11352539 8.45514648 21.11352539 7.77514648 21.11352539 Z " fill="#0B3D64" transform="translate(779.224853515625,5.886474609375)"/>
<path d="M0 0 C0.9583374 0.00523682 1.9166748 0.01047363 2.90405273 0.01586914 C4.45576172 0.02070313 4.45576172 0.02070313 6.03881836 0.02563477 C7.12743164 0.03401367 8.21604492 0.04239258 9.33764648 0.05102539 C10.97636719 0.05779297 10.97636719 0.05779297 12.64819336 0.06469727 C15.35723144 0.07652713 18.06616248 0.09300996 20.77514648 0.11352539 C26.68587457 13.36331908 32.28828644 26.72165351 37.71264648 40.17602539 C43.43610077 54.37139133 49.23330614 68.53412238 55.08764648 82.67602539 C61.29214747 97.67200652 67.48525076 112.67253272 73.63900757 127.68942261 C74.4314479 129.6225961 75.22458782 131.55548298 76.01846313 133.48806763 C77.1176943 136.16450871 78.21435994 138.84198642 79.31030273 141.51977539 C79.63335388 142.30513168 79.95640503 143.09048798 80.28924561 143.89964294 C80.58889221 144.63344681 80.88853882 145.36725067 81.19726562 146.12329102 C81.45528458 146.7528772 81.71330353 147.38246338 81.97914124 148.03112793 C82.99703417 150.69399689 83.873649 153.40903294 84.77514648 156.11352539 C76.52514648 156.11352539 68.27514648 156.11352539 59.77514648 156.11352539 C58.08338226 152.01107362 56.39671702 147.90663525 54.71264648 143.80102539 C54.24665039 142.67245117 53.7806543 141.54387695 53.30053711 140.38110352 C49.19891182 130.36420911 45.5251316 120.29205643 41.77514648 110.11352539 C20.65514648 110.11352539 -0.46485352 110.11352539 -22.22485352 110.11352539 C-27.44675 124.50342914 -27.44675 124.50342914 -32.66601562 138.89428711 C-33.3196472 140.69396377 -33.97336825 142.49360795 -34.62719727 144.29321289 C-34.96755005 145.23302002 -35.30790283 146.17282715 -35.65856934 147.14111328 C-35.98329224 148.03419189 -36.30801514 148.92727051 -36.64257812 149.84741211 C-37.06560463 151.01323318 -37.06560463 151.01323318 -37.49717712 152.2026062 C-38.22485352 154.11352539 -38.22485352 154.11352539 -39.22485352 156.11352539 C-46.81485352 156.11352539 -54.40485352 156.11352539 -62.22485352 156.11352539 C-58.85004803 144.86417378 -58.85004803 144.86417378 -57.18212891 140.57104492 C-56.61746666 139.10918007 -56.61746666 139.10918007 -56.04139709 137.61778259 C-55.63916428 136.58770584 -55.23693146 135.55762909 -54.82250977 134.49633789 C-54.39276352 133.38654068 -53.96301727 132.27674347 -53.52024841 131.13331604 C-52.35511696 128.12608889 -51.18674719 125.120145 -50.01699829 122.11471176 C-48.78263387 118.94070465 -47.55264856 115.76500216 -46.32250977 112.58935547 C-45.81949947 111.29096561 -45.31647818 109.99258001 -44.81344604 108.69419861 C-44.56286312 108.0474159 -44.3122802 107.4006332 -44.05410385 106.73425102 C-43.28785857 104.75709296 -42.52109485 102.7801367 -41.75418091 100.80323792 C-37.13597184 88.89721978 -32.55221669 76.97806952 -27.97497559 65.0562439 C-21.98757998 49.46554165 -15.99381561 33.87715749 -9.95874023 18.30484009 C-9.35057562 16.73469491 -8.74329797 15.16420586 -8.13696289 13.59335327 C-7.32116918 11.48058222 -6.50205379 9.3691323 -5.68188477 7.25805664 C-5.22789307 6.08605713 -4.77390137 4.91405762 -4.30615234 3.70654297 C-2.82052418 0.14392009 -2.82052418 0.14392009 0 0 Z M7.77514648 21.11352539 C7.64248383 21.64741379 7.50982117 22.18130219 7.37313843 22.73136902 C3.42413629 38.39927098 -1.79896249 53.35819371 -7.59985352 68.42602539 C-8.84574219 71.69088894 -10.08876678 74.95682752 -11.33071899 78.22319031 C-12.09566014 80.23197306 -12.86343995 82.23967767 -13.6343689 84.24617004 C-13.97537628 85.13608139 -14.31638367 86.02599274 -14.66772461 86.94287109 C-14.96939545 87.72700882 -15.27106628 88.51114655 -15.58187866 89.31904602 C-16.28107157 90.95272555 -16.28107157 90.95272555 -16.22485352 92.11352539 C0.60514648 92.11352539 17.43514648 92.11352539 34.77514648 92.11352539 C34.04435466 88.45956628 33.28765367 85.52722181 31.99682617 82.10229492 C31.45055573 80.64389694 31.45055573 80.64389694 30.89324951 79.15603638 C30.49849426 78.11333588 30.10373901 77.07063538 29.69702148 75.99633789 C29.28856995 74.90698944 28.88011841 73.81764099 28.45928955 72.69528198 C27.15151491 69.20832921 25.8387905 65.72327083 24.52514648 62.23852539 C13.76706227 33.67326562 13.76706227 33.67326562 9.77514648 21.11352539 C9.11514648 21.11352539 8.45514648 21.11352539 7.77514648 21.11352539 Z " fill="#0B3D64" transform="translate(1193.224853515625,400.886474609375)"/>
<path d="M0 0 C8.92155923 7.4674511 15.64886934 18.00755025 19.23828125 29.05078125 C18.89453125 31.9375 18.89453125 31.9375 18.23828125 34.05078125 C15.46838161 34.72154614 12.69748383 35.38754442 9.92578125 36.05078125 C9.14009766 36.2415625 8.35441406 36.43234375 7.54492188 36.62890625 C6.78759766 36.809375 6.03027344 36.98984375 5.25 37.17578125 C4.55350342 37.34335938 3.85700684 37.5109375 3.1394043 37.68359375 C1.23828125 38.05078125 1.23828125 38.05078125 -1.76171875 38.05078125 C-2.50615234 36.4575 -2.50615234 36.4575 -3.265625 34.83203125 C-9.53518322 21.66720419 -14.74848862 13.76280312 -28.76171875 8.05078125 C-33.42828758 6.66865425 -38.05556349 6.82777094 -42.88671875 6.80078125 C-43.78648437 6.78015625 -44.68625 6.75953125 -45.61328125 6.73828125 C-58.26070391 6.66559491 -69.55437374 11.33597431 -78.84765625 19.92578125 C-93.167114 35.82330169 -93.49090093 57.54539301 -92.94091797 77.69775391 C-92.17157269 92.09310552 -87.78113265 108.08205565 -76.76171875 118.05078125 C-65.04158495 127.54179157 -51.48656358 130.06032007 -36.76171875 129.05078125 C-25.89043152 127.04785819 -16.10111177 121.94428045 -9.13671875 113.19921875 C-4.82098933 106.45589153 -1.57519377 98.84872385 0.23828125 91.05078125 C7.47418098 91.65377289 14.23199001 93.16583995 21.23828125 95.05078125 C23.48953843 100.85371124 19.56041003 106.74305833 17.23828125 112.05078125 C10.2753746 127.62737485 -1.35175639 138.20887684 -16.94921875 144.86328125 C-37.12201061 152.0627582 -60.75332919 150.21254364 -80.07421875 141.36328125 C-96.0141477 132.83627625 -106.57827481 117.12701807 -112.0859375 100.2109375 C-119.61817633 73.5260914 -119.06346233 44.36176509 -105.44921875 19.73828125 C-95.28599463 3.32913567 -79.98175183 -6.48626524 -61.46484375 -11.37109375 C-40.01562846 -15.95849818 -18.0473514 -12.7378053 0 0 Z " fill="#0B3D64" transform="translate(708.76171875,213.94921875)"/>
<path d="M0 0 C10.4796503 8.19815895 20.33432636 19.3468855 22.66796875 32.87109375 C22.77753906 33.90363281 22.88710937 34.93617188 23 36 C20.43923903 36.67404284 17.87673417 37.339414 15.3125 38 C14.59126953 38.19078125 13.87003906 38.3815625 13.12695312 38.578125 C9.33149039 39.54865428 5.95384561 40.24955239 2 40 C1.48050781 38.91460937 0.96101563 37.82921875 0.42578125 36.7109375 C-0.27820848 35.26541192 -0.98266025 33.8201113 -1.6875 32.375 C-2.02716797 31.66214844 -2.36683594 30.94929688 -2.71679688 30.21484375 C-7.43133115 20.60953094 -13.57851517 15.01603721 -23.56640625 10.95703125 C-37.26763675 6.60775838 -52.02739312 8.27376824 -64.75 14.6875 C-77.3315495 22.1171219 -83.27784594 33.49301091 -87.4375 47.125 C-92.4365585 67.24595592 -90.81332008 92.06071354 -80.6640625 110.359375 C-73.73973553 121.34727413 -63.79284257 128.08752211 -51.0859375 131.01171875 C-37.62639514 133.19924272 -24.2056106 131.10136236 -12.8125 123.375 C-3.50411392 115.84947012 1.39741244 104.46246009 4 93 C11.47835477 94.22951674 18.7216477 95.88829237 26 98 C24.56243768 112.95064813 15.36552016 128.04867701 3.99609375 137.49609375 C-8.9960734 147.30359554 -23.59625996 151.41115786 -39.6875 151.3125 C-40.64575684 151.30758545 -41.60401367 151.3026709 -42.59130859 151.29760742 C-61.01599887 150.99644945 -77.47413645 145.8421975 -91 133 C-107.69753337 114.90889404 -113.6245208 89.55955182 -113.1875 65.49609375 C-111.94125048 42.25873297 -105.19332513 21.96523048 -88 6 C-81.64559279 0.69162597 -74.72567324 -3.07131341 -67 -6 C-65.47439453 -6.59167969 -65.47439453 -6.59167969 -63.91796875 -7.1953125 C-43.35464864 -13.91658056 -18.08306158 -12.26385079 0 0 Z " fill="#0B3D64" transform="translate(1627,409)"/>
<path d="M0 0 C10.4796503 8.19815895 20.33432636 19.3468855 22.66796875 32.87109375 C22.77753906 33.90363281 22.88710938 34.93617188 23 36 C20.43923903 36.67404284 17.87673417 37.339414 15.3125 38 C14.59126953 38.19078125 13.87003906 38.3815625 13.12695312 38.578125 C9.33149039 39.54865428 5.95384561 40.24955239 2 40 C1.48050781 38.91460937 0.96101562 37.82921875 0.42578125 36.7109375 C-0.27820848 35.26541192 -0.98266025 33.8201113 -1.6875 32.375 C-2.02716797 31.66214844 -2.36683594 30.94929688 -2.71679688 30.21484375 C-7.43133115 20.60953094 -13.57851517 15.01603721 -23.56640625 10.95703125 C-37.26763675 6.60775838 -52.02739312 8.27376824 -64.75 14.6875 C-76.98208472 21.84344581 -83.1109238 32.66845058 -87 46 C-92.31151539 66.48557078 -91.05341396 91.62783492 -80.6640625 110.359375 C-73.73973553 121.34727413 -63.79284257 128.08752211 -51.0859375 131.01171875 C-37.62639514 133.19924272 -24.2056106 131.10136236 -12.8125 123.375 C-3.50411392 115.84947012 1.39741244 104.46246009 4 93 C11.47835477 94.22951674 18.7216477 95.88829237 26 98 C24.56243768 112.95064813 15.36552016 128.04867701 3.99609375 137.49609375 C-8.9960734 147.30359554 -23.59625996 151.41115786 -39.6875 151.3125 C-40.64575684 151.30758545 -41.60401367 151.3026709 -42.59130859 151.29760742 C-60.9771484 150.99708447 -77.52871491 145.8722655 -91 133 C-107.66506718 114.51375032 -113.63052993 89.89042934 -113.1875 65.49609375 C-111.94125048 42.25873297 -105.19332513 21.96523048 -88 6 C-81.64559279 0.69162597 -74.72567324 -3.07131341 -67 -6 C-65.47439453 -6.59167969 -65.47439453 -6.59167969 -63.91796875 -7.1953125 C-43.35464864 -13.91658056 -18.08306158 -12.26385079 0 0 Z " fill="#0B3D64" transform="translate(705,409)"/>
<path d="M0 0 C9.83581082 8.43260412 16.01823295 18.51381817 20.125 30.77734375 C20.125 31.76734375 20.125 32.75734375 20.125 33.77734375 C17.56423903 34.45138659 15.00173417 35.11675775 12.4375 35.77734375 C11.71626953 35.968125 10.99503906 36.15890625 10.25195312 36.35546875 C6.45649039 37.32599803 3.07884561 38.02689614 -0.875 37.77734375 C-1.44347656 36.63136719 -2.01195312 35.48539063 -2.59765625 34.3046875 C-9.16763962 21.30496437 -14.74604309 12.94328244 -29.05859375 8.02734375 C-41.50697365 4.73823053 -56.24039924 6.33533456 -67.71484375 12.23828125 C-69.88077041 13.65820655 -71.87815047 15.13045754 -73.875 16.77734375 C-74.70644531 17.39996094 -75.53789063 18.02257812 -76.39453125 18.6640625 C-87.50129954 28.12667927 -91.08799604 44.4223788 -92.59765625 58.296875 C-94.02230836 76.17525576 -92.24751682 97.96466094 -80.80859375 112.6015625 C-71.65787335 122.89843374 -60.76297701 128.70903783 -46.875 129.77734375 C-33.19550985 129.91278425 -22.03681271 126.38227372 -12.04296875 117.0703125 C-5.15620456 109.94348682 -1.10270489 100.35647477 1.125 90.77734375 C8.60335477 92.00686049 15.8466477 93.66563612 23.125 95.77734375 C20.56042646 108.4652339 15.68643858 119.02935185 7.125 128.77734375 C6.23361328 129.80988281 6.23361328 129.80988281 5.32421875 130.86328125 C-4.72985247 141.72917188 -19.40598353 148.09996855 -34.16699219 148.90185547 C-56.75472451 149.59034939 -76.84702493 146.70308809 -94.05859375 130.75390625 C-111.6347932 112.32116687 -116.40255942 86.56908306 -116.08984375 61.98828125 C-115.44754762 40.34170482 -108.07739936 21.30434951 -92.875 5.77734375 C-92.35679688 5.22304688 -91.83859375 4.66875 -91.3046875 4.09765625 C-68.46716305 -18.02245906 -24.47512734 -18.92166774 0 0 Z " fill="#0B3D64" transform="translate(1126.875,16.22265625)"/>
<path d="M0 0 C41.25 0 82.5 0 125 0 C125 6.27 125 12.54 125 19 C107.84 19 90.68 19 73 19 C73 64.21 73 109.42 73 156 C66.07 156 59.14 156 52 156 C52 110.79 52 65.58 52 19 C34.84 19 17.68 19 0 19 C0 12.73 0 6.46 0 0 Z " fill="#0C3E64" transform="translate(1029,401)"/>
<path d="M0 0 C41.25 0 82.5 0 125 0 C125 6.27 125 12.54 125 19 C107.84 19 90.68 19 73 19 C73 64.21 73 109.42 73 156 C66.07 156 59.14 156 52 156 C52 110.79 52 65.58 52 19 C34.84 19 17.68 19 0 19 C0 12.73 0 6.46 0 0 Z " fill="#0C3D64" transform="translate(1017,204)"/>
<path d="M0 0 C6.93 0 13.86 0 21 0 C21 45.21 21 90.42 21 137 C46.41 137 71.82 137 98 137 C98 143.27 98 149.54 98 156 C65.66 156 33.32 156 0 156 C0 104.52 0 53.04 0 0 Z " fill="#0B3D64" transform="translate(1435,204)"/>
<path d="M0 0 C7.26 0 14.52 0 22 0 C22 51.48 22 102.96 22 156 C14.74 156 7.48 156 0 156 C0 104.52 0 53.04 0 0 Z " fill="#0B3E65" transform="translate(1473,401)"/>
</svg>
