<?xml version="1.0" encoding="UTF-8"?>
<svg version="1.1" xmlns="http://www.w3.org/2000/svg" width="967" height="330">
<path d="M0 0 C0.82682281 0.00045319 1.65364563 0.00090637 2.50552368 0.00137329 C3.37247864 -0.00198532 4.23943359 -0.00534393 5.13265991 -0.00880432 C8.02274993 -0.01836223 10.91278208 -0.02026124 13.80288696 -0.02133179 C15.81860376 -0.02454604 17.83432032 -0.02791024 19.85003662 -0.03141785 C24.09555601 -0.03742463 28.34105503 -0.03925666 32.58657837 -0.03866577 C37.97563575 -0.0385652 43.36455822 -0.05210023 48.75358391 -0.06943798 C52.93030368 -0.08068135 57.1069924 -0.08258108 61.28372574 -0.08205605 C63.26644471 -0.0832222 65.24916486 -0.08756543 67.23186874 -0.09538841 C77.06645937 -0.13049299 86.80594686 0.02354067 96.59634399 1.02432251 C97.34801283 1.10032842 98.09968166 1.17633432 98.87412834 1.25464344 C115.55809801 3.16757151 132.49192586 9.86970127 143.24819946 23.14663696 C147.47267341 29.04233138 150.43671376 35.12224277 152.24819946 42.14663696 C152.4325354 42.85948853 152.61687134 43.57234009 152.80679321 44.30679321 C154.50500246 55.23244029 154.44825421 67.84972854 150.24819946 78.14663696 C149.90788696 78.99226196 149.56757446 79.83788696 149.21694946 80.70913696 C144.47687691 91.21416263 137.37064712 97.85724321 127.24819946 103.14663696 C129.89408222 104.9105588 132.47947555 106.27926704 135.31069946 107.70913696 C146.87269898 114.02541447 155.03840063 122.69262636 159.06069946 135.33413696 C164.22789346 153.71682105 161.90091163 173.89203281 152.93960571 190.58413696 C144.23152377 204.7933585 129.47020153 212.68899498 113.68569946 216.58413696 C105.27319286 218.50428944 97.32165874 219.29216442 88.72305298 219.26016235 C87.17070198 219.26038139 87.17070198 219.26038139 85.58699036 219.26060486 C82.18367378 219.25991103 78.78041267 219.25214348 75.37710571 219.24429321 C73.01056447 219.24242715 70.64402284 219.24100414 68.27748108 219.24000549 C62.06163458 219.23619514 55.8458116 219.22637752 49.62997437 219.21530151 C43.28201618 219.20505551 36.93405417 219.20050104 30.58609009 219.19546509 C18.14011624 219.18475391 5.69415981 219.16769531 -6.75180054 219.14663696 C-6.77512586 190.74023931 -6.7927779 162.33384308 -6.80361271 133.92743778 C-6.80877645 120.73886356 -6.81582062 107.55029527 -6.82723999 94.36172485 C-6.83718446 82.87111976 -6.8436534 71.38051896 -6.84588903 59.88990968 C-6.84719654 53.80162711 -6.85028494 47.71335684 -6.85753059 41.6250782 C-6.86428707 35.90180063 -6.86641826 30.1785405 -6.86490822 24.45525932 C-6.86518472 22.348066 -6.86719204 20.24087214 -6.87100601 18.13368225 C-6.87593744 15.27010447 -6.87480087 12.40659367 -6.87205505 9.54301453 C-6.8749679 8.69770064 -6.87788074 7.85238675 -6.88088185 6.98145729 C-6.86333269 0.27070922 -6.71974267 0.038314 0 0 Z M41.24819946 43.14663696 C41.24819946 58.32663696 41.24819946 73.50663696 41.24819946 89.14663696 C52.60226196 89.23944946 52.60226196 89.23944946 64.18569946 89.33413696 C66.5574939 89.36144897 68.92928833 89.38876099 71.37295532 89.41690063 C73.27797946 89.42567226 75.18300927 89.4333146 77.08804321 89.43960571 C78.05681396 89.45495361 79.02558472 89.47030151 80.02371216 89.4861145 C87.49858693 89.48895774 94.05964472 88.57271122 100.12319946 83.95913696 C106.09437499 76.05611052 106.14765322 67.77182603 105.24819946 58.14663696 C104.02766021 52.65804848 102.00341407 49.28694126 97.31069946 46.14663696 C92.85618136 43.59613753 88.44626672 43.01941845 83.36611938 43.03311157 C81.95522285 43.03322487 81.95522285 43.03322487 80.51582336 43.03334045 C79.01243156 43.04108238 79.01243156 43.04108238 77.47866821 43.04898071 C75.92445915 43.05110313 75.92445915 43.05110313 74.33885193 43.05326843 C71.03777143 43.05885454 67.73675938 43.07140454 64.43569946 43.08413696 C62.19416399 43.08915376 59.95262744 43.09371635 57.71109009 43.09780884 C52.22341245 43.10796744 46.73588236 43.12754568 41.24819946 43.14663696 Z M41.24819946 127.14663696 C41.24819946 143.97663696 41.24819946 160.80663696 41.24819946 178.14663696 C49.29194946 178.20851196 57.33569946 178.27038696 65.62319946 178.33413696 C68.14251099 178.36144897 70.66182251 178.38876099 73.25747681 178.41690063 C75.28302534 178.42567301 77.30857921 178.43331516 79.33413696 178.43960571 C80.36256714 178.45495361 81.39099731 178.47030151 82.45059204 178.4861145 C90.25484594 178.48890506 97.31138834 177.45737393 104.12319946 173.45913696 C110.58031695 166.43227382 111.57627137 158.26383473 111.46304321 149.02944946 C111.01306388 142.9915449 109.70435767 137.94767475 105.87319946 133.20913696 C100.21782286 128.76562677 96.08905119 127.01606351 88.92886353 127.03311157 C87.33766693 127.03322487 87.33766693 127.03322487 85.71432495 127.03334045 C84.57565979 127.03850174 83.43699463 127.04366302 82.26382446 127.04898071 C81.09309387 127.05039566 79.92236328 127.05181061 78.71615601 127.05326843 C74.97681117 127.05886607 71.2375262 127.07141816 67.49819946 127.08413696 C64.96304408 127.08915227 62.42788775 127.09371512 59.89273071 127.09780884 C53.67784534 127.10798383 47.46308942 127.12755988 41.24819946 127.14663696 Z " fill="#E40730" transform="translate(436.7518005371094,19.853363037109375)"/>
<path d="M0 0 C1.00212524 0.00142502 2.00425049 0.00285004 3.03674316 0.00431824 C4.17131958 0.00124161 5.305896 -0.00183502 6.47485352 -0.00500488 C7.70506226 0.00218063 8.935271 0.00936615 10.20275879 0.01676941 C12.08916077 0.01745674 12.08916077 0.01745674 14.01367188 0.01815796 C16.67693489 0.02118374 19.33985394 0.02801291 22.00305176 0.04142761 C25.41965098 0.05841752 28.83610243 0.06224195 32.25273895 0.06148243 C35.50692689 0.06181949 38.76108374 0.07065683 42.01525879 0.07926941 C43.8605719 0.08093864 43.8605719 0.08093864 45.74316406 0.0826416 C46.87774048 0.08902145 48.01231689 0.09540131 49.18127441 0.10197449 C50.18339966 0.10578629 51.1855249 0.10959808 52.21801758 0.11352539 C54.60900879 0.24723816 54.60900879 0.24723816 56.60900879 1.24723816 C57.39396667 2.98306274 57.39396667 2.98306274 58.15856934 5.28410339 C58.45093475 6.15111877 58.74330017 7.01813416 59.04452515 7.91142273 C59.35842194 8.86657776 59.67231873 9.82173279 59.99572754 10.80583191 C60.49630173 12.29717651 60.49630173 12.29717651 61.00698853 13.81864929 C61.73021151 15.9746419 62.450252 18.13170405 63.16751099 20.28968811 C65.07677589 26.03110752 67.01083042 31.76415137 68.94494629 37.49723816 C69.53318932 39.24278236 69.53318932 39.24278236 70.13331604 41.02359009 C73.77133861 51.78940675 77.5680748 62.4944645 81.42150879 73.18473816 C86.21877516 86.50741878 90.90776275 99.85880354 95.46237183 113.26634216 C99.51236351 125.17764149 103.75452247 137.01163683 108.06204224 148.83195496 C112.28339704 160.42841156 116.28267567 172.08104434 120.13049316 183.80632019 C122.99417524 192.50540749 126.039423 201.12199581 129.27429199 209.69010925 C129.58326416 210.51720398 129.89223633 211.34429871 130.21057129 212.19645691 C130.61783447 213.26899719 130.61783447 213.26899719 131.0333252 214.36320496 C131.60900879 216.24723816 131.60900879 216.24723816 131.60900879 219.24723816 C113.45900879 219.24723816 95.30900879 219.24723816 76.60900879 219.24723816 C73.97792654 212.23101884 71.68692529 205.21262303 69.53747559 198.04606628 C68.9182092 195.98626306 68.29014493 193.92927015 67.66174316 191.87223816 C67.26472085 190.55469181 66.86821778 189.23698885 66.47229004 187.91911316 C66.1143335 186.73414246 65.75637695 185.54917175 65.38757324 184.32829285 C64.60900879 181.24723816 64.60900879 181.24723816 64.60900879 177.24723816 C38.86900879 177.57723816 13.12900879 177.90723816 -13.39099121 178.24723816 C-17.29866447 191.36521638 -17.29866447 191.36521638 -21.19934082 204.48527527 C-21.68875084 206.1234536 -22.17839902 207.7615608 -22.66833496 209.39958191 C-22.92232056 210.25813782 -23.17630615 211.11669373 -23.43798828 212.00126648 C-25.27691941 218.13316636 -25.27691941 218.13316636 -26.39099121 219.24723816 C-28.01773899 219.3406425 -29.64853172 219.36468987 -31.2779541 219.36076355 C-32.31895767 219.36068802 -33.35996124 219.36061249 -34.43251038 219.36053467 C-35.56478561 219.35537338 -36.69706085 219.3502121 -37.86364746 219.34489441 C-39.59281654 219.34277199 -39.59281654 219.34277199 -41.35691833 219.34060669 C-45.05580185 219.33498821 -48.75462585 219.32243258 -52.45349121 219.30973816 C-54.95414138 219.30472554 -57.4547925 219.30016222 -59.95544434 219.29606628 C-66.10064709 219.28501278 -72.2458149 219.26825668 -78.39099121 219.24723816 C-77.8114906 216.1581967 -77.12602971 213.19846945 -76.1385498 210.21525574 C-75.88614029 209.44861603 -75.63373077 208.68197632 -75.37367249 207.8921051 C-75.09837204 207.06699432 -74.82307159 206.24188354 -74.53942871 205.39176941 C-74.24878036 204.5144516 -73.95813202 203.63713379 -73.65867615 202.73323059 C-72.69833932 199.84075495 -71.73260814 196.95012074 -70.76599121 194.05973816 C-70.26729019 192.5638768 -70.26729019 192.5638768 -69.7585144 191.03779602 C-64.620366 175.64051732 -59.26738758 160.33038716 -53.75720215 145.0627594 C-49.15921829 132.31800521 -44.76703205 119.52292701 -40.53616333 106.6519928 C-36.59901434 94.69001214 -32.39894244 82.84174116 -28.07473755 71.01472473 C-23.31809471 57.99012896 -18.85041569 44.88349209 -14.52380371 31.71012878 C-12.12122278 24.39700314 -9.68665576 17.09564737 -7.16833496 9.82145691 C-6.79642784 8.72762444 -6.79642784 8.72762444 -6.41700745 7.61169434 C-3.89658566 0.40292271 -3.89658566 0.40292271 0 0 Z M25.60900879 40.24723816 C23.44701405 47.09367719 21.37901937 53.95384603 19.48791504 60.88005066 C19.30448547 61.55171768 19.12105591 62.2233847 18.93206787 62.91540527 C18.5460726 64.330656 18.16029508 65.74596612 17.77471924 67.16133118 C13.07698469 84.37962393 7.98279162 101.46426371 2.7244873 118.51921082 C2.4504155 119.41326126 2.17634369 120.30731171 1.89396667 121.22845459 C1.37819609 122.91036009 0.8589396 124.5912019 0.33564758 126.27078247 C-0.61072952 129.36154921 -1.39099121 131.9950499 -1.39099121 135.24723816 C16.09900879 135.24723816 33.58900879 135.24723816 51.60900879 135.24723816 C50.12581347 126.74594525 50.12581347 126.74594525 48.10021973 118.48234558 C47.81942566 117.49308578 47.53863159 116.50382599 47.24932861 115.48458862 C46.95036682 114.45106766 46.65140503 113.41754669 46.34338379 112.35270691 C46.02750305 111.24405777 45.71162231 110.13540863 45.38616943 108.99316406 C44.38202896 105.47226252 43.37085434 101.95343227 42.35900879 98.43473816 C41.0392576 93.82464397 39.72217561 89.21378991 38.40588379 84.60270691 C38.08438354 83.47702301 37.7628833 82.35133911 37.43164062 81.19154358 C35.33633435 73.84061052 33.27059146 66.48225155 31.24963379 59.11051941 C31.01008972 58.24146469 30.77054565 57.37240997 30.52374268 56.47702026 C29.05806549 51.09614417 27.78129317 45.69973163 26.60900879 40.24723816 C26.27900879 40.24723816 25.94900879 40.24723816 25.60900879 40.24723816 Z " fill="#E40730" transform="translate(675.3909912109375,19.752761840820313)"/>
<path d="M0 0 C0 14.19 0 28.38 0 43 C-3.3 42.34 -6.6 41.68 -10 41 C-12.66535243 40.47248233 -15.33195134 39.95120695 -18 39.4375 C-19.27875 39.18871094 -20.5575 38.93992188 -21.875 38.68359375 C-41.2615143 35.26661427 -64.80927952 34.00974931 -82 45 C-93.55116721 54.49762637 -96.50186016 69.81706577 -98 84 C-98.31394121 89.40553104 -98.33020353 94.81417272 -98.31567383 100.22729492 C-98.31252649 102.66696476 -98.33602139 105.10540184 -98.36132812 107.54492188 C-98.42880431 124.19173675 -97.41221285 144.92662618 -86.48046875 158.515625 C-75.8768415 169.14723016 -62.33759673 170.41155347 -48.0625 170.5625 C-33.50518741 170.51288663 -19.19050702 168.60862291 -5.55078125 163.33203125 C-2 162 -2 162 1 162 C1 176.19 1 190.38 1 205 C-8.01902314 209.50951157 -8.01902314 209.50951157 -11.8828125 210.6328125 C-13.15668823 211.0047876 -13.15668823 211.0047876 -14.45629883 211.38427734 C-15.77730591 211.75093506 -15.77730591 211.75093506 -17.125 212.125 C-18.05658936 212.38361816 -18.98817871 212.64223633 -19.94799805 212.90869141 C-48.73325941 220.69468492 -81.65014497 219.31846738 -108.1875 204.875 C-129.48639776 192.62371626 -141.05886813 172.48631009 -147.45214844 149.19726562 C-156.49963349 112.91056086 -156.48470067 65.04124724 -136.86572266 32.09521484 C-123.24576272 10.75150249 -104.01918803 -1.31631957 -79.5625 -6.8125 C-54.88448599 -11.80866235 -23.08963126 -11.54481563 0 0 Z " fill="#E40730" transform="translate(951,26)"/>
<path d="M0 0 C0.32554719 8.44919929 0.57367507 16.89574965 0.72537041 25.34968472 C0.79821396 29.27632182 0.89681143 33.19864812 1.05615234 37.12280273 C1.20921028 40.91632207 1.29214685 44.7057226 1.3282814 48.50209236 C1.35399518 49.94388816 1.40422752 51.38547728 1.48022079 52.82549858 C1.7160588 57.48322072 1.62811987 61.55347353 0 66 C-3.37038872 69.68885396 -7.77687805 71.92661721 -12.21221447 74.10150433 C-14.96313301 75.48404623 -17.5526438 77.11748593 -20.16796875 78.73828125 C-22.17348616 79.93135829 -24.1800128 81.12274034 -26.1875 82.3125 C-33.79083917 86.84446112 -41.34878895 91.42889058 -48.8125 96.1875 C-55.8162069 100.65119783 -62.89415383 104.96821843 -70.02856445 109.21948242 C-77.05874231 113.41594741 -84.03344702 117.69887546 -91 122 C-98.67795049 126.73995069 -106.37319758 131.4443045 -114.125 136.0625 C-122.58899604 141.10616734 -130.93697132 146.32480987 -139.27856445 151.56787109 C-145.73597671 155.61580117 -152.24839295 159.54035088 -158.84057617 163.36376953 C-164.14046932 166.45350808 -169.32672949 169.70331824 -174.5 173 C-180.80039457 177.00987124 -187.13706815 180.94315168 -193.5625 184.75 C-194.28308594 185.18054688 -195.00367188 185.61109375 -195.74609375 186.0546875 C-200.75897661 189 -200.75897661 189 -203 189 C-203 155.34 -203 121.68 -203 87 C-172.44023904 73.30079681 -172.44023904 73.30079681 -159.58300781 68.0090332 C-149.47935355 63.84732563 -139.49707432 59.40990071 -129.5 55 C-117.72365063 49.80689853 -105.94078206 44.65637397 -94.03759766 39.7590332 C-80.14399944 34.02564879 -66.38180538 27.97897349 -52.59521484 21.99414062 C-48.23783911 20.10272646 -43.87893094 18.21486873 -39.51953125 16.328125 C-37.5429376 15.47243706 -35.56635995 14.61671218 -33.58978271 13.76098633 C-32.33042031 13.21581619 -31.07102141 12.67073035 -29.81158447 12.12573242 C-24.08668773 9.64806721 -18.36347 7.16764518 -12.66015625 4.640625 C-11.89678955 4.30297119 -11.13342285 3.96531738 -10.34692383 3.61743164 C-8.44326245 2.77320691 -6.54181548 1.92399328 -4.640625 1.07421875 C-2 0 -2 0 0 0 Z " fill="#E4052F" transform="translate(213,88)"/>
<path d="M0 0 C0 20.13 0 40.26 0 61 C-28.3765024 73.16135817 -28.3765024 73.16135817 -41.38012695 78.72705078 C-53.70152559 84.0019608 -66.01592697 89.29244967 -78.3125 94.625 C-78.92087708 94.88882477 -79.52925415 95.15264954 -80.15606689 95.42446899 C-85.70252747 97.83018159 -91.24794951 100.2382816 -96.79248047 102.6484375 C-110.88832381 108.77557859 -124.99731116 114.86478493 -139.16186523 120.83203125 C-147.56764277 124.37915242 -155.94358523 127.9920615 -164.3125 131.625 C-165.58176679 132.1754212 -166.8510537 132.72579601 -168.12036133 133.27612305 C-173.90393975 135.78444941 -179.68478437 138.29883504 -185.4609375 140.82421875 C-187.36971568 141.6538207 -189.27856478 142.48325948 -191.1875 143.3125 C-192.04835205 143.69164551 -192.9092041 144.07079102 -193.79614258 144.46142578 C-194.97019653 144.96971924 -194.97019653 144.96971924 -196.16796875 145.48828125 C-197.17766724 145.92974487 -197.17766724 145.92974487 -198.20776367 146.38012695 C-200 147 -200 147 -203 147 C-203 116.64 -203 86.28 -203 55 C-192.87298486 51.62432829 -192.87298486 51.62432829 -188.62890625 50.4921875 C-187.66218994 50.23300537 -186.69547363 49.97382324 -185.69946289 49.70678711 C-184.66426514 49.43229736 -183.62906738 49.15780762 -182.5625 48.875 C-181.43255615 48.57279541 -180.3026123 48.27059082 -179.13842773 47.95922852 C-172.93964054 46.30412087 -166.73641132 44.6661858 -160.53125 43.03515625 C-157.87486783 42.33643887 -155.21863573 41.63715363 -152.5625 40.9375 C-151.87539948 40.75659821 -151.18829895 40.57569641 -150.4803772 40.38931274 C-136.54234279 36.7148761 -122.64584341 32.89291878 -108.75 29.0625 C-92.96533405 24.71152798 -77.16864618 20.42263017 -61.32498169 16.29159546 C-45.78164978 12.23763595 -30.28656379 8.01212423 -14.79711914 3.75732422 C-13.42546097 3.38117981 -13.42546097 3.38117981 -12.02609253 2.99743652 C-10.30102055 2.524237 -8.57625485 2.04991912 -6.85183716 1.57434082 C-1.11194513 0 -1.11194513 0 0 0 Z " fill="#E4052F" transform="translate(213,12)"/>
<path d="M0 0 C0.39716219 9.0927732 0.69751283 18.18248625 0.88080692 27.28209591 C0.96887421 31.50982161 1.08782824 35.73154304 1.2824707 39.95581055 C2.67517784 70.99315132 2.67517784 70.99315132 -5.76673889 80.26771545 C-8.63114837 82.89736313 -11.57719573 85.24044138 -14.78051758 87.44300842 C-20.11548059 91.18554425 -24.89151627 95.74018181 -29.4296875 100.40234375 C-30.161875 101.14677734 -30.8940625 101.89121094 -31.6484375 102.65820312 C-33.157926 104.20344267 -34.66568533 105.75037293 -36.171875 107.29882812 C-36.89632812 108.03423828 -37.62078125 108.76964844 -38.3671875 109.52734375 C-39.01800293 110.19499756 -39.66881836 110.86265137 -40.33935547 111.55053711 C-42 113 -42 113 -44 113 C-44.33 113.99 -44.66 114.98 -45 116 C-45.66 116 -46.32 116 -47 116 C-47.33 116.99 -47.66 117.98 -48 119 C-49.54384995 120.46156693 -49.54384995 120.46156693 -51.5223999 122.04278564 C-54.7849262 124.79399748 -57.45019523 127.65497343 -60.11090088 130.9899292 C-67.60701401 140.03655669 -74.13612202 146.88228299 -86.24418259 148.1257515 C-92.06885588 148.35458899 -97.85283073 148.27548981 -103.6728735 148.02787876 C-107.17799571 147.90077671 -110.68366406 147.89094882 -114.19073486 147.86737061 C-120.79840543 147.80578568 -127.39926774 147.64254226 -134.00397038 147.44038081 C-141.53657224 147.21494405 -149.06954207 147.10641133 -156.60469007 147.00647211 C-172.07370481 146.79874811 -187.53596692 146.44819692 -203 146 C-203.16738983 142.26877438 -203.26926837 138.53851595 -203.359375 134.8046875 C-203.40755371 133.74854248 -203.45573242 132.69239746 -203.50537109 131.60424805 C-203.64442501 123.93512221 -203.64442501 123.93512221 -201.76810932 121.21240902 C-199.19819834 119.00177558 -196.2955935 117.47159705 -193.13671875 116.28515625 C-187.02542083 113.71947654 -181.52137772 110.19253747 -175.90866089 106.70550537 C-173.45475845 105.18623168 -170.9870309 103.69026082 -168.51899719 102.1940918 C-162.08127226 98.29015517 -155.68118233 94.32870643 -149.30957031 90.31787109 C-144.57610074 87.34323775 -139.79173217 84.46164053 -134.98852539 81.60131836 C-129.49377398 78.31928546 -124.05908255 74.94379404 -118.625 71.5625 C-112.25615966 67.60118988 -105.85917638 63.70704953 -99.375 59.9375 C-93.50040353 56.51950281 -87.73029863 52.96703947 -82 49.3125 C-73.56232547 43.93273943 -65.00380326 38.7727012 -56.41137695 33.64453125 C-48.77274159 29.07990259 -41.19243369 24.42997379 -33.6394043 19.7253418 C-26.60819386 15.35381918 -19.51727053 11.08700114 -12.39331055 6.8684082 C-11.22215698 6.17171021 -11.22215698 6.17171021 -10.02734375 5.4609375 C-9.00241821 4.85451416 -9.00241821 4.85451416 -7.95678711 4.23583984 C-5.92486082 2.99702296 -5.92486082 2.99702296 -3.87329102 1.34619141 C-2 0 -2 0 0 0 Z " fill="#E4042E" transform="translate(213,171)"/>
<path d="M0 0 C2.98431096 1.49215548 4.9220327 2.6007809 7.3984375 4.65234375 C8.03523437 5.17570312 8.67203125 5.6990625 9.328125 6.23828125 C10.00359375 6.79902344 10.6790625 7.35976562 11.375 7.9375 C12.81953475 9.12464492 14.26486093 10.31082742 15.7109375 11.49609375 C16.4337793 12.08890137 17.15662109 12.68170898 17.90136719 13.29248047 C20.9033487 15.73499544 23.94743381 18.12122227 27 20.5 C32.73687465 24.97850046 38.38983521 29.55345885 44.02807617 34.15527344 C48.9944912 38.2015808 54.01448027 42.17342208 59.0625 46.1171875 C63.48823367 49.58080516 67.83716289 53.13089032 72.17578125 56.703125 C75.89587037 59.72859167 79.6735328 62.67726711 83.45263672 65.62841797 C88.05869265 69.23560029 92.59736658 72.92008189 97.125 76.625 C103.61996376 81.93520444 110.23336282 87.04036252 117 92 C116.43670683 98.0091347 114.63285898 103.01442723 112.3515625 108.578125 C111.97953705 109.5030072 111.6075116 110.4278894 111.22421265 111.38079834 C110.03175051 114.34019841 108.8285615 117.29509911 107.625 120.25 C106.85476361 122.15726747 106.08522696 124.06481768 105.31640625 125.97265625 C99.24802025 140.99672375 93.11343308 155.99430061 87 171 C58.29 171 29.58 171 0 171 C0 114.57 0 58.14 0 0 Z " fill="#E4042E" transform="translate(228,68)"/>
<path d="M0 0 C1.55363915 0.0205628 3.10735051 0.03619894 4.66108704 0.04716492 C8.71543609 0.08881012 12.76532454 0.19651551 16.81793213 0.31890869 C21.69890907 0.45221495 26.58139337 0.50189978 31.46367645 0.56589508 C38.84996302 0.67193106 46.2265001 0.88283133 53.61328125 1.07421875 C53.61328125 21.86421875 53.61328125 42.65421875 53.61328125 64.07421875 C9.72328125 64.07421875 -34.16671875 64.07421875 -79.38671875 64.07421875 C-77.63324201 60.56726527 -76.46606022 58.90680174 -73.76171875 56.26171875 C-73.13007813 55.63652344 -72.4984375 55.01132812 -71.84765625 54.3671875 C-69.81895905 52.47695693 -67.75715801 50.66339563 -65.65625 48.85546875 C-61.12020509 44.90807492 -56.91145087 40.67423652 -52.69921875 36.38671875 C-48.41260964 32.02470754 -44.201791 27.85814742 -39.38671875 24.07421875 C-39.05671875 23.41421875 -38.72671875 22.75421875 -38.38671875 22.07421875 C-37.72671875 22.07421875 -37.06671875 22.07421875 -36.38671875 22.07421875 C-35.89171875 20.58921875 -35.89171875 20.58921875 -35.38671875 19.07421875 C-33.92578125 17.63671875 -33.92578125 17.63671875 -32.01171875 16.07421875 C-29.42112568 13.95923912 -27.24187803 11.8990812 -25.10490417 9.31510925 C-17.58321874 0.45854432 -11.2446123 -0.44188796 0 0 Z " fill="#E4012B" transform="translate(237.38671875,252.92578125)"/>
<path d="M0 0 C1.39456452 0.00667256 2.78911118 0.01863093 4.18359375 0.03515625 C4.89451172 0.03966797 5.60542969 0.04417969 6.33789062 0.04882812 C8.09899388 0.06064761 9.86005411 0.07858362 11.62109375 0.09765625 C15.33014716 8.03168403 18.66856174 16.07249994 21.87109375 24.22265625 C22.74894969 26.45535343 23.62903145 28.68717721 24.51171875 30.91796875 C25.0845459 32.37614014 25.0845459 32.37614014 25.66894531 33.86376953 C26.42732959 36.0283016 26.42732959 36.0283016 27.62109375 37.09765625 C28.0399585 36.04787598 28.45882324 34.9980957 28.89038086 33.91650391 C30.44191822 30.02862305 31.99458963 26.14119595 33.54760742 22.25390625 C34.22011861 20.57011103 34.89232053 18.88619225 35.56420898 17.20214844 C36.5289752 14.78418085 37.494846 12.36665708 38.4609375 9.94921875 C38.76200912 9.19395905 39.06308075 8.43869934 39.37327576 7.66055298 C41.50722204 2.32539966 41.50722204 2.32539966 42.62109375 0.09765625 C45.10033176 0.0708053 47.57928215 0.05089078 50.05859375 0.03515625 C50.76564453 0.02677734 51.47269531 0.01839844 52.20117188 0.00976562 C54.00802934 0.00112037 55.81496978 0.04545614 57.62109375 0.09765625 C59.35177074 1.82833324 58.74865904 4.16254429 58.75048828 6.51953125 C58.75364044 7.67743164 58.7567926 8.83533203 58.76004028 10.02832031 C58.75801605 11.28870117 58.75599182 12.54908203 58.75390625 13.84765625 C58.75486298 15.13124023 58.7558197 16.41482422 58.75680542 17.73730469 C58.75828206 20.45769449 58.75612894 23.1780515 58.75146484 25.8984375 C58.74576756 29.39250294 58.74904674 32.88649158 58.75503731 36.3805542 C58.75951129 39.70292778 58.7563826 43.02528048 58.75390625 46.34765625 C58.75593048 47.60803711 58.75795471 48.86841797 58.76004028 50.16699219 C58.75531204 51.90384277 58.75531204 51.90384277 58.75048828 53.67578125 C58.74969269 54.7009082 58.74889709 55.72603516 58.74807739 56.78222656 C58.62109375 59.09765625 58.62109375 59.09765625 57.62109375 60.09765625 C55.62309803 60.19639441 53.62152217 60.22737424 51.62109375 60.22265625 C50.52796875 60.22523438 49.43484375 60.2278125 48.30859375 60.23046875 C45.62109375 60.09765625 45.62109375 60.09765625 44.62109375 59.09765625 C44.46284117 57.09983499 44.36990204 55.09676791 44.3046875 53.09375 C44.26279297 51.87880859 44.22089844 50.66386719 44.17773438 49.41210938 C44.13841797 48.13271484 44.09910156 46.85332031 44.05859375 45.53515625 C44.01541016 44.25189453 43.97222656 42.96863281 43.92773438 41.64648438 C43.82124575 38.46365772 43.71923413 35.28074951 43.62109375 32.09765625 C43.12911499 33.31666626 43.12911499 33.31666626 42.62719727 34.56030273 C41.41226769 37.56715113 40.19507318 40.5730694 38.97631836 43.57836914 C38.44871061 44.88073319 37.9220146 46.18346698 37.39624023 47.48657227 C36.64154463 49.35659559 35.88332571 51.22519579 35.125 53.09375 C34.66939697 54.21966553 34.21379395 55.34558105 33.74438477 56.50561523 C32.62109375 59.09765625 32.62109375 59.09765625 31.62109375 60.09765625 C28.32109375 60.09765625 25.02109375 60.09765625 21.62109375 60.09765625 C15.68109375 44.75265625 15.68109375 44.75265625 9.62109375 29.09765625 C9.29109375 39.32765625 8.96109375 49.55765625 8.62109375 60.09765625 C4.66109375 60.09765625 0.70109375 60.09765625 -3.37890625 60.09765625 C-5.10958324 58.36697926 -4.50647154 56.03276821 -4.50830078 53.67578125 C-4.51145294 52.51788086 -4.5146051 51.35998047 -4.51785278 50.16699219 C-4.51582855 48.90661133 -4.51380432 47.64623047 -4.51171875 46.34765625 C-4.51315384 44.42228027 -4.51315384 44.42228027 -4.51461792 42.45800781 C-4.51609456 39.73761801 -4.51394144 37.017261 -4.50927734 34.296875 C-4.50358006 30.80280956 -4.50685924 27.30882092 -4.51284981 23.8147583 C-4.51732379 20.49238472 -4.5141951 17.17003202 -4.51171875 13.84765625 C-4.51374298 12.58727539 -4.51576721 11.32689453 -4.51785278 10.02832031 C-4.51470062 8.87041992 -4.51154846 7.71251953 -4.50830078 6.51953125 C-4.50710739 4.98184082 -4.50710739 4.98184082 -4.50588989 3.41308594 C-4.30269864 -0.29191932 -3.83628078 0.11087517 0 0 Z " fill="#E6183E" transform="translate(710.37890625,256.90234375)"/>
<path d="M0 0 C1.87075195 -0.0309375 1.87075195 -0.0309375 3.77929688 -0.0625 C13.26556859 -0.10237923 22.94533934 0.37469382 30.08984375 7.3671875 C35.47027982 14.24615351 35.92010489 21.95265899 36 30.375 C36.01023193 31.2098291 36.02046387 32.0446582 36.03100586 32.90478516 C35.91587041 41.07698648 34.14935615 48.70222348 28.38623047 54.75830078 C21.0020095 60.79813881 12.17577112 60.80394846 3.0456543 60.60668945 C0.97224868 60.56190053 -1.0999945 60.5451315 -3.17382812 60.53320312 C-13.2689576 60.4185424 -13.2689576 60.4185424 -14.4375 59.25 C-14.53649561 57.44490627 -14.56549151 55.63593072 -14.56689453 53.828125 C-14.57004669 52.67022461 -14.57319885 51.51232422 -14.57644653 50.31933594 C-14.5744223 49.05895508 -14.57239807 47.79857422 -14.5703125 46.5 C-14.57174759 44.57462402 -14.57174759 44.57462402 -14.57321167 42.61035156 C-14.57468831 39.88996176 -14.57253519 37.16960475 -14.56787109 34.44921875 C-14.56217381 30.95515331 -14.56545299 27.46116467 -14.57144356 23.96710205 C-14.57591754 20.64472847 -14.57278885 17.32237577 -14.5703125 14 C-14.57233673 12.73961914 -14.57436096 11.47923828 -14.57644653 10.18066406 C-14.57329437 9.02276367 -14.57014221 7.86486328 -14.56689453 6.671875 C-14.56570114 5.13418457 -14.56570114 5.13418457 -14.56448364 3.56542969 C-14.23776287 -2.39202249 -4.49268643 0.01807013 0 0 Z M0.5625 13.25 C0.5625 24.47 0.5625 35.69 0.5625 47.25 C13.29972641 48.56106042 13.29972641 48.56106042 17.875 45 C20.80239656 40.22942783 20.74498367 35.81541571 20.75 30.3125 C20.76836914 29.25772461 20.76836914 29.25772461 20.78710938 28.18164062 C20.8010013 23.24074457 20.20085045 19.54369063 17.3125 15.5 C12.61940774 12.14779125 5.93176474 13.25 0.5625 13.25 Z " fill="#E61A3F" transform="translate(602.4375,256.75)"/>
<path d="M0 0 C7.74124045 7.74124045 8.3125 17.96753485 8.3125 28.31396484 C8.1645346 36.15108691 7.2184769 43.99402343 2.1640625 50.28515625 C-5.15469159 57.11318928 -13.18425925 57.63472131 -22.78515625 57.36328125 C-28.34798244 57.01320791 -32.72426403 55.68027564 -37 52 C-44.55188859 43.05489087 -45.74284053 32.31646431 -45 21 C-44.15242214 12.26159167 -41.96790375 5.67756933 -35.4375 -0.375 C-25.55737716 -6.96174856 -9.73516062 -7.31985495 0 0 Z M-28 13 C-29.92084137 16.84168274 -29.2718631 21.52376189 -29.3125 25.75 C-29.34150391 26.74 -29.37050781 27.73 -29.40039062 28.75 C-29.45316188 34.82275404 -29.10204225 38.40327733 -25 43 C-22.56045342 44.21977329 -20.84694151 44.20153813 -18.125 44.25 C-16.82949219 44.28867187 -16.82949219 44.28867187 -15.5078125 44.328125 C-12.36255943 43.91659656 -11.17598221 43.31727976 -9 41 C-7.08234476 36.03235976 -6.66223595 31.27513402 -6.6875 26 C-6.67138672 25.32710938 -6.65527344 24.65421875 -6.63867188 23.9609375 C-6.63373433 18.84563943 -7.70655389 15.46412869 -10 11 C-12.67471043 8.32528957 -14.14805618 8.67056166 -17.875 8.625 C-18.92429687 8.59664063 -19.97359375 8.56828125 -21.0546875 8.5390625 C-24.65786275 9.10295465 -25.75695328 10.19358341 -28 13 Z " fill="#E6163C" transform="translate(690,261)"/>
<path d="M0 0 C1.19947266 -0.020625 2.39894531 -0.04125 3.63476562 -0.0625 C19.81861795 -0.13313329 19.81861795 -0.13313329 25.70678711 4.56079102 C30.06909545 9.39287432 31.5092047 14.74657176 31.3125 21.1640625 C30.68799334 26.37478995 29.23509801 30.15921115 25.375 33.75 C24.611875 34.245 23.84875 34.74 23.0625 35.25 C24.78297503 41.2716626 27.8006934 46.24555571 30.9609375 51.59179688 C31.35796875 52.27693359 31.755 52.96207031 32.1640625 53.66796875 C32.52838379 54.28438232 32.89270508 54.9007959 33.26806641 55.53588867 C34.0625 57.25 34.0625 57.25 34.0625 60.25 C28.7825 60.25 23.5025 60.25 18.0625 60.25 C17.155 58.455625 16.2475 56.66125 15.3125 54.8125 C14.75949219 53.72453125 14.20648438 52.6365625 13.63671875 51.515625 C11.96615449 48.05013685 10.61415591 44.54600564 9.41015625 40.89453125 C7.66631744 38.38857631 7.66631744 38.38857631 1.0625 38.25 C1.0625 45.51 1.0625 52.77 1.0625 60.25 C-9.77734375 60.34765625 -9.77734375 60.34765625 -12.9375 60.25 C-14.66817699 58.51932301 -14.06506529 56.18511196 -14.06689453 53.828125 C-14.07004669 52.67022461 -14.07319885 51.51232422 -14.07644653 50.31933594 C-14.0744223 49.05895508 -14.07239807 47.79857422 -14.0703125 46.5 C-14.07174759 44.57462402 -14.07174759 44.57462402 -14.07321167 42.61035156 C-14.07468831 39.88996176 -14.07253519 37.16960475 -14.06787109 34.44921875 C-14.06217381 30.95515331 -14.06545299 27.46116467 -14.07144356 23.96710205 C-14.07591754 20.64472847 -14.07278885 17.32237577 -14.0703125 14 C-14.07233673 12.73961914 -14.07436096 11.47923828 -14.07644653 10.18066406 C-14.07329437 9.02276367 -14.07014221 7.86486328 -14.06689453 6.671875 C-14.06570114 5.13418457 -14.06570114 5.13418457 -14.06448364 3.56542969 C-13.74153471 -2.32324645 -4.45563311 0.01861361 0 0 Z M1.0625 13.25 C1.0625 17.87 1.0625 22.49 1.0625 27.25 C3.6921875 27.311875 3.6921875 27.311875 6.375 27.375 C7.85419922 27.40980469 7.85419922 27.40980469 9.36328125 27.4453125 C12.28656527 27.45682639 12.28656527 27.45682639 15.0625 25.25 C15.67861847 23.39188086 15.67861847 23.39188086 15.8125 21.3125 C15.88984375 20.62285156 15.9671875 19.93320312 16.046875 19.22265625 C16.17064587 17.03488438 16.17064587 17.03488438 15.0625 14.25 C12.29797967 12.86773984 10.0163637 13.15474613 6.9375 13.1875 C4.99875 13.208125 3.06 13.22875 1.0625 13.25 Z " fill="#E61B40" transform="translate(494.9375,256.75)"/>
<path d="M0 0 C5.28 0 10.56 0 16 0 C18.97601461 5.64283289 21.20243473 11.17680554 23.125 17.25 C25.21292037 23.69970823 27.37404832 30.11542411 29.67578125 36.4921875 C29.90424744 37.12568115 30.13271362 37.7591748 30.36810303 38.41186523 C31.50499954 41.55871295 32.64901443 44.70274003 33.79931641 47.84472656 C34.21487793 48.99166992 34.63043945 50.13861328 35.05859375 51.3203125 C35.43298584 52.34398926 35.80737793 53.36766602 36.19311523 54.42236328 C37 57 37 57 37 60 C32.05 60 27.1 60 22 60 C20.35 56.37 18.7 52.74 17 49 C10.73 49 4.46 49 -2 49 C-2.99 52.63 -3.98 56.26 -5 60 C-9.95 60 -14.9 60 -20 60 C-19.30733791 55.15136535 -18.74276128 51.75981094 -17.14233398 47.34008789 C-16.76201523 46.27951675 -16.38169647 45.21894562 -15.98985291 44.12623596 C-15.57941238 43.00305466 -15.16897186 41.87987335 -14.74609375 40.72265625 C-14.32578384 39.5561705 -13.90547394 38.38968475 -13.47242737 37.18785095 C-12.36097313 34.10698483 -11.24375957 31.02829138 -10.12365723 27.95056152 C-8.97922581 24.80149183 -7.84260536 21.64961712 -6.70507812 18.49804688 C-4.47709084 12.32946063 -2.24077519 6.16395187 0 0 Z M8 15 C3.7164663 25.22217638 3.7164663 25.22217638 2 36 C5.96 36 9.92 36 14 36 C13.3900874 31.01155691 12.36525565 26.39844654 10.9375 21.5625 C10.57527344 20.32628906 10.21304688 19.09007812 9.83984375 17.81640625 C9.56269531 16.88699219 9.28554688 15.95757812 9 15 C8.67 15 8.34 15 8 15 Z " fill="#E6193F" transform="translate(796,257)"/>
<path d="M0 0 C1.64510941 0.00015915 3.29022379 0.00585551 4.93530273 0.01586914 C6.23164894 0.01799156 6.23164894 0.01799156 7.55418396 0.02015686 C10.32578941 0.025773 13.09731528 0.0383282 15.86889648 0.05102539 C17.74324428 0.05603831 19.61759334 0.06060158 21.49194336 0.06469727 C26.09679192 0.07574767 30.70158069 0.09302309 35.30639648 0.11352539 C35.30639648 4.40352539 35.30639648 8.69352539 35.30639648 13.11352539 C27.05639648 13.11352539 18.80639648 13.11352539 10.30639648 13.11352539 C10.30639648 16.74352539 10.30639648 20.37352539 10.30639648 24.11352539 C17.56639648 24.11352539 24.82639648 24.11352539 32.30639648 24.11352539 C32.30639648 27.41352539 32.30639648 30.71352539 32.30639648 34.11352539 C31.30639648 35.11352539 31.30639648 35.11352539 29.26513672 35.22705078 C27.95331421 35.21919556 27.95331421 35.21919556 26.61499023 35.21118164 C25.67075195 35.20795898 24.72651367 35.20473633 23.75366211 35.20141602 C22.76043945 35.19303711 21.7672168 35.1846582 20.74389648 35.17602539 C19.74680664 35.17151367 18.7497168 35.16700195 17.72241211 35.16235352 C15.25038162 35.15052562 12.77838176 35.13258954 10.30639648 35.11352539 C10.63639648 39.07352539 10.96639648 43.03352539 11.30639648 47.11352539 C13.09948242 47.10192383 14.89256836 47.09032227 16.73999023 47.07836914 C19.07462462 47.0689931 21.40926012 47.0598927 23.74389648 47.05102539 C24.92790039 47.04264648 26.1119043 47.03426758 27.33178711 47.02563477 C28.45649414 47.02241211 29.58120117 47.01918945 30.73999023 47.01586914 C31.7821167 47.01063232 32.82424316 47.00539551 33.89794922 47 C36.30639648 47.11352539 36.30639648 47.11352539 37.30639648 48.11352539 C37.40494304 49.75693406 37.4361206 51.40467149 37.43139648 53.05102539 C37.43526367 54.39487305 37.43526367 54.39487305 37.43920898 55.76586914 C37.30639648 58.11352539 37.30639648 58.11352539 36.30639648 60.11352539 C30.6280957 60.13817244 24.94982579 60.15636001 19.27148438 60.16845703 C17.33821063 60.17349795 15.40494072 60.18033058 13.47167969 60.18896484 C10.69912777 60.20104104 7.92662607 60.20675596 5.15405273 60.21118164 C3.8493679 60.21892357 3.8493679 60.21892357 2.51832581 60.2268219 C0.44733834 60.22701724 -1.62354676 60.17560707 -3.69360352 60.11352539 C-5.42428051 58.3828484 -4.82116881 56.04863735 -4.82299805 53.69165039 C-4.82615021 52.53375 -4.82930237 51.37584961 -4.83255005 50.18286133 C-4.83052582 48.92248047 -4.82850159 47.66209961 -4.82641602 46.36352539 C-4.8278511 44.43814941 -4.8278511 44.43814941 -4.82931519 42.47387695 C-4.83079182 39.75348715 -4.82863871 37.03313014 -4.82397461 34.31274414 C-4.81827732 30.8186787 -4.82155651 27.32469006 -4.82754707 23.83062744 C-4.83202106 20.50825386 -4.82889237 17.18590116 -4.82641602 13.86352539 C-4.82844025 12.60314453 -4.83046448 11.34276367 -4.83255005 10.04418945 C-4.82939789 8.88628906 -4.82624573 7.72838867 -4.82299805 6.53540039 C-4.82180466 4.99770996 -4.82180466 4.99770996 -4.82058716 3.42895508 C-4.60949123 -0.42018464 -4.03673372 0.12407173 0 0 Z " fill="#E61C41" transform="translate(541.693603515625,256.886474609375)"/>
<path d="M0 0 C1 1 1 1 1.09765625 3.72265625 C1.08605469 4.82480469 1.07445312 5.92695313 1.0625 7.0625 C1.05347656 8.16722656 1.04445313 9.27195312 1.03515625 10.41015625 C1.02355469 11.26480469 1.01195312 12.11945313 1 13 C0.0821875 12.90460938 -0.835625 12.80921875 -1.78125 12.7109375 C-11.58213233 11.76625046 -11.58213233 11.76625046 -21 14 C-24.52138391 17.29419785 -24.86475931 21.13783967 -25.203125 25.796875 C-25.30251768 32.0586137 -25.32290247 38.47009515 -22 44 C-15.69458052 48.43349807 -5.19972125 46.10764942 2 45 C2.28327872 48.70780366 2.44795002 52.30168094 2 56 C-0.3125 58.125 -0.3125 58.125 -3 59 C-3.99 59.33 -4.98 59.66 -6 60 C-23.8135456 61.22092841 -23.8135456 61.22092841 -31 56 C-36.77778733 50.83578301 -39.7842124 44.62826024 -41 37 C-41.65990826 25.18510412 -41.57126976 14.29354216 -33.734375 4.69140625 C-24.9188289 -3.90573668 -11.05892685 -3.31525816 0 0 Z " fill="#E6173D" transform="translate(469,258)"/>
<path d="M0 0 C1 1 1 1 1.09765625 3.72265625 C1.08605469 4.82480469 1.07445312 5.92695313 1.0625 7.0625 C1.05347656 8.16722656 1.04445313 9.27195312 1.03515625 10.41015625 C1.02355469 11.26480469 1.01195312 12.11945313 1 13 C0.0821875 12.90460938 -0.835625 12.80921875 -1.78125 12.7109375 C-11.59527932 11.71906332 -11.59527932 11.71906332 -21 14 C-25.69938682 19.60894556 -25.56478286 27.01081208 -25 34 C-24.00998001 40.39924825 -24.00998001 40.39924825 -20.25390625 45.26953125 C-13.68037808 47.39994679 -5.71033016 46.22006003 1 45 C1 48.96 1 52.92 1 57 C-4.04741176 59.47126524 -8.20908803 60.52417439 -13.875 60.4375 C-14.57608887 60.42920166 -15.27717773 60.42090332 -15.99951172 60.41235352 C-22.73150159 60.19345868 -27.72052884 58.93120874 -32.765625 54.421875 C-40.69221738 45.87962496 -41.3201424 35.91153869 -41.2109375 24.76171875 C-40.73356126 16.24850918 -38.19255299 9.03913388 -32 3 C-22.64201017 -3.56200506 -10.56973786 -3.1686085 0 0 Z " fill="#E6163C" transform="translate(951,258)"/>
<path d="M0 0 C0.87760986 -0.00315216 1.75521973 -0.00630432 2.65942383 -0.009552 C3.61357178 -0.00752777 4.56771973 -0.00550354 5.55078125 -0.00341797 C6.52362061 -0.00437469 7.49645996 -0.00533142 8.4987793 -0.00631714 C10.56005925 -0.00699905 12.62134133 -0.00514399 14.68261719 -0.00097656 C17.84965813 0.00437153 21.01655725 -0.00092119 24.18359375 -0.00732422 C26.1809899 -0.00666344 28.17838596 -0.00538228 30.17578125 -0.00341797 C31.1299292 -0.0054422 32.08407715 -0.00746643 33.06713867 -0.009552 C34.38355347 -0.00482376 34.38355347 -0.00482376 35.7265625 0 C36.50298096 0.00079559 37.27939941 0.00159119 38.0793457 0.00241089 C39.86328125 0.12939453 39.86328125 0.12939453 40.86328125 1.12939453 C40.96201941 3.12739025 40.99299924 5.12896611 40.98828125 7.12939453 C40.99214844 8.76908203 40.99214844 8.76908203 40.99609375 10.44189453 C40.86328125 13.12939453 40.86328125 13.12939453 39.86328125 14.12939453 C37.5101457 14.20211195 35.15494457 14.21310321 32.80078125 14.19189453 C31.51042969 14.18287109 30.22007812 14.17384766 28.890625 14.16455078 C27.89160156 14.15294922 26.89257812 14.14134766 25.86328125 14.12939453 C25.86550186 14.69093735 25.86772247 15.25248016 25.87001038 15.83103943 C25.89206431 21.65419888 25.9071883 27.47734654 25.91821289 33.30053711 C25.92325433 35.47632326 25.93008732 37.652106 25.9387207 39.82788086 C25.95079463 42.9479252 25.9565113 46.06792492 25.9609375 49.18798828 C25.96609879 50.16714706 25.97126007 51.14630585 25.97657776 52.15513611 C25.97669106 53.50642357 25.97669106 53.50642357 25.97680664 54.88500977 C25.97902725 55.68220932 25.98124786 56.47940887 25.98353577 57.30076599 C25.86328125 59.12939453 25.86328125 59.12939453 24.86328125 60.12939453 C20.24328125 60.12939453 15.62328125 60.12939453 10.86328125 60.12939453 C10.86328125 44.94939453 10.86328125 29.76939453 10.86328125 14.12939453 C5.91328125 14.12939453 0.96328125 14.12939453 -4.13671875 14.12939453 C-5.13671875 13.12939453 -5.13671875 13.12939453 -5.26953125 10.44189453 C-5.26695312 9.34876953 -5.264375 8.25564453 -5.26171875 7.12939453 C-5.26429688 6.03626953 -5.266875 4.94314453 -5.26953125 3.81689453 C-5.05992923 -0.4244639 -3.84141346 0.00393628 0 0 Z " fill="#E30029" transform="translate(835.13671875,256.87060546875)"/>
<path d="M0 0 C4.62 0 9.24 0 14 0 C15 1 15 1 15.12025452 3.36012268 C15.1169236 4.92898476 15.1169236 4.92898476 15.11352539 6.52954102 C15.11344986 7.71068985 15.11337433 8.89183868 15.11329651 10.10877991 C15.10813522 11.3941716 15.10297394 12.67956329 15.09765625 14.00390625 C15.0962413 15.31205795 15.09482635 16.62020966 15.09336853 17.96800232 C15.0895441 21.45162859 15.07971446 24.93521339 15.06866455 28.41882324 C15.05844882 31.97126708 15.05387056 35.52371759 15.04882812 39.07617188 C15.03809212 46.05080004 15.02049593 53.02539376 15 60 C10.05 60 5.1 60 0 60 C0 40.2 0 20.4 0 0 Z " fill="#E61D41" transform="translate(885,257)"/>
<path d="M0 0 C0.87760986 -0.00315216 1.75521973 -0.00630432 2.65942383 -0.009552 C3.61357178 -0.00752777 4.56771973 -0.00550354 5.55078125 -0.00341797 C6.52362061 -0.00437469 7.49645996 -0.00533142 8.4987793 -0.00631714 C10.56005925 -0.00699905 12.62134133 -0.00514399 14.68261719 -0.00097656 C17.84965813 0.00437153 21.01655725 -0.00092119 24.18359375 -0.00732422 C26.1809899 -0.00666344 28.17838596 -0.00538228 30.17578125 -0.00341797 C31.1299292 -0.0054422 32.08407715 -0.00746643 33.06713867 -0.009552 C34.38355347 -0.00482376 34.38355347 -0.00482376 35.7265625 0 C36.50298096 0.00079559 37.27939941 0.00159119 38.0793457 0.00241089 C39.86328125 0.12939453 39.86328125 0.12939453 40.86328125 1.12939453 C40.96201941 3.12739025 40.99299924 5.12896611 40.98828125 7.12939453 C40.99214844 8.76908203 40.99214844 8.76908203 40.99609375 10.44189453 C40.86328125 13.12939453 40.86328125 13.12939453 39.86328125 14.12939453 C37.5101457 14.20211195 35.15494457 14.21310321 32.80078125 14.19189453 C31.51042969 14.18287109 30.22007812 14.17384766 28.890625 14.16455078 C27.89160156 14.15294922 26.89257812 14.14134766 25.86328125 14.12939453 C25.86550186 14.69093735 25.86772247 15.25248016 25.87001038 15.83103943 C25.89206431 21.65419888 25.9071883 27.47734654 25.91821289 33.30053711 C25.92325433 35.47632326 25.93008732 37.652106 25.9387207 39.82788086 C25.95079463 42.9479252 25.9565113 46.06792492 25.9609375 49.18798828 C25.96609879 50.16714706 25.97126007 51.14630585 25.97657776 52.15513611 C25.97669106 53.50642357 25.97669106 53.50642357 25.97680664 54.88500977 C25.97902725 55.68220932 25.98124786 56.47940887 25.98353577 57.30076599 C25.86328125 59.12939453 25.86328125 59.12939453 24.86328125 60.12939453 C20.24328125 60.12939453 15.62328125 60.12939453 10.86328125 60.12939453 C10.86328125 44.94939453 10.86328125 29.76939453 10.86328125 14.12939453 C5.91328125 14.12939453 0.96328125 14.12939453 -4.13671875 14.12939453 C-5.13671875 13.12939453 -5.13671875 13.12939453 -5.26953125 10.44189453 C-5.26695312 9.34876953 -5.264375 8.25564453 -5.26171875 7.12939453 C-5.26429688 6.03626953 -5.266875 4.94314453 -5.26953125 3.81689453 C-5.05992923 -0.4244639 -3.84141346 0.00393628 0 0 Z M-3.13671875 2.12939453 C-3.13671875 5.42939453 -3.13671875 8.72939453 -3.13671875 12.12939453 C1.81328125 12.12939453 6.76328125 12.12939453 11.86328125 12.12939453 C11.86328125 27.63939453 11.86328125 43.14939453 11.86328125 59.12939453 C15.82328125 59.12939453 19.78328125 59.12939453 23.86328125 59.12939453 C24.19328125 43.94939453 24.52328125 28.76939453 24.86328125 13.12939453 C29.81328125 12.79939453 34.76328125 12.46939453 39.86328125 12.12939453 C39.53328125 8.82939453 39.20328125 5.52939453 38.86328125 2.12939453 C25.00328125 2.12939453 11.14328125 2.12939453 -3.13671875 2.12939453 Z " fill="#F39AA9" transform="translate(835.13671875,256.87060546875)"/>
<path d="M0 0 C1.02500107 -0.00087616 1.02500107 -0.00087616 2.07070923 -0.00177002 C4.32207618 0.00100956 6.5721075 0.03209249 8.82324219 0.06347656 C10.38693519 0.07093948 11.95063756 0.07663217 13.51434326 0.08062744 C17.62453151 0.09588002 21.7341519 0.13515796 25.84411621 0.17944336 C30.77830266 0.22760968 35.71267929 0.24593194 40.64703369 0.26925659 C48.13845614 0.30800994 55.62863328 0.38466453 63.12011719 0.45410156 C63.12011719 21.24410156 63.12011719 42.03410156 63.12011719 63.45410156 C19.23011719 63.45410156 -24.65988281 63.45410156 -69.87988281 63.45410156 C-68.04602359 59.78638311 -66.62925452 57.9857516 -63.75488281 55.20410156 C-63.03042969 54.49769531 -62.30597656 53.79128906 -61.55957031 53.06347656 C-61.00527344 52.53238281 -60.45097656 52.00128906 -59.87988281 51.45410156 C-59.21988281 51.78410156 -58.55988281 52.11410156 -57.87988281 52.45410156 C-60.51988281 55.75410156 -63.15988281 59.05410156 -65.87988281 62.45410156 C-23.63988281 62.45410156 18.60011719 62.45410156 62.12011719 62.45410156 C62.12011719 42.32410156 62.12011719 22.19410156 62.12011719 1.45410156 C50.10723966 1.5448048 50.10723966 1.5448048 38.09472656 1.66308594 C33.19623719 1.71744402 28.29786312 1.76855222 23.39916992 1.80053711 C19.45028004 1.82652205 15.50177652 1.86688956 11.55312538 1.91728783 C10.0456758 1.93398927 8.53815933 1.94548312 7.03063011 1.95171547 C4.92096708 1.96132146 2.81229979 1.98933575 0.70288086 2.02172852 C-1.09914543 2.0383831 -1.09914543 2.0383831 -2.93757629 2.05537415 C-5.89730412 2.19997742 -5.89730412 2.19997742 -7.79130554 3.98112488 C-8.15053604 4.46720718 -8.50976654 4.95328949 -8.87988281 5.45410156 C-9.53988281 5.12410156 -10.19988281 4.79410156 -10.87988281 4.45410156 C-7.53771043 0.25699413 -5.26425249 -0.03787232 0 0 Z " fill="#EE6B84" transform="translate(227.8798828125,253.5458984375)"/>
<path d="M0 0 C0.66 0.33 1.32 0.66 2 1 C1.51917969 1.45890625 1.03835937 1.9178125 0.54296875 2.390625 C-1.79401531 6.34279045 -1.57078363 10.23474371 -1.6875 14.75 C-1.72166016 15.63816406 -1.75582031 16.52632813 -1.79101562 17.44140625 C-1.87328714 19.62747803 -1.94250172 21.81315951 -2 24 C14.22897965 23.91613141 30.45784818 23.8210097 46.68667984 23.71247292 C54.22192605 23.66234064 61.75716134 23.61589781 69.29248047 23.578125 C75.85988846 23.54519476 82.42721192 23.50535787 88.99452662 23.45720994 C92.47221053 23.43195514 95.94983843 23.4101709 99.42758942 23.39665604 C103.30892445 23.38144345 107.19005401 23.35081196 111.07128906 23.31884766 C112.22575027 23.31668747 113.38021149 23.31452728 114.56965637 23.31230164 C115.62692429 23.30113815 116.6841922 23.28997467 117.77349854 23.2784729 C118.69160435 23.27294214 119.60971016 23.26741138 120.55563736 23.26171303 C123.13210655 22.98585562 124.78045951 22.30332485 127 21 C125.82388592 22.96993637 125.82388592 22.96993637 124 25 C121.64745045 25.49219131 121.64745045 25.49219131 118.81782532 25.48101807 C117.74510376 25.48651672 116.6723822 25.49201538 115.56715393 25.49768066 C114.39039597 25.48329956 113.213638 25.46891846 112.0012207 25.45410156 C110.76207916 25.45468567 109.52293762 25.45526978 108.24624634 25.45587158 C104.84739191 25.45356034 101.44950634 25.43348554 98.05082345 25.40557575 C94.49942132 25.38058983 90.94800662 25.37822234 87.39653015 25.37347412 C80.67101315 25.361036 73.94575588 25.32820334 67.22035331 25.28807616 C59.56387603 25.24338425 51.90738643 25.22137795 44.25081122 25.20129442 C28.50039033 25.15947123 12.75022864 25.08910323 -3 25 C-3.0867982 21.20847666 -3.14032207 17.41720704 -3.1875 13.625 C-3.21263672 12.54476563 -3.23777344 11.46453125 -3.26367188 10.3515625 C-3.27333984 9.3203125 -3.28300781 8.2890625 -3.29296875 7.2265625 C-3.31653442 5.79691162 -3.31653442 5.79691162 -3.34057617 4.33837891 C-3.22818604 3.56671387 -3.1157959 2.79504883 -3 2 C-2.01 1.34 -1.02 0.68 0 0 Z " fill="#F394A6" transform="translate(13,292)"/>
<path d="M0 0 C6.24796254 -0.02464455 12.49589703 -0.04283343 18.74389648 -0.05493164 C20.87118014 -0.05997298 22.99846031 -0.06680591 25.12573242 -0.07543945 C28.17627826 -0.08751379 31.22677845 -0.09323014 34.27734375 -0.09765625 C35.71327126 -0.10539818 35.71327126 -0.10539818 37.1782074 -0.11329651 C38.49946373 -0.11340981 38.49946373 -0.11340981 39.84741211 -0.11352539 C40.62684677 -0.115746 41.40628143 -0.11796661 42.20933533 -0.12025452 C44 0 44 0 45 1 C45.14355117 5.00220653 45.04216403 8.99441683 45 13 C39.72 13 34.44 13 29 13 C29 12.67 29 12.34 29 12 C33.95 12 38.9 12 44 12 C43.67 8.7 43.34 5.4 43 2 C29.14 2 15.28 2 1 2 C1 5.3 1 8.6 1 12 C0.67 12 0.34 12 0 12 C0 8.04 0 4.08 0 0 Z " fill="#ED6179" transform="translate(831,257)"/>
<path d="M0 0 C0.66 0 1.32 0 2 0 C2 14.19 2 28.38 2 43 C-3 42 -8 41 -13 40 C-13 39.67 -13 39.34 -13 39 C-11.1746875 38.938125 -11.1746875 38.938125 -9.3125 38.875 C-8.62800781 38.85179687 -7.94351563 38.82859375 -7.23828125 38.8046875 C-5 39 -5 39 0 41 C0 27.47 0 13.94 0 0 Z " fill="#ED5F78" transform="translate(949,26)"/>
<path d="M0 0 C0.66 0 1.32 0 2 0 C2 11.55 2 23.1 2 35 C5.63 35 9.26 35 13 35 C13 35.33 13 35.66 13 36 C11.02090602 36.02686553 9.04171029 36.04633375 7.0625 36.0625 C5.96035156 36.07410156 4.85820313 36.08570313 3.72265625 36.09765625 C1 36 1 36 0 35 C-0.1722857 32.49291976 -0.28380005 30.01054557 -0.3515625 27.5 C-0.38629166 26.37368164 -0.38629166 26.37368164 -0.42172241 25.22460938 C-0.46941945 23.63418471 -0.51464643 22.04368438 -0.55761719 20.453125 C-0.62472166 18.01013333 -0.70245518 15.56763934 -0.78125 13.125 C-0.82616268 11.5833519 -0.87045447 10.04168556 -0.9140625 8.5 C-0.93796051 7.76458984 -0.96185852 7.02917969 -0.98648071 6.27148438 C-1.03022392 4.5148617 -1.02052376 2.75704737 -1 1 C-0.67 0.67 -0.34 0.34 0 0 Z " fill="#F18497" transform="translate(755,281)"/>
<path d="M0 0 C1.32 0.33 2.64 0.66 4 1 C4 4.96 4 8.92 4 13 C3.0821875 12.91621094 2.164375 12.83242188 1.21875 12.74609375 C-5.38542041 12.1980586 -11.46668574 11.82400343 -18 13 C-17 11 -17 11 -14 10 C-8.58961227 9.68338523 -3.31398894 9.88126549 2 11 C2 7.7 2 4.4 2 1 C1.34 0.67 0.68 0.34 0 0 Z " fill="#F07B8F" transform="translate(948,258)"/>
<path d="M0 0 C1.32 0.33 2.64 0.66 4 1 C4 4.96 4 8.92 4 13 C3.0821875 12.91621094 2.164375 12.83242188 1.21875 12.74609375 C-5.38542041 12.1980586 -11.46668574 11.82400343 -18 13 C-17 11 -17 11 -15.2109375 10.3828125 C-9.4815738 9.39080253 -3.67094289 9.83672966 2 11 C2 7.7 2 4.4 2 1 C1.34 0.67 0.68 0.34 0 0 Z " fill="#F07E92" transform="translate(466,258)"/>
<path d="M0 0 C0.66 0.33 1.32 0.66 2 1 C0.56354149 2.60509934 -0.87420706 4.20904424 -2.3125 5.8125 C-3.11300781 6.70582031 -3.91351562 7.59914063 -4.73828125 8.51953125 C-8.64426354 12.80329421 -8.64426354 12.80329421 -10 14 C-10.66 14 -11.32 14 -12 14 C-10.41332422 10.09714233 -7.86649519 7.66479018 -4.875 4.75 C-3.96492187 3.85796875 -3.05484375 2.9659375 -2.1171875 2.046875 C-1.41851563 1.37140625 -0.71984375 0.6959375 0 0 Z " fill="#EB4E68" transform="translate(833,36)"/>
<path d="M0 0 C0.66 0.33 1.32 0.66 2 1 C1.51917969 1.45890625 1.03835937 1.9178125 0.54296875 2.390625 C-1.79401531 6.34279045 -1.57078363 10.23474371 -1.6875 14.75 C-1.72166016 15.63816406 -1.75582031 16.52632813 -1.79101562 17.44140625 C-1.87328714 19.62747803 -1.94250172 21.81315951 -2 24 C-2.33 24 -2.66 24 -3 24 C-3.08681476 20.37515001 -3.14032721 16.75056557 -3.1875 13.125 C-3.21263672 12.09246094 -3.23777344 11.05992187 -3.26367188 9.99609375 C-3.27333984 9.00996094 -3.28300781 8.02382813 -3.29296875 7.0078125 C-3.31653442 5.64100342 -3.31653442 5.64100342 -3.34057617 4.24658203 C-3.22818604 3.50520996 -3.1157959 2.76383789 -3 2 C-2.01 1.34 -1.02 0.68 0 0 Z " fill="#F0778D" transform="translate(13,292)"/>
<path d="M0 0 C0.66 0.33 1.32 0.66 2 1 C0.71580959 2.67243402 -0.57757185 4.33781447 -1.875 6 C-2.59429687 6.928125 -3.31359375 7.85625 -4.0546875 8.8125 C-4.69664062 9.534375 -5.33859375 10.25625 -6 11 C-6.66 11 -7.32 11 -8 11 C-7.43040847 7.37386801 -6.07625466 5.74482259 -3.4375 3.25 C-2.79683594 2.63640625 -2.15617188 2.0228125 -1.49609375 1.390625 C-1.00238281 0.93171875 -0.50867188 0.4728125 0 0 Z " fill="#EB546D" transform="translate(168,305)"/>
<path d="M0 0 C-1.45255699 3.82946843 -3.42895561 5.12050295 -7 7 C-3.86206897 0 -3.86206897 0 0 0 Z " fill="#EA4A64" transform="translate(657,260)"/>
</svg>
