<?xml version="1.0" encoding="UTF-8"?>
<svg version="1.1" xmlns="http://www.w3.org/2000/svg" width="512" height="512">
<path d="M0 0 C1.01790619 0.00215515 2.03581238 0.0043103 3.08456421 0.00653076 C17.69363523 0.05620146 32.02575853 0.30709809 46.375 3.3125 C47.34985352 3.51117676 48.32470703 3.70985352 49.32910156 3.91455078 C97.7109774 14.03517194 141.69928269 35.9516877 177.375 70.3125 C178.3640332 71.26068604 178.3640332 71.26068604 179.37304688 72.22802734 C188.86130305 81.37247479 197.6012044 90.66984009 205.375 101.3125 C206.23306152 102.46355017 207.09113451 103.61459177 207.94921875 104.765625 C213.98677396 112.95525981 219.36957302 121.45788276 224.375 130.3125 C224.7771875 131.01971191 225.179375 131.72692383 225.59375 132.45556641 C238.6191741 155.59095836 247.36801461 180.76212409 252.6875 206.75 C252.83485596 207.46889404 252.98221191 208.18778809 253.1340332 208.9284668 C256.10789088 224.57475609 256.74800362 240.04818046 256.6875 255.9375 C256.68534485 256.95540619 256.6831897 257.97331238 256.68096924 259.02206421 C256.63129854 273.63113523 256.38040191 287.96325853 253.375 302.3125 C253.07698486 303.77478027 253.07698486 303.77478027 252.77294922 305.26660156 C242.65232806 353.6484774 220.7358123 397.63678269 186.375 433.3125 C185.74287598 433.97185547 185.11075195 434.63121094 184.45947266 435.31054688 C175.31502521 444.79880305 166.01765991 453.5387044 155.375 461.3125 C154.22394983 462.17056152 153.07290823 463.02863451 151.921875 463.88671875 C143.73224019 469.92427396 135.22961724 475.30707302 126.375 480.3125 C125.66778809 480.7146875 124.96057617 481.116875 124.23193359 481.53125 C101.69703464 494.2185914 77.43201763 502.6719835 52.1875 508.0625 C51.26267822 508.26133789 50.33785645 508.46017578 49.38500977 508.66503906 C33.17831484 511.95691369 17.24462105 512.6878085 0.75 512.625 C-0.77685928 512.62176727 -0.77685928 512.62176727 -2.33456421 512.61846924 C-16.94363523 512.56879854 -31.27575853 512.31790191 -45.625 509.3125 C-47.08728027 509.01448486 -47.08728027 509.01448486 -48.57910156 508.71044922 C-96.9609774 498.58982806 -140.94928269 476.6733123 -176.625 442.3125 C-177.28435547 441.68037598 -177.94371094 441.04825195 -178.62304688 440.39697266 C-188.11130305 431.25252521 -196.8512044 421.95515991 -204.625 411.3125 C-205.48306152 410.16144983 -206.34113451 409.01040823 -207.19921875 407.859375 C-213.23677396 399.66974019 -218.61957302 391.16711724 -223.625 382.3125 C-224.0271875 381.60528809 -224.429375 380.89807617 -224.84375 380.16943359 C-237.8691741 357.03404164 -246.61801461 331.86287591 -251.9375 305.875 C-252.08485596 305.15610596 -252.23221191 304.43721191 -252.3840332 303.6965332 C-255.35789088 288.05024391 -255.99800362 272.57681954 -255.9375 256.6875 C-255.93534485 255.66959381 -255.9331897 254.65168762 -255.93096924 253.60293579 C-255.88129854 238.99386477 -255.63040191 224.66174147 -252.625 210.3125 C-252.42632324 209.33764648 -252.22764648 208.36279297 -252.02294922 207.35839844 C-241.90232806 158.9765226 -219.9858123 114.98821731 -185.625 79.3125 C-184.99287598 78.65314453 -184.36075195 77.99378906 -183.70947266 77.31445312 C-174.56502521 67.82619695 -165.26765991 59.0862956 -154.625 51.3125 C-153.47394983 50.45443848 -152.32290823 49.59636549 -151.171875 48.73828125 C-142.98224019 42.70072604 -134.47961724 37.31792698 -125.625 32.3125 C-124.91778809 31.9103125 -124.21057617 31.508125 -123.48193359 31.09375 C-100.34654164 18.0683259 -75.17537591 9.31948539 -49.1875 4 C-48.46860596 3.85264404 -47.74971191 3.70528809 -47.0090332 3.5534668 C-31.36274391 0.57960912 -15.88931954 -0.06050362 0 0 Z " fill="#40446E" transform="translate(255.625,-0.3125)"/>
<path d="M0 0 C168.63 0 337.26 0 511 0 C511 8.13432537 510.80312817 15.30160098 509.4375 23.1875 C509.26186523 24.21141846 509.08623047 25.23533691 508.90527344 26.2902832 C500.89552706 70.53571836 481.17499308 111.8579382 452 146 C451.36320312 146.74894531 450.72640625 147.49789062 450.0703125 148.26953125 C438.25297532 161.76520621 425.51448412 174.43558025 411 185 C409.85005169 185.85649066 408.70031411 186.71326433 407.55078125 187.5703125 C399.36065742 193.61034209 390.85620382 198.99367614 382 204 C380.93918213 204.60328125 380.93918213 204.60328125 379.85693359 205.21875 C357.32203464 217.9060914 333.05701763 226.3594835 307.8125 231.75 C306.88767822 231.94883789 305.96285645 232.14767578 305.01000977 232.35253906 C288.80331484 235.64441369 272.86962105 236.3753085 256.375 236.3125 C255.35709381 236.31034485 254.33918762 236.3081897 253.29043579 236.30596924 C238.68136477 236.25629854 224.34924147 236.00540191 210 233 C208.53771973 232.70198486 208.53771973 232.70198486 207.04589844 232.39794922 C158.6640226 222.27732806 114.67571731 200.3608123 79 166 C78.34064453 165.36787598 77.68128906 164.73575195 77.00195312 164.08447266 C67.51369695 154.94002521 58.7737956 145.64265991 51 135 C50.14193848 133.84894983 49.28386549 132.69790823 48.42578125 131.546875 C42.38822604 123.35724019 37.00542698 114.85461724 32 106 C31.5978125 105.29278809 31.195625 104.58557617 30.78125 103.85693359 C12.5862741 71.53952914 3.67209716 36.72097162 0 0 Z " fill="#FEFEFE" transform="translate(0,276)"/>
<path d="M0 0 C168.63 0 337.26 0 511 0 C511 13.50524738 511 13.50524738 510.16015625 18.31640625 C509.98419922 19.34701172 509.80824219 20.37761719 509.62695312 21.43945312 C509.44068359 22.47005859 509.25441406 23.50066406 509.0625 24.5625 C508.88009766 25.62791016 508.69769531 26.69332031 508.50976562 27.79101562 C507.17125496 35.48623512 507.17125496 35.48623512 506 39 C341 39 176 39 6 39 C2 20 2 20 0 0 Z " fill="#FEFEFE" transform="translate(0,276)"/>
<path d="M0 0 C165 0 330 0 500 0 C494.22853721 21.93155859 494.22853721 21.93155859 491.25 29.625 C490.94707031 30.43710937 490.64414062 31.24921875 490.33203125 32.0859375 C488.15964033 37.84035967 488.15964033 37.84035967 487 39 C484.48246541 39.09883799 481.99236168 39.13177658 479.4743185 39.12304783 C478.67287553 39.12420167 477.87143256 39.12535552 477.04570344 39.12654433 C474.32540624 39.12921839 471.60516671 39.12468238 468.88487244 39.12025452 C466.92885387 39.12069006 464.97283535 39.12156465 463.01681715 39.12284368 C457.61472314 39.12509201 452.21264875 39.12106277 446.81055725 39.11606562 C440.99525124 39.11176612 435.17994643 39.11320719 429.36463928 39.1139679 C419.28022434 39.11449345 409.19581584 39.11134337 399.11140251 39.10573006 C384.53084973 39.0976193 369.95029944 39.09499693 355.36974473 39.09374207 C331.71646544 39.09163987 308.06318951 39.08489754 284.40991211 39.07543945 C261.42651385 39.06625981 238.44311652 39.05917385 215.4597168 39.05493164 C214.75166582 39.05480011 214.04361484 39.05466859 213.31410778 39.05453308 C206.20377584 39.05321459 199.0934439 39.05193877 191.98311195 39.05069422 C177.49765747 39.04815779 163.01220305 39.04533653 148.52674866 39.04234314 C147.8606842 39.04220585 147.19461974 39.04206856 146.50837151 39.04192711 C102.0055796 39.03272149 57.50278958 39.01685496 13 39 C12.35556287 37.73477588 11.71385593 36.46816093 11.07328796 35.20097351 C10.71564204 34.49577922 10.35799612 33.79058493 9.98951244 33.06402111 C8.68653258 30.34613923 7.76830924 27.58951531 6.89453125 24.70703125 C6.55099609 23.58232422 6.20746094 22.45761719 5.85351562 21.29882812 C5.50998047 20.14833984 5.16644531 18.99785156 4.8125 17.8125 C4.45736328 16.65041016 4.10222656 15.48832031 3.73632812 14.29101562 C2.29183558 9.52446434 0.97814148 4.89070742 0 0 Z " fill="#DB1B1B" transform="translate(6,315)"/>
<path d="M0 0 C1.01790619 0.00215515 2.03581238 0.0043103 3.08456421 0.00653076 C17.69363523 0.05620146 32.02575853 0.30709809 46.375 3.3125 C47.34985352 3.51117676 48.32470703 3.70985352 49.32910156 3.91455078 C78.60790719 10.03915208 105.53123586 20.48797553 131.60546875 35.02734375 C132.31082764 35.42042725 133.01618652 35.81351074 133.74291992 36.21850586 C135.375 37.3125 135.375 37.3125 136.375 39.3125 C97.765 39.3125 59.155 39.3125 19.375 39.3125 C19.375 27.7625 19.375 16.2125 19.375 4.3125 C-10.16558931 11.20101639 -10.16558931 11.20101639 -38.421875 22.0078125 C-50.1034556 27.47804479 -57.74714662 30.70220475 -70.625 28.3125 C-72.275 24.3525 -73.925 20.3925 -75.625 16.3125 C-76.285 16.3125 -76.945 16.3125 -77.625 16.3125 C-80.1 22.2525 -80.1 22.2525 -82.625 28.3125 C-89.06 28.8075 -89.06 28.8075 -95.625 29.3125 C-95.625 30.3025 -95.625 31.2925 -95.625 32.3125 C-93.62973828 34.00797681 -93.62973828 34.00797681 -91.125 35.5 C-90.2896875 36.02980469 -89.454375 36.55960938 -88.59375 37.10546875 C-87.9440625 37.50378906 -87.294375 37.90210938 -86.625 38.3125 C-87.11738577 44.12265203 -87.54737861 48.44589751 -92.05639648 52.64575195 C-93.733416 54.02277604 -95.44543557 55.3313878 -97.1875 56.625 C-97.77724609 57.07939453 -98.36699219 57.53378906 -98.97460938 58.00195312 C-103.35050517 61.3125 -103.35050517 61.3125 -105.625 61.3125 C-106.615 58.8375 -106.615 58.8375 -107.625 56.3125 C-108.615 56.3125 -109.605 56.3125 -110.625 56.3125 C-111.945 60.2725 -113.265 64.2325 -114.625 68.3125 C-119.245 68.6425 -123.865 68.9725 -128.625 69.3125 C-128.625 69.9725 -128.625 70.6325 -128.625 71.3125 C-126.83776059 72.89705866 -126.83776059 72.89705866 -124.625 74.4375 C-123.8825 74.97632812 -123.14 75.51515625 -122.375 76.0703125 C-121.7975 76.48023437 -121.22 76.89015625 -120.625 77.3125 C-121.615 77.8075 -121.615 77.8075 -122.625 78.3125 C-122.89699219 78.88226563 -123.16898438 79.45203125 -123.44921875 80.0390625 C-125.01038129 83.05765585 -127.12006079 85.20676297 -129.4375 87.6875 C-132.24037935 90.70847082 -135.00522553 93.70560711 -137.5625 96.9375 C-139.625 99.3125 -139.625 99.3125 -142.625 100.3125 C-143.87825285 103.09776449 -143.87825285 103.09776449 -144.8125 106.375 C-145.410625 108.334375 -146.00875 110.29375 -146.625 112.3125 C-151.245 112.6425 -155.865 112.9725 -160.625 113.3125 C-158.97643175 117.43653473 -158.97643175 117.43653473 -155.625 119.3125 C-156.28198838 122.54349971 -157.45183311 125.06596706 -159.05859375 127.9375 C-159.54263672 128.80890625 -160.02667969 129.6803125 -160.52539062 130.578125 C-161.03263672 131.48046875 -161.53988281 132.3828125 -162.0625 133.3125 C-163.06180515 135.10382805 -164.06052499 136.89548278 -165.05859375 138.6875 C-165.50259521 139.47898438 -165.94659668 140.27046875 -166.40405273 141.0859375 C-167.52985333 143.13898718 -168.5936074 145.21072642 -169.625 147.3125 C-170.07875 146.6525 -170.5325 145.9925 -171 145.3125 C-171.53625 144.6525 -172.0725 143.9925 -172.625 143.3125 C-173.285 143.3125 -173.945 143.3125 -174.625 143.3125 C-176.275 147.2725 -177.925 151.2325 -179.625 155.3125 C-183.915 155.6425 -188.205 155.9725 -192.625 156.3125 C-192.625 157.3025 -192.625 158.2925 -192.625 159.3125 C-190.63224825 161.22757778 -190.63224825 161.22757778 -188.125 163 C-187.2896875 163.62261719 -186.454375 164.24523437 -185.59375 164.88671875 C-184.9440625 165.35722656 -184.294375 165.82773438 -183.625 166.3125 C-184.29166667 170.97916667 -184.95833333 175.64583333 -185.625 180.3125 C-184.305 180.6425 -182.985 180.9725 -181.625 181.3125 C-183.275 186.5925 -184.925 191.8725 -186.625 197.3125 C-191.245 197.3125 -195.865 197.3125 -200.625 197.3125 C-204.625 186.5625 -204.625 186.5625 -204.625 184.3125 C-208.10594605 186.6331307 -208.2212077 187.423439 -209.25 191.3125 C-210.57436709 196.21123418 -210.57436709 196.21123418 -211.625 198.3125 C-216.245 198.3125 -220.865 198.3125 -225.625 198.3125 C-223.69104999 202.18040003 -222.8446994 203.18884236 -219.5 205.5625 C-218.77554688 206.08328125 -218.05109375 206.6040625 -217.3046875 207.140625 C-216.47324219 207.72070312 -216.47324219 207.72070312 -215.625 208.3125 C-215.75777344 208.89257812 -215.89054687 209.47265625 -216.02734375 210.0703125 C-216.20394531 210.85148438 -216.38054687 211.63265625 -216.5625 212.4375 C-216.73652344 213.20320312 -216.91054687 213.96890625 -217.08984375 214.7578125 C-217.68480855 217.59800945 -218.16415152 220.44776619 -218.625 223.3125 C-217.87734375 222.8071875 -217.1296875 222.301875 -216.359375 221.78125 C-215.37453125 221.1315625 -214.3896875 220.481875 -213.375 219.8125 C-212.40046875 219.1628125 -211.4259375 218.513125 -210.421875 217.84375 C-207.625 216.3125 -207.625 216.3125 -203.625 216.3125 C-201.5546875 217.625 -201.5546875 217.625 -199.5 219.3125 C-196.88674248 221.68439286 -196.88674248 221.68439286 -193.625 222.3125 C-193.82416016 221.42498047 -193.82416016 221.42498047 -194.02734375 220.51953125 C-194.93505178 216.45803475 -195.8341113 212.39875829 -196.625 208.3125 C-193.16 205.8375 -193.16 205.8375 -189.625 203.3125 C-188.31699114 205.92851771 -188.82065866 207.05140884 -189.40234375 209.90234375 C-193.47398566 231.85605222 -192.90707785 252.95783077 -192.625 275.3125 C-213.415 275.3125 -234.205 275.3125 -255.625 275.3125 C-256.08570133 227.24599456 -256.08570133 227.24599456 -252.625 210.3125 C-252.42632324 209.3318457 -252.22764648 208.35119141 -252.02294922 207.34082031 C-241.8976321 158.96683338 -219.98092357 114.9831415 -185.625 79.3125 C-184.99287598 78.65314453 -184.36075195 77.99378906 -183.70947266 77.31445312 C-174.56502521 67.82619695 -165.26765991 59.0862956 -154.625 51.3125 C-153.47394983 50.45443848 -152.32290823 49.59636549 -151.171875 48.73828125 C-142.98224019 42.70072604 -134.47961724 37.31792698 -125.625 32.3125 C-124.91778809 31.9103125 -124.21057617 31.508125 -123.48193359 31.09375 C-100.34654164 18.0683259 -75.17537591 9.31948539 -49.1875 4 C-48.46860596 3.85264404 -47.74971191 3.70528809 -47.0090332 3.5534668 C-31.36274391 0.57960912 -15.88931954 -0.06050362 0 0 Z " fill="#35324C" transform="translate(255.625,-0.3125)"/>
<path d="M0 0 C156.42 0 312.84 0 474 0 C470.62236185 10.13291445 470.62236185 10.13291445 468.2578125 14.62890625 C467.74863281 15.60150391 467.23945313 16.57410156 466.71484375 17.57617188 C466.19019531 18.56166016 465.66554688 19.54714844 465.125 20.5625 C464.34962891 22.0465332 464.34962891 22.0465332 463.55859375 23.56054688 C462.06651681 26.39248636 460.57189609 29.21143456 459 32 C458.78493122 32.65904532 458.56986245 33.31809064 458.34827644 33.99710703 C457.22880889 36.69029758 456.2586745 38.12328156 454 40 C448.33856963 41.25982661 442.69733103 41.04476711 436.92240906 40.96203613 C435.12792053 40.96552387 433.33343595 40.97252694 431.53897315 40.98274946 C426.60146693 41.00067114 421.6653442 40.96859565 416.72801435 40.92852497 C411.40630742 40.89403369 406.08468091 40.90566422 400.76289368 40.91174316 C391.54051355 40.91594161 382.31858558 40.89080446 373.0963192 40.84584045 C359.76248822 40.78087239 346.42887627 40.75999388 333.09490416 40.74993652 C311.46247812 40.73241984 289.83029316 40.67915965 268.19799805 40.60351562 C247.18205981 40.53010321 226.16618702 40.47346615 205.15014648 40.43945312 C203.85510402 40.43735134 202.56006156 40.43524955 201.22577538 40.43308407 C194.72904204 40.4226439 188.23230824 40.41253421 181.73557413 40.40258884 C127.82354944 40.31963124 73.91178647 40.17870521 20 40 C18.09384235 36.70475533 16.1947979 33.40546208 14.296875 30.10546875 C13.49805908 28.72482239 13.49805908 28.72482239 12.68310547 27.31628418 C0 5.22767515 0 5.22767515 0 0 Z " fill="#FEFEFE" transform="translate(19,354)"/>
<path d="M0 0 C142.56 0 285.12 0 432 0 C428.83516272 5.6967071 426.26959202 10.2743005 422.375 15.25 C421.95331543 15.78939209 421.53163086 16.32878418 421.09716797 16.88452148 C416.23193795 23.05838598 411.19419059 29.10052794 406 35 C405.41908026 35.70667037 404.83816051 36.41334074 404.23963714 37.14142537 C401.27456901 39.60200271 399.54575753 39.50495009 395.72049332 39.51453781 C393.77221268 39.53388449 393.77221268 39.53388449 391.78457284 39.55362201 C390.33979911 39.5477372 388.89502692 39.5414663 387.45025635 39.53485107 C385.9180708 39.54232181 384.38589288 39.55152395 382.8537271 39.56231236 C378.6367368 39.58683254 374.42006309 39.58624452 370.20301771 39.58153486 C365.65751192 39.58072002 361.11210866 39.60278256 356.56665039 39.62176514 C347.6583409 39.65502076 338.75013727 39.66598585 329.84177092 39.66821465 C322.60126282 39.67011408 315.3607897 39.67832699 308.12029266 39.69101715 C287.59887224 39.72625304 267.07753556 39.74469337 246.55608466 39.74169526 C245.44928571 39.74153543 244.34248675 39.74137561 243.20214844 39.74121094 C242.09400023 39.74104741 240.98585203 39.74088389 239.84412357 39.74071541 C221.88562771 39.73908967 203.92746737 39.77736229 185.96906856 39.8337644 C167.53611705 39.89120073 149.10332922 39.91884613 130.67028594 39.9153893 C120.31886748 39.91406066 109.96780065 39.92508104 99.61646271 39.9681015 C90.80241763 40.00449758 81.98888352 40.01324342 73.1747959 39.98606381 C68.67732746 39.97298907 64.18083962 39.97282102 59.68346405 40.00747681 C55.56479607 40.03888789 51.447888 40.03326995 47.32926366 39.99834028 C45.84068305 39.99218851 44.35197195 39.9995112 42.86354521 40.02178058 C31.77178824 40.17672008 31.77178824 40.17672008 27.39639997 37.27083826 C25.37126956 35.28047182 23.67661814 33.28672818 22 31 C21.05858184 29.87952891 20.11403452 28.7616656 19.1640625 27.6484375 C18.31123141 26.56234647 17.46492125 25.47110533 16.625 24.375 C16.16947754 23.7874292 15.71395508 23.1998584 15.24462891 22.59448242 C11.87974776 18.22222476 8.60211406 13.78722786 5.375 9.3125 C4.94912598 8.72452637 4.52325195 8.13655273 4.08447266 7.53076172 C2.30211053 5.02488825 0.97913382 2.93740145 0 0 Z " fill="#DB1B1B" transform="translate(40,394)"/>
<path d="M0 0 C78.21 0 156.42 0 237 0 C237 12.87 237 25.74 237 39 C158.79 39 80.58 39 0 39 C0 26.13 0 13.26 0 0 Z " fill="#DB1C1C" transform="translate(275,236)"/>
<path d="M0 0 C76.23 0 152.46 0 231 0 C235 19 235 19 237 39 C158.79 39 80.58 39 0 39 C0 26.13 0 13.26 0 0 Z " fill="#FEFEFE" transform="translate(275,197)"/>
<path d="M0 0 C71.94 0 143.88 0 218 0 C221.74618015 9.36545037 225.18297173 18.24488068 227.875 27.875 C228.18179688 28.94363281 228.48859375 30.01226562 228.8046875 31.11328125 C231 38.8066755 231 38.8066755 231 40 C154.77 40 78.54 40 0 40 C0 26.8 0 13.6 0 0 Z " fill="#DB1D1E" transform="translate(275,157)"/>
<path d="M0 0 C65.34 0 130.68 0 198 0 C218 35 218 35 218 39 C146.06 39 74.12 39 0 39 C0 26.13 0 13.26 0 0 Z " fill="#FEFDFE" transform="translate(275,118)"/>
<path d="M0 0 C89.76 0 179.52 0 272 0 C250.86827894 21.13172106 210.2571785 30.72159287 182 36 C181.19498047 36.16226074 180.38996094 36.32452148 179.56054688 36.49169922 C151.56934616 41.96455505 117.91127604 41.8459259 90 36 C89.02514648 35.80132324 88.05029297 35.60264648 87.04589844 35.39794922 C57.76709281 29.27334792 30.84376414 18.82452447 4.76953125 4.28515625 C4.06417236 3.89207275 3.35881348 3.49898926 2.63208008 3.09399414 C1 2 1 2 0 0 Z " fill="#DB1B1B" transform="translate(120,473)"/>
<path d="M0 0 C21.63594663 -0.18067016 43.27128145 -0.32800276 64.90779114 -0.41449738 C74.9542646 -0.45572789 85.00023572 -0.51192741 95.04638672 -0.60351562 C103.80385744 -0.68331713 112.56096431 -0.73488077 121.31878853 -0.75270796 C125.95513075 -0.76312724 130.5904322 -0.7875677 135.22644043 -0.84584045 C139.59337899 -0.90028459 143.95885176 -0.91686478 148.32609749 -0.90486145 C149.92570027 -0.90705611 151.52535381 -0.92288824 153.1246624 -0.9536438 C165.17692992 -1.17397875 165.17692992 -1.17397875 169.67755127 1.72422791 C171.70243574 3.71439738 173.35627654 5.69102716 175 8 C175.9396683 9.121939 176.88389852 10.24010156 177.8359375 11.3515625 C178.68876859 12.43765353 179.53507875 13.52889467 180.375 14.625 C180.83052246 15.2125708 181.28604492 15.8001416 181.75537109 16.40551758 C185.12025224 20.77777524 188.39788594 25.21277214 191.625 29.6875 C192.05087402 30.27547363 192.47674805 30.86344727 192.91552734 31.46923828 C194.69788947 33.97511175 196.02086618 36.06259855 197 39 C131.99 39 66.98 39 0 39 C0 26.13 0 13.26 0 0 Z " fill="#DB1B1B" transform="translate(275,79)"/>
<path d="M0 0 C15.2218342 -0.27207385 30.44255402 -0.49261323 45.66621304 -0.62174606 C52.73678263 -0.68333002 59.805722 -0.76710447 66.87524414 -0.90527344 C73.0453663 -1.02580558 79.21430703 -1.10251114 85.38557392 -1.12906194 C88.64681324 -1.14455884 91.9039347 -1.18683475 95.16427422 -1.26876068 C111.2665186 -1.65695619 122.21041771 -0.63985069 134.37257576 10.51554108 C136.78605287 12.71700001 139.36095738 14.68057151 141.9375 16.6875 C150.30359884 23.71198541 158.5780009 30.96846475 166 39 C166 39.33 166 39.66 166 40 C111.22 40 56.44 40 0 40 C0 26.8 0 13.6 0 0 Z " fill="#FEFAFB" transform="translate(275,39)"/>
<path d="M0 0 C156.42 0 312.84 0 474 0 C473.67 0.66 473.34 1.32 473 2 C337.7 1.67 202.4 1.34 63 1 C71.08090715 18.12565338 71.08090715 18.12565338 80.3828125 34.26171875 C82 37 82 37 82 39 C266.14 38.505 266.14 38.505 454 38 C454 38.66 454 39.32 454 40 C310.78 40 167.56 40 20 40 C0 5 0 5 0 0 Z " fill="#E1CCCF" transform="translate(19,354)"/>
<path d="M0 0 C122.1 0 244.2 0 370 0 C368 2 368 2 365.80234611 2.24839699 C364.87962571 2.24763755 363.95690531 2.24687811 363.00622368 2.24609566 C361.94328933 2.25007775 360.88035497 2.25405985 359.78521049 2.25816262 C358.01967659 2.24942409 358.01967659 2.24942409 356.21847534 2.24050903 C354.35381219 2.24307231 354.35381219 2.24307231 352.45147908 2.24568737 C348.98983568 2.24842106 345.52841629 2.24213644 342.06679988 2.23213124 C338.33810212 2.22352095 334.60941169 2.22641518 330.88070679 2.22793579 C324.41678084 2.22898618 317.95289516 2.22269353 311.48897934 2.21146011 C302.14316569 2.19522889 292.79737159 2.18999955 283.45154537 2.18748413 C268.28978873 2.18310328 253.12805357 2.16978363 237.96630859 2.15087891 C223.2351899 2.13253017 208.50407703 2.11836875 193.77294922 2.10986328 C192.41166741 2.10907511 192.41166741 2.10907511 191.02288495 2.10827102 C186.47026859 2.10566101 181.9176522 2.10313357 177.36503577 2.10064721 C139.57667535 2.07990258 101.78833934 2.04466647 64 2 C66.56321461 4.41845593 69.12947896 6.83365193 71.69628906 9.24829102 C72.41869781 9.92997597 73.14110657 10.61166092 73.88540649 11.31400299 C78.65178105 15.79397027 83.47765439 20.05692264 88.75 23.9375 C89.38808594 24.42283203 90.02617187 24.90816406 90.68359375 25.40820312 C91.9894264 26.38950173 93.31133549 27.34983128 94.64963913 28.28636169 C97 30 97 30 99.31560135 32.01734924 C108.90893498 39.65944565 118.02997457 39.1223803 129.82324219 39 C131.91367083 39.00761666 134.00408917 39.01874436 136.09448242 39.03309631 C141.73860828 39.06198838 147.38160942 39.04207413 153.02569485 39.0130806 C158.9354271 38.99112693 164.84498043 39.01449558 170.75469971 39.03295898 C181.93172683 39.06104248 193.10832396 39.04864611 204.28533864 39.02153492 C217.01578601 38.99263942 229.74604974 39.00913154 242.47649908 39.02934647 C268.65110553 39.06989746 294.82542924 39.05374199 321 39 C321 39.33 321 39.66 321 40 C286.383592 40.27512476 251.76743511 40.48634676 217.15016854 40.61278395 C213.05624664 40.62779106 208.96232689 40.64332306 204.8684082 40.65917969 C203.64595445 40.66390128 203.64595445 40.66390128 202.39880466 40.66871825 C189.2311722 40.72082625 176.0641733 40.81537985 162.89691574 40.92583355 C149.36949476 41.03835563 135.84240384 41.10476883 122.31453413 41.12906194 C113.97771812 41.14546589 105.64269324 41.19712256 97.30642914 41.2949976 C91.57709079 41.35880713 85.84866785 41.37751801 80.11900062 41.36201653 C76.82040103 41.35438557 73.52553541 41.37214872 70.22735596 41.4304657 C54.32064398 41.6977676 43.67211009 40.41958477 31.63723934 29.48139048 C29.21455597 27.28932241 26.63828847 25.32133595 24.0625 23.3125 C15.69640116 16.28801459 7.4219991 9.03153525 0 1 C0 0.67 0 0.34 0 0 Z " fill="#E0D1D3" transform="translate(71,433)"/>
<path d="M0 0 C40.3182004 3.07986253 83.57056815 14.20277733 117 38 C117 38.33 117 38.66 117 39 C78.39 39 39.78 39 0 39 C0 26.13 0 13.26 0 0 Z " fill="#DB1B1C" transform="translate(275,0)"/>
<path d="M0 0 C7.92020075 -0.23402873 15.83890528 -0.41052464 23.76173306 -0.51812172 C27.44275866 -0.56982451 31.12138231 -0.63965764 34.80102539 -0.75439453 C64.97363612 -1.67032816 64.97363612 -1.67032816 78.39004517 8.80407715 C82.15490898 11.60073117 86.60149101 13.31239313 90.875 15.1875 C91.80078857 15.59838867 92.72657715 16.00927734 93.68041992 16.43261719 C115.43294739 25.96481173 137.67506047 31.67635267 161 36 C161 36.66 161 37.32 161 38 C158.72545649 39.13727176 157.44244822 39.13792033 154.9152832 39.16113281 C154.06789581 39.17058929 153.22050842 39.18004578 152.34744263 39.18978882 C151.42454437 39.19418976 150.50164612 39.1985907 149.55078125 39.203125 C148.5945285 39.21018463 147.63827576 39.21724426 146.65304565 39.22451782 C106.48731558 39.45321457 106.48731558 39.45321457 90 36 C89.02514648 35.80132324 88.05029297 35.60264648 87.04589844 35.39794922 C57.76709281 29.27334792 30.84376414 18.82452447 4.76953125 4.28515625 C4.06417236 3.89207275 3.35881348 3.49898926 2.63208008 3.09399414 C1 2 1 2 0 0 Z " fill="#C21A1A" transform="translate(120,473)"/>
<path d="M0 0 C8.07547965 -0.27892282 16.14892681 -0.49167242 24.2280426 -0.62174606 C27.98042694 -0.68420264 31.72950172 -0.76876942 35.47998047 -0.90527344 C39.10481777 -1.03636796 42.72648995 -1.10753998 46.35351562 -1.13852692 C47.73178984 -1.16058217 49.10990366 -1.20366428 50.48681641 -1.26876068 C54.90664418 -1.46926831 58.78866468 -1.41401427 63 0 C66.54905816 3.5980424 68.70997688 7.53133554 71 12 C71.92404697 13.31802238 72.87258391 14.62026591 73.87109375 15.8828125 C74.29592041 16.42510498 74.72074707 16.96739746 75.15844727 17.52612305 C75.79157837 18.31756714 75.79157837 18.31756714 76.4375 19.125 C76.89632568 19.70483643 77.35515137 20.28467285 77.82788086 20.88208008 C81.45250432 25.41895989 85.26886989 29.75764481 89.22265625 34.01171875 C91 36 91 36 93 39 C84.92422308 39.18595539 76.84935083 39.3278001 68.7719574 39.41449738 C65.02053837 39.45612438 61.27059136 39.51251069 57.52001953 39.60351562 C53.89536248 39.69090763 50.27211417 39.73836794 46.64648438 39.75901794 C45.26849193 39.77371844 43.89057048 39.80242791 42.51318359 39.84584045 C31.76056643 40.17103892 31.76056643 40.17103892 27.41952515 37.28359985 C25.39619912 35.28798551 23.68702167 33.282609 22 31 C21.05813361 29.87990566 20.11350684 28.76211568 19.1640625 27.6484375 C18.31123141 26.56234647 17.46492125 25.47110533 16.625 24.375 C16.16947754 23.7874292 15.71395508 23.1998584 15.24462891 22.59448242 C11.87974776 18.22222476 8.60211406 13.78722786 5.375 9.3125 C4.94912598 8.72452637 4.52325195 8.13655273 4.08447266 7.53076172 C2.30211053 5.02488825 0.97913382 2.93740145 0 0 Z " fill="#C11A1A" transform="translate(40,394)"/>
<path d="M0 0 C20.79 0 41.58 0 63 0 C65.31 7.92 67.62 15.84 70 24 C72.01145241 29.42782338 72.01145241 29.42782338 74.15234375 34.8046875 C75 37 75 37 75 39 C54.54 39 34.08 39 13 39 C10.45558846 33.91117691 8.48609605 29.95740401 6.89453125 24.70703125 C6.55099609 23.58232422 6.20746094 22.45761719 5.85351562 21.29882812 C5.50998047 20.14833984 5.16644531 18.99785156 4.8125 17.8125 C4.45736328 16.65041016 4.10222656 15.48832031 3.73632812 14.29101562 C2.29183558 9.52446434 0.97814148 4.89070742 0 0 Z " fill="#C11A1A" transform="translate(6,315)"/>
<path d="M0 0 C20.79 0 41.58 0 63 0 C63.99 7.92 64.98 15.84 66 24 C66.99 28.95 67.98 33.9 69 39 C48.21 39 27.42 39 6 39 C2 20 2 20 0 0 Z " fill="#DBDADA" transform="translate(0,276)"/>
<path d="M0 0 C5.36787898 1.88869816 8.45991584 4.91983169 11 10 C11.72510195 17.16781104 11.36175138 22.18433149 7 28 C2.70164812 32.02970488 -2.06108564 32.35603254 -7.75390625 32.28125 C-12.34099881 31.70686624 -15.03994553 28.88221222 -18.3125 25.875 C-20.76870815 21.69034908 -21.18079382 17.81363534 -21 13 C-19.35395187 7.09359202 -16.80402955 4.47525542 -12 1 C-8.30506957 -0.84746521 -4.04115396 -0.3419438 0 0 Z " fill="#E44040" transform="translate(486,240)"/>
<path d="M0 0 C0.99 0.33 1.98 0.66 3 1 C4.6635348 4.56630705 5.7531816 8.25954481 7 12 C11.29 12.33 15.58 12.66 20 13 C20.495 14.98 20.495 14.98 21 17 C19.71283353 18.00578589 18.42011342 19.00446798 17.125 20 C16.40570313 20.556875 15.68640625 21.11375 14.9453125 21.6875 C13 23 13 23 11 23 C11.2165625 23.74765625 11.433125 24.4953125 11.65625 25.265625 C11.9346875 26.25046875 12.213125 27.2353125 12.5 28.25 C12.91765625 29.71179687 12.91765625 29.71179687 13.34375 31.203125 C14 34 14 34 14 38 C10.31404538 37.66491322 8.31193775 36.57681749 5.5 34.3125 C3.76226557 32.95154917 3.76226557 32.95154917 2 32 C-1.39997437 32.56666239 -2.9160126 33.93035191 -5.5625 36.125 C-8 38 -8 38 -12 38 C-11.35812082 32.86496656 -10.31727753 28.0056546 -9 23 C-9.53625 22.7525 -10.0725 22.505 -10.625 22.25 C-13.56424252 20.70303025 -16.25754408 18.86985631 -19 17 C-18.67 15.68 -18.34 14.36 -18 13 C-11.565 12.505 -11.565 12.505 -5 12 C-4.360625 10.205625 -3.72125 8.41125 -3.0625 6.5625 C-1.125 1.125 -1.125 1.125 0 0 Z " fill="#D8D8D9" transform="translate(178,15)"/>
<path d="M0 0 C1.32 0.33 2.64 0.66 4 1 C5.046875 2.9609375 5.046875 2.9609375 5.75 5.375 C5.99234375 6.16648437 6.2346875 6.95796875 6.484375 7.7734375 C7 10 7 10 7 13 C11.62 13 16.24 13 21 13 C21 14.32 21 15.64 21 17 C19.03125 18.921875 19.03125 18.921875 16.5 20.75 C15.24703125 21.67039062 15.24703125 21.67039062 13.96875 22.609375 C13.3190625 23.06828125 12.669375 23.5271875 12 24 C12.2165625 24.75925781 12.433125 25.51851562 12.65625 26.30078125 C12.9346875 27.29464844 13.213125 28.28851563 13.5 29.3125 C13.91765625 30.79169922 13.91765625 30.79169922 14.34375 32.30078125 C15 35 15 35 15 38 C10.51951064 37.59268279 8.08841783 35.75521306 4.74609375 32.9609375 C3.03842284 31.80740724 3.03842284 31.80740724 1.0078125 32.19140625 C-1.82252338 33.33124969 -3.9335643 35.06803607 -6.31640625 36.94140625 C-8 38 -8 38 -11 38 C-10.44854729 32.76119922 -9.57077907 28.02649303 -8 23 C-8.721875 22.7525 -9.44375 22.505 -10.1875 22.25 C-13.31873289 20.85834094 -15.541526 19.38823189 -18 17 C-18 15.68 -18 14.36 -18 13 C-13.38 12.67 -8.76 12.34 -4 12 C-2.68 8.04 -1.36 4.08 0 0 Z " fill="#F6F6F8" transform="translate(242,15)"/>
<path d="M0 0 C3 1 3 1 3.94921875 2.70703125 C4.31466797 3.74923828 4.31466797 3.74923828 4.6875 4.8125 C4.93886719 5.49957031 5.19023438 6.18664062 5.44921875 6.89453125 C6 9 6 9 6 13 C10.62 13 15.24 13 20 13 C20.495 14.98 20.495 14.98 21 17 C18.03 18.98 15.06 20.96 12 23 C12.61512818 28.00890086 13.2717552 33.00632136 14 38 C10.31404538 37.66491322 8.31193775 36.57681749 5.5 34.3125 C3.76226557 32.95154917 3.76226557 32.95154917 2 32 C-1.39997437 32.56666239 -2.9160126 33.93035191 -5.5625 36.125 C-8 38 -8 38 -12 38 C-11.855625 37.01 -11.71125 36.02 -11.5625 35 C-10.99074821 31.00590535 -10.49180166 27.00467063 -10 23 C-12.97 21.02 -15.94 19.04 -19 17 C-18.67 15.68 -18.34 14.36 -18 13 C-13.38 13 -8.76 13 -4 13 C-3.8453125 11.453125 -3.8453125 11.453125 -3.6875 9.875 C-3.00872203 6.04916055 -1.88841205 3.36629975 0 0 Z " fill="#F6F6F8" transform="translate(81,228)"/>
<path d="M0 0 C0.99 0 1.98 0 3 0 C4.32 3.96 5.64 7.92 7 12 C13.93 12.495 13.93 12.495 21 13 C20 18 20 18 18.44140625 19.58203125 C17.82136719 19.98808594 17.20132813 20.39414063 16.5625 20.8125 C15.94503906 21.23144531 15.32757813 21.65039062 14.69140625 22.08203125 C13 23 13 23 11 23 C11.2165625 23.66386719 11.433125 24.32773438 11.65625 25.01171875 C11.9346875 25.89472656 12.213125 26.77773437 12.5 27.6875 C12.91765625 28.99267578 12.91765625 28.99267578 13.34375 30.32421875 C13.99850805 32.99391677 14.11831495 35.26396684 14 38 C10.40020192 37.68237076 8.5360319 36.76194661 5.9375 34.375 C3.37075864 31.73209297 3.37075864 31.73209297 1.03515625 32.19140625 C-1.79483094 33.31579655 -3.86017046 35.04918221 -6.21875 36.94140625 C-8 38 -8 38 -12 38 C-11.86722656 37.40832031 -11.73445312 36.81664062 -11.59765625 36.20703125 C-11.42105469 35.41683594 -11.24445313 34.62664062 -11.0625 33.8125 C-10.88847656 33.03519531 -10.71445313 32.25789063 -10.53515625 31.45703125 C-9.99506959 28.97736332 -9.49770422 26.48852108 -9 24 C-12.3 21.36 -15.6 18.72 -19 16 C-18.67 15.01 -18.34 14.02 -18 13 C-13.38 13 -8.76 13 -4 13 C-3.71125 11.5975 -3.4225 10.195 -3.125 8.75 C-2.46276373 5.53342384 -1.57554035 2.88628401 0 0 Z " fill="#F6F6F8" transform="translate(210,228)"/>
<path d="M0 0 C0.99 0.33 1.98 0.66 3 1 C4.67475947 4.90403795 5.75764469 8.93021538 7 13 C13.93 13.495 13.93 13.495 21 14 C19.95732672 18.1706931 19.84279045 18.54040726 16.5625 20.75 C15.94503906 21.17796875 15.32757813 21.6059375 14.69140625 22.046875 C13 23 13 23 11 23 C11.22816406 23.73605469 11.45632812 24.47210938 11.69140625 25.23046875 C12.12259766 26.69419922 12.12259766 26.69419922 12.5625 28.1875 C12.99755859 29.63189453 12.99755859 29.63189453 13.44140625 31.10546875 C14.02461026 34.12752588 13.81178385 36.05929955 13 39 C10.15921909 37.7500564 7.96609026 36.17602101 5.5625 34.25 C2.81585254 32.18701597 2.81585254 32.18701597 -0.5625 32.375 C-2.58321228 33.72214152 -4.30307428 35.09835103 -6.125 36.6875 C-7.07375 37.450625 -8.0225 38.21375 -9 39 C-9.99 38.67 -10.98 38.34 -12 38 C-11.33333333 33.33333333 -10.66666667 28.66666667 -10 24 C-12.97 21.69 -15.94 19.38 -19 17 C-18.67 15.68 -18.34 14.36 -18 13 C-11.565 12.505 -11.565 12.505 -5 12 C-4.360625 10.205625 -3.72125 8.41125 -3.0625 6.5625 C-1.125 1.125 -1.125 1.125 0 0 Z " fill="#FAFAFB" transform="translate(81,142)"/>
<path d="M0 0 C1.32 0.33 2.64 0.66 4 1 C5.046875 2.9609375 5.046875 2.9609375 5.75 5.375 C5.99234375 6.16648438 6.2346875 6.95796875 6.484375 7.7734375 C7 10 7 10 7 13 C11.62 13 16.24 13 21 13 C21 14.32 21 15.64 21 17 C19.03125 18.921875 19.03125 18.921875 16.5 20.75 C15.24703125 21.67039063 15.24703125 21.67039063 13.96875 22.609375 C13.3190625 23.06828125 12.669375 23.5271875 12 24 C12.2165625 24.75925781 12.433125 25.51851562 12.65625 26.30078125 C12.9346875 27.29464844 13.213125 28.28851563 13.5 29.3125 C13.91765625 30.79169922 13.91765625 30.79169922 14.34375 32.30078125 C15 35 15 35 15 38 C10.51951064 37.59268279 8.08841783 35.75521306 4.74609375 32.9609375 C3.03842284 31.80740724 3.03842284 31.80740724 1.0078125 32.19140625 C-1.82252338 33.33124969 -3.9335643 35.06803607 -6.31640625 36.94140625 C-8 38 -8 38 -11 38 C-10.44854729 32.76119922 -9.57077907 28.02649303 -8 23 C-8.53625 22.7525 -9.0725 22.505 -9.625 22.25 C-12.6144977 20.67658016 -15.32247689 19.06899513 -18 17 C-18 15.68 -18 14.36 -18 13 C-13.38 12.67 -8.76 12.34 -4 12 C-2.68 8.04 -1.36 4.08 0 0 Z " fill="#F6F7F8" transform="translate(145,228)"/>
<path d="M0 0 C0.99 0 1.98 0 3 0 C4.32 3.96 5.64 7.92 7 12 C13.93 12.495 13.93 12.495 21 13 C21 17 21 17 19.3203125 18.703125 C18.59585938 19.21359375 17.87140625 19.7240625 17.125 20.25 C16.40570313 20.77078125 15.68640625 21.2915625 14.9453125 21.828125 C13 23 13 23 11 23 C11.2165625 23.66386719 11.433125 24.32773438 11.65625 25.01171875 C11.9346875 25.89472656 12.213125 26.77773437 12.5 27.6875 C12.91765625 28.99267578 12.91765625 28.99267578 13.34375 30.32421875 C13.99850805 32.99391677 14.11831495 35.26396684 14 38 C10.40020192 37.68237076 8.5360319 36.76194661 5.9375 34.375 C3.37075864 31.73209297 3.37075864 31.73209297 1.03515625 32.19140625 C-1.79483094 33.31579655 -3.86017046 35.04918221 -6.21875 36.94140625 C-8 38 -8 38 -12 38 C-11.86722656 37.40832031 -11.73445313 36.81664062 -11.59765625 36.20703125 C-11.42105469 35.41683594 -11.24445313 34.62664062 -11.0625 33.8125 C-10.88847656 33.03519531 -10.71445313 32.25789063 -10.53515625 31.45703125 C-9.99506959 28.97736332 -9.49770422 26.48852108 -9 24 C-12.3 21.36 -15.6 18.72 -19 16 C-18.67 15.01 -18.34 14.02 -18 13 C-13.38 13 -8.76 13 -4 13 C-3.71125 11.5975 -3.4225 10.195 -3.125 8.75 C-2.46276373 5.53342384 -1.57554035 2.88628401 0 0 Z " fill="#F9F9FA" transform="translate(113,99)"/>
<path d="M0 0 C1.32 0.33 2.64 0.66 4 1 C5.046875 2.9609375 5.046875 2.9609375 5.75 5.375 C5.99234375 6.16648437 6.2346875 6.95796875 6.484375 7.7734375 C7 10 7 10 7 13 C11.62 13 16.24 13 21 13 C21 14.32 21 15.64 21 17 C19.03125 18.921875 19.03125 18.921875 16.5 20.75 C15.24703125 21.67039062 15.24703125 21.67039062 13.96875 22.609375 C13.3190625 23.06828125 12.669375 23.5271875 12 24 C12.2165625 24.75925781 12.433125 25.51851562 12.65625 26.30078125 C12.9346875 27.29464844 13.213125 28.28851563 13.5 29.3125 C13.91765625 30.79169922 13.91765625 30.79169922 14.34375 32.30078125 C15 35 15 35 15 38 C10.51951064 37.59268279 8.08841783 35.75521306 4.74609375 32.9609375 C3.03842284 31.80740724 3.03842284 31.80740724 1.0078125 32.19140625 C-1.82252338 33.33124969 -3.9335643 35.06803607 -6.31640625 36.94140625 C-8 38 -8 38 -11 38 C-10.44854729 32.76119922 -9.57077907 28.02649303 -8 23 C-8.53625 22.7525 -9.0725 22.505 -9.625 22.25 C-12.6144977 20.67658016 -15.32247689 19.06899513 -18 17 C-18 15.68 -18 14.36 -18 13 C-13.38 12.67 -8.76 12.34 -4 12 C-2.68 8.04 -1.36 4.08 0 0 Z " fill="#F7F8F9" transform="translate(242,99)"/>
<path d="M0 0 C0.99 0.33 1.98 0.66 3 1 C4.6635348 4.56630705 5.7531816 8.25954481 7 12 C11.29 12.33 15.58 12.66 20 13 C20 14.32 20 15.64 20 17 C18.25 18.703125 18.25 18.703125 16 20.25 C15.2575 20.77078125 14.515 21.2915625 13.75 21.828125 C12.88375 22.40820312 12.88375 22.40820312 12 23 C12.61512818 28.00890086 13.2717552 33.00632136 14 38 C10.31404538 37.66491322 8.31193775 36.57681749 5.5 34.3125 C3.75888074 32.95273896 3.75888074 32.95273896 2 32 C-1.39298596 32.57929029 -3.27018938 34.18372878 -6.125 36.125 C-9 38 -9 38 -12 38 C-11.855625 37.01 -11.71125 36.02 -11.5625 35 C-11.48386719 34.360625 -11.40523437 33.72125 -11.32421875 33.0625 C-11 31 -11 31 -10.39453125 29 C-9.80519808 26.73128885 -9.5263668 25.30952571 -10 23 C-12.67884972 20.15405905 -15.69340862 18.06259112 -19 16 C-18.67 15.01 -18.34 14.02 -18 13 C-11.565 12.505 -11.565 12.505 -5 12 C-4.360625 10.205625 -3.72125 8.41125 -3.0625 6.5625 C-1.125 1.125 -1.125 1.125 0 0 Z " fill="#F8F8F9" transform="translate(178,99)"/>
<path d="M0 0 C1.953125 0.1640625 1.953125 0.1640625 4 1 C5.046875 2.9609375 5.046875 2.9609375 5.75 5.375 C5.99234375 6.16648437 6.2346875 6.95796875 6.484375 7.7734375 C7 10 7 10 7 13 C11.62 13 16.24 13 21 13 C21 14.32 21 15.64 21 17 C19.03125 18.703125 19.03125 18.703125 16.5 20.25 C15.6646875 20.77078125 14.829375 21.2915625 13.96875 21.828125 C13.3190625 22.21484375 12.669375 22.6015625 12 23 C12.13277344 23.59167969 12.26554687 24.18335937 12.40234375 24.79296875 C13.31005178 28.85446525 14.2091113 32.91374171 15 37 C14.01 37.33 13.02 37.66 12 38 C9.60137754 36.58644717 7.47154793 34.93105494 5.25390625 33.25 C3.12695351 31.80118508 3.12695351 31.80118508 0.9375 32.15234375 C-1.82334346 33.36021276 -3.9601942 35.08897228 -6.31640625 36.94140625 C-8 38 -8 38 -11 38 C-10.85636473 36.62476865 -10.70996483 35.24982598 -10.5625 33.875 C-10.48128906 33.10929687 -10.40007812 32.34359375 -10.31640625 31.5546875 C-9.96178358 28.69143782 -9.4743119 25.84587143 -9 23 C-12.3 20.69 -15.6 18.38 -19 16 C-18.67 15.01 -18.34 14.02 -18 13 C-13.38 13 -8.76 13 -4 13 C-3.2884375 10.0609375 -3.2884375 10.0609375 -2.5625 7.0625 C-1.125 1.125 -1.125 1.125 0 0 Z " fill="#FAFAFB" transform="translate(145,55)"/>
<path d="M0 0 C0.99 0 1.98 0 3 0 C3.67057887 1.7902061 4.3363469 3.58221489 5 5.375 C5.556875 6.87160156 5.556875 6.87160156 6.125 8.3984375 C7 11 7 11 7 13 C11.62 13 16.24 13 21 13 C19.90070338 17.39718646 19.44549271 17.79997334 15.9375 20.25 C15.20402344 20.77078125 14.47054687 21.2915625 13.71484375 21.828125 C13.14894531 22.21484375 12.58304688 22.6015625 12 23 C12.144375 23.58007812 12.28875 24.16015625 12.4375 24.7578125 C13.50889428 29.26659675 14.23945936 33.33054247 14 38 C10.83961893 37.40526746 9.02674924 36.41241623 6.5625 34.375 C3.82885642 32.35471092 3.82885642 32.35471092 0.5 31.875 C-2.47693358 33.21462011 -4.83219267 34.97568721 -7.3515625 37.0390625 C-8.16753906 37.51472656 -8.16753906 37.51472656 -9 38 C-9.99 37.67 -10.98 37.34 -12 37 C-11.86722656 36.40832031 -11.73445312 35.81664062 -11.59765625 35.20703125 C-11.42105469 34.41683594 -11.24445313 33.62664062 -11.0625 32.8125 C-10.88847656 32.03519531 -10.71445313 31.25789063 -10.53515625 30.45703125 C-9.99506959 27.97736332 -9.49770422 25.48852108 -9 23 C-12.3 20.69 -15.6 18.38 -19 16 C-18.67 15.01 -18.34 14.02 -18 13 C-11.565 12.505 -11.565 12.505 -5 12 C-3.35 8.04 -1.7 4.08 0 0 Z " fill="#F9F9FA" transform="translate(210,55)"/>
<path d="M0 0 C0.99 0.33 1.98 0.66 3 1 C4.67475947 4.90403795 5.75764469 8.93021538 7 13 C13.93 13.495 13.93 13.495 21 14 C19.95732672 18.1706931 19.84279045 18.54040726 16.5625 20.75 C15.94503906 21.17796875 15.32757813 21.6059375 14.69140625 22.046875 C13 23 13 23 11 23 C11.22816406 23.73605469 11.45632812 24.47210938 11.69140625 25.23046875 C12.12259766 26.69419922 12.12259766 26.69419922 12.5625 28.1875 C12.99755859 29.63189453 12.99755859 29.63189453 13.44140625 31.10546875 C14.02461026 34.12752588 13.81178385 36.05929955 13 39 C10.4140158 37.80646883 8.368576 36.52979064 6.0625 34.8125 C3.24319097 32.80822333 3.24319097 32.80822333 0.5625 32.9375 C-2.49358421 34.20465687 -4.80108237 35.95020773 -7.3515625 38.0390625 C-8.16753906 38.51472656 -8.16753906 38.51472656 -9 39 C-9.99 38.67 -10.98 38.34 -12 38 C-11.35812082 32.86496656 -10.31727753 28.0056546 -9 23 C-9.721875 22.7525 -10.44375 22.505 -11.1875 22.25 C-14.29567538 20.86858872 -16.52723148 19.33146746 -19 17 C-19 16.01 -19 15.02 -19 14 C-14.38 13.67 -9.76 13.34 -5 13 C-4.360625 11.040625 -3.72125 9.08125 -3.0625 7.0625 C-1.125 1.125 -1.125 1.125 0 0 Z " fill="#F8F8FA" transform="translate(178,184)"/>
<path d="M0 0 C1.890625 0.6171875 1.890625 0.6171875 4 2 C5.45711016 5.92549828 6.12557537 9.89020423 7 14 C11.62 14 16.24 14 21 14 C19.90070338 18.39718646 19.44549271 18.79997334 15.9375 21.25 C15.20402344 21.77078125 14.47054687 22.2915625 13.71484375 22.828125 C13.14894531 23.21484375 12.58304688 23.6015625 12 24 C12.144375 24.58007812 12.28875 25.16015625 12.4375 25.7578125 C13.50889428 30.26659675 14.23945936 34.33054247 14 39 C10.91258316 37.91032347 8.67013887 36.75947626 6 34.8125 C3.23614787 32.80482651 3.23614787 32.80482651 0.5625 32.9375 C-2.49358421 34.20465687 -4.80108237 35.95020773 -7.3515625 38.0390625 C-8.16753906 38.51472656 -8.16753906 38.51472656 -9 39 C-9.99 38.67 -10.98 38.34 -12 38 C-11.86722656 37.40832031 -11.73445313 36.81664062 -11.59765625 36.20703125 C-11.42105469 35.41683594 -11.24445313 34.62664062 -11.0625 33.8125 C-10.88847656 33.03519531 -10.71445313 32.25789063 -10.53515625 31.45703125 C-9.99488667 28.97652348 -9.49105628 26.49067284 -9 24 C-9.721875 23.52949219 -10.44375 23.05898437 -11.1875 22.57421875 C-12.115625 21.95160156 -13.04375 21.32898438 -14 20.6875 C-14.928125 20.07261719 -15.85625 19.45773438 -16.8125 18.82421875 C-17.534375 18.22222656 -18.25625 17.62023437 -19 17 C-19 16.01 -19 15.02 -19 14 C-14.38 13.67 -9.76 13.34 -5 13 C-4.360625 11.040625 -3.72125 9.08125 -3.0625 7.0625 C-1.125 1.125 -1.125 1.125 0 0 Z " fill="#F8F8FA" transform="translate(113,184)"/>
<path d="M0 0 C0.99 0.33 1.98 0.66 3 1 C4.6635348 4.56630705 5.7531816 8.25954481 7 12 C11.29 12.33 15.58 12.66 20 13 C20.495 14.98 20.495 14.98 21 17 C19.71283353 18.00578589 18.42011342 19.00446798 17.125 20 C16.40570313 20.556875 15.68640625 21.11375 14.9453125 21.6875 C13 23 13 23 11 23 C11.4640625 24.7634375 11.4640625 24.7634375 11.9375 26.5625 C12.8930401 30.36432975 13.51401158 34.11209261 14 38 C10.31404538 37.66491322 8.31193775 36.57681749 5.5 34.3125 C3.76226557 32.95154917 3.76226557 32.95154917 2 32 C-1.39997437 32.56666239 -2.9160126 33.93035191 -5.5625 36.125 C-8 38 -8 38 -12 38 C-11.40380045 33.13103697 -10.43023178 28.67209049 -9 24 C-9.6496875 23.52949219 -10.299375 23.05898437 -10.96875 22.57421875 C-11.8040625 21.95160156 -12.639375 21.32898438 -13.5 20.6875 C-14.3353125 20.07261719 -15.170625 19.45773438 -16.03125 18.82421875 C-16.6809375 18.22222656 -17.330625 17.62023437 -18 17 C-18 16.01 -18 15.02 -18 14 C-11.565 13.505 -11.565 13.505 -5 13 C-4.360625 11.040625 -3.72125 9.08125 -3.0625 7.0625 C-1.125 1.125 -1.125 1.125 0 0 Z " fill="#D5D5D6" transform="translate(19,228)"/>
<path d="M0 0 C0.66 0 1.32 0 2 0 C4.475 6.435 4.475 6.435 7 13 C13.93 13.495 13.93 13.495 21 14 C19.85201226 18.59195094 19.26471427 18.87820524 15.4375 21.25 C14.61121094 21.77078125 13.78492188 22.2915625 12.93359375 22.828125 C12.29550781 23.21484375 11.65742187 23.6015625 11 24 C11.64684107 27.28082455 12.33193835 30.54932463 13.0625 33.8125 C13.23910156 34.60269531 13.41570313 35.39289063 13.59765625 36.20703125 C13.79681641 37.09455078 13.79681641 37.09455078 14 38 C9.54392768 38 9.19950609 37.64550439 6.0625 34.875 C3.11899957 32.37383175 3.11899957 32.37383175 -0.5625 32.3125 C-3.22589121 34.15638622 -5.87881628 36.00459076 -8.44921875 37.9765625 C-10 39 -10 39 -12 39 C-11.47462276 33.9697924 -10.89405214 28.98114761 -10 24 C-10.6496875 23.52949219 -11.299375 23.05898437 -11.96875 22.57421875 C-12.8040625 21.95160156 -13.639375 21.32898438 -14.5 20.6875 C-15.3353125 20.07261719 -16.170625 19.45773438 -17.03125 18.82421875 C-17.6809375 18.22222656 -18.330625 17.62023437 -19 17 C-19 16.01 -19 15.02 -19 14 C-14.38 14 -9.76 14 -5 14 C-4.54625 12.06125 -4.0925 10.1225 -3.625 8.125 C-2.25 2.25 -2.25 2.25 0 0 Z " fill="#D6D6D6" transform="translate(49,184)"/>
<path d="M0 0 C1.859375 0.15234375 1.859375 0.15234375 4 1 C5.78939376 4.54012777 6.78028962 8.21018561 8 12 C14.93 12.495 14.93 12.495 22 13 C22 13.99 22 14.98 22 16 C19.8125 17.82421875 19.8125 17.82421875 17 19.6875 C16.071875 20.31011719 15.14375 20.93273437 14.1875 21.57421875 C13.1046875 22.27998047 13.1046875 22.27998047 12 23 C12.64684107 26.28082455 13.33193835 29.54932463 14.0625 32.8125 C14.23910156 33.60269531 14.41570312 34.39289063 14.59765625 35.20703125 C14.79681641 36.09455078 14.79681641 36.09455078 15 37 C10.78582541 37 10.53783901 36.94691765 7.625 34.4375 C4.98382961 32.45097868 4.31094906 32.00621898 0.875 31.9375 C-2.34660818 33.12809433 -4.35553794 34.84267569 -7 37 C-8.32 37 -9.64 37 -11 37 C-10.43393721 32.30976546 -9.81462495 27.65499974 -9 23 C-9.6496875 22.52949219 -10.299375 22.05898437 -10.96875 21.57421875 C-11.8040625 20.95160156 -12.639375 20.32898438 -13.5 19.6875 C-14.3353125 19.07261719 -15.170625 18.45773438 -16.03125 17.82421875 C-16.6809375 17.22222656 -17.330625 16.62023437 -18 16 C-18 15.01 -18 14.02 -18 13 C-13.38 13 -8.76 13 -4 13 C-3.525625 11.22625 -3.05125 9.4525 -2.5625 7.625 C-1.125 2.25 -1.125 2.25 0 0 Z " fill="#F9F9FA" transform="translate(242,185)"/>
<path d="M0 0 C4 2 4 2 5.046875 4.8203125 C5.69791667 7.88020833 6.34895833 10.94010417 7 14 C11.62 14 16.24 14 21 14 C19.90070338 18.39718646 19.44549271 18.79997334 15.9375 21.25 C15.20402344 21.77078125 14.47054687 22.2915625 13.71484375 22.828125 C13.14894531 23.21484375 12.58304688 23.6015625 12 24 C12.144375 24.59167969 12.28875 25.18335938 12.4375 25.79296875 C13.40822694 29.92529941 14.27593702 33.7229762 14 38 C10.66737083 37.61912809 9.13140489 37.10840904 6.5 34.9375 C4.19143043 32.87230592 4.19143043 32.87230592 1.625 32.4375 C-1.71751711 33.15375367 -3.65298166 34.74381847 -6.25390625 36.90625 C-8 38 -8 38 -12 38 C-11.86722656 37.40832031 -11.73445312 36.81664062 -11.59765625 36.20703125 C-11.42105469 35.41683594 -11.24445313 34.62664062 -11.0625 33.8125 C-10.88847656 33.03519531 -10.71445313 32.25789063 -10.53515625 31.45703125 C-9.99488667 28.97652348 -9.49105628 26.49067284 -9 24 C-9.721875 23.44570312 -10.44375 22.89140625 -11.1875 22.3203125 C-12.115625 21.59585938 -13.04375 20.87140625 -14 20.125 C-14.928125 19.40570313 -15.85625 18.68640625 -16.8125 17.9453125 C-17.534375 17.30335938 -18.25625 16.66140625 -19 16 C-19 15.34 -19 14.68 -19 14 C-14.38 13.67 -9.76 13.34 -5 13 C-3.35 8.71 -1.7 4.42 0 0 Z " fill="#F9F9FA" transform="translate(210,142)"/>
<path d="M0 0 C0.99 0.33 1.98 0.66 3 1 C4.67475947 4.90403795 5.75764469 8.93021538 7 13 C13.93 13.495 13.93 13.495 21 14 C21 14.99 21 15.98 21 17 C18.8125 18.82421875 18.8125 18.82421875 16 20.6875 C15.071875 21.31011719 14.14375 21.93273437 13.1875 22.57421875 C12.1046875 23.27998047 12.1046875 23.27998047 11 24 C11.64684107 27.28082455 12.33193835 30.54932463 13.0625 33.8125 C13.23910156 34.60269531 13.41570312 35.39289063 13.59765625 36.20703125 C13.79681641 37.09455078 13.79681641 37.09455078 14 38 C10.31404538 37.66491322 8.31193775 36.57681749 5.5 34.3125 C3.76226557 32.95154917 3.76226557 32.95154917 2 32 C-1.39997437 32.56666239 -2.9160126 33.93035191 -5.5625 36.125 C-8 38 -8 38 -12 38 C-11.43393721 33.30976546 -10.81462495 28.65499974 -10 24 C-10.6496875 23.52949219 -11.299375 23.05898437 -11.96875 22.57421875 C-12.8040625 21.95160156 -13.639375 21.32898438 -14.5 20.6875 C-15.3353125 20.07261719 -16.170625 19.45773438 -17.03125 18.82421875 C-17.6809375 18.22222656 -18.330625 17.62023437 -19 17 C-19 16.01 -19 15.02 -19 14 C-14.38 14 -9.76 14 -5 14 C-4.54625 12.06125 -4.0925 10.1225 -3.625 8.125 C-2.25 2.25 -2.25 2.25 0 0 Z " fill="#F9F9FA" transform="translate(146,142)"/>
<path d="M0 0 C0.99 0.33 1.98 0.66 3 1 C4.04111729 3.94519277 4.43536684 6.91623428 5 10 C9.62 10 14.24 10 19 10 C19 14 19 14 17.3203125 15.703125 C16.59585938 16.21359375 15.87140625 16.7240625 15.125 17.25 C14.40570313 17.77078125 13.68640625 18.2915625 12.9453125 18.828125 C11 20 11 20 9 20 C9.433125 21.24716797 9.433125 21.24716797 9.875 22.51953125 C10.24625 23.60621094 10.6175 24.69289063 11 25.8125 C11.556875 27.43091797 11.556875 27.43091797 12.125 29.08203125 C13 32 13 32 13 35 C8.51951064 34.59268279 6.08841783 32.75521306 2.74609375 29.9609375 C1.03842284 28.80740724 1.03842284 28.80740724 -0.9921875 29.19140625 C-3.82252338 30.33124969 -5.9335643 32.06803607 -8.31640625 33.94140625 C-10 35 -10 35 -13 35 C-12.44854729 29.76119922 -11.57077907 25.02649303 -10 20 C-10.99 20.33 -11.98 20.66 -13 21 C-11.3518456 15.96617902 -8.39351949 11.9739509 -5.375 7.6875 C-4.859375 6.94693359 -4.34375 6.20636719 -3.8125 5.44335938 C-2.54605274 3.62577303 -1.27514241 1.81149162 0 0 Z " fill="#D5D3D4" transform="translate(50,102)"/>
<path d="M0 0 C0.18304688 0.64453125 0.36609375 1.2890625 0.5546875 1.953125 C1.90811895 4.37444944 1.90811895 4.37444944 5.2578125 4.609375 C6.53398438 4.65578125 7.81015625 4.7021875 9.125 4.75 C11.04699219 4.83507812 11.04699219 4.83507812 13.0078125 4.921875 C13.99523437 4.94765625 14.98265625 4.9734375 16 5 C15.7578125 6.83203125 15.7578125 6.83203125 15 9 C13.1171875 10.38671875 13.1171875 10.38671875 10.875 11.6875 C8.65736134 13.13711479 8.65736134 13.13711479 7 15 C6.50767101 18.20296792 7.16801506 20.90000134 8 24 C8.185625 25.010625 8.37125 26.02125 8.5625 27.0625 C8.706875 27.701875 8.85125 28.34125 9 29 C4.79408829 29 4.50022201 28.92743991 1.5625 26.4375 C-1.16022711 24.36909828 -1.16022711 24.36909828 -4.5 23.875 C-7.45395936 25.20428171 -9.82627631 26.92460529 -12.3515625 28.94140625 C-14 30 -14 30 -17 30 C-16.75437836 27.29816191 -16.42647678 24.67558066 -16 22 C-15.90847656 21.31421875 -15.81695312 20.6284375 -15.72265625 19.921875 C-13.79549581 11.32132427 -6.21487211 5.73612305 0 0 Z " fill="#D5D5D6" transform="translate(86,63)"/>
<path d="M0 0 C1.20628008 2.33214148 2.1654738 4.49642139 3 7 C7.29 7.33 11.58 7.66 16 8 C16.33 9.32 16.66 10.64 17 12 C15.71283353 13.00578589 14.42011342 14.00446798 13.125 15 C12.40570313 15.556875 11.68640625 16.11375 10.9453125 16.6875 C9 18 9 18 7 18 C7.2165625 18.74765625 7.433125 19.4953125 7.65625 20.265625 C7.9346875 21.25046875 8.213125 22.2353125 8.5 23.25 C8.7784375 24.22453125 9.056875 25.1990625 9.34375 26.203125 C10 29 10 29 10 33 C4.97307937 32.54300722 1.85103739 30.00758252 -2 27 C-4.95409701 28.37154504 -7.44008376 29.98863724 -10 32 C-10.66 31.67 -11.32 31.34 -12 31 C-10.75552866 27.51883146 -9.50339998 24.04046272 -8.25 20.5625 C-7.90195313 19.58861328 -7.55390625 18.61472656 -7.1953125 17.61132812 C-5.03172969 11.62140906 -2.68292129 5.77658592 0 0 Z " fill="#D2CFD1" transform="translate(23,147)"/>
<path d="M0 0 C3.90209164 0.92334746 5.69749115 2.64898086 8.41015625 5.5703125 C9.96492315 8.67984629 9.69660062 11.13298011 9.41015625 14.5703125 C7.38349387 18.27421271 5.92971109 20.22394261 2.41015625 22.5703125 C-1.35888836 23.2523301 -5.04612546 23.40129957 -8.4765625 21.5546875 C-12.30112134 18.48022374 -13.38184555 16.11544198 -14.02734375 11.3203125 C-13.52181116 6.98717597 -12.53523684 5.01891236 -9.56640625 1.90234375 C-6.42335648 -0.21579849 -3.71182715 -0.2575325 0 0 Z " fill="#E44040" transform="translate(449.58984375,244.4296875)"/>
<path d="M0 0 C3 1 3 1 4.5 3.9375 C5.61052954 8.46221954 3.69203157 11.27140353 1.515625 15.17578125 C-0.17049791 18.31770615 -1.50782964 21.49458832 -2.8125 24.8125 C-3.23144531 25.87082031 -3.65039062 26.92914063 -4.08203125 28.01953125 C-4.96796351 30.89598364 -5.03122039 33.02885934 -5 36 C-6.8125 37.875 -6.8125 37.875 -9 39 C-9.99 38.67 -10.98 38.34 -12 38 C-11.33333333 33.33333333 -10.66666667 28.66666667 -10 24 C-12.97 21.69 -15.94 19.38 -19 17 C-18.67 15.68 -18.34 14.36 -18 13 C-11.565 12.505 -11.565 12.505 -5 12 C-4.360625 10.205625 -3.72125 8.41125 -3.0625 6.5625 C-1.125 1.125 -1.125 1.125 0 0 Z " fill="#D6D6D7" transform="translate(81,142)"/>
<path d="M0 0 C0 0.66 0 1.32 0 2 C-1.6796875 3.5078125 -1.6796875 3.5078125 -3.875 5.125 C-4.59429687 5.66382813 -5.31359375 6.20265625 -6.0546875 6.7578125 C-8 8 -8 8 -10 8 C-9.7834375 8.74765625 -9.566875 9.4953125 -9.34375 10.265625 C-9.0653125 11.25046875 -8.786875 12.2353125 -8.5 13.25 C-8.2215625 14.22453125 -7.943125 15.1990625 -7.65625 16.203125 C-7 19 -7 19 -7 23 C-10.68595462 22.66491322 -12.68806225 21.57681749 -15.5 19.3125 C-17.23773443 17.95154917 -17.23773443 17.95154917 -19 17 C-22.39997437 17.56666239 -23.9160126 18.93035191 -26.5625 21.125 C-29 23 -29 23 -33 23 C-33 21.68 -33 20.36 -33 19 C-31.66162109 17.66308594 -31.66162109 17.66308594 -29.7734375 16.484375 C-28.72941772 15.819823 -28.72941772 15.819823 -27.66430664 15.1418457 C-26.90883545 14.68253662 -26.15336426 14.22322754 -25.375 13.75 C-24.6111499 13.27199951 -23.8472998 12.79399902 -23.06030273 12.30151367 C-20.71871295 10.84709951 -18.3634981 9.41849634 -16 8 C-15.29149902 7.57477051 -14.58299805 7.14954102 -13.85302734 6.71142578 C-2.57685503 0 -2.57685503 0 0 0 Z " fill="#F7F7F8" transform="translate(199,30)"/>
<path d="M0 0 C0 0.99 0 1.98 0 3 C-1.4609375 4.38671875 -1.4609375 4.38671875 -3.375 5.6875 C-4.31472656 6.34298828 -4.31472656 6.34298828 -5.2734375 7.01171875 C-7 8 -7 8 -9 8 C-8.7834375 8.66386719 -8.566875 9.32773437 -8.34375 10.01171875 C-8.0653125 10.89472656 -7.786875 11.77773438 -7.5 12.6875 C-7.2215625 13.55761719 -6.943125 14.42773438 -6.65625 15.32421875 C-6.00149195 17.99391677 -5.88168505 20.26396684 -6 23 C-9.59979808 22.68237076 -11.4639681 21.76194661 -14.0625 19.375 C-16.62973357 16.73180555 -16.62973357 16.73180555 -18.96875 17.19140625 C-21.14231916 18.05665397 -22.62472431 19.09302132 -24.4375 20.5625 C-26.90318552 22.41176414 -27.78074466 22.97667496 -30.9375 23.3125 C-31.618125 23.209375 -32.29875 23.10625 -33 23 C-28.90716226 18.54771144 -24.36519641 15.35687064 -19.3125 12.0625 C-18.51537598 11.53688477 -17.71825195 11.01126953 -16.89697266 10.46972656 C-11.35070931 6.83087247 -5.75703035 3.29799729 0 0 Z " fill="#D0CED1" transform="translate(133,30)"/>
<path d="M0 0 C1.32 0.33 2.64 0.66 4 1 C4.66 3.64 5.32 6.28 6 9 C5.46890625 9.21398437 4.9378125 9.42796875 4.390625 9.6484375 C1.09182474 11.51344549 -1.50991708 14.04224242 -4.25 16.625 C-5.08144531 17.3984375 -5.08144531 17.3984375 -5.9296875 18.1875 C-7.2902712 19.45425035 -8.64565837 20.72657815 -10 22 C-12.97 20.02 -15.94 18.04 -19 16 C-18.67 15.01 -18.34 14.02 -18 13 C-13.38 13 -8.76 13 -4 13 C-3.2884375 10.0609375 -3.2884375 10.0609375 -2.5625 7.0625 C-1.125 1.125 -1.125 1.125 0 0 Z " fill="#D6D6D7" transform="translate(145,55)"/>
<path d="M0 0 C4.29 0 8.58 0 13 0 C10.33333333 2.66666667 7.66666667 5.33333333 5 8 C3.02 6.35 1.04 4.7 -1 3 C-0.67 2.01 -0.34 1.02 0 0 Z " fill="#D7D7D8" transform="translate(95,112)"/>
<path d="M0 0 C0 0.99 0 1.98 0 3 C-1.75 4.38671875 -1.75 4.38671875 -4 5.6875 C-4.7425 6.12449219 -5.485 6.56148437 -6.25 7.01171875 C-6.8275 7.33785156 -7.405 7.66398437 -8 8 C-8.66 7.34 -9.32 6.68 -10 6 C-6.7 4.02 -3.4 2.04 0 0 Z " fill="#B59BA5" transform="translate(133,30)"/>
<path d="M0 0 C0 0.66 0 1.32 0 2 C-2.31 3.32 -4.62 4.64 -7 6 C-6.75 4.125 -6.75 4.125 -6 2 C-3.85331506 0.61504198 -2.56128588 0 0 0 Z " fill="#F0F0F3" transform="translate(199,30)"/>
</svg>
